<?xml version="1.0" encoding="utf-8"?>
<!-- Generator: Adobe Illustrator 21.0.0, SVG Export Plug-In . SVG Version: 6.00 Build 0)  -->
<svg version="1.1" id="Capa_1" xmlns="http://www.w3.org/2000/svg" xmlns:xlink="http://www.w3.org/1999/xlink" x="0px" y="0px"
	 viewBox="0 0 102 65.6" style="enable-background:new 0 0 102 65.6;" xml:space="preserve">
<style type="text/css">
	.st0{clip-path:url(#SVGID_2_);}
	.st1{fill:#C2C247;}
	.st2{fill:#00504C;}
	.st3{opacity:0.4;fill:url(#SVGID_3_);}
	.st4{fill:none;}
	.st5{fill:#F5F5F5;}
	.st6{opacity:0.2;}
	.st7{opacity:0.1;fill-rule:evenodd;clip-rule:evenodd;fill:#C2C247;}
	.st8{opacity:0.8;}
	.st9{fill:#FFFFFF;}
	.st10{clip-path:url(#SVGID_5_);}
	.st11{clip-path:url(#SVGID_7_);}
	.st12{fill:#808080;}
	.st13{opacity:8.000000e-02;}
	.st14{clip-path:url(#SVGID_9_);}
	.st15{clip-path:url(#SVGID_11_);}
	.st16{clip-path:url(#SVGID_87_);}
	.st17{clip-path:url(#SVGID_89_);}
	.st18{clip-path:url(#SVGID_103_);}
	.st19{clip-path:url(#SVGID_105_);}
	.st20{fill-rule:evenodd;clip-rule:evenodd;fill:#C2C247;}
	.st21{fill:#4A8E82;}
	.st22{fill:#A8A810;}
	.st23{opacity:0.1;fill:#00504C;}
	.st24{clip-path:url(#SVGID_115_);}
	.st25{clip-path:url(#SVGID_117_);}
	.st26{clip-path:url(#SVGID_119_);}
	.st27{clip-path:url(#SVGID_121_);}
	.st28{clip-path:url(#SVGID_123_);}
	.st29{clip-path:url(#SVGID_125_);}
	.st30{clip-path:url(#SVGID_129_);}
	.st31{clip-path:url(#SVGID_131_);}
	.st32{clip-path:url(#SVGID_135_);}
	.st33{clip-path:url(#SVGID_137_);}
	.st34{clip-path:url(#SVGID_141_);}
	.st35{clip-path:url(#SVGID_143_);}
	.st36{opacity:5.000000e-02;}
	.st37{fill:#F0F0F0;}
	.st38{clip-path:url(#SVGID_147_);}
	.st39{clip-path:url(#SVGID_149_);}
	.st40{clip-path:url(#SVGID_153_);}
	.st41{clip-path:url(#SVGID_155_);}
	.st42{fill-rule:evenodd;clip-rule:evenodd;fill:#FFFFFF;}
	.st43{opacity:0.1;}
	.st44{fill:url(#SVGID_158_);}
	.st45{fill:#C8C8C8;}
	.st46{clip-path:url(#SVGID_160_);}
	.st47{clip-path:url(#SVGID_162_);}
	.st48{clip-path:url(#SVGID_164_);}
	.st49{clip-path:url(#SVGID_166_);}
	.st50{clip-path:url(#SVGID_168_);}
	.st51{clip-path:url(#SVGID_170_);}
	.st52{clip-path:url(#SVGID_172_);}
	.st53{clip-path:url(#SVGID_174_);}
	.st54{clip-path:url(#SVGID_178_);}
	.st55{clip-path:url(#SVGID_180_);}
	.st56{clip-path:url(#SVGID_184_);}
	.st57{clip-path:url(#SVGID_186_);}
	.st58{clip-path:url(#SVGID_190_);}
	.st59{clip-path:url(#SVGID_192_);}
	.st60{clip-path:url(#SVGID_196_);}
	.st61{clip-path:url(#SVGID_198_);}
	.st62{clip-path:url(#SVGID_274_);}
	.st63{clip-path:url(#SVGID_276_);}
	.st64{clip-path:url(#SVGID_290_);}
	.st65{clip-path:url(#SVGID_292_);}
	.st66{fill:#E6E6E6;}
	.st67{clip-path:url(#SVGID_300_);}
	.st68{clip-path:url(#SVGID_302_);}
	.st69{opacity:0.75;clip-path:url(#SVGID_306_);fill:#00504C;}
	.st70{clip-path:url(#SVGID_308_);}
	.st71{clip-path:url(#SVGID_310_);}
	.st72{clip-path:url(#SVGID_314_);}
	.st73{clip-path:url(#SVGID_316_);}
	.st74{fill:url(#SVGID_319_);}
	.st75{clip-path:url(#SVGID_321_);}
	.st76{clip-path:url(#SVGID_323_);}
	.st77{clip-path:url(#SVGID_327_);}
	.st78{clip-path:url(#SVGID_329_);}
	.st79{clip-path:url(#SVGID_331_);}
	.st80{clip-path:url(#SVGID_333_);}
	.st81{clip-path:url(#SVGID_335_);}
	.st82{clip-path:url(#SVGID_337_);}
	.st83{fill:url(#SVGID_338_);}
	.st84{fill:url(#SVGID_339_);}
	.st85{clip-path:url(#SVGID_365_);}
	.st86{clip-path:url(#SVGID_367_);}
	.st87{clip-path:url(#SVGID_373_);}
	.st88{clip-path:url(#SVGID_375_);}
	.st89{opacity:8.000000e-02;fill:#00504C;}
	.st90{opacity:8.000000e-02;fill:#C2C247;}
	.st91{clip-path:url(#SVGID_379_);}
	.st92{clip-path:url(#SVGID_381_);}
	.st93{opacity:0.75;clip-path:url(#SVGID_385_);fill:#00504C;}
	.st94{clip-path:url(#SVGID_387_);}
	.st95{clip-path:url(#SVGID_389_);}
	.st96{clip-path:url(#SVGID_393_);}
	.st97{clip-path:url(#SVGID_395_);}
	.st98{fill:url(#SVGID_398_);}
	.st99{clip-path:url(#SVGID_400_);}
	.st100{clip-path:url(#SVGID_402_);}
	.st101{fill:#F0F1F1;}
	.st102{clip-path:url(#SVGID_412_);}
	.st103{clip-path:url(#SVGID_414_);}
	.st104{opacity:0.2;fill:#3D3845;}
	.st105{clip-path:url(#SVGID_424_);}
	.st106{clip-path:url(#SVGID_426_);}
	.st107{clip-path:url(#SVGID_430_);}
	.st108{clip-path:url(#SVGID_434_);}
	.st109{clip-path:url(#SVGID_436_);}
	.st110{clip-path:url(#SVGID_446_);}
	.st111{clip-path:url(#SVGID_448_);}
	.st112{clip-path:url(#SVGID_452_);}
	.st113{clip-path:url(#SVGID_454_);}
	.st114{opacity:0.5;}
	.st115{clip-path:url(#SVGID_458_);}
	.st116{clip-path:url(#SVGID_460_);}
	.st117{clip-path:url(#SVGID_464_);}
	.st118{clip-path:url(#SVGID_466_);}
	.st119{clip-path:url(#SVGID_470_);}
	.st120{clip-path:url(#SVGID_472_);}
	.st121{fill:url(#SVGID_475_);}
	.st122{fill:url(#SVGID_476_);}
</style>
<g>
	
		<image style="overflow:visible;opacity:0.15;" width="576" height="421" xlink:href="2ACEF985F80EB42C.png"  transform="matrix(1 0 0 1 -551.6196 -59.556)">
	</image>
</g>
<g>
	<path class="st1" d="M20.4,7.9c-0.6-0.3-1.3-0.1-1.6,0.5l0,0L18,9.8c-0.3,0.6-0.1,1.3,0.5,1.6c0.6,0.3,1.3,0.1,1.6-0.5l0.8-1.4
		C21.2,8.9,20.9,8.2,20.4,7.9L20.4,7.9z"/>
	<path class="st1" d="M17.9,12.5c-0.6-0.3-1.3-0.1-1.6,0.5l0,0L9.9,24.9c-0.3,0.6-0.1,1.3,0.5,1.6c0.6,0.3,1.3,0.1,1.6-0.5l6.3-11.9
		C18.7,13.6,18.5,12.8,17.9,12.5L17.9,12.5z"/>
	<path class="st1" d="M87.9,0.7c-0.3-0.6-1-0.9-1.6-0.6L65.8,9.4c-1.5,0.6-2.2,2.3-1.6,3.7c0,0,0,0.1,0.1,0.1l0.6,1.4l-0.3,0.1
		c-2.1,0.4-3.5,0.4-5.7-0.2L53.6,13c-1.6-0.4-3.2-0.4-4.7,0.1l-5.2,1.6c-1,0.3-2,0.9-2.8,1.6c-1.5-0.4-3-0.6-4.5-0.4l0.5-1
		c0.7-1.3,0.2-3-1-3.8c0,0,0,0,0,0L17.2,0.4c-0.6-0.3-1.3-0.1-1.6,0.4c0,0,0,0,0,0L0.1,30.4C-0.2,30.9,0,31.7,0.6,32l18.5,10.4
		c0.4,0.2,0.9,0.4,1.4,0.4c0.3,0,0.5,0,0.8-0.1c0.7-0.2,1.4-0.7,1.7-1.4l0.2-0.3l1.8,1.8l-2.7,3.7c-1.4,2-1,4.7,1,6.1l0.4,0.3
		c0.7,0.5,1.6,0.8,2.5,0.8c0.3,0,0.5,0,0.8-0.1c0,0,0,0.1,0,0.1c0.2,1.1,0.8,2.2,1.8,2.8l0.4,0.3c0.7,0.5,1.6,0.8,2.5,0.8
		c0.3,0,0.5,0,0.8-0.1c0,0,0,0.1,0,0.1c0.2,1.1,0.8,2.2,1.8,2.8l0.4,0.3c0.7,0.5,1.6,0.8,2.5,0.8c0.3,0,0.5,0,0.8-0.1
		c0.2,1.2,0.8,2.2,1.8,2.9l0.4,0.3c2,1.4,4.7,1,6.1-1l1.2-1.7l2,1.6c2.1,1.8,5.2,1.5,7-0.5c0.7-0.8,1.1-1.8,1.2-2.8
		c2.6,0.9,5.4-0.5,6.3-3.1c0.1-0.4,0.2-0.8,0.3-1.2c2.6,0.9,5.4-0.5,6.3-3.1c0.1-0.3,0.2-0.7,0.2-1c0.6,0.3,1.3,0.4,2,0.4
		c0.1,0,0.3,0,0.4,0c1.3-0.1,2.5-0.7,3.4-1.7l0.1-0.1c0.9-1,1.3-2.4,1.1-3.7c-0.1-1.2-0.8-2.4-1.7-3.2l-1.2-1
		c0.9-0.6,1.7-1.3,2.4-2.1c0.5,0.8,1.4,1.4,2.4,1.4c0.4,0,0.8-0.1,1.1-0.2l0,0l20.5-9.6c0.4-0.2,0.7-0.7,0.7-1.1
		c0-0.2-0.1-0.3-0.1-0.5L87.9,0.7z M21.1,39.8c-0.2,0.4-0.6,0.5-1,0.3c0,0,0,0,0,0L2.8,30.4L17.1,3.1l17.3,9.9
		c0.3,0.2,0.5,0.6,0.3,1L21.1,39.8z M27.9,50.4c-0.6,0.9-1.8,1.1-2.7,0.4l-0.4-0.3c-0.9-0.6-1.1-1.8-0.4-2.7l0,0l5.5-7.6
		c0.6-0.9,1.8-1.1,2.7-0.4l0.4,0.3c0.9,0.6,1.1,1.8,0.4,2.7l0,0L27.9,50.4z M33.4,54.4c-0.6,0.9-1.8,1.1-2.7,0.4l-0.4-0.3
		c-0.9-0.6-1.1-1.8-0.4-2.7l4-5.6c0.6-0.9,1.8-1.1,2.7-0.4l0.4,0.3c0.9,0.6,1.1,1.8,0.4,2.7L33.4,54.4z M39,58.4
		c-0.6,0.9-1.8,1.1-2.7,0.4l-0.4-0.3c-0.9-0.6-1.1-1.8-0.4-2.7l2.9-4c0.6-0.9,1.8-1.1,2.7-0.4l0.4,0.3c0.9,0.6,1.1,1.8,0.4,2.7
		L39,58.4z M46.2,60l-1.7,2.4c-0.6,0.9-1.8,1.1-2.7,0.4l-0.4-0.3c-0.9-0.6-1.1-1.8-0.4-2.7l1.7-2.4c0.6-0.9,1.8-1.1,2.7-0.4l0.4,0.3
		C46.6,57.9,46.8,59.1,46.2,60L46.2,60z M72.9,41l0.1,0.1L69.5,38c-0.4-0.4-0.9-0.8-1.3-1.2l-7.1-7c-0.3-0.3-0.8-0.3-1.1,0
		c-0.1,0.1-0.2,0.3-0.2,0.5c0.1,1,0.4,1.9,1.1,2.7l5.6,5.5c0.4,0.4,0.8,0.8,1.3,1.2l6.8,5.9c0.5,0.4,0.8,1.1,0.8,1.7
		c0,0.6-0.2,1.3-0.6,1.8l0,0C74.3,49.6,73.7,50,73,50c-0.7,0.1-1.3-0.2-1.8-0.6l-7.3-6.3c-0.5-0.4-1.3-0.4-1.7,0.1
		c-0.5,0.5-0.4,1.3,0.1,1.7c0,0,0,0,0,0l0,0l5.3,4.6c1.1,0.9,1.2,2.5,0.3,3.6c-0.9,1.1-2.5,1.2-3.6,0.3L59,48.8
		c-0.5-0.4-1.3-0.4-1.7,0.1c-0.4,0.5-0.4,1.3,0.1,1.7c0,0,0,0,0,0l3.7,3.2c1.1,0.9,1.2,2.5,0.3,3.6c-0.9,1.1-2.5,1.2-3.6,0.3
		c0,0,0,0,0,0l-3.6-3.1c-0.5-0.4-1.3-0.4-1.7,0.1C52,55,52,55.8,52.5,56.2c0,0,0,0,0,0l2,1.7c1.1,0.9,1.2,2.5,0.3,3.6
		c-0.9,1.1-2.5,1.2-3.6,0.3l0,0l-2.4-1.9c0.4-1.7-0.2-3.5-1.7-4.6L46.8,55c-0.7-0.5-1.4-0.8-2.2-0.8c0.4-1.7-0.3-3.5-1.7-4.5
		l-0.4-0.3c-0.7-0.5-1.4-0.8-2.2-0.8c0.4-1.7-0.3-3.5-1.7-4.5L38,43.8c-0.6-0.4-1.3-0.7-2.1-0.8c0.6-1.8-0.1-3.7-1.6-4.8l-0.4-0.3
		c-2-1.4-4.7-1-6.1,1l-1.3,1.8l-2.1-2.1l10.5-20c1.4-0.4,2.8-0.4,4.2-0.2c-0.2,0.3-0.4,0.7-0.5,1.1l-4.2,11.6
		c-0.2,0.6,0.1,1.2,0.7,1.5l0.3,0.2c2.5,1.1,5.4,0.9,7.7-0.6c2-1.3,3.3-3.4,3.5-5.8v0c0-0.2,0.1-0.4,0.1-0.6
		c0.2-0.6,0.6-1.8,1.5-2.2c0.2-0.1,0.5-0.1,0.7,0l2,0.6c0.8,0.2,1.6,0.7,2.2,1.3l3,3c0.7,0.7,1.4,0.8,1.9,0.4
		c0.5-0.4,0.6-1.2,0.2-1.7c0,0-0.1-0.1-0.1-0.1l-3.3-3.3c-0.9-0.9-2-1.6-3.3-1.9L49.1,21c-0.1,0-0.2,0-0.3,0c-1.6,0-2.9,0.9-3.8,2.5
		c-0.3,0.6-0.6,1.3-0.7,2c0,0.1,0,0.3-0.1,0.4l0,0.2c-0.2,1.6-1.1,3.1-2.4,4c-1.4,0.9-3.1,1.1-4.7,0.6l3.8-10.4
		c0.7-1.6,2-2.8,3.6-3.3l5.2-1.6c1.1-0.3,2.3-0.4,3.4-0.1l5.3,1.5c2.6,0.7,4.4,0.8,6.9,0.2l0.8-0.3l10,21.3
		C75.3,39.3,74.2,40.3,72.9,41L72.9,41z M80.5,39.1c-0.3,0.1-0.6,0.2-0.9,0c-0.3-0.1-0.6-0.3-0.7-0.6l-12-25.5
		c-0.2-0.4-0.2-0.9,0-1.2c0.2-0.3,0.4-0.5,0.7-0.6l18.6-8.5l13,27.6L80.5,39.1z"/>
</g>
</svg>
