<?xml version="1.0" encoding="utf-8"?>
<!-- Generator: Adobe Illustrator 21.0.0, SVG Export Plug-In . SVG Version: 6.00 Build 0)  -->
<svg version="1.1" id="Capa_1" xmlns="http://www.w3.org/2000/svg" xmlns:xlink="http://www.w3.org/1999/xlink" x="0px" y="0px"
	 viewBox="0 0 74.1 74.1" style="enable-background:new 0 0 74.1 74.1;" xml:space="preserve">
<style type="text/css">
	.st0{clip-path:url(#SVGID_2_);}
	.st1{fill:#C2C247;}
	.st2{fill:#00504C;}
	.st3{opacity:0.4;fill:url(#SVGID_3_);}
	.st4{fill:none;}
	.st5{fill:#F5F5F5;}
	.st6{opacity:0.2;}
	.st7{opacity:0.1;fill-rule:evenodd;clip-rule:evenodd;fill:#C2C247;}
	.st8{opacity:0.8;}
	.st9{fill:#FFFFFF;}
	.st10{clip-path:url(#SVGID_5_);}
	.st11{clip-path:url(#SVGID_7_);}
	.st12{fill:#808080;}
	.st13{opacity:8.000000e-02;}
	.st14{clip-path:url(#SVGID_9_);}
	.st15{clip-path:url(#SVGID_11_);}
	.st16{clip-path:url(#SVGID_87_);}
	.st17{clip-path:url(#SVGID_89_);}
	.st18{clip-path:url(#SVGID_103_);}
	.st19{clip-path:url(#SVGID_105_);}
	.st20{fill-rule:evenodd;clip-rule:evenodd;fill:#C2C247;}
	.st21{fill:#4A8E82;}
	.st22{fill:#A8A810;}
	.st23{opacity:0.1;fill:#00504C;}
	.st24{clip-path:url(#SVGID_115_);}
	.st25{clip-path:url(#SVGID_117_);}
	.st26{clip-path:url(#SVGID_119_);}
	.st27{clip-path:url(#SVGID_121_);}
	.st28{clip-path:url(#SVGID_123_);}
	.st29{clip-path:url(#SVGID_125_);}
	.st30{clip-path:url(#SVGID_129_);}
	.st31{clip-path:url(#SVGID_131_);}
	.st32{clip-path:url(#SVGID_135_);}
	.st33{clip-path:url(#SVGID_137_);}
	.st34{clip-path:url(#SVGID_141_);}
	.st35{clip-path:url(#SVGID_143_);}
	.st36{opacity:5.000000e-02;}
	.st37{fill:#F0F0F0;}
	.st38{clip-path:url(#SVGID_147_);}
	.st39{clip-path:url(#SVGID_149_);}
	.st40{clip-path:url(#SVGID_153_);}
	.st41{clip-path:url(#SVGID_155_);}
	.st42{fill-rule:evenodd;clip-rule:evenodd;fill:#FFFFFF;}
	.st43{opacity:0.1;}
	.st44{fill:url(#SVGID_158_);}
	.st45{fill:#C8C8C8;}
	.st46{clip-path:url(#SVGID_160_);}
	.st47{clip-path:url(#SVGID_162_);}
	.st48{clip-path:url(#SVGID_164_);}
	.st49{clip-path:url(#SVGID_166_);}
	.st50{clip-path:url(#SVGID_168_);}
	.st51{clip-path:url(#SVGID_170_);}
	.st52{clip-path:url(#SVGID_172_);}
	.st53{clip-path:url(#SVGID_174_);}
	.st54{clip-path:url(#SVGID_178_);}
	.st55{clip-path:url(#SVGID_180_);}
	.st56{clip-path:url(#SVGID_184_);}
	.st57{clip-path:url(#SVGID_186_);}
	.st58{clip-path:url(#SVGID_190_);}
	.st59{clip-path:url(#SVGID_192_);}
	.st60{clip-path:url(#SVGID_196_);}
	.st61{clip-path:url(#SVGID_198_);}
	.st62{clip-path:url(#SVGID_274_);}
	.st63{clip-path:url(#SVGID_276_);}
	.st64{clip-path:url(#SVGID_290_);}
	.st65{clip-path:url(#SVGID_292_);}
	.st66{fill:#E6E6E6;}
	.st67{clip-path:url(#SVGID_300_);}
	.st68{clip-path:url(#SVGID_302_);}
	.st69{opacity:0.75;clip-path:url(#SVGID_306_);fill:#00504C;}
	.st70{clip-path:url(#SVGID_308_);}
	.st71{clip-path:url(#SVGID_310_);}
	.st72{clip-path:url(#SVGID_314_);}
	.st73{clip-path:url(#SVGID_316_);}
	.st74{fill:url(#SVGID_319_);}
	.st75{clip-path:url(#SVGID_321_);}
	.st76{clip-path:url(#SVGID_323_);}
	.st77{clip-path:url(#SVGID_327_);}
	.st78{clip-path:url(#SVGID_329_);}
	.st79{clip-path:url(#SVGID_331_);}
	.st80{clip-path:url(#SVGID_333_);}
	.st81{clip-path:url(#SVGID_335_);}
	.st82{clip-path:url(#SVGID_337_);}
	.st83{fill:url(#SVGID_338_);}
	.st84{fill:url(#SVGID_339_);}
	.st85{clip-path:url(#SVGID_365_);}
	.st86{clip-path:url(#SVGID_367_);}
	.st87{clip-path:url(#SVGID_373_);}
	.st88{clip-path:url(#SVGID_375_);}
	.st89{opacity:8.000000e-02;fill:#00504C;}
	.st90{opacity:8.000000e-02;fill:#C2C247;}
	.st91{clip-path:url(#SVGID_379_);}
	.st92{clip-path:url(#SVGID_381_);}
	.st93{opacity:0.75;clip-path:url(#SVGID_385_);fill:#00504C;}
	.st94{clip-path:url(#SVGID_387_);}
	.st95{clip-path:url(#SVGID_389_);}
	.st96{clip-path:url(#SVGID_393_);}
	.st97{clip-path:url(#SVGID_395_);}
	.st98{fill:url(#SVGID_398_);}
	.st99{clip-path:url(#SVGID_400_);}
	.st100{clip-path:url(#SVGID_402_);}
	.st101{fill:#F0F1F1;}
	.st102{clip-path:url(#SVGID_412_);}
	.st103{clip-path:url(#SVGID_414_);}
	.st104{opacity:0.2;fill:#3D3845;}
	.st105{clip-path:url(#SVGID_424_);}
	.st106{clip-path:url(#SVGID_426_);}
	.st107{clip-path:url(#SVGID_430_);}
	.st108{clip-path:url(#SVGID_434_);}
	.st109{clip-path:url(#SVGID_436_);}
	.st110{clip-path:url(#SVGID_446_);}
	.st111{clip-path:url(#SVGID_448_);}
	.st112{clip-path:url(#SVGID_452_);}
	.st113{clip-path:url(#SVGID_454_);}
	.st114{opacity:0.5;}
	.st115{clip-path:url(#SVGID_458_);}
	.st116{clip-path:url(#SVGID_460_);}
	.st117{clip-path:url(#SVGID_464_);}
	.st118{clip-path:url(#SVGID_466_);}
	.st119{clip-path:url(#SVGID_470_);}
	.st120{clip-path:url(#SVGID_472_);}
	.st121{fill:url(#SVGID_475_);}
	.st122{fill:url(#SVGID_476_);}
</style>
<g>
	
		<image style="overflow:visible;opacity:0.15;" width="647" height="412" xlink:href="2ADFCF9F6C2B5CBE.png"  transform="matrix(1 0 0 1 -586.5724 -54.7059)">
	</image>
	<g>
		<g>
			<defs>
				<rect id="SVGID_334_" x="-481.2" y="0" width="435.2" height="302.6"/>
			</defs>
			<clipPath id="SVGID_2_">
				<use xlink:href="#SVGID_334_"  style="overflow:visible;"/>
			</clipPath>
			<g class="st0">
				
					<image style="overflow:visible;" width="1500" height="844" id="MLgu7k_1_" xlink:href="2ADFCF9F6C2B5CC2.jpg"  transform="matrix(0.3585 0 0 0.3585 -532.2238 0)">
				</image>
			</g>
		</g>
	</g>
</g>
<g>
	<path class="st1" d="M68.1,55v-2.4h3.6V43h2.4v-7.2h-4.8v-9.3c0-2.8-1.9-5.2-4.7-5.8l-6.1-1.3v-1.7c2.2-1.5,3.6-4,3.6-6.9V8.4
		c0-4.6-3.8-8.4-8.4-8.4H0v40.6h33.5V43h2.4v2.5c-3.4,0.6-6,3.5-6,7.1V55c0,2.1,0.9,4,2.4,5.3v2.1l-4.9,1.4
		c-0.9,0.3-1.7,0.8-2.3,1.5c-0.6-0.7-1.4-1.2-2.3-1.5l-4.9-1.4v-2.1c1.5-1.3,2.4-3.2,2.4-5.3v-2.4c0-4-3.2-7.2-7.2-7.2
		S6,48.6,6,52.6V55c0,2.1,0.9,4,2.4,5.3v2.1l-4.9,1.4c-2,0.6-3.5,2.5-3.5,4.6v5.7h74.1v-5.7c0-2.1-1.4-4-3.5-4.6l-4.9-1.4v-2.1
		C67.2,59,68.1,57.1,68.1,55z M65.7,55c0,2.6-2.1,4.8-4.8,4.8c-2.6,0-4.8-2.1-4.8-4.8v-2.4c0-2.6,2.1-4.8,4.8-4.8
		c2.6,0,4.8,2.1,4.8,4.8V55z M49,65.3c-0.6-0.7-1.4-1.2-2.3-1.5l-4.9-1.4v-2.1c1.5-1.3,2.4-3.2,2.4-5.3v-2.4h9.6V55
		c0,2.1,0.9,4,2.4,5.3v2.1l-4.9,1.4C50.4,64.1,49.6,64.6,49,65.3z M71.7,40.6H35.9v-2.4h35.9V40.6z M64.1,23
		c1.7,0.4,2.8,1.8,2.8,3.5v9.3H40.6v-9.3c0-1.7,1.2-3.1,2.8-3.5l6.2-1.4c0.7,0.9,2,2.2,4.1,2.2c2.1,0,3.4-1.3,4.1-2.2L64.1,23z
		 M56.2,20c-0.3,0.5-1.1,1.5-2.4,1.5c-1.3,0-2.1-1.1-2.4-1.5v-1.2c0.8,0.2,1.6,0.4,2.4,0.4c0.8,0,1.6-0.1,2.4-0.4V20z M59.8,8.4v2.4
		c0,3.3-2.7,6-6,6c-3.3,0-6-2.7-6-6V8.4c0-3.3,2.7-6,6-6C57.1,2.4,59.8,5.1,59.8,8.4z M2.4,38.2V2.4h45.5c-1.6,1.5-2.5,3.6-2.5,6
		v2.4c0,2.8,1.4,5.3,3.6,6.9v1.7l-6.1,1.4c-2.8,0.6-4.7,3-4.7,5.8v9.3h-4.8v2.4H2.4z M69.3,43v7.2h-1.6c-1-2.8-3.6-4.8-6.8-4.8
		c-3.1,0-5.8,2-6.8,4.8H43.8c-0.9-2.4-3-4.2-5.6-4.7V43H69.3z M32.3,52.6c0-2.6,2.1-4.8,4.8-4.8s4.8,2.1,4.8,4.8V55
		c0,2.6-2.1,4.8-4.8,4.8s-4.8-2.1-4.8-4.8V52.6z M37,62.1c0.8,0,1.6-0.2,2.4-0.4V63c-0.3,0.5-1.1,1.5-2.4,1.5S35,63.5,34.7,63v-1.3
		C35.4,62,36.2,62.1,37,62.1z M28,66.1l4.9-1.4c0.7,0.9,2,2.2,4.1,2.2s3.4-1.3,4.1-2.2l4.9,1.4c1,0.3,1.7,1.2,1.7,2.3v3.3H26.3v-3.3
		C26.3,67.4,27,66.4,28,66.1z M8.4,52.6c0-2.6,2.1-4.8,4.8-4.8s4.8,2.1,4.8,4.8V55c0,2.6-2.1,4.8-4.8,4.8S8.4,57.6,8.4,55V52.6z
		 M13.1,62.1c0.8,0,1.6-0.2,2.4-0.4V63c-0.3,0.5-1.1,1.5-2.4,1.5s-2.1-1.1-2.4-1.5v-1.3C11.5,62,12.3,62.1,13.1,62.1z M2.4,68.4
		c0-1.1,0.7-2,1.7-2.3L9,64.7c0.7,0.9,2,2.2,4.1,2.2s3.4-1.3,4.1-2.2l4.9,1.4c1,0.3,1.7,1.2,1.7,2.3v3.3H2.4V68.4z M70,66.1
		c1,0.3,1.7,1.2,1.7,2.3v3.3H50.2v-3.3c0-1.1,0.7-2,1.7-2.3l4.9-1.4c0.7,0.9,2,2.2,4.1,2.2c2.1,0,3.4-1.3,4.1-2.2L70,66.1z M63.3,63
		c-0.3,0.5-1.1,1.5-2.4,1.5c-1.3,0-2.1-1.1-2.4-1.5v-1.3c0.7,0.3,1.6,0.4,2.4,0.4c0.8,0,1.6-0.2,2.4-0.4V63z"/>
</g>
</svg>
