<?xml version="1.0" encoding="utf-8"?>
<!-- Generator: Adobe Illustrator 24.0.0, SVG Export Plug-In . SVG Version: 6.00 Build 0)  -->
<svg version="1.1" id="Capa_1" xmlns="http://www.w3.org/2000/svg" xmlns:xlink="http://www.w3.org/1999/xlink" x="0px" y="0px"
	 viewBox="0 0 145.1 145.1" style="enable-background:new 0 0 145.1 145.1;" xml:space="preserve">
<style type="text/css">
	.st0{fill:rgb(219, 218, 218);}
	.st1{opacity:0.1;}
	.st2{fill:url(#SVGID_1_);}
	.st3{opacity:8.000000e-02;}
	.st4{clip-path:url(#SVGID_3_);}
	.st5{clip-path:url(#SVGID_5_);}
	.st6{fill:#D4C865;}
	.st7{fill:#D4C865;}
	.st8{fill:url(#SVGID_8_);}
	.st9{fill:url(#SVGID_9_);}
	.st10{clip-path:url(#SVGID_11_);}
	.st11{opacity:0.4;fill:url(#SVGID_12_);}
	.st12{fill:none;}
	.st13{fill:#00656C;}
	.st14{opacity:0.2;}
	.st15{opacity:0.1;fill-rule:evenodd;clip-rule:evenodd;fill:#D4C865;}
	.st16{opacity:0.8;}
	.st17{clip-path:url(#SVGID_14_);}
	.st18{clip-path:url(#SVGID_16_);}
	.st19{clip-path:url(#SVGID_18_);}
	.st20{clip-path:url(#SVGID_20_);}
	.st21{clip-path:url(#SVGID_101_);}
	.st22{clip-path:url(#SVGID_109_);}
	.st23{fill-rule:evenodd;clip-rule:evenodd;fill:#D4C865;}
	.st24{fill:#A8A810;}
	.st25{opacity:0.1;fill:#00656C;}
	.st26{clip-path:url(#SVGID_117_);}
	.st27{clip-path:url(#SVGID_119_);}
	.st28{clip-path:url(#SVGID_121_);}
	.st29{clip-path:url(#SVGID_122_);}
	.st30{clip-path:url(#SVGID_124_);}
	.st31{clip-path:url(#SVGID_126_);}
	.st32{clip-path:url(#SVGID_130_);}
	.st33{clip-path:url(#SVGID_132_);}
	.st34{clip-path:url(#SVGID_136_);}
	.st35{clip-path:url(#SVGID_138_);}
	.st36{clip-path:url(#SVGID_142_);}
	.st37{clip-path:url(#SVGID_144_);}
	.st38{opacity:5.000000e-02;}
	.st39{fill:#F0F0F0;}
	.st40{clip-path:url(#SVGID_148_);}
	.st41{clip-path:url(#SVGID_150_);}
	.st42{clip-path:url(#SVGID_154_);}
	.st43{clip-path:url(#SVGID_156_);}
	.st44{fill-rule:evenodd;clip-rule:evenodd;fill:#FFFFFF;}
	.st45{fill:url(#SVGID_159_);}
	.st46{fill:#F0F1F1;}
	.st47{clip-path:url(#SVGID_171_);}
	.st48{clip-path:url(#SVGID_173_);}
	.st49{opacity:0.2;fill:#3D3845;}
	.st50{clip-path:url(#SVGID_180_);}
	.st51{clip-path:url(#SVGID_182_);}
	.st52{clip-path:url(#SVGID_186_);}
	.st53{clip-path:url(#SVGID_190_);}
	.st54{clip-path:url(#SVGID_192_);}
	.st55{clip-path:url(#SVGID_199_);}
	.st56{clip-path:url(#SVGID_201_);}
	.st57{clip-path:url(#SVGID_205_);}
	.st58{clip-path:url(#SVGID_207_);}
	.st59{opacity:0.5;}
	.st60{clip-path:url(#SVGID_211_);}
	.st61{clip-path:url(#SVGID_213_);}
	.st62{clip-path:url(#SVGID_217_);}
	.st63{clip-path:url(#SVGID_219_);}
	.st64{clip-path:url(#SVGID_223_);}
	.st65{clip-path:url(#SVGID_225_);}
	.st66{clip-path:url(#SVGID_229_);}
	.st67{clip-path:url(#SVGID_231_);}
	.st68{clip-path:url(#SVGID_233_);}
	.st69{clip-path:url(#SVGID_234_);}
	.st70{clip-path:url(#SVGID_235_);}
	.st71{clip-path:url(#SVGID_236_);}
	.st72{clip-path:url(#SVGID_237_);}
	.st73{clip-path:url(#SVGID_239_);}
	.st74{clip-path:url(#SVGID_241_);}
	.st75{clip-path:url(#SVGID_245_);}
	.st76{clip-path:url(#SVGID_247_);}
	.st77{clip-path:url(#SVGID_251_);}
	.st78{clip-path:url(#SVGID_253_);}
	.st79{clip-path:url(#SVGID_257_);}
	.st80{clip-path:url(#SVGID_259_);}
	.st81{clip-path:url(#SVGID_263_);}
	.st82{clip-path:url(#SVGID_265_);}
	.st83{clip-path:url(#SVGID_345_);}
	.st84{clip-path:url(#SVGID_355_);}
	.st85{fill:#E6E6E6;}
	.st86{clip-path:url(#SVGID_359_);}
	.st87{clip-path:url(#SVGID_361_);}
	.st88{opacity:0.75;clip-path:url(#SVGID_365_);fill:#00656C;}
	.st89{clip-path:url(#SVGID_367_);}
	.st90{clip-path:url(#SVGID_369_);}
	.st91{clip-path:url(#SVGID_373_);}
	.st92{clip-path:url(#SVGID_375_);}
	.st93{clip-path:url(#SVGID_379_);}
	.st94{clip-path:url(#SVGID_381_);}
	.st95{clip-path:url(#SVGID_382_);}
	.st96{clip-path:url(#SVGID_383_);}
	.st97{clip-path:url(#SVGID_384_);}
	.st98{clip-path:url(#SVGID_385_);}
	.st99{clip-path:url(#SVGID_414_);}
	.st100{clip-path:url(#SVGID_416_);}
	.st101{clip-path:url(#SVGID_424_);}
	.st102{clip-path:url(#SVGID_426_);}
	.st103{opacity:0.75;clip-path:url(#SVGID_430_);fill:#00656C;}
	.st104{clip-path:url(#SVGID_433_);}
	.st105{clip-path:url(#SVGID_435_);}
	.st106{clip-path:url(#SVGID_442_);}
	.st107{clip-path:url(#SVGID_445_);}
	.st108{fill:url(#SVGID_448_);}
	.st109{fill:url(#SVGID_449_);}
	.st110{fill:url(#SVGID_450_);}
	.st111{fill:url(#SVGID_451_);}
	.st112{fill:url(#SVGID_452_);}
	.st113{fill:url(#SVGID_453_);}
	.st114{fill:url(#SVGID_454_);}
	.st115{fill:url(#SVGID_455_);}
	.st116{clip-path:url(#SVGID_457_);}
	.st117{clip-path:url(#SVGID_459_);}
	.st118{fill:url(#SVGID_462_);}
	.st119{fill:url(#SVGID_463_);}
	.st120{fill:url(#SVGID_464_);}
	.st121{fill:#00656C;stroke:#00656C;stroke-miterlimit:10;}
	.st122{fill:#FFFFFF;stroke:#00656C;stroke-miterlimit:10;}
	.st123{fill:url(#SVGID_465_);}
	.st124{clip-path:url(#SVGID_467_);}
	.st125{clip-path:url(#SVGID_469_);}
	.st126{fill:url(#SVGID_472_);}
	.st127{fill:url(#SVGID_473_);}
	.st128{fill:#00656C;stroke:#00656C;stroke-width:3;stroke-miterlimit:10;}
	.st129{fill:url(#SVGID_474_);}
	.st130{fill:url(#SVGID_475_);}
	.st131{fill:url(#SVGID_476_);}
	.st132{fill:#D4C865;stroke:#D4C865;stroke-width:3;stroke-miterlimit:10;}
	.st133{fill:#828282;}
	.st134{fill:none;stroke:#828282;stroke-width:0.25;stroke-miterlimit:10;}
</style>
<g>
	<g>
		<circle class="st0" cx="72.5" cy="72.5" r="72.5"/>
	</g>
	<g>
		<defs>
			<circle id="SVGID_489_" cx="72.5" cy="72.5" r="64.5"/>
		</defs>
		<use xlink:href="#SVGID_489_"  style="overflow:visible;fill:#E6E6E6;"/>
		<clipPath id="SVGID_1_">
			<use xlink:href="#SVGID_489_"  style="overflow:visible;"/>
		</clipPath>
	</g>
</g>
<g>
	<g>
		<path class="st6" d="M98.1,84.5c-0.2,1-0.5,2-1.2,2.9c-1.2,1.5-2.7,2.3-4.6,2.3c-12.9,0-25.9,0-38.8,0c-3.2,0-5.8-2.6-5.8-5.8
			c0-7.9,0-15.9,0-23.8c0-3.2,2.6-5.8,5.8-5.8c12.9,0,25.9,0,38.8,0c2.8,0,5.2,2.1,5.7,4.9c0,0.1,0.1,0.2,0.1,0.3
			C98.1,67.8,98.1,76.1,98.1,84.5z M72.9,87.3c6.3,0,12.7,0,19,0c2.3,0,3.8-1.5,3.8-3.8c0-7.7,0-15.4,0-23.1c0-2.3-1.5-3.8-3.8-3.8
			c-12.7,0-25.4,0-38,0c-2.3,0-3.8,1.5-3.8,3.8c0,7.7,0,15.4,0,23.1c0,2.4,1.5,3.8,3.8,3.8C60.2,87.3,66.6,87.3,72.9,87.3z"/>
		<path class="st6" d="M78.5,72.1c1.3,0.9,2.5,1.9,3.7,2.8c3.5,2.6,7.1,5.3,10.6,7.9c0.8,0.6,1,1.3,0.5,1.9c-0.5,0.6-1.2,0.6-1.9,0
			c-4.8-3.6-9.6-7.2-14.5-10.8c-0.1-0.1-0.3-0.2-0.5-0.3c-0.6,0.5-1.2,0.9-1.8,1.4c-1.4,1-2.5,1-3.9,0c-0.6-0.4-1.2-0.9-1.8-1.4
			c-1.7,1.3-3.4,2.6-5.1,3.8c-3.2,2.4-6.5,4.9-9.7,7.3c-0.2,0.2-0.5,0.3-0.7,0.4c-0.6,0.2-1.1-0.1-1.3-0.7c-0.2-0.5-0.1-1.1,0.4-1.5
			c1.2-0.9,2.4-1.8,3.6-2.7c3.5-2.6,7-5.2,10.5-7.9c0.1-0.1,0.2-0.2,0.4-0.3c-0.9-0.7-1.7-1.3-2.5-2c-4-3-7.9-6.1-11.9-9.1
			c-0.3-0.2-0.5-0.5-0.7-0.9c-0.2-0.5,0.1-1,0.5-1.2c0.4-0.3,0.9-0.3,1.4,0.1c0.9,0.7,1.8,1.3,2.7,2c5.2,4,10.4,8,15.6,12
			c0.6,0.5,0.6,0.5,1.2,0c6.1-4.6,12.3-9.2,18.4-13.7c0.2-0.1,0.4-0.3,0.6-0.4c0.5-0.2,1.1,0.1,1.4,0.6c0.3,0.5,0.2,1.1-0.3,1.5
			c-1,0.8-2,1.5-3,2.2c-3.9,2.9-7.8,5.8-11.6,8.7C78.7,71.9,78.6,72,78.5,72.1z"/>
	</g>
</g>
</svg>
