<?xml version="1.0" encoding="utf-8"?>
<!-- Generator: Adobe Illustrator 21.0.0, SVG Export Plug-In . SVG Version: 6.00 Build 0)  -->
<svg version="1.1" id="Capa_1" xmlns="http://www.w3.org/2000/svg" xmlns:xlink="http://www.w3.org/1999/xlink" x="0px" y="0px"
	 viewBox="0 0 97.9 104.8" style="enable-background:new 0 0 97.9 104.8;" xml:space="preserve">
<style type="text/css">
	.st0{clip-path:url(#SVGID_2_);}
	.st1{fill:#C2C247;}
	.st2{fill:#00504C;}
	.st3{opacity:0.4;fill:url(#SVGID_3_);}
	.st4{fill:none;}
	.st5{fill:#F5F5F5;}
	.st6{opacity:0.2;}
	.st7{opacity:0.1;fill-rule:evenodd;clip-rule:evenodd;fill:#C2C247;}
	.st8{opacity:0.8;}
	.st9{fill:#FFFFFF;}
	.st10{clip-path:url(#SVGID_5_);}
	.st11{clip-path:url(#SVGID_7_);}
	.st12{fill:#808080;}
	.st13{opacity:8.000000e-02;}
	.st14{clip-path:url(#SVGID_9_);}
	.st15{clip-path:url(#SVGID_11_);}
	.st16{clip-path:url(#SVGID_87_);}
	.st17{clip-path:url(#SVGID_89_);}
	.st18{clip-path:url(#SVGID_103_);}
	.st19{clip-path:url(#SVGID_105_);}
	.st20{fill-rule:evenodd;clip-rule:evenodd;fill:#C2C247;}
	.st21{fill:#4A8E82;}
	.st22{fill:#A8A810;}
	.st23{opacity:0.1;fill:#00504C;}
	.st24{clip-path:url(#SVGID_115_);}
	.st25{clip-path:url(#SVGID_117_);}
	.st26{clip-path:url(#SVGID_119_);}
	.st27{clip-path:url(#SVGID_121_);}
	.st28{clip-path:url(#SVGID_123_);}
	.st29{clip-path:url(#SVGID_125_);}
	.st30{clip-path:url(#SVGID_129_);}
	.st31{clip-path:url(#SVGID_131_);}
	.st32{clip-path:url(#SVGID_135_);}
	.st33{clip-path:url(#SVGID_137_);}
	.st34{clip-path:url(#SVGID_141_);}
	.st35{clip-path:url(#SVGID_143_);}
	.st36{opacity:5.000000e-02;}
	.st37{fill:#F0F0F0;}
	.st38{clip-path:url(#SVGID_147_);}
	.st39{clip-path:url(#SVGID_149_);}
	.st40{clip-path:url(#SVGID_153_);}
	.st41{clip-path:url(#SVGID_155_);}
	.st42{fill-rule:evenodd;clip-rule:evenodd;fill:#FFFFFF;}
	.st43{opacity:0.1;}
	.st44{fill:url(#SVGID_158_);}
	.st45{fill:#C8C8C8;}
	.st46{clip-path:url(#SVGID_160_);}
	.st47{clip-path:url(#SVGID_162_);}
	.st48{clip-path:url(#SVGID_164_);}
	.st49{clip-path:url(#SVGID_166_);}
	.st50{clip-path:url(#SVGID_168_);}
	.st51{clip-path:url(#SVGID_170_);}
	.st52{clip-path:url(#SVGID_172_);}
	.st53{clip-path:url(#SVGID_174_);}
	.st54{clip-path:url(#SVGID_178_);}
	.st55{clip-path:url(#SVGID_180_);}
	.st56{clip-path:url(#SVGID_184_);}
	.st57{clip-path:url(#SVGID_186_);}
	.st58{clip-path:url(#SVGID_190_);}
	.st59{clip-path:url(#SVGID_192_);}
	.st60{clip-path:url(#SVGID_196_);}
	.st61{clip-path:url(#SVGID_198_);}
	.st62{clip-path:url(#SVGID_274_);}
	.st63{clip-path:url(#SVGID_276_);}
	.st64{clip-path:url(#SVGID_290_);}
	.st65{clip-path:url(#SVGID_292_);}
	.st66{fill:#E6E6E6;}
	.st67{clip-path:url(#SVGID_300_);}
	.st68{clip-path:url(#SVGID_302_);}
	.st69{opacity:0.75;clip-path:url(#SVGID_306_);fill:#00504C;}
	.st70{clip-path:url(#SVGID_308_);}
	.st71{clip-path:url(#SVGID_310_);}
	.st72{clip-path:url(#SVGID_314_);}
	.st73{clip-path:url(#SVGID_316_);}
	.st74{fill:url(#SVGID_319_);}
	.st75{clip-path:url(#SVGID_321_);}
	.st76{clip-path:url(#SVGID_323_);}
	.st77{clip-path:url(#SVGID_327_);}
	.st78{clip-path:url(#SVGID_329_);}
	.st79{clip-path:url(#SVGID_331_);}
	.st80{clip-path:url(#SVGID_333_);}
	.st81{clip-path:url(#SVGID_335_);}
	.st82{clip-path:url(#SVGID_337_);}
	.st83{fill:url(#SVGID_338_);}
	.st84{fill:url(#SVGID_339_);}
	.st85{clip-path:url(#SVGID_365_);}
	.st86{clip-path:url(#SVGID_367_);}
	.st87{clip-path:url(#SVGID_373_);}
	.st88{clip-path:url(#SVGID_375_);}
	.st89{opacity:8.000000e-02;fill:#00504C;}
	.st90{opacity:8.000000e-02;fill:#C2C247;}
	.st91{clip-path:url(#SVGID_379_);}
	.st92{clip-path:url(#SVGID_381_);}
	.st93{opacity:0.75;clip-path:url(#SVGID_385_);fill:#00504C;}
	.st94{clip-path:url(#SVGID_387_);}
	.st95{clip-path:url(#SVGID_389_);}
	.st96{clip-path:url(#SVGID_393_);}
	.st97{clip-path:url(#SVGID_395_);}
	.st98{fill:url(#SVGID_398_);}
	.st99{clip-path:url(#SVGID_400_);}
	.st100{clip-path:url(#SVGID_402_);}
	.st101{fill:#F0F1F1;}
	.st102{clip-path:url(#SVGID_412_);}
	.st103{clip-path:url(#SVGID_414_);}
	.st104{opacity:0.2;fill:#3D3845;}
	.st105{clip-path:url(#SVGID_424_);}
	.st106{clip-path:url(#SVGID_426_);}
	.st107{clip-path:url(#SVGID_430_);}
	.st108{clip-path:url(#SVGID_434_);}
	.st109{clip-path:url(#SVGID_436_);}
	.st110{clip-path:url(#SVGID_446_);}
	.st111{clip-path:url(#SVGID_448_);}
	.st112{clip-path:url(#SVGID_452_);}
	.st113{clip-path:url(#SVGID_454_);}
	.st114{opacity:0.5;}
	.st115{clip-path:url(#SVGID_458_);}
	.st116{clip-path:url(#SVGID_460_);}
	.st117{clip-path:url(#SVGID_464_);}
	.st118{clip-path:url(#SVGID_466_);}
	.st119{clip-path:url(#SVGID_470_);}
	.st120{clip-path:url(#SVGID_472_);}
	.st121{fill:url(#SVGID_475_);}
	.st122{fill:url(#SVGID_476_);}
</style>
<g>
	<g>
		<g>
			<g>
				<path class="st2" d="M90.9,28v-5.2c0-1-0.8-1.7-1.7-1.7h-3.5v-5.2h8.7c1,0,1.7-0.8,1.7-1.7V7c0-3.9-3.1-7-7-7H33.2
					c-3.9,0-7,3.1-7,7v12.2H1.7C0.8,19.2,0,20,0,21v82.1c0,1,0.8,1.7,1.7,1.7h62.9c1,0,1.7-0.8,1.7-1.7V76.9h10.5v12.2
					c0,0.2,0,0.4,0.1,0.6h0l5.2,14c0.3,0.9,1.3,1.4,2.2,1c0.5-0.2,0.8-0.6,1-1l5.2-14h0c0.1-0.2,0.1-0.4,0.1-0.6V31.5
					c1.9,0,3.5,1.6,3.5,3.5v22.7h3.5V34.9C97.9,31.1,94.7,28,90.9,28z M85.6,7c0-1.9,1.6-3.5,3.5-3.5s3.5,1.6,3.5,3.5v5.2h-7V7z
					 M62.9,101.4H3.5V22.7h59.4V101.4z M76.9,22.7v50.7H66.4V21c0-1-0.8-1.7-1.7-1.7H29.7V7c0-1.9,1.6-3.5,3.5-3.5h49.9
					c-0.6,1.1-1,2.3-1,3.5v14h-3.5C77.7,21,76.9,21.8,76.9,22.7z M83.9,98.1l-2.7-7.3h5.4L83.9,98.1z M87.4,87.4h-7V38.4h7V87.4z
					 M87.4,34.9h-7v-3.5h7V34.9z M87.4,28h-7v-3.5h7V28z"/>
			</g>
		</g>
	</g>
	<g>
		<g>
			<path class="st1" d="M52.7,32.8H13.7c-0.8,0-1.5,0.7-1.5,1.5v9c0,0.8,0.7,1.5,1.5,1.5h38.9c0.8,0,1.5-0.7,1.5-1.5v-9
				C54.2,33.5,53.5,32.8,52.7,32.8z M51.2,41.8H15.2v-6h35.9V41.8z"/>
		</g>
	</g>
	<g>
		<g>
			<path class="st1" d="M22.7,49.3h-9c-0.8,0-1.5,0.7-1.5,1.5v9c0,0.8,0.7,1.5,1.5,1.5h9c0.8,0,1.5-0.7,1.5-1.5v-9
				C24.2,50,23.5,49.3,22.7,49.3z M21.2,58.3h-6v-6h6V58.3z"/>
		</g>
	</g>
	<g>
		<g>
			<path class="st1" d="M37.7,49.3h-9c-0.8,0-1.5,0.7-1.5,1.5v9c0,0.8,0.7,1.5,1.5,1.5h9c0.8,0,1.5-0.7,1.5-1.5v-9
				C39.2,50,38.5,49.3,37.7,49.3z M36.2,58.3h-6v-6h6V58.3z"/>
		</g>
	</g>
	<g>
		<g>
			<path class="st1" d="M52.7,49.3h-9c-0.8,0-1.5,0.7-1.5,1.5v9c0,0.8,0.7,1.5,1.5,1.5h9c0.8,0,1.5-0.7,1.5-1.5v-9
				C54.2,50,53.5,49.3,52.7,49.3z M51.2,58.3h-6v-6h6V58.3z"/>
		</g>
	</g>
	<g>
		<g>
			<path class="st1" d="M22.7,64.3h-9c-0.8,0-1.5,0.7-1.5,1.5v9c0,0.8,0.7,1.5,1.5,1.5h9c0.8,0,1.5-0.7,1.5-1.5v-9
				C24.2,65,23.5,64.3,22.7,64.3z M21.2,73.3h-6v-6h6V73.3z"/>
		</g>
	</g>
	<g>
		<g>
			<path class="st1" d="M37.7,64.3h-9c-0.8,0-1.5,0.7-1.5,1.5v9c0,0.8,0.7,1.5,1.5,1.5h9c0.8,0,1.5-0.7,1.5-1.5v-9
				C39.2,65,38.5,64.3,37.7,64.3z M36.2,73.3h-6v-6h6V73.3z"/>
		</g>
	</g>
	<g>
		<g>
			<path class="st1" d="M22.7,79.3h-9c-0.8,0-1.5,0.7-1.5,1.5v9c0,0.8,0.7,1.5,1.5,1.5h9c0.8,0,1.5-0.7,1.5-1.5v-9
				C24.2,79.9,23.5,79.3,22.7,79.3z M21.2,88.2h-6v-6h6V88.2z"/>
		</g>
	</g>
	<g>
		<g>
			<path class="st1" d="M37.7,79.3h-9c-0.8,0-1.5,0.7-1.5,1.5v9c0,0.8,0.7,1.5,1.5,1.5h9c0.8,0,1.5-0.7,1.5-1.5v-9
				C39.2,79.9,38.5,79.3,37.7,79.3z M36.2,88.2h-6v-6h6V88.2z"/>
		</g>
	</g>
	<g>
		<g>
			<path class="st1" d="M52.7,64.3h-9c-0.8,0-1.5,0.7-1.5,1.5v24c0,0.8,0.7,1.5,1.5,1.5h9c0.8,0,1.5-0.7,1.5-1.5v-24
				C54.2,65,53.5,64.3,52.7,64.3z M51.2,88.2h-6v-21h6V88.2z"/>
		</g>
	</g>
</g>
</svg>
