<?xml version="1.0" encoding="utf-8"?>
<!-- Generator: Adobe Illustrator 21.0.0, SVG Export Plug-In . SVG Version: 6.00 Build 0)  -->
<svg version="1.1" id="Capa_1" xmlns="http://www.w3.org/2000/svg" xmlns:xlink="http://www.w3.org/1999/xlink" x="0px" y="0px"
	 viewBox="0 0 242.8 454" style="enable-background:new 0 0 242.8 454;" xml:space="preserve">
<style type="text/css">
	.st0{clip-path:url(#SVGID_2_);}
	.st1{fill:#C2C247;}
	.st2{fill:#00504C;}
	.st3{opacity:0.4;fill:url(#SVGID_3_);}
	.st4{fill:none;}
	.st5{fill:#F5F5F5;}
	.st6{opacity:0.2;}
	.st7{opacity:0.1;fill-rule:evenodd;clip-rule:evenodd;fill:#C2C247;}
	.st8{opacity:0.8;}
	.st9{fill:#FFFFFF;}
	.st10{clip-path:url(#SVGID_5_);}
	.st11{clip-path:url(#SVGID_7_);}
	.st12{fill:#808080;}
	.st13{opacity:8.000000e-02;}
	.st14{clip-path:url(#SVGID_9_);}
	.st15{clip-path:url(#SVGID_11_);}
	.st16{clip-path:url(#SVGID_87_);}
	.st17{clip-path:url(#SVGID_89_);}
	.st18{clip-path:url(#SVGID_103_);}
	.st19{clip-path:url(#SVGID_105_);}
	.st20{fill-rule:evenodd;clip-rule:evenodd;fill:#C2C247;}
	.st21{fill:#4A8E82;}
	.st22{fill:#A8A810;}
	.st23{opacity:0.1;fill:#00504C;}
	.st24{clip-path:url(#SVGID_115_);}
	.st25{clip-path:url(#SVGID_117_);}
	.st26{clip-path:url(#SVGID_119_);}
	.st27{clip-path:url(#SVGID_121_);}
	.st28{clip-path:url(#SVGID_123_);}
	.st29{clip-path:url(#SVGID_125_);}
	.st30{clip-path:url(#SVGID_129_);}
	.st31{clip-path:url(#SVGID_131_);}
	.st32{clip-path:url(#SVGID_135_);}
	.st33{clip-path:url(#SVGID_137_);}
	.st34{clip-path:url(#SVGID_141_);}
	.st35{clip-path:url(#SVGID_143_);}
	.st36{opacity:5.000000e-02;}
	.st37{fill:#F0F0F0;}
	.st38{clip-path:url(#SVGID_147_);}
	.st39{clip-path:url(#SVGID_149_);}
	.st40{clip-path:url(#SVGID_153_);}
	.st41{clip-path:url(#SVGID_155_);}
	.st42{fill-rule:evenodd;clip-rule:evenodd;fill:#FFFFFF;}
	.st43{opacity:0.1;}
	.st44{fill:url(#SVGID_158_);}
	.st45{fill:#C8C8C8;}
	.st46{clip-path:url(#SVGID_160_);}
	.st47{clip-path:url(#SVGID_162_);}
	.st48{clip-path:url(#SVGID_164_);}
	.st49{clip-path:url(#SVGID_166_);}
	.st50{clip-path:url(#SVGID_168_);}
	.st51{clip-path:url(#SVGID_170_);}
	.st52{clip-path:url(#SVGID_172_);}
	.st53{clip-path:url(#SVGID_174_);}
	.st54{clip-path:url(#SVGID_178_);}
	.st55{clip-path:url(#SVGID_180_);}
	.st56{clip-path:url(#SVGID_184_);}
	.st57{clip-path:url(#SVGID_186_);}
	.st58{clip-path:url(#SVGID_190_);}
	.st59{clip-path:url(#SVGID_192_);}
	.st60{clip-path:url(#SVGID_196_);}
	.st61{clip-path:url(#SVGID_198_);}
	.st62{clip-path:url(#SVGID_274_);}
	.st63{clip-path:url(#SVGID_276_);}
	.st64{clip-path:url(#SVGID_290_);}
	.st65{clip-path:url(#SVGID_292_);}
	.st66{fill:#E6E6E6;}
	.st67{clip-path:url(#SVGID_300_);}
	.st68{clip-path:url(#SVGID_302_);}
	.st69{opacity:0.75;clip-path:url(#SVGID_306_);fill:#00504C;}
	.st70{clip-path:url(#SVGID_308_);}
	.st71{clip-path:url(#SVGID_310_);}
	.st72{clip-path:url(#SVGID_314_);}
	.st73{clip-path:url(#SVGID_316_);}
	.st74{fill:url(#SVGID_319_);}
	.st75{clip-path:url(#SVGID_321_);}
	.st76{clip-path:url(#SVGID_323_);}
	.st77{clip-path:url(#SVGID_327_);}
	.st78{clip-path:url(#SVGID_329_);}
	.st79{clip-path:url(#SVGID_331_);}
	.st80{clip-path:url(#SVGID_333_);}
	.st81{clip-path:url(#SVGID_335_);}
	.st82{clip-path:url(#SVGID_337_);}
	.st83{fill:url(#SVGID_338_);}
	.st84{fill:url(#SVGID_339_);}
	.st85{clip-path:url(#SVGID_365_);}
	.st86{clip-path:url(#SVGID_367_);}
	.st87{clip-path:url(#SVGID_373_);}
	.st88{clip-path:url(#SVGID_375_);}
	.st89{opacity:8.000000e-02;fill:#00504C;}
	.st90{opacity:8.000000e-02;fill:#C2C247;}
	.st91{clip-path:url(#SVGID_379_);}
	.st92{clip-path:url(#SVGID_381_);}
	.st93{opacity:0.75;clip-path:url(#SVGID_385_);fill:#00504C;}
	.st94{clip-path:url(#SVGID_387_);}
	.st95{clip-path:url(#SVGID_389_);}
	.st96{clip-path:url(#SVGID_393_);}
	.st97{clip-path:url(#SVGID_395_);}
	.st98{fill:url(#SVGID_398_);}
	.st99{clip-path:url(#SVGID_400_);}
	.st100{clip-path:url(#SVGID_402_);}
	.st101{fill:#F0F1F1;}
	.st102{clip-path:url(#SVGID_412_);}
	.st103{clip-path:url(#SVGID_414_);}
	.st104{opacity:0.2;fill:#3D3845;}
	.st105{clip-path:url(#SVGID_424_);}
	.st106{clip-path:url(#SVGID_426_);}
	.st107{clip-path:url(#SVGID_430_);}
	.st108{clip-path:url(#SVGID_434_);}
	.st109{clip-path:url(#SVGID_436_);}
	.st110{clip-path:url(#SVGID_446_);}
	.st111{clip-path:url(#SVGID_448_);}
	.st112{clip-path:url(#SVGID_452_);}
	.st113{clip-path:url(#SVGID_454_);}
	.st114{opacity:0.5;}
	.st115{clip-path:url(#SVGID_458_);}
	.st116{clip-path:url(#SVGID_460_);}
	.st117{clip-path:url(#SVGID_464_);}
	.st118{clip-path:url(#SVGID_466_);}
	.st119{clip-path:url(#SVGID_470_);}
	.st120{clip-path:url(#SVGID_472_);}
	.st121{fill:url(#SVGID_475_);}
	.st122{fill:url(#SVGID_476_);}
</style>
<g class="st13">
	<g>
		<path class="st9" d="M1.4,268.2c16.3,0.6,31.5,7.4,43,19.1c11.7,12,18.2,27.8,18.2,44.5c0,16.7-6.5,32.6-18.2,44.5
			C33,388,17.7,394.8,1.4,395.4V268.2 M0.4,267.2v129.2c35-0.8,63.2-29.4,63.2-64.6C63.6,296.6,35.4,268,0.4,267.2L0.4,267.2z"/>
	</g>
	<radialGradient id="SVGID_2_" cx="14.6498" cy="320.4062" r="73.019" gradientUnits="userSpaceOnUse">
		<stop  offset="0" style="stop-color:#FFFFFF"/>
		<stop  offset="1" style="stop-color:#00504C"/>
	</radialGradient>
	<path style="fill:url(#SVGID_2_);" d="M63.6,331.8c0-35.2-28.2-63.8-63.2-64.6v129.2C35.4,395.6,63.6,367,63.6,331.8z"/>
	<path class="st2" d="M242.6,288.1c0.6-1.4-0.1-3-1.5-3.6c-1.4-0.6-3,0.1-3.6,1.5C195.8,385.1,105.1,447.4,0.8,448.5
		c-0.1,0-0.3,0-0.4,0v5.5c0.2,0,0.3,0,0.5,0C107.4,452.8,200,389.2,242.6,288.1z"/>
	<path class="st2" d="M0.4,62.1c-0.1,0.1-0.3,0.2-0.4,0.4c0.1,0.1,0.3,0.3,0.4,0.4V62.1z"/>
	<path class="st2" d="M19,81.1c2.9,3.1,5.6,6.3,8.2,9.6C46.6,115.3,128.8,194,139.5,402.3l1.9-0.5c0,0,2.8-142.4-72.5-268
		c-14.2-23.7-29-43.3-43.5-59.4C23.2,76.6,21.1,78.8,19,81.1z"/>
	<path class="st2" d="M0.4,62.9c4.2,3.7,8.3,7.6,12.2,11.6c2.1-2.4,4.3-4.7,6.4-7c-3.9-4.1-7.7-7.9-11.4-11.5
		c-2.4,2-4.8,4.1-7.2,6.2V62.9z"/>
	<path class="st2" d="M0,103.6c0.1,0.2,0.3,0.4,0.4,0.5v-1.1C0.3,103.3,0.1,103.4,0,103.6z"/>
	<path class="st2" d="M107.7,420.7c0,0,6.2-147.3-75-283.8c-8.9-15-18-28.4-27.1-40.2c-1.4,1.8-3.2,4-5.2,6.5v1.1
		c27.7,34.7,101.2,132.4,105.4,317L107.7,420.7z"/>
	<path class="st1" d="M0.4,48.5c-0.1,0.1-0.3,0.3-0.4,0.4c0.1,0.1,0.3,0.3,0.4,0.4V48.5z"/>
	<path class="st1" d="M7.6,56c30.1-25.1,61.2-42.6,61.7-43.1c0.8-0.7,0-3.7,0-6.3c0-2.6-0.7-6.6-0.7-6.6
		C57.9,7.5,31.5,20.6,0.4,48.5v0.8C2.8,51.4,5.2,53.7,7.6,56z"/>
	<path class="st1" d="M0.4,62.1C2.8,60,5.2,58,7.6,56c-2.4-2.3-4.8-4.5-7.2-6.7V62.1z"/>
	<path class="st1" d="M0,89.4c0.1,0.2,0.3,0.4,0.4,0.5v-1.1C0.3,89.1,0.1,89.3,0,89.4z"/>
	<path class="st1" d="M102.1,15.7c0.7-0.7,0-3.7,0-6.3c0-2.6-0.7-6.6-0.7-6.6C88.7,11.6,56,28.2,19,67.5c2.1,2.2,4.2,4.6,6.4,6.9
		C59.8,40.2,101.5,16.3,102.1,15.7z"/>
	<path class="st1" d="M0.4,88.9V90c1.7,2.2,3.5,4.4,5.2,6.7c0.2-0.3,0.5-0.6,0.7-0.9c4-5,8.2-10,12.7-14.7c-2-2.2-4.1-4.4-6.3-6.6
		C8.6,79,4.5,83.8,0.4,88.9z"/>
	<path class="st1" d="M19,81.1c2.1-2.3,4.3-4.5,6.5-6.6c-2.1-2.4-4.3-4.7-6.4-6.9c-2.1,2.2-4.2,4.6-6.4,7
		C14.8,76.6,16.9,78.8,19,81.1z"/>
	<path class="st1" d="M0.4,103.1c2-2.5,3.8-4.7,5.2-6.5c-1.7-2.3-3.5-4.5-5.2-6.7V103.1z"/>
</g>
</svg>
