<?xml version="1.0" encoding="utf-8"?>
<!-- Generator: Adobe Illustrator 24.0.0, SVG Export Plug-In . SVG Version: 6.00 Build 0)  -->
<svg version="1.1" id="Capa_1" xmlns="http://www.w3.org/2000/svg" xmlns:xlink="http://www.w3.org/1999/xlink" x="0px" y="0px"
	 viewBox="0 0 77.8 77.8" style="enable-background:new 0 0 77.8 77.8;" xml:space="preserve">
<style type="text/css">
	.st0{fill:#FFFFFF;}
	.st1{opacity:0.1;}
	.st2{fill:url(#SVGID_1_);}
	.st3{opacity:8.000000e-02;}
	.st4{clip-path:url(#SVGID_3_);}
	.st5{clip-path:url(#SVGID_5_);}
	.st6{fill:#00656C;}
	.st7{fill:#D4C865;}
	.st8{fill:url(#SVGID_8_);}
	.st9{fill:url(#SVGID_9_);}
	.st10{clip-path:url(#SVGID_11_);}
	.st11{opacity:0.4;fill:url(#SVGID_12_);}
	.st12{fill:none;}
	.st13{fill:#F5F5F5;}
	.st14{opacity:0.2;}
	.st15{opacity:0.1;fill-rule:evenodd;clip-rule:evenodd;fill:#D4C865;}
	.st16{opacity:0.8;}
	.st17{clip-path:url(#SVGID_14_);}
	.st18{clip-path:url(#SVGID_16_);}
	.st19{clip-path:url(#SVGID_18_);}
	.st20{clip-path:url(#SVGID_20_);}
	.st21{clip-path:url(#SVGID_101_);}
	.st22{clip-path:url(#SVGID_109_);}
	.st23{fill-rule:evenodd;clip-rule:evenodd;fill:#D4C865;}
	.st24{fill:#A8A810;}
	.st25{opacity:0.1;fill:#00656C;}
	.st26{clip-path:url(#SVGID_117_);}
	.st27{clip-path:url(#SVGID_119_);}
	.st28{clip-path:url(#SVGID_121_);}
	.st29{clip-path:url(#SVGID_122_);}
	.st30{clip-path:url(#SVGID_124_);}
	.st31{clip-path:url(#SVGID_126_);}
	.st32{clip-path:url(#SVGID_130_);}
	.st33{clip-path:url(#SVGID_132_);}
	.st34{clip-path:url(#SVGID_136_);}
	.st35{clip-path:url(#SVGID_138_);}
	.st36{clip-path:url(#SVGID_142_);}
	.st37{clip-path:url(#SVGID_144_);}
	.st38{opacity:5.000000e-02;}
	.st39{fill:#F0F0F0;}
	.st40{clip-path:url(#SVGID_148_);}
	.st41{clip-path:url(#SVGID_150_);}
	.st42{clip-path:url(#SVGID_154_);}
	.st43{clip-path:url(#SVGID_156_);}
	.st44{fill-rule:evenodd;clip-rule:evenodd;fill:#FFFFFF;}
	.st45{fill:url(#SVGID_159_);}
	.st46{fill:#F0F1F1;}
	.st47{clip-path:url(#SVGID_171_);}
	.st48{clip-path:url(#SVGID_173_);}
	.st49{opacity:0.2;fill:#3D3845;}
	.st50{clip-path:url(#SVGID_180_);}
	.st51{clip-path:url(#SVGID_182_);}
	.st52{clip-path:url(#SVGID_186_);}
	.st53{clip-path:url(#SVGID_190_);}
	.st54{clip-path:url(#SVGID_192_);}
	.st55{clip-path:url(#SVGID_199_);}
	.st56{clip-path:url(#SVGID_201_);}
	.st57{clip-path:url(#SVGID_205_);}
	.st58{clip-path:url(#SVGID_207_);}
	.st59{opacity:0.5;}
	.st60{clip-path:url(#SVGID_211_);}
	.st61{clip-path:url(#SVGID_213_);}
	.st62{clip-path:url(#SVGID_217_);}
	.st63{clip-path:url(#SVGID_219_);}
	.st64{clip-path:url(#SVGID_223_);}
	.st65{clip-path:url(#SVGID_225_);}
	.st66{clip-path:url(#SVGID_229_);}
	.st67{clip-path:url(#SVGID_231_);}
	.st68{clip-path:url(#SVGID_233_);}
	.st69{clip-path:url(#SVGID_234_);}
	.st70{clip-path:url(#SVGID_235_);}
	.st71{clip-path:url(#SVGID_236_);}
	.st72{clip-path:url(#SVGID_237_);}
	.st73{clip-path:url(#SVGID_239_);}
	.st74{clip-path:url(#SVGID_241_);}
	.st75{clip-path:url(#SVGID_245_);}
	.st76{clip-path:url(#SVGID_247_);}
	.st77{clip-path:url(#SVGID_251_);}
	.st78{clip-path:url(#SVGID_253_);}
	.st79{clip-path:url(#SVGID_257_);}
	.st80{clip-path:url(#SVGID_259_);}
	.st81{clip-path:url(#SVGID_263_);}
	.st82{clip-path:url(#SVGID_265_);}
	.st83{clip-path:url(#SVGID_345_);}
	.st84{clip-path:url(#SVGID_355_);}
	.st85{fill:#E6E6E6;}
	.st86{clip-path:url(#SVGID_359_);}
	.st87{clip-path:url(#SVGID_361_);}
	.st88{opacity:0.75;clip-path:url(#SVGID_365_);fill:#00656C;}
	.st89{clip-path:url(#SVGID_367_);}
	.st90{clip-path:url(#SVGID_369_);}
	.st91{clip-path:url(#SVGID_373_);}
	.st92{clip-path:url(#SVGID_375_);}
	.st93{clip-path:url(#SVGID_379_);}
	.st94{clip-path:url(#SVGID_381_);}
	.st95{clip-path:url(#SVGID_382_);}
	.st96{clip-path:url(#SVGID_383_);}
	.st97{clip-path:url(#SVGID_384_);}
	.st98{clip-path:url(#SVGID_385_);}
	.st99{clip-path:url(#SVGID_414_);}
	.st100{clip-path:url(#SVGID_416_);}
	.st101{clip-path:url(#SVGID_424_);}
	.st102{clip-path:url(#SVGID_426_);}
	.st103{opacity:0.75;clip-path:url(#SVGID_430_);fill:#00656C;}
	.st104{clip-path:url(#SVGID_433_);}
	.st105{clip-path:url(#SVGID_435_);}
	.st106{clip-path:url(#SVGID_442_);}
	.st107{clip-path:url(#SVGID_445_);}
	.st108{fill:url(#SVGID_448_);}
	.st109{fill:url(#SVGID_449_);}
	.st110{fill:url(#SVGID_450_);}
	.st111{fill:url(#SVGID_451_);}
	.st112{fill:url(#SVGID_452_);}
	.st113{fill:url(#SVGID_453_);}
	.st114{fill:url(#SVGID_454_);}
	.st115{fill:url(#SVGID_455_);}
	.st116{clip-path:url(#SVGID_457_);}
	.st117{clip-path:url(#SVGID_459_);}
	.st118{fill:url(#SVGID_462_);}
	.st119{fill:url(#SVGID_463_);}
	.st120{fill:url(#SVGID_464_);}
	.st121{fill:#00656C;stroke:#00656C;stroke-miterlimit:10;}
	.st122{fill:#FFFFFF;stroke:#00656C;stroke-miterlimit:10;}
	.st123{fill:url(#SVGID_465_);}
	.st124{clip-path:url(#SVGID_467_);}
	.st125{clip-path:url(#SVGID_469_);}
	.st126{fill:url(#SVGID_472_);}
	.st127{fill:url(#SVGID_473_);}
	.st128{fill:#00656C;stroke:#00656C;stroke-width:3;stroke-miterlimit:10;}
	.st129{fill:url(#SVGID_474_);}
	.st130{fill:url(#SVGID_475_);}
	.st131{fill:url(#SVGID_476_);}
	.st132{fill:#D4C865;stroke:#D4C865;stroke-width:3;stroke-miterlimit:10;}
</style>
<g>
	<path class="st0" d="M38.9,77.8L38.9,77.8C17.4,77.8,0,60.4,0,38.9v0C0,17.4,17.4,0,38.9,0h0c21.5,0,38.9,17.4,38.9,38.9v0
		C77.8,60.4,60.4,77.8,38.9,77.8z"/>
</g>
<g>
	<g>
		<path class="st128" d="M30.9,12.5c2.1,1.5,9.6,4.9,16,15.6c8.8,14.6,8.4,31.2,8.4,31.2l-0.2,0.1C53.9,35.1,44.3,25.9,42,23
			c-3.9-4.9-11.1-9-11.2-9.1L30.9,12.5z"/>
		<radialGradient id="SVGID_1_" cx="40.6939" cy="48.9905" r="10.4848" gradientUnits="userSpaceOnUse">
			<stop  offset="0" style="stop-color:#FFFFFF"/>
			<stop  offset="1" style="stop-color:#00504C"/>
		</radialGradient>
		<circle class="st2" cx="38.9" cy="51.1" r="7.5"/>
	</g>
</g>
<path class="st132" d="M46.9,12.5c-2.1,1.5-9.6,4.9-16,15.6c-8.8,14.6-8.4,31.2-8.4,31.2l0.2,0.1C23.9,35.1,33.5,25.9,35.7,23
	c3.9-4.9,11.1-9,11.2-9.1L46.9,12.5z"/>
<path class="st128" d="M38.6,65.3c-12.2,0-22.6-7.1-27.9-19c-0.1-0.2,0-0.3,0.2-0.4c0.2-0.1,0.3,0,0.4,0.2
	c5.2,11.7,15.4,18.6,27.3,18.6c0.1,0,0.2,0,0.3,0c12.1-0.1,22.7-7.4,27.6-18.9c0.1-0.2,0.3-0.2,0.4-0.2c0.2,0.1,0.2,0.3,0.2,0.4
	c-5,11.8-15.7,19.2-28.1,19.3C38.9,65.3,38.7,65.3,38.6,65.3"/>
</svg>
