<?xml version="1.0" encoding="utf-8"?>
<!-- Generator: Adobe Illustrator 24.0.0, SVG Export Plug-In . SVG Version: 6.00 Build 0)  -->
<svg version="1.1" id="Capa_1" xmlns="http://www.w3.org/2000/svg" xmlns:xlink="http://www.w3.org/1999/xlink" x="0px" y="0px"
	 viewBox="0 0 77.8 77.8" style="enable-background:new 0 0 77.8 77.8;" xml:space="preserve">
<style type="text/css">
	.st0{fill:#FFFFFF;}
	.st1{opacity:0.1;}
	.st2{fill:url(#SVGID_1_);}
	.st3{opacity:8.000000e-02;}
	.st4{clip-path:url(#SVGID_3_);}
	.st5{clip-path:url(#SVGID_5_);}
	.st6{fill:#00656C;}
	.st7{fill:#D4C865;}
	.st8{fill:url(#SVGID_8_);}
	.st9{fill:url(#SVGID_9_);}
	.st10{clip-path:url(#SVGID_11_);}
	.st11{opacity:0.4;fill:url(#SVGID_12_);}
	.st12{fill:none;}
	.st13{fill:#F5F5F5;}
	.st14{opacity:0.2;}
	.st15{opacity:0.1;fill-rule:evenodd;clip-rule:evenodd;fill:#D4C865;}
	.st16{opacity:0.8;}
	.st17{clip-path:url(#SVGID_14_);}
	.st18{clip-path:url(#SVGID_16_);}
	.st19{clip-path:url(#SVGID_18_);}
	.st20{clip-path:url(#SVGID_20_);}
	.st21{clip-path:url(#SVGID_101_);}
	.st22{clip-path:url(#SVGID_104_);}
	.st23{clip-path:url(#SVGID_115_);}
	.st24{clip-path:url(#SVGID_119_);}
	.st25{fill-rule:evenodd;clip-rule:evenodd;fill:#D4C865;}
	.st26{fill:#A8A810;}
	.st27{opacity:0.1;fill:#00656C;}
	.st28{clip-path:url(#SVGID_127_);}
	.st29{clip-path:url(#SVGID_128_);}
	.st30{clip-path:url(#SVGID_129_);}
	.st31{clip-path:url(#SVGID_130_);}
	.st32{clip-path:url(#SVGID_132_);}
	.st33{clip-path:url(#SVGID_134_);}
	.st34{clip-path:url(#SVGID_138_);}
	.st35{clip-path:url(#SVGID_140_);}
	.st36{clip-path:url(#SVGID_144_);}
	.st37{clip-path:url(#SVGID_146_);}
	.st38{clip-path:url(#SVGID_150_);}
	.st39{clip-path:url(#SVGID_152_);}
	.st40{opacity:5.000000e-02;}
	.st41{fill:#F0F0F0;}
	.st42{clip-path:url(#SVGID_156_);}
	.st43{clip-path:url(#SVGID_158_);}
	.st44{clip-path:url(#SVGID_162_);}
	.st45{clip-path:url(#SVGID_166_);}
	.st46{fill-rule:evenodd;clip-rule:evenodd;fill:#FFFFFF;}
	.st47{fill:url(#SVGID_171_);}
	.st48{fill:#F0F1F1;}
	.st49{clip-path:url(#SVGID_179_);}
	.st50{clip-path:url(#SVGID_181_);}
	.st51{opacity:0.2;fill:#3D3845;}
	.st52{clip-path:url(#SVGID_188_);}
	.st53{clip-path:url(#SVGID_190_);}
	.st54{clip-path:url(#SVGID_194_);}
	.st55{clip-path:url(#SVGID_198_);}
	.st56{clip-path:url(#SVGID_200_);}
	.st57{clip-path:url(#SVGID_207_);}
	.st58{clip-path:url(#SVGID_209_);}
	.st59{clip-path:url(#SVGID_213_);}
	.st60{clip-path:url(#SVGID_215_);}
	.st61{opacity:0.5;}
	.st62{clip-path:url(#SVGID_219_);}
	.st63{clip-path:url(#SVGID_221_);}
	.st64{clip-path:url(#SVGID_225_);}
	.st65{clip-path:url(#SVGID_227_);}
	.st66{clip-path:url(#SVGID_231_);}
	.st67{clip-path:url(#SVGID_233_);}
	.st68{clip-path:url(#SVGID_237_);}
	.st69{clip-path:url(#SVGID_239_);}
	.st70{clip-path:url(#SVGID_241_);}
	.st71{clip-path:url(#SVGID_242_);}
	.st72{clip-path:url(#SVGID_243_);}
	.st73{clip-path:url(#SVGID_244_);}
	.st74{clip-path:url(#SVGID_245_);}
	.st75{clip-path:url(#SVGID_247_);}
	.st76{clip-path:url(#SVGID_249_);}
	.st77{clip-path:url(#SVGID_253_);}
	.st78{clip-path:url(#SVGID_255_);}
	.st79{clip-path:url(#SVGID_259_);}
	.st80{clip-path:url(#SVGID_261_);}
	.st81{clip-path:url(#SVGID_265_);}
	.st82{clip-path:url(#SVGID_268_);}
	.st83{clip-path:url(#SVGID_275_);}
	.st84{clip-path:url(#SVGID_277_);}
	.st85{clip-path:url(#SVGID_357_);}
	.st86{clip-path:url(#SVGID_359_);}
	.st87{clip-path:url(#SVGID_367_);}
	.st88{clip-path:url(#SVGID_369_);}
	.st89{fill:#E6E6E6;}
	.st90{clip-path:url(#SVGID_375_);}
	.st91{clip-path:url(#SVGID_377_);}
	.st92{opacity:0.75;clip-path:url(#SVGID_381_);fill:#00656C;}
	.st93{clip-path:url(#SVGID_383_);}
	.st94{clip-path:url(#SVGID_385_);}
	.st95{clip-path:url(#SVGID_389_);}
	.st96{clip-path:url(#SVGID_391_);}
	.st97{clip-path:url(#SVGID_395_);}
	.st98{clip-path:url(#SVGID_397_);}
	.st99{clip-path:url(#SVGID_399_);}
	.st100{clip-path:url(#SVGID_401_);}
	.st101{clip-path:url(#SVGID_403_);}
	.st102{clip-path:url(#SVGID_405_);}
	.st103{clip-path:url(#SVGID_434_);}
	.st104{clip-path:url(#SVGID_436_);}
	.st105{clip-path:url(#SVGID_445_);}
	.st106{clip-path:url(#SVGID_447_);}
	.st107{opacity:0.75;clip-path:url(#SVGID_451_);fill:#00656C;}
	.st108{clip-path:url(#SVGID_453_);}
	.st109{clip-path:url(#SVGID_455_);}
	.st110{clip-path:url(#SVGID_459_);}
	.st111{clip-path:url(#SVGID_461_);}
	.st112{fill:url(#SVGID_464_);}
	.st113{fill:url(#SVGID_465_);}
	.st114{fill:url(#SVGID_466_);}
	.st115{fill:url(#SVGID_467_);}
	.st116{fill:url(#SVGID_468_);}
	.st117{fill:url(#SVGID_469_);}
	.st118{fill:url(#SVGID_470_);}
	.st119{fill:url(#SVGID_471_);}
	.st120{clip-path:url(#SVGID_473_);}
	.st121{clip-path:url(#SVGID_475_);}
	.st122{fill:url(#SVGID_478_);}
	.st123{fill:url(#SVGID_479_);}
	.st124{fill:url(#SVGID_480_);}
	.st125{fill:#00656C;stroke:#00656C;stroke-miterlimit:10;}
	.st126{fill:#FFFFFF;stroke:#00656C;stroke-miterlimit:10;}
	.st127{fill:url(#SVGID_481_);}
	.st128{clip-path:url(#SVGID_483_);}
	.st129{clip-path:url(#SVGID_485_);}
	.st130{fill:url(#SVGID_488_);}
	.st131{fill:url(#SVGID_489_);}
	.st132{fill:url(#SVGID_490_);}
	.st133{fill:url(#SVGID_491_);}
</style>
<g>
	<path class="st0" d="M68.9,77.8H9c-4.9,0-9-4-9-9V9C0,4,4,0,9,0h59.9c4.9,0,9,4,9,9v59.9C77.8,73.8,73.8,77.8,68.9,77.8z"/>
</g>
<g>
	<path class="st7" d="M23.3,43.2c0,0.6-0.1,1.2-0.1,1.7c-0.3,5.5-2.1,9.7-8.4,9.7C5.6,54.6,5,48.8,5,40.8v-4.3
		c0.2-7.6,0.8-13.3,9.8-13.3c5,0.1,7.8,2.6,8.2,7.8c0.1,0.8,0.2,1.5,0.1,2.3h-5.5c-0.2-1.9,0-5.5-2.8-5.5c-4.4,0-4,5.2-4,7.6v8.3
		c0,2.5,0.2,6.5,4,6.5c3.1,0,2.7-5,2.8-6.9H23.3z"/>
	<path class="st6" d="M23.3,54.6l7.5-31.4h7.9l7.1,31.4h-6.3l-1.6-8h-6.9l-1.6,8H23.3z M32,42.1h5l-1.6-8.9
		c-0.3-1.5-0.4-2.9-0.6-4.4c0-0.7-0.1-1.4-0.2-2.1h-0.1c-0.1,0.7-0.2,1.4-0.2,2.1c-0.2,1.5-0.3,2.9-0.6,4.4L32,42.1z"/>
	<path class="st6" d="M51.7,54.6h-5.9V23.2h9.3l3.1,14.6c0.5,2.4,0.8,4.8,1.1,7.3h0.1c0.3-3.1,0.5-5.2,0.9-7.3l3.1-14.6h9.3v31.4H67
		v-9.9c0-6.2,0.1-12.5,0.5-18.7h-0.1l-6.3,28.6h-3.6L51.4,26h-0.2c0.4,6.2,0.5,12.5,0.5,18.7V54.6z"/>
</g>
</svg>
