<?xml version="1.0" encoding="utf-8"?>
<!-- Generator: Adobe Illustrator 24.0.0, SVG Export Plug-In . SVG Version: 6.00 Build 0)  -->
<svg version="1.1" id="Capa_1" xmlns="http://www.w3.org/2000/svg" xmlns:xlink="http://www.w3.org/1999/xlink" x="0px" y="0px"
	 viewBox="0 0 77.8 77.8" style="enable-background:new 0 0 77.8 77.8;" xml:space="preserve">
<style type="text/css">
	.st0{fill:#FFFFFF;}
	.st1{opacity:0.1;}
	.st2{fill:url(#SVGID_1_);}
	.st3{opacity:8.000000e-02;}
	.st4{clip-path:url(#SVGID_3_);}
	.st5{clip-path:url(#SVGID_5_);}
	.st6{fill:#00656C;}
	.st7{fill:#D4C865;}
	.st8{fill:url(#SVGID_8_);}
	.st9{fill:url(#SVGID_9_);}
	.st10{clip-path:url(#SVGID_11_);}
	.st11{opacity:0.4;fill:url(#SVGID_12_);}
	.st12{fill:none;}
	.st13{fill:#F5F5F5;}
	.st14{opacity:0.2;}
	.st15{opacity:0.1;fill-rule:evenodd;clip-rule:evenodd;fill:#D4C865;}
	.st16{opacity:0.8;}
	.st17{clip-path:url(#SVGID_14_);}
	.st18{clip-path:url(#SVGID_16_);}
	.st19{clip-path:url(#SVGID_18_);}
	.st20{clip-path:url(#SVGID_20_);}
	.st21{clip-path:url(#SVGID_101_);}
	.st22{clip-path:url(#SVGID_109_);}
	.st23{fill-rule:evenodd;clip-rule:evenodd;fill:#D4C865;}
	.st24{fill:#A8A810;}
	.st25{opacity:0.1;fill:#00656C;}
	.st26{clip-path:url(#SVGID_117_);}
	.st27{clip-path:url(#SVGID_119_);}
	.st28{clip-path:url(#SVGID_121_);}
	.st29{clip-path:url(#SVGID_122_);}
	.st30{clip-path:url(#SVGID_124_);}
	.st31{clip-path:url(#SVGID_126_);}
	.st32{clip-path:url(#SVGID_130_);}
	.st33{clip-path:url(#SVGID_132_);}
	.st34{clip-path:url(#SVGID_136_);}
	.st35{clip-path:url(#SVGID_138_);}
	.st36{clip-path:url(#SVGID_142_);}
	.st37{clip-path:url(#SVGID_144_);}
	.st38{opacity:5.000000e-02;}
	.st39{fill:#F0F0F0;}
	.st40{clip-path:url(#SVGID_148_);}
	.st41{clip-path:url(#SVGID_150_);}
	.st42{clip-path:url(#SVGID_154_);}
	.st43{clip-path:url(#SVGID_156_);}
	.st44{fill-rule:evenodd;clip-rule:evenodd;fill:#FFFFFF;}
	.st45{fill:url(#SVGID_159_);}
	.st46{fill:#F0F1F1;}
	.st47{clip-path:url(#SVGID_171_);}
	.st48{clip-path:url(#SVGID_173_);}
	.st49{opacity:0.2;fill:#3D3845;}
	.st50{clip-path:url(#SVGID_180_);}
	.st51{clip-path:url(#SVGID_182_);}
	.st52{clip-path:url(#SVGID_186_);}
	.st53{clip-path:url(#SVGID_190_);}
	.st54{clip-path:url(#SVGID_192_);}
	.st55{clip-path:url(#SVGID_199_);}
	.st56{clip-path:url(#SVGID_201_);}
	.st57{clip-path:url(#SVGID_205_);}
	.st58{clip-path:url(#SVGID_207_);}
	.st59{opacity:0.5;}
	.st60{clip-path:url(#SVGID_211_);}
	.st61{clip-path:url(#SVGID_213_);}
	.st62{clip-path:url(#SVGID_217_);}
	.st63{clip-path:url(#SVGID_219_);}
	.st64{clip-path:url(#SVGID_223_);}
	.st65{clip-path:url(#SVGID_225_);}
	.st66{clip-path:url(#SVGID_229_);}
	.st67{clip-path:url(#SVGID_231_);}
	.st68{clip-path:url(#SVGID_233_);}
	.st69{clip-path:url(#SVGID_234_);}
	.st70{clip-path:url(#SVGID_235_);}
	.st71{clip-path:url(#SVGID_236_);}
	.st72{clip-path:url(#SVGID_237_);}
	.st73{clip-path:url(#SVGID_239_);}
	.st74{clip-path:url(#SVGID_241_);}
	.st75{clip-path:url(#SVGID_245_);}
	.st76{clip-path:url(#SVGID_247_);}
	.st77{clip-path:url(#SVGID_251_);}
	.st78{clip-path:url(#SVGID_253_);}
	.st79{clip-path:url(#SVGID_257_);}
	.st80{clip-path:url(#SVGID_259_);}
	.st81{clip-path:url(#SVGID_263_);}
	.st82{clip-path:url(#SVGID_265_);}
	.st83{clip-path:url(#SVGID_345_);}
	.st84{clip-path:url(#SVGID_355_);}
	.st85{fill:#E6E6E6;}
	.st86{clip-path:url(#SVGID_359_);}
	.st87{clip-path:url(#SVGID_361_);}
	.st88{opacity:0.75;clip-path:url(#SVGID_365_);fill:#00656C;}
	.st89{clip-path:url(#SVGID_367_);}
	.st90{clip-path:url(#SVGID_369_);}
	.st91{clip-path:url(#SVGID_373_);}
	.st92{clip-path:url(#SVGID_375_);}
	.st93{clip-path:url(#SVGID_379_);}
	.st94{clip-path:url(#SVGID_381_);}
	.st95{clip-path:url(#SVGID_382_);}
	.st96{clip-path:url(#SVGID_383_);}
	.st97{clip-path:url(#SVGID_384_);}
	.st98{clip-path:url(#SVGID_385_);}
	.st99{clip-path:url(#SVGID_414_);}
	.st100{clip-path:url(#SVGID_416_);}
	.st101{clip-path:url(#SVGID_424_);}
	.st102{clip-path:url(#SVGID_426_);}
	.st103{opacity:0.75;clip-path:url(#SVGID_430_);fill:#00656C;}
	.st104{clip-path:url(#SVGID_433_);}
	.st105{clip-path:url(#SVGID_435_);}
	.st106{clip-path:url(#SVGID_442_);}
	.st107{clip-path:url(#SVGID_445_);}
	.st108{fill:url(#SVGID_448_);}
	.st109{fill:url(#SVGID_449_);}
	.st110{fill:url(#SVGID_450_);}
	.st111{fill:url(#SVGID_451_);}
	.st112{fill:url(#SVGID_452_);}
	.st113{fill:url(#SVGID_453_);}
	.st114{fill:url(#SVGID_454_);}
	.st115{fill:url(#SVGID_455_);}
	.st116{clip-path:url(#SVGID_457_);}
	.st117{clip-path:url(#SVGID_459_);}
	.st118{fill:url(#SVGID_462_);}
	.st119{fill:url(#SVGID_463_);}
	.st120{fill:url(#SVGID_464_);}
	.st121{fill:#00656C;stroke:#00656C;stroke-miterlimit:10;}
	.st122{fill:#FFFFFF;stroke:#00656C;stroke-miterlimit:10;}
	.st123{fill:url(#SVGID_465_);}
	.st124{clip-path:url(#SVGID_467_);}
	.st125{clip-path:url(#SVGID_469_);}
	.st126{fill:url(#SVGID_472_);}
	.st127{fill:url(#SVGID_473_);}
	.st128{fill:url(#SVGID_474_);}
	.st129{fill:url(#SVGID_475_);}
</style>
<g>
	<path class="st0" d="M38.9,77.8L38.9,77.8C17.4,77.8,0,60.4,0,38.9v0C0,17.4,17.4,0,38.9,0h0c21.5,0,38.9,17.4,38.9,38.9v0
		C77.8,60.4,60.4,77.8,38.9,77.8z"/>
</g>
<g>
	<g>
		<path class="st6" d="M38.6,69.1c-13.9,0-25.8-8.1-31.8-21.6c-0.1-0.2,0-0.4,0.2-0.5c0.2-0.1,0.4,0,0.5,0.2
			C13.4,60.4,25,68.3,38.6,68.3c0.1,0,0.3,0,0.4,0c13.8-0.2,25.9-8.4,31.4-21.6c0.1-0.2,0.3-0.3,0.5-0.2c0.2,0.1,0.3,0.3,0.2,0.5
			c-5.7,13.4-18,21.9-32.1,22C38.8,69,38.7,69.1,38.6,69.1"/>
		<path class="st6" d="M29.7,8.8c0,0-0.1,0.5-0.1,0.9c0,0.3-0.1,0.7,0,0.8c0.1,0.1,8.4,4.7,12.8,10.3C45,24.1,56,34.5,57.4,62.2
			l0.2-0.1c0,0,0.4-18.9-9.6-35.6C40.7,14.4,32.2,10.5,29.7,8.8"/>
		<path class="st6" d="M25.4,9.1c0,0-0.1,0.5-0.1,0.9c0,0.3-0.1,0.7,0,0.8c0.1,0.1,8,4.6,12.7,10.6c2.6,3.3,14.3,16.3,14.9,43.2
			l0.2-0.1c0,0,0.8-19.6-10-37.7C35.9,14.7,27.8,10.8,25.4,9.1"/>
		<path class="st7" d="M48,8.8c0,0,0.1,0.5,0.1,0.9c0,0.3,0.1,0.7,0,0.8c-0.1,0.1-8.4,4.7-12.8,10.3c-2.6,3.3-13.5,13.7-14.9,41.4
			l-0.2-0.1c0,0-0.4-18.9,9.6-35.6C37,14.4,45.5,10.5,48,8.8"/>
		<path class="st7" d="M52.3,9.1c0,0,0.1,0.5,0.1,0.9c0,0.3,0.1,0.7,0,0.8c-0.1,0.1-8,4.6-12.7,10.6c-2.6,3.3-14.3,16.3-14.9,43.2
			l-0.2-0.1c0,0-0.8-19.6,10-37.7C41.8,14.7,49.9,10.8,52.3,9.1"/>
		<radialGradient id="SVGID_1_" cx="40.9444" cy="50.4063" r="11.9574" gradientUnits="userSpaceOnUse">
			<stop  offset="0" style="stop-color:#FFFFFF"/>
			<stop  offset="1" style="stop-color:#00504C"/>
		</radialGradient>
		<circle class="st2" cx="38.9" cy="52.8" r="8.6"/>
	</g>
</g>
</svg>
