<?xml version="1.0" encoding="utf-8"?>
<!-- Generator: Adobe Illustrator 21.0.0, SVG Export Plug-In . SVG Version: 6.00 Build 0)  -->
<svg version="1.1" id="Capa_1" xmlns="http://www.w3.org/2000/svg" xmlns:xlink="http://www.w3.org/1999/xlink" x="0px" y="0px"
	 viewBox="0 0 305.9 220.8" style="enable-background:new 0 0 305.9 220.8;" xml:space="preserve">
<style type="text/css">
	.st0{clip-path:url(#SVGID_2_);}
	.st1{fill:#C2C247;}
	.st2{fill:#00504C;}
	.st3{opacity:0.4;fill:url(#SVGID_3_);}
	.st4{fill:none;}
	.st5{fill:#F5F5F5;}
	.st6{opacity:0.2;}
	.st7{opacity:0.1;fill-rule:evenodd;clip-rule:evenodd;fill:#C2C247;}
	.st8{opacity:0.8;}
	.st9{fill:#FFFFFF;}
	.st10{clip-path:url(#SVGID_5_);}
	.st11{clip-path:url(#SVGID_7_);}
	.st12{fill:#808080;}
	.st13{opacity:8.000000e-02;}
	.st14{clip-path:url(#SVGID_9_);}
	.st15{clip-path:url(#SVGID_11_);}
	.st16{clip-path:url(#SVGID_87_);}
	.st17{clip-path:url(#SVGID_89_);}
	.st18{clip-path:url(#SVGID_103_);}
	.st19{clip-path:url(#SVGID_105_);}
	.st20{fill-rule:evenodd;clip-rule:evenodd;fill:#C2C247;}
	.st21{fill:#4A8E82;}
	.st22{fill:#A8A810;}
	.st23{opacity:0.1;fill:#00504C;}
	.st24{clip-path:url(#SVGID_115_);}
	.st25{clip-path:url(#SVGID_117_);}
	.st26{clip-path:url(#SVGID_119_);}
	.st27{clip-path:url(#SVGID_121_);}
	.st28{clip-path:url(#SVGID_123_);}
	.st29{clip-path:url(#SVGID_125_);}
	.st30{clip-path:url(#SVGID_129_);}
	.st31{clip-path:url(#SVGID_131_);}
	.st32{clip-path:url(#SVGID_135_);}
	.st33{clip-path:url(#SVGID_137_);}
	.st34{clip-path:url(#SVGID_141_);}
	.st35{clip-path:url(#SVGID_143_);}
	.st36{opacity:5.000000e-02;}
	.st37{fill:#F0F0F0;}
	.st38{clip-path:url(#SVGID_147_);}
	.st39{clip-path:url(#SVGID_149_);}
	.st40{clip-path:url(#SVGID_153_);}
	.st41{clip-path:url(#SVGID_155_);}
	.st42{fill-rule:evenodd;clip-rule:evenodd;fill:#FFFFFF;}
	.st43{opacity:0.1;}
	.st44{fill:url(#SVGID_158_);}
	.st45{fill:#C8C8C8;}
	.st46{clip-path:url(#SVGID_160_);}
	.st47{clip-path:url(#SVGID_162_);}
	.st48{clip-path:url(#SVGID_164_);}
	.st49{clip-path:url(#SVGID_166_);}
	.st50{clip-path:url(#SVGID_168_);}
	.st51{clip-path:url(#SVGID_170_);}
	.st52{clip-path:url(#SVGID_172_);}
	.st53{clip-path:url(#SVGID_174_);}
	.st54{clip-path:url(#SVGID_178_);}
	.st55{clip-path:url(#SVGID_180_);}
	.st56{clip-path:url(#SVGID_184_);}
	.st57{clip-path:url(#SVGID_186_);}
	.st58{clip-path:url(#SVGID_190_);}
	.st59{clip-path:url(#SVGID_192_);}
	.st60{clip-path:url(#SVGID_196_);}
	.st61{clip-path:url(#SVGID_198_);}
	.st62{clip-path:url(#SVGID_274_);}
	.st63{clip-path:url(#SVGID_276_);}
	.st64{clip-path:url(#SVGID_290_);}
	.st65{clip-path:url(#SVGID_292_);}
	.st66{fill:#E6E6E6;}
	.st67{clip-path:url(#SVGID_300_);}
	.st68{clip-path:url(#SVGID_302_);}
	.st69{opacity:0.75;clip-path:url(#SVGID_306_);fill:#00504C;}
	.st70{clip-path:url(#SVGID_308_);}
	.st71{clip-path:url(#SVGID_310_);}
	.st72{clip-path:url(#SVGID_314_);}
	.st73{clip-path:url(#SVGID_316_);}
	.st74{fill:url(#SVGID_319_);}
	.st75{clip-path:url(#SVGID_321_);}
	.st76{clip-path:url(#SVGID_323_);}
	.st77{clip-path:url(#SVGID_327_);}
	.st78{clip-path:url(#SVGID_329_);}
	.st79{clip-path:url(#SVGID_331_);}
	.st80{clip-path:url(#SVGID_333_);}
	.st81{clip-path:url(#SVGID_335_);}
	.st82{clip-path:url(#SVGID_337_);}
	.st83{fill:url(#SVGID_338_);}
	.st84{fill:url(#SVGID_339_);}
	.st85{clip-path:url(#SVGID_365_);}
	.st86{clip-path:url(#SVGID_367_);}
	.st87{clip-path:url(#SVGID_373_);}
	.st88{clip-path:url(#SVGID_375_);}
	.st89{opacity:8.000000e-02;fill:#00504C;}
	.st90{opacity:8.000000e-02;fill:#C2C247;}
	.st91{clip-path:url(#SVGID_379_);}
	.st92{clip-path:url(#SVGID_381_);}
	.st93{opacity:0.75;clip-path:url(#SVGID_385_);fill:#00504C;}
	.st94{clip-path:url(#SVGID_387_);}
	.st95{clip-path:url(#SVGID_389_);}
	.st96{clip-path:url(#SVGID_393_);}
	.st97{clip-path:url(#SVGID_395_);}
	.st98{fill:url(#SVGID_398_);}
	.st99{clip-path:url(#SVGID_400_);}
	.st100{clip-path:url(#SVGID_402_);}
	.st101{fill:#F0F1F1;}
	.st102{clip-path:url(#SVGID_412_);}
	.st103{clip-path:url(#SVGID_414_);}
	.st104{opacity:0.2;fill:#3D3845;}
	.st105{clip-path:url(#SVGID_424_);}
	.st106{clip-path:url(#SVGID_426_);}
	.st107{clip-path:url(#SVGID_430_);}
	.st108{clip-path:url(#SVGID_434_);}
	.st109{clip-path:url(#SVGID_436_);}
	.st110{clip-path:url(#SVGID_446_);}
	.st111{clip-path:url(#SVGID_448_);}
	.st112{clip-path:url(#SVGID_452_);}
	.st113{clip-path:url(#SVGID_454_);}
	.st114{opacity:0.5;}
	.st115{clip-path:url(#SVGID_458_);}
	.st116{clip-path:url(#SVGID_460_);}
	.st117{clip-path:url(#SVGID_464_);}
	.st118{clip-path:url(#SVGID_466_);}
	.st119{clip-path:url(#SVGID_470_);}
	.st120{clip-path:url(#SVGID_472_);}
	.st121{fill:url(#SVGID_475_);}
	.st122{fill:url(#SVGID_476_);}
</style>
<g>
	<g>
		<g>
			<g>
				<g>
					<defs>
						<path id="SVGID_378_" d="M175.8,120.1c0,12.9-10.5,23.4-23.4,23.4c-12.9,0-23.4-10.5-23.4-23.4c0-12.9,10.5-23.4,23.4-23.4
							C165.3,96.7,175.8,107.1,175.8,120.1"/>
					</defs>
					<clipPath id="SVGID_2_">
						<use xlink:href="#SVGID_378_"  style="overflow:visible;"/>
					</clipPath>
					<g class="st0">
						<g>
							<defs>
								<rect id="SVGID_380_" x="129" y="96.7" width="46.8" height="46.8"/>
							</defs>
							<clipPath id="SVGID_3_">
								<use xlink:href="#SVGID_380_"  style="overflow:visible;"/>
							</clipPath>
							<g style="clip-path:url(#SVGID_3_);">
								<defs>
									<rect id="SVGID_382_" x="129" y="96.7" width="46.8" height="46.8"/>
								</defs>
								<clipPath id="SVGID_5_">
									<use xlink:href="#SVGID_382_"  style="overflow:visible;"/>
								</clipPath>
								<g class="st10">
									
										<image style="overflow:visible;" width="196" height="196" xlink:href="2C174876503D8B4D.jpg"  transform="matrix(0.24 0 0 0.24 128.9771 96.4416)">
									</image>
								</g>
							</g>
						</g>
					</g>
				</g>
				<path class="st2" d="M152,164.3c-37.8,0-70.2-22-86.7-58.9c-0.2-0.5,0-1.1,0.5-1.3c0.5-0.2,1.1,0,1.3,0.5
					c16.2,36.2,47.9,57.8,84.9,57.8c0.3,0,0.7,0,1,0c37.7-0.4,70.5-23,85.6-58.8c0.2-0.5,0.8-0.7,1.3-0.5c0.5,0.2,0.7,0.8,0.5,1.3
					c-15.4,36.6-48.9,59.6-87.4,60C152.8,164.3,152.4,164.3,152,164.3"/>
				<path class="st2" d="M128,0c0,0-0.3,1.5-0.3,2.4c0,0.9-0.3,2,0,2.3c0.3,0.3,22.8,12.9,34.9,28.1c7.1,8.9,36.8,37.4,40.7,112.8
					l0.7-0.2c0,0,1-51.5-26.2-97C157.8,15.2,134.6,4.6,128,0"/>
				<path class="st2" d="M116.1,1c0,0-0.3,1.5-0.3,2.4c0,0.9-0.3,2,0,2.3c0.3,0.3,21.8,12.6,34.7,29c7,8.9,38.9,44.4,40.6,117.7
					l0.7-0.2c0,0,2.2-53.3-27.1-102.7C144.8,16.3,122.8,5.7,116.1,1"/>
				<path class="st1" d="M177.6,0c0,0,0.3,1.5,0.3,2.4c0,0.9,0.3,2,0,2.3c-0.3,0.3-22.8,12.9-34.9,28.1
					c-7.1,8.9-36.8,37.4-40.7,112.8l-0.7-0.2c0,0-1-51.5,26.2-97C147.7,15.2,170.9,4.6,177.6,0"/>
				<path class="st1" d="M189.5,1c0,0,0.3,1.5,0.3,2.4c0,0.9,0.3,2,0,2.3c-0.3,0.3-21.8,12.6-34.7,29c-7,8.9-38.9,44.4-40.6,117.7
					l-0.7-0.2c0,0-2.2-53.3,27.1-102.7C160.7,16.3,182.8,5.7,189.5,1"/>
			</g>
			<g>
				<g>
					<path class="st1" d="M11.6,194.8c0,0.4-0.1,0.7-0.1,1.1c-0.2,3.5-1.3,6.1-5.3,6.1c-5.8,0-6.2-3.7-6.2-8.8v-2.7
						c0.2-4.8,0.5-8.4,6.2-8.4c3.2,0.1,4.9,1.7,5.2,4.9c0,0.5,0.1,1,0.1,1.4H8c-0.2-1.2,0-3.5-1.8-3.5c-2.8,0-2.6,3.3-2.6,4.8v5.3
						c0,1.6,0.1,4.1,2.6,4.1c1.9,0,1.7-3.1,1.8-4.4H11.6z"/>
					<path class="st1" d="M13.4,192.2c-0.2-3.4,1.6-5.3,4.8-5.3c4.6,0,5.1,2.4,5.1,6.3v1.9h-6.6v2.1c0,1.9,0.7,2.2,1.7,2.2
						c1.2,0,1.6-0.9,1.5-2.7h3.3c0.1,3.2-1.2,5.2-4.6,5.2c-3.8,0-5.3-1.8-5.3-6V192.2z M20,192.6v-1.2c0-1.4-0.4-1.9-1.7-1.9
						c-1.6,0-1.6,1.3-1.6,2.6v0.6H20z"/>
					<path class="st1" d="M28.9,188.8L28.9,188.8c0.8-1.6,2.3-1.8,3-1.8c1.9,0,3.4,1.1,3.3,3.6v11h-3.3v-9.5c0-1.4-0.2-2.3-1.4-2.4
						c-1.2-0.1-1.7,1.1-1.6,2.6v9.2h-3.3v-14.3h3.3V188.8z"/>
					<path class="st1" d="M42.5,201.7c-1.9,0.2-4.7,0.4-4.7-2.3v-9.7h-1.3v-2.4h1.3v-3.9h3.3v3.9h1.4v2.4h-1.4v8.9
						c0.1,0.6,1,0.5,1.4,0.5V201.7z"/>
					<path class="st1" d="M47.2,189.9L47.2,189.9c0.5-1,0.9-1.6,1.3-2c0.9-0.8,1.6-0.7,2.1-0.8v3.9c-1.8-0.2-3.2,0.3-3.3,2.4v8.3H44
						v-14.3h3.2V189.9z"/>
					<path class="st1" d="M51.7,195c0-4.9,0.1-8,5-8c4.9,0,4.9,3.1,4.9,8c0,5-0.7,7.1-4.9,7C52.4,202.1,51.6,199.9,51.7,195
						 M54.9,196.9c0,1.7,0.2,2.5,1.7,2.5c1.5,0,1.6-0.8,1.6-2.5v-4.8c0-1.3,0-2.7-1.6-2.7c-1.7,0-1.7,1.4-1.7,2.7V196.9z"/>
					<path class="st1" d="M75.7,200.1L75.7,200.1c-0.7,1.4-1.6,1.8-2.9,1.9c-2.8,0-3.4-2.5-3.4-4.8V192c0.1-3.9,1.3-5,3.4-5.1
						c1.4,0,2.3,0.5,2.9,1.8h0.1c-0.1-0.4-0.1-0.8-0.1-1.3v-4.9H79v19h-3.3V200.1z M75.7,192.6c0.1-1.1,0-3.2-1.5-3.2
						c-1.5,0-1.4,1.3-1.5,2.8v4.8c0.1,1.4,0.4,2.5,1.4,2.5c1.1,0,1.6-0.9,1.6-2.5V192.6z"/>
					<path class="st1" d="M81.4,192.2c-0.2-3.4,1.6-5.3,4.8-5.3c4.6,0,5.1,2.4,5.1,6.3v1.9h-6.6v2.1c0,1.9,0.7,2.2,1.7,2.2
						c1.2,0,1.6-0.9,1.5-2.7h3.3c0.1,3.2-1.2,5.2-4.6,5.2c-3.8,0-5.3-1.8-5.3-6V192.2z M88,192.6v-1.2c0-1.4-0.4-1.9-1.7-1.9
						c-1.6,0-1.6,1.3-1.6,2.6v0.6H88z"/>
					<path class="st2" d="M98,201.6l4.5-19h4.8l4.3,19h-3.8l-0.9-4.8h-4.2l-0.9,4.8H98z M103.3,194h3l-1-5.4
						c-0.2-0.9-0.3-1.7-0.4-2.6c0-0.4-0.1-0.9-0.1-1.3h-0.1c-0.1,0.4-0.1,0.8-0.1,1.3c-0.1,0.9-0.2,1.7-0.4,2.6L103.3,194z"/>
					<path class="st2" d="M115.9,189.9L115.9,189.9c0.5-1,0.9-1.6,1.3-2c0.9-0.8,1.6-0.7,2.1-0.8v3.9c-1.8-0.2-3.2,0.3-3.3,2.4v8.3
						h-3.3v-14.3h3.2V189.9z"/>
					<path class="st2" d="M120.7,182.6h3.3v4.6c0,0.5,0,0.9-0.1,1.6h0.1c0.7-1.4,1.5-1.8,2.9-1.8c2.1,0.1,3.3,1.1,3.4,5.1v5.2
						c-0.1,2.3-0.6,4.8-3.4,4.8c-1.4-0.1-2.3-0.5-3-1.9h0v1.5h-3.1V182.6z M123.9,196.9c0,1.6,0.5,2.5,1.6,2.5c1,0,1.4-1.1,1.4-2.5
						v-4.8c-0.1-1.4,0.1-2.8-1.5-2.8c-1.5,0-1.6,2-1.5,3.2V196.9z"/>
					<path class="st2" d="M132.9,182.6h3.3v3h-3.3V182.6z M132.9,187.3h3.3v14.3h-3.3V187.3z"/>
					<path class="st2" d="M143.8,201.7c-2,0.2-4.7,0.4-4.7-2.3v-9.7h-1.3v-2.4h1.3v-3.9h3.3v3.9h1.4v2.4h-1.4v8.9
						c0.1,0.6,1,0.5,1.4,0.5V201.7z"/>
					<path class="st2" d="M148.6,189.9L148.6,189.9c0.5-1,0.9-1.6,1.3-2c0.9-0.8,1.6-0.7,2-0.8v3.9c-1.8-0.2-3.2,0.3-3.3,2.4v8.3
						h-3.3v-14.3h3.2V189.9z"/>
					<path class="st2" d="M159.7,201.6c-0.2-0.5-0.3-1-0.2-1.5h0c-0.4,0.6-0.8,1.1-1.3,1.4c-0.5,0.3-1,0.5-1.6,0.5
						c-2.7,0-3.8-1.3-3.8-4.3c0-3.3,2.3-4.1,4.9-5.1c1.4-0.6,1.9-1.2,1.6-2.4c-0.2-0.6-0.7-0.7-1.5-0.7c-1.5,0-1.7,0.8-1.7,2.1h-3.1
						c0-2.7,0.9-4.6,5-4.6c4.5,0,4.8,2.4,4.7,4.2v8.4c0,0.7,0.1,1.3,0.3,2H159.7z M159.2,194.1c-0.8,0.6-1.8,1.1-2.7,1.8
						c-0.5,0.4-0.6,1.1-0.6,1.7c0,1.1,0.3,1.8,1.5,1.8c1.9,0,1.6-2.5,1.7-3.8V194.1z"/>
					<path class="st2" d="M164.5,203.9c0.8,0.1,1.2-0.1,1.2-0.8v-15.8h3.3v14.4c0,1.5,0.3,3.7-1.3,4.5c-0.5,0.2-1.7,0.4-3.2,0.2
						V203.9z M165.7,182.6h3.3v3h-3.3V182.6z"/>
					<path class="st2" d="M171.4,192.2c-0.2-3.4,1.6-5.3,4.8-5.3c4.6,0,5.1,2.4,5.1,6.3v1.9h-6.6v2.1c0,1.9,0.7,2.2,1.7,2.2
						c1.2,0,1.6-0.9,1.5-2.7h3.3c0.1,3.2-1.2,5.2-4.6,5.2c-3.8,0-5.3-1.8-5.3-6V192.2z M178,192.6v-1.2c0-1.4-0.4-1.9-1.7-1.9
						c-1.6,0-1.6,1.3-1.6,2.6v0.6H178z"/>
					<path class="st2" d="M191.4,187.3l1.4,7.6c0.2,1.3,0.4,2.5,0.5,3.8h0.1c0.1-1.2,0.3-2.5,0.5-3.7l1.4-7.7h3.3l-3.5,14.5
						c-0.8,3.2-0.9,5.3-5.5,4.6v-2.6c0.5,0,1.9,0.3,1.9-0.6c0-0.5-0.2-1.3-0.3-1.8l-3.4-14.1H191.4z"/>
					<path class="st2" d="M209.4,201.6h-3.5v-19h5.6l1.9,8.8c0.3,1.4,0.5,2.9,0.7,4.4h0.1c0.2-1.9,0.3-3.1,0.6-4.4l1.9-8.8h5.6v19
						h-3.5v-6c0-3.8,0.1-7.5,0.3-11.3h-0.1l-3.8,17.3h-2.2l-3.7-17.3h-0.1c0.2,3.8,0.3,7.5,0.3,11.3V201.6z"/>
					<path class="st2" d="M224.5,192.2c-0.2-3.4,1.6-5.3,4.8-5.3c4.6,0,5.1,2.4,5.1,6.3v1.9h-6.6v2.1c0,1.9,0.7,2.2,1.7,2.2
						c1.2,0,1.6-0.9,1.5-2.7h3.3c0.1,3.2-1.2,5.2-4.6,5.2c-3.8,0-5.3-1.8-5.3-6V192.2z M231.1,192.6v-1.2c0-1.4-0.4-1.9-1.7-1.9
						c-1.6,0-1.6,1.3-1.6,2.6v0.6H231.1z"/>
					<path class="st2" d="M242.9,200.1L242.9,200.1c-0.7,1.4-1.6,1.8-2.9,1.9c-2.8,0-3.4-2.5-3.4-4.8V192c0.1-3.9,1.3-5,3.4-5.1
						c1.4,0,2.3,0.5,2.9,1.8h0.1c-0.1-0.4-0.1-0.8-0.1-1.3v-4.9h3.3v19h-3.3V200.1z M242.9,192.6c0.1-1.1,0-3.2-1.5-3.2
						c-1.5,0-1.4,1.3-1.5,2.8v4.8c0.1,1.4,0.4,2.5,1.4,2.5c1.1,0,1.6-0.9,1.6-2.5V192.6z"/>
					<path class="st2" d="M249.1,182.6h3.3v3h-3.3V182.6z M249.1,187.3h3.3v14.3h-3.3V187.3z"/>
					<path class="st2" d="M261.7,201.6c-0.2-0.5-0.3-1-0.2-1.5h-0.1c-0.4,0.6-0.8,1.1-1.3,1.4c-0.5,0.3-1,0.5-1.6,0.5
						c-2.7,0-3.8-1.3-3.8-4.3c0-3.3,2.3-4.1,4.9-5.1c1.4-0.6,1.9-1.2,1.6-2.4c-0.2-0.6-0.7-0.7-1.5-0.7c-1.5,0-1.7,0.8-1.7,2.1h-3.1
						c0-2.7,0.9-4.6,5-4.6c4.5,0,4.8,2.4,4.7,4.2v8.4c0,0.7,0.1,1.3,0.3,2H261.7z M261.2,194.1c-0.8,0.6-1.8,1.1-2.7,1.8
						c-0.5,0.4-0.6,1.1-0.6,1.7c0,1.1,0.3,1.8,1.5,1.8c1.9,0,1.6-2.5,1.7-3.8V194.1z"/>
					<path class="st2" d="M272.6,192.3v-1.6c-0.1-0.8-0.4-1.2-1.1-1.2c-1.3,0-1.3,1.4-1.2,3.2v3.4c-0.1,2.8,0.3,3.3,1.2,3.4
						c1,0,1-1,1.1-2.1V196h3.3v1.3c0,3-1.2,4.6-4.5,4.6c-2.9,0-4.6-1.5-4.5-5.3V192c0-4,1.9-5.1,4.5-5.1c3.3,0,4.5,2.1,4.5,4.2v1.1
						H272.6z"/>
					<path class="st2" d="M278.2,182.6h3.3v3h-3.3V182.6z M278.2,187.3h3.3v14.3h-3.3V187.3z"/>
					<path class="st2" d="M284,195c0-4.9,0.1-8,5-8c4.9,0,4.9,3.1,4.9,8c0,5-0.7,7.1-4.9,7C284.8,202.1,284,199.9,284,195
						 M289.3,182h3.9l-3.7,3.7h-2.6L289.3,182z M287.3,196.9c0,1.7,0.2,2.5,1.7,2.5c1.5,0,1.6-0.8,1.6-2.5v-4.8c0-1.3,0-2.7-1.6-2.7
						c-1.7,0-1.7,1.4-1.7,2.7V196.9z"/>
					<path class="st2" d="M299.6,188.8L299.6,188.8c0.8-1.6,2.3-1.8,3-1.8c1.9,0,3.4,1.1,3.3,3.6v11h-3.3v-9.5
						c0-1.4-0.2-2.3-1.4-2.4c-1.2-0.1-1.7,1.1-1.6,2.6v9.2h-3.3v-14.3h3.3V188.8z"/>
				</g>
				<g>
					<path class="st2" d="M46.9,213.6c0-1.2-0.4-2.2-1.8-2.2c-1.9,0-1.9,2.7-1.9,4.1c-0.1,1.4-0.1,4.4,1.9,4.4
						c1.3,0,1.6-1.1,1.7-2.2c0-0.2,0-0.5,0.1-0.7H48c0,0.2,0,0.4-0.1,0.6c-0.1,0.8-0.1,1.4-0.6,2.1c-0.5,0.7-1.2,1.1-2.2,1.1
						c-3.1,0-3.2-3-3.2-5.4c0-2.3,0.3-5.1,3.2-5.1c1.9,0,2.9,1.4,2.8,3.2H46.9z"/>
					<path class="st2" d="M51.4,210.6h1.5l2.8,10h-1.2l-0.8-2.9h-3.2l-0.7,2.9h-1.2L51.4,210.6z M52.1,211.4L52.1,211.4l-1.3,5.3
						h2.6L52.1,211.4z M52.4,207.8h1.5l-1.7,1.9h-0.9L52.4,207.8z"/>
					<path class="st2" d="M62.9,210.6h1.9v10h-1.1v-8.2c0-0.4,0-0.8,0-1.3h0c-0.1,0.6-0.2,1-0.3,1.3l-2.1,8.2H60l-2.1-8.3
						c-0.1-0.3-0.2-0.7-0.3-1.2h0c0,0.4,0,0.9,0,1.3v8.2h-1.1v-10h2l2,7.8c0.1,0.4,0.2,0.8,0.2,1.5h0c0.1-0.5,0.1-1,0.3-1.5
						L62.9,210.6z"/>
					<path class="st2" d="M68.5,210.6H70l2.8,10h-1.2l-0.8-2.9h-3.2l-0.7,2.9h-1.2L68.5,210.6z M69.2,211.4L69.2,211.4l-1.3,5.3h2.6
						L69.2,211.4z"/>
					<path class="st2" d="M74.8,220.6h-1.1v-10h2.6c2.1,0,3.4,0.5,3.4,2.9c0,1.2-0.8,2-1.9,2.2v0c1.3,0.1,1.6,0.5,1.8,1.9
						c0,0.7,0.1,1.5,0.2,2.2c0,0.2,0.1,0.6,0.4,0.6v0.2h-1.3c-0.2-0.6-0.3-1.9-0.3-2.5c0-1-0.4-1.9-1.7-1.9h-1.9V220.6z M74.8,215.2
						h1.7c0.5,0,2-0.1,1.9-1.8c0-1.7-1.4-1.8-2.1-1.8h-1.6V215.2z"/>
					<path class="st2" d="M83.4,210.6h1.5l2.8,10h-1.2l-0.8-2.9h-3.2l-0.7,2.9h-1.2L83.4,210.6z M84.1,211.4L84.1,211.4l-1.3,5.3
						h2.6L84.1,211.4z"/>
					<path class="st2" d="M92.8,213.2c0.1-1-0.5-1.8-1.6-1.8c-1.6,0-1.8,1-1.8,1.8c0,0.7,0.3,1.1,0.9,1.4l1.6,0.6
						c1.9,0.7,2.2,1.4,2.2,2.7c0,1.9-1.2,3-3.1,3c-1,0-2.2-0.3-2.7-1.6c-0.2-0.5-0.2-1.3-0.2-1.8h1.1c-0.1,1.5,0.2,2.4,1.9,2.4
						c1.1,0,1.9-0.6,1.9-1.7c0-1.5-0.6-1.5-1.6-1.9c-0.5-0.2-1.4-0.5-2-0.8c-0.9-0.5-1.2-1.3-1.2-2.3c0-1.7,1.2-2.7,2.8-2.7
						c1.8,0,2.9,0.9,2.8,2.8H92.8z"/>
					<path class="st2" d="M98.6,220.6v-10h2.7c3.1,0,3.5,2.5,3.5,5c-0.1,2.4-0.6,5-3.3,5H98.6z M99.7,219.6h1.8
						c1.6,0,2.3-1.2,2.2-4.2c-0.1-2.3-0.4-3.8-2.2-3.8h-1.8V219.6z"/>
					<polygon class="st2" points="106.3,220.6 106.3,210.6 111.3,210.6 111.3,211.6 107.4,211.6 107.4,214.9 111.1,214.9 
						111.1,215.9 107.4,215.9 107.4,219.6 111.4,219.6 111.4,220.6 					"/>
					<polygon class="st2" points="115.8,220.6 115.8,210.6 116.9,210.6 116.9,219.6 121,219.6 121,220.6 					"/>
					<path class="st2" d="M124,210.6h1.5l2.8,10h-1.2l-0.8-2.9h-3.2l-0.7,2.9h-1.2L124,210.6z M124.7,211.4L124.7,211.4l-1.3,5.3
						h2.6L124.7,211.4z"/>
					<path class="st2" d="M132.2,220.6v-10h2.6c0.8,0,1.7,0.1,2.3,0.7c0.6,0.6,0.8,1.3,0.8,2.1c0,1.1-0.3,2.2-1.4,2.7
						c-0.7,0.3-1.8,0.3-2.6,0.3h-0.7v4.2H132.2z M133.3,215.3h1.1c1.5,0,2.5-0.2,2.4-1.9c0-1.6-1-1.8-2.4-1.8h-1.1V215.3z"/>
					<path class="st2" d="M140.4,220.6h-1.1v-10h2.6c2.1,0,3.4,0.5,3.4,2.9c0,1.2-0.8,2-1.9,2.2v0c1.3,0.1,1.6,0.5,1.8,1.9
						c0,0.7,0.1,1.5,0.2,2.2c0,0.2,0.1,0.6,0.4,0.6v0.2h-1.3c-0.2-0.6-0.3-1.9-0.3-2.5c0-1-0.4-1.9-1.7-1.9h-1.9V220.6z
						 M140.4,215.2h1.7c0.5,0,2-0.1,1.9-1.8c0-1.7-1.4-1.8-2.1-1.8h-1.6V215.2z"/>
					<path class="st2" d="M150.1,210.4c2.9,0,3.3,2.7,3.3,5c0,2.8-0.4,5.5-3.3,5.5c-2.9,0-3.3-2.7-3.3-5.5
						C146.8,213.1,147.1,210.4,150.1,210.4 M150,211.4c-1.7,0-2.1,1.8-2.1,4c0,2.9,0.3,4.4,2.1,4.4c1.8,0,2.1-1.5,2.1-4.4
						C152.2,213.2,151.8,211.4,150,211.4"/>
					<path class="st2" d="M154.9,220.6v-10h2.7c3.1,0,3.5,2.5,3.5,5c-0.1,2.4-0.6,5-3.3,5H154.9z M156,219.6h1.8
						c1.6,0,2.3-1.2,2.2-4.2c-0.1-2.3-0.4-3.8-2.2-3.8H156V219.6z"/>
					<path class="st2" d="M162.7,210.6h1.1v7.2c0,0.8,0.1,2.1,1.9,2.1c1.8,0,1.9-1.3,1.9-2.1v-7.2h1.1v7.6c0,1.8-1.2,2.7-3,2.7
						c-1.8,0-3-0.9-3-2.7V210.6z"/>
					<path class="st2" d="M175,213.6c0-1.2-0.4-2.2-1.8-2.2c-1.9,0-1.9,2.7-1.9,4.1c-0.1,1.4-0.1,4.4,1.9,4.4c1.3,0,1.6-1.1,1.7-2.2
						c0-0.2,0-0.5,0.1-0.7h1.1c0,0.2,0,0.4-0.1,0.6c-0.1,0.8-0.1,1.4-0.6,2.1c-0.5,0.7-1.2,1.1-2.2,1.1c-3.1,0-3.2-3-3.2-5.4
						c0-2.3,0.3-5.1,3.2-5.1c1.9,0,2.9,1.4,2.8,3.2H175z"/>
					<path class="st2" d="M182.1,213.6c0-1.2-0.4-2.2-1.8-2.2c-1.9,0-1.9,2.7-1.9,4.1c-0.1,1.4-0.1,4.4,1.9,4.4
						c1.3,0,1.6-1.1,1.7-2.2c0-0.2,0-0.5,0.1-0.7h1.1c0,0.2,0,0.4-0.1,0.6c-0.1,0.8-0.1,1.4-0.6,2.1c-0.5,0.7-1.2,1.1-2.2,1.1
						c-3.1,0-3.2-3-3.2-5.4c0-2.3,0.3-5.1,3.2-5.1c1.9,0,2.9,1.4,2.8,3.2H182.1z"/>
					<rect x="184.9" y="210.6" class="st2" width="1.1" height="10"/>
					<path class="st2" d="M191,210.4c2.9,0,3.3,2.7,3.3,5c0,2.8-0.4,5.5-3.3,5.5c-2.9,0-3.3-2.7-3.3-5.5
						C187.7,213.1,188.1,210.4,191,210.4 M191,211.4c-1.7,0-2.1,1.8-2.1,4c0,2.9,0.3,4.4,2.1,4.4c1.8,0,2.1-1.5,2.1-4.4
						C193.2,213.2,192.7,211.4,191,211.4 M191.3,207.8h1.5l-1.7,1.9h-0.9L191.3,207.8z"/>
					<path class="st2" d="M200.7,210.6h1.1v10H200l-2.8-8c-0.2-0.5-0.3-0.9-0.4-1.5h0c0,0.5,0,1,0,1.5v8h-1.1v-10h1.8l2.8,8.2
						c0.1,0.3,0.2,0.6,0.3,1.1h0c0-0.4,0-0.7,0-1.1V210.6z"/>
					<path class="st2" d="M206.6,220.6v-10h2.7c3.1,0,3.5,2.5,3.5,5c-0.1,2.4-0.6,5-3.3,5H206.6z M207.7,219.6h1.8
						c1.6,0,2.3-1.2,2.2-4.2c-0.1-2.3-0.4-3.8-2.2-3.8h-1.8V219.6z"/>
					<polygon class="st2" points="214.3,220.6 214.3,210.6 219.3,210.6 219.3,211.6 215.4,211.6 215.4,214.9 219.1,214.9 
						219.1,215.9 215.4,215.9 215.4,219.6 219.4,219.6 219.4,220.6 					"/>
					<polygon class="st2" points="220.8,220.6 220.8,210.6 221.9,210.6 221.9,219.6 226,219.6 226,220.6 					"/>
					<path class="st2" d="M232,210.6h1.5l2.8,10h-1.2l-0.8-2.9h-3.2l-0.7,2.9h-1.2L232,210.6z M232.7,211.4L232.7,211.4l-1.3,5.3
						h2.6L232.7,211.4z"/>
					<polygon class="st2" points="236.5,220.6 236.5,219.6 241.2,211.6 236.6,211.6 236.6,210.6 242.3,210.6 242.3,211.5 
						237.6,219.6 242.4,219.6 242.4,220.6 					"/>
					<path class="st2" d="M243.5,210.6h1.1v7.2c0,0.8,0.1,2.1,1.9,2.1c1.8,0,1.9-1.3,1.9-2.1v-7.2h1.1v7.6c0,1.8-1.2,2.7-3,2.7
						c-1.8,0-3-0.9-3-2.7V210.6z"/>
					<path class="st2" d="M253.2,210.6h1.5l2.8,10h-1.2l-0.8-2.9h-3.2l-0.7,2.9h-1.2L253.2,210.6z M253.9,211.4L253.9,211.4
						l-1.3,5.3h2.6L253.9,211.4z"/>
					<polygon class="st2" points="260.3,215.6 262.6,210.6 263.8,210.6 260.8,216.7 260.8,220.6 259.7,220.6 259.7,216.7 
						256.7,210.6 257.9,210.6 					"/>
				</g>
			</g>
		</g>
	</g>
</g>
</svg>
