<?xml version="1.0" encoding="utf-8"?>
<!-- Generator: Adobe Illustrator 24.0.0, SVG Export Plug-In . SVG Version: 6.00 Build 0)  -->
<svg version="1.1" id="Capa_1" xmlns="http://www.w3.org/2000/svg" xmlns:xlink="http://www.w3.org/1999/xlink" x="0px" y="0px"
	 viewBox="0 0 29.1 28.6" style="enable-background:new 0 0 29.1 28.6;" xml:space="preserve">
<style type="text/css">
	.st0{fill:#FFFFFF;}
	.st1{opacity:0.1;}
	.st2{fill:url(#SVGID_1_);}
	.st3{opacity:8.000000e-02;}
	.st4{clip-path:url(#SVGID_3_);}
	.st5{clip-path:url(#SVGID_5_);}
	.st6{fill:#00656C;}
	.st7{fill:#D4C865;}
	.st8{fill:url(#SVGID_8_);}
	.st9{fill:url(#SVGID_9_);}
	.st10{clip-path:url(#SVGID_11_);}
	.st11{opacity:0.4;fill:url(#SVGID_12_);}
	.st12{fill:none;}
	.st13{fill:#F5F5F5;}
	.st14{opacity:0.2;}
	.st15{opacity:0.1;fill-rule:evenodd;clip-rule:evenodd;fill:#D4C865;}
	.st16{opacity:0.8;}
	.st17{clip-path:url(#SVGID_14_);}
	.st18{clip-path:url(#SVGID_16_);}
	.st19{clip-path:url(#SVGID_18_);}
	.st20{clip-path:url(#SVGID_20_);}
	.st21{clip-path:url(#SVGID_101_);}
	.st22{clip-path:url(#SVGID_109_);}
	.st23{fill-rule:evenodd;clip-rule:evenodd;fill:#D4C865;}
	.st24{fill:#A8A810;}
	.st25{opacity:0.1;fill:#00656C;}
	.st26{clip-path:url(#SVGID_117_);}
	.st27{clip-path:url(#SVGID_119_);}
	.st28{clip-path:url(#SVGID_121_);}
	.st29{clip-path:url(#SVGID_122_);}
	.st30{clip-path:url(#SVGID_124_);}
	.st31{clip-path:url(#SVGID_126_);}
	.st32{clip-path:url(#SVGID_130_);}
	.st33{clip-path:url(#SVGID_132_);}
	.st34{clip-path:url(#SVGID_136_);}
	.st35{clip-path:url(#SVGID_138_);}
	.st36{clip-path:url(#SVGID_142_);}
	.st37{clip-path:url(#SVGID_144_);}
	.st38{opacity:5.000000e-02;}
	.st39{fill:#F0F0F0;}
	.st40{clip-path:url(#SVGID_148_);}
	.st41{clip-path:url(#SVGID_150_);}
	.st42{clip-path:url(#SVGID_154_);}
	.st43{clip-path:url(#SVGID_156_);}
	.st44{fill-rule:evenodd;clip-rule:evenodd;fill:#FFFFFF;}
	.st45{fill:url(#SVGID_159_);}
	.st46{fill:#F0F1F1;}
	.st47{clip-path:url(#SVGID_171_);}
	.st48{clip-path:url(#SVGID_173_);}
	.st49{opacity:0.2;fill:#3D3845;}
	.st50{clip-path:url(#SVGID_180_);}
	.st51{clip-path:url(#SVGID_182_);}
	.st52{clip-path:url(#SVGID_186_);}
	.st53{clip-path:url(#SVGID_190_);}
	.st54{clip-path:url(#SVGID_192_);}
	.st55{clip-path:url(#SVGID_199_);}
	.st56{clip-path:url(#SVGID_201_);}
	.st57{clip-path:url(#SVGID_205_);}
	.st58{clip-path:url(#SVGID_207_);}
	.st59{opacity:0.5;}
	.st60{clip-path:url(#SVGID_211_);}
	.st61{clip-path:url(#SVGID_213_);}
	.st62{clip-path:url(#SVGID_217_);}
	.st63{clip-path:url(#SVGID_219_);}
	.st64{clip-path:url(#SVGID_223_);}
	.st65{clip-path:url(#SVGID_225_);}
	.st66{clip-path:url(#SVGID_229_);}
	.st67{clip-path:url(#SVGID_231_);}
	.st68{clip-path:url(#SVGID_233_);}
	.st69{clip-path:url(#SVGID_234_);}
	.st70{clip-path:url(#SVGID_235_);}
	.st71{clip-path:url(#SVGID_236_);}
	.st72{clip-path:url(#SVGID_237_);}
	.st73{clip-path:url(#SVGID_239_);}
	.st74{clip-path:url(#SVGID_241_);}
	.st75{clip-path:url(#SVGID_245_);}
	.st76{clip-path:url(#SVGID_247_);}
	.st77{clip-path:url(#SVGID_251_);}
	.st78{clip-path:url(#SVGID_253_);}
	.st79{clip-path:url(#SVGID_257_);}
	.st80{clip-path:url(#SVGID_259_);}
	.st81{clip-path:url(#SVGID_263_);}
	.st82{clip-path:url(#SVGID_265_);}
	.st83{clip-path:url(#SVGID_345_);}
	.st84{clip-path:url(#SVGID_355_);}
	.st85{fill:#E6E6E6;}
	.st86{clip-path:url(#SVGID_359_);}
	.st87{clip-path:url(#SVGID_361_);}
	.st88{opacity:0.75;clip-path:url(#SVGID_365_);fill:#00656C;}
	.st89{clip-path:url(#SVGID_367_);}
	.st90{clip-path:url(#SVGID_369_);}
	.st91{clip-path:url(#SVGID_373_);}
	.st92{clip-path:url(#SVGID_375_);}
	.st93{clip-path:url(#SVGID_379_);}
	.st94{clip-path:url(#SVGID_381_);}
	.st95{clip-path:url(#SVGID_382_);}
	.st96{clip-path:url(#SVGID_383_);}
	.st97{clip-path:url(#SVGID_384_);}
	.st98{clip-path:url(#SVGID_385_);}
	.st99{clip-path:url(#SVGID_414_);}
	.st100{clip-path:url(#SVGID_416_);}
	.st101{clip-path:url(#SVGID_424_);}
	.st102{clip-path:url(#SVGID_426_);}
	.st103{opacity:0.75;clip-path:url(#SVGID_430_);fill:#00656C;}
	.st104{clip-path:url(#SVGID_433_);}
	.st105{clip-path:url(#SVGID_435_);}
	.st106{clip-path:url(#SVGID_442_);}
	.st107{clip-path:url(#SVGID_445_);}
	.st108{fill:url(#SVGID_448_);}
	.st109{fill:url(#SVGID_449_);}
	.st110{fill:url(#SVGID_450_);}
	.st111{fill:url(#SVGID_451_);}
	.st112{fill:url(#SVGID_452_);}
	.st113{fill:url(#SVGID_453_);}
	.st114{fill:url(#SVGID_454_);}
	.st115{fill:url(#SVGID_455_);}
	.st116{clip-path:url(#SVGID_457_);}
	.st117{clip-path:url(#SVGID_459_);}
	.st118{fill:url(#SVGID_462_);}
	.st119{fill:url(#SVGID_463_);}
	.st120{fill:url(#SVGID_464_);}
	.st121{fill:#00656C;stroke:#00656C;stroke-miterlimit:10;}
	.st122{fill:#FFFFFF;stroke:#00656C;stroke-miterlimit:10;}
	.st123{fill:url(#SVGID_465_);}
	.st124{clip-path:url(#SVGID_467_);}
	.st125{clip-path:url(#SVGID_469_);}
	.st126{fill:url(#SVGID_472_);}
	.st127{fill:url(#SVGID_473_);}
	.st128{fill:#00656C;stroke:#00656C;stroke-width:3;stroke-miterlimit:10;}
	.st129{fill:url(#SVGID_474_);}
	.st130{fill:url(#SVGID_475_);}
	.st131{fill:url(#SVGID_476_);}
	.st132{fill:#D4C865;stroke:#D4C865;stroke-width:3;stroke-miterlimit:10;}
	.st133{fill:#828282;}
	.st134{fill:none;stroke:#828282;stroke-width:0.25;stroke-miterlimit:10;}
</style>
<g>
	<path class="st0" d="M10,7.7c0.3,0,0.7,0.2,0.8,0.2c0.2,0,0.3,0.3,0.3,0.3c0.3,1,0.8,1.8,1.1,2.8c0.2,0.5-0.2,1-0.8,1.8
		c-0.2,0.3-0.3,0.5-0.2,0.8c1.1,2.1,2.8,3.4,4.9,4.2c0.2,0,0.2,0.2,0.3,0.2c0.2,0,0.3-0.2,0.5-0.3c1-1.1,1.1-1.6,1.6-1.6
		c0.2,0,0.2,0,0.3,0.2c2.9,1.3,3.1,1.5,3.1,1.8c0.2,2.3-2,3.3-3.3,3.3c-0.2,0-0.2,0-0.2,0c-2.8-0.2-7.3-2.3-10.3-7.7
		C7.2,11.8,7.5,9.5,9,8C9.3,7.7,9.6,7.7,10,7.7"/>
	<path class="st0" d="M28.9,11.6c1.3,8-3.9,15.5-11.8,16.8c-0.8,0.2-1.6,0.2-2.6,0.2c-2.3,0-4.4-0.5-6.4-1.6
		c-0.2-0.2-0.3-0.2-0.7-0.2c-0.2,0-0.2,0-0.3,0c-3.8,1-6.4,1.6-7.2,1.8c0.2-0.7,0.3-1.1,0.5-1.8c0.7-1.5,1.1-3.3,1.6-4.9
		c0-0.2,0-0.3-0.2-0.7c-4.2-8.5,0.3-18.8,9.6-20.9C12.7,0,13.9,0,15,0C22-0.2,27.9,5.1,28.9,11.6 M16.7,26.3
		c6.5-1.1,11.1-7.2,10.1-13.7c-1-6-6-10.3-11.9-10.3c-0.7,0-1.5,0.2-2.3,0.2C4.7,3.9,0.3,12.9,4.2,20.2c0.5,0.8,0.7,1.5,0.3,2.3
		c-0.3,1-0.7,2.1-0.8,3.3c1.5-0.3,2.8-0.7,4.1-1.1c0.2,0,0.2,0,0.3,0c0.2,0,0.3,0.2,0.7,0.2c1.8,1.1,3.9,1.6,6,1.6
		C15.3,26.5,16,26.3,16.7,26.3"/>
</g>
</svg>
