<?xml version="1.0" encoding="utf-8"?>
<!-- Generator: Adobe Illustrator 24.0.0, SVG Export Plug-In . SVG Version: 6.00 Build 0)  -->
<svg version="1.1" id="Capa_1" xmlns="http://www.w3.org/2000/svg" xmlns:xlink="http://www.w3.org/1999/xlink" x="0px" y="0px"
	 viewBox="0 0 1003.6 203.9" style="enable-background:new 0 0 1003.6 203.9;" xml:space="preserve">
<style type="text/css">
	.st0{opacity:0.1;}
	.st1{fill:url(#SVGID_1_);}
	.st2{opacity:8.000000e-02;}
	.st3{clip-path:url(#SVGID_3_);}
	.st4{clip-path:url(#SVGID_5_);}
	.st5{fill:#00636A;}
	.st6{fill:#CFC76D;}
	.st7{fill:#FFFFFF;}
	.st8{fill:url(#SVGID_8_);}
	.st9{fill:url(#SVGID_9_);}
	.st10{clip-path:url(#SVGID_11_);}
	.st11{opacity:0.4;fill:url(#SVGID_12_);}
	.st12{fill:none;}
	.st13{fill:#F5F5F5;}
	.st14{opacity:0.2;}
	.st15{opacity:0.1;fill-rule:evenodd;clip-rule:evenodd;fill:#CFC76D;}
	.st16{opacity:0.8;}
	.st17{clip-path:url(#SVGID_14_);}
	.st18{clip-path:url(#SVGID_16_);}
	.st19{clip-path:url(#SVGID_18_);}
	.st20{clip-path:url(#SVGID_20_);}
	.st21{clip-path:url(#SVGID_101_);}
	.st22{clip-path:url(#SVGID_104_);}
	.st23{fill:#00636B;}
	.st24{fill:#D3C867;}
	.st25{clip-path:url(#SVGID_115_);}
	.st26{clip-path:url(#SVGID_119_);}
	.st27{fill-rule:evenodd;clip-rule:evenodd;fill:#D3C867;}
	.st28{fill:#A8A810;}
	.st29{opacity:0.1;fill:#00636A;}
	.st30{clip-path:url(#SVGID_127_);}
	.st31{fill-rule:evenodd;clip-rule:evenodd;fill:#CFC76D;}
	.st32{clip-path:url(#SVGID_128_);}
	.st33{clip-path:url(#SVGID_129_);}
	.st34{clip-path:url(#SVGID_130_);}
	.st35{clip-path:url(#SVGID_132_);}
	.st36{clip-path:url(#SVGID_134_);}
	.st37{clip-path:url(#SVGID_138_);}
	.st38{clip-path:url(#SVGID_140_);}
	.st39{clip-path:url(#SVGID_144_);}
	.st40{clip-path:url(#SVGID_146_);}
	.st41{clip-path:url(#SVGID_150_);}
	.st42{clip-path:url(#SVGID_152_);}
	.st43{opacity:5.000000e-02;}
	.st44{fill:#F0F0F0;}
	.st45{clip-path:url(#SVGID_156_);}
	.st46{clip-path:url(#SVGID_158_);}
	.st47{clip-path:url(#SVGID_162_);}
	.st48{clip-path:url(#SVGID_166_);}
	.st49{fill-rule:evenodd;clip-rule:evenodd;fill:#FFFFFF;}
	.st50{fill:url(#SVGID_171_);}
	.st51{fill:#F0F1F1;}
	.st52{clip-path:url(#SVGID_179_);}
	.st53{clip-path:url(#SVGID_181_);}
	.st54{opacity:0.2;fill:#3D3845;}
	.st55{clip-path:url(#SVGID_188_);}
	.st56{clip-path:url(#SVGID_190_);}
	.st57{clip-path:url(#SVGID_194_);}
	.st58{clip-path:url(#SVGID_198_);}
	.st59{clip-path:url(#SVGID_200_);}
	.st60{clip-path:url(#SVGID_207_);}
	.st61{clip-path:url(#SVGID_209_);}
	.st62{clip-path:url(#SVGID_213_);}
	.st63{clip-path:url(#SVGID_215_);}
	.st64{opacity:0.5;}
	.st65{clip-path:url(#SVGID_219_);}
	.st66{clip-path:url(#SVGID_221_);}
	.st67{clip-path:url(#SVGID_225_);}
	.st68{clip-path:url(#SVGID_227_);}
	.st69{clip-path:url(#SVGID_231_);}
	.st70{clip-path:url(#SVGID_233_);}
	.st71{clip-path:url(#SVGID_237_);}
	.st72{clip-path:url(#SVGID_239_);}
	.st73{clip-path:url(#SVGID_240_);}
	.st74{clip-path:url(#SVGID_241_);}
	.st75{clip-path:url(#SVGID_242_);}
	.st76{clip-path:url(#SVGID_243_);}
	.st77{clip-path:url(#SVGID_245_);}
	.st78{clip-path:url(#SVGID_247_);}
	.st79{clip-path:url(#SVGID_251_);}
	.st80{clip-path:url(#SVGID_253_);}
	.st81{clip-path:url(#SVGID_257_);}
	.st82{clip-path:url(#SVGID_259_);}
	.st83{clip-path:url(#SVGID_263_);}
	.st84{clip-path:url(#SVGID_265_);}
	.st85{clip-path:url(#SVGID_272_);}
	.st86{clip-path:url(#SVGID_275_);}
	.st87{clip-path:url(#SVGID_355_);}
	.st88{clip-path:url(#SVGID_357_);}
	.st89{clip-path:url(#SVGID_365_);}
	.st90{clip-path:url(#SVGID_367_);}
	.st91{fill:#E6E6E6;}
	.st92{clip-path:url(#SVGID_373_);}
	.st93{clip-path:url(#SVGID_375_);}
	.st94{opacity:0.75;clip-path:url(#SVGID_379_);fill:#00636A;}
	.st95{clip-path:url(#SVGID_381_);}
	.st96{clip-path:url(#SVGID_383_);}
	.st97{clip-path:url(#SVGID_387_);}
	.st98{clip-path:url(#SVGID_389_);}
	.st99{clip-path:url(#SVGID_393_);}
	.st100{clip-path:url(#SVGID_395_);}
	.st101{clip-path:url(#SVGID_396_);}
	.st102{clip-path:url(#SVGID_397_);}
	.st103{clip-path:url(#SVGID_399_);}
	.st104{clip-path:url(#SVGID_401_);}
	.st105{clip-path:url(#SVGID_432_);}
	.st106{clip-path:url(#SVGID_434_);}
	.st107{clip-path:url(#SVGID_442_);}
	.st108{clip-path:url(#SVGID_445_);}
	.st109{opacity:0.75;clip-path:url(#SVGID_449_);fill:#00636A;}
	.st110{clip-path:url(#SVGID_451_);}
	.st111{clip-path:url(#SVGID_453_);}
	.st112{clip-path:url(#SVGID_457_);}
	.st113{clip-path:url(#SVGID_459_);}
	.st114{fill:url(#SVGID_462_);}
	.st115{fill:url(#SVGID_463_);}
	.st116{fill:url(#SVGID_464_);}
	.st117{fill:url(#SVGID_465_);}
	.st118{fill:url(#SVGID_466_);}
	.st119{fill:url(#SVGID_467_);}
	.st120{fill:url(#SVGID_468_);}
	.st121{fill:url(#SVGID_469_);}
	.st122{clip-path:url(#SVGID_471_);}
	.st123{clip-path:url(#SVGID_473_);}
	.st124{fill:url(#SVGID_476_);}
	.st125{fill:url(#SVGID_477_);}
	.st126{fill:url(#SVGID_478_);}
	.st127{fill:#00636A;stroke:#00636A;stroke-miterlimit:10;}
	.st128{fill:#FFFFFF;stroke:#00636A;stroke-miterlimit:10;}
	.st129{fill:url(#SVGID_479_);}
	.st130{clip-path:url(#SVGID_481_);}
	.st131{clip-path:url(#SVGID_483_);}
	.st132{fill:url(#SVGID_486_);}
	.st133{fill:url(#SVGID_487_);}
	.st134{fill:url(#SVGID_488_);}
	.st135{opacity:0.75;fill:#00636A;}
</style>
<g>
	<g>
		<g>
			<g>
				<g>
					<path class="st5" d="M107.7,203.9c-47,0-87.1-27.3-107.6-73.2c-0.3-0.6,0-1.3,0.6-1.6c0.6-0.3,1.3,0,1.6,0.6
						c20.1,45,59.4,71.7,105.4,71.7c0.4,0,0.9,0,1.3,0c46.8-0.5,87.6-28.5,106.3-73c0.3-0.6,1-0.9,1.6-0.7c0.6,0.3,0.9,1,0.7,1.6
						c-19.1,45.4-60.7,74-108.6,74.5C108.6,203.9,108.2,203.9,107.7,203.9"/>
					<path class="st5" d="M77.9,0c0,0-0.3,1.8-0.3,3c0,1.2-0.3,2.5,0,2.8c0.3,0.3,28.3,16,43.3,34.9c8.8,11.1,45.7,46.4,50.5,140
						l0.8-0.2c0,0,1.2-63.9-32.6-120.4C114.9,18.9,86.1,5.8,77.9,0"/>
					<path class="st5" d="M63.1,1.3c0,0-0.3,1.8-0.3,3c0,1.2-0.3,2.5,0,2.8c0.3,0.3,27.1,15.6,43,36c8.7,11.1,48.3,55.1,50.4,146.2
						l0.8-0.2c0,0,2.8-66.2-33.7-127.5C98.8,20.2,71.4,7,63.1,1.3"/>
					<path class="st6" d="M139.5,0c0,0,0.3,1.8,0.3,3c0,1.2,0.3,2.5,0,2.8c-0.3,0.3-28.3,16-43.3,34.9c-8.8,11.1-45.7,46.4-50.5,140
						l-0.8-0.2c0,0-1.2-63.9,32.6-120.4C102.4,18.9,131.2,5.8,139.5,0"/>
					<path class="st6" d="M154.2,1.3c0,0,0.3,1.8,0.3,3c0,1.2,0.3,2.5,0,2.8c-0.3,0.3-27.1,15.6-43,36
						c-8.7,11.1-48.3,55.1-50.4,146.2l-0.8-0.2c0,0-2.8-66.2,33.7-127.5C118.5,20.2,145.9,7,154.2,1.3"/>
					<radialGradient id="SVGID_1_" cx="115.7406" cy="140.8539" r="40.4504" gradientUnits="userSpaceOnUse">
						<stop  offset="0" style="stop-color:#FFFFFF"/>
						<stop  offset="1" style="stop-color:#00504C"/>
					</radialGradient>
					<circle class="st1" cx="108.9" cy="149" r="29"/>
				</g>
			</g>
			<g>
				<g>
					<path class="st6" d="M272.7,85.7c-0.1,0.9-0.1,1.8-0.2,2.7c-0.4,8.6-3.3,15.2-13.1,15.2c-14.5,0-15.4-9.2-15.4-21.8v-6.7
						c0.4-12,1.3-20.9,15.4-20.9c7.9,0.1,12.3,4.2,12.9,12.2c0.1,1.2,0.2,2.4,0.2,3.6h-8.7c-0.4-3-0.1-8.7-4.4-8.7
						c-6.9,0-6.3,8.2-6.3,11.9v13.1c0,3.9,0.3,10.2,6.3,10.2c4.8,0,4.3-7.8,4.5-10.8H272.7z"/>
					<path class="st6" d="M277.2,79.2c-0.4-8.4,3.9-13.1,11.9-13.1c11.4,0,12.6,5.9,12.6,15.6v4.8h-16.3v5.2
						c0.1,4.7,1.8,5.5,4.3,5.5c3,0,3.9-2.2,3.8-6.7h8.2c0.3,7.9-3,12.9-11.3,12.9c-9.4,0-13.3-4.5-13.1-14.9V79.2z M293.6,80.1v-3.1
						c-0.1-3.6-1-4.7-4.3-4.7c-4.1,0-3.9,3.1-3.9,6.3v1.4H293.6z"/>
					<path class="st6" d="M315.8,70.6h0.1c1.8-4.1,5.5-4.6,7.4-4.6c4.7,0,8.4,2.7,8.2,9.1v27.3h-8.2V78.8c0-3.5-0.4-5.7-3.5-5.8
						c-3.1-0.1-4.2,2.8-4,6.5v22.9h-8.2V67h8.2V70.6z"/>
					<path class="st6" d="M349.5,102.6c-4.8,0.6-11.6,1-11.6-5.6V73h-3.3v-6h3.3v-9.7h8.2V67h3.5v6H346v22c0.2,1.5,2.5,1.3,3.5,1.2
						V102.6z"/>
					<path class="st6" d="M361.2,73.3h0.1c1-2.6,2-4,3.2-5c2.3-1.9,3.9-1.8,5.1-1.9v9.7c-4.5-0.4-8,0.7-8.1,5.9v20.5h-8.2V67h7.9
						V73.3z"/>
					<path class="st6" d="M372.2,86c0.1-12.1,0.2-19.9,12.5-19.9c12.1,0,12.2,7.8,12.3,19.9c0.1,12.3-1.7,17.6-12.3,17.4
						C374,103.6,372.2,98.3,372.2,86 M380.4,90.9c0,4.3,0.4,6.2,4.3,6.2c3.8,0,4.1-1.9,4.1-6.2V79.1c0-3.3,0-6.7-4.1-6.7
						c-4.3,0-4.3,3.4-4.3,6.7V90.9z"/>
					<path class="st6" d="M432,98.7h-0.1c-1.6,3.6-3.8,4.5-7,4.7c-6.9,0-8.4-6.3-8.6-11.9V78.6c0.2-9.7,3.3-12.4,8.6-12.6
						c3.5-0.1,5.7,1.1,7.3,4.5h0.1c-0.2-1.1-0.3-2.1-0.3-3.1V55.3h8.2v47.1H432V98.7z M432,80.2c0.1-2.8,0-7.9-3.8-7.9
						c-3.8,0-3.5,3.3-3.7,6.9V91c0.2,3.4,1.1,6.1,3.6,6.1c2.6,0,4-2.2,4-6.3V80.2z"/>
					<path class="st6" d="M446.1,79.2c-0.4-8.4,3.9-13.1,11.9-13.1c11.4,0,12.6,5.9,12.6,15.6v4.8h-16.3v5.2
						c0.1,4.7,1.8,5.5,4.3,5.5c3,0,3.9-2.2,3.8-6.7h8.2c0.3,7.9-3,12.9-11.3,12.9c-9.4,0-13.3-4.5-13.1-14.9V79.2z M462.5,80.1v-3.1
						c-0.1-3.6-1-4.7-4.3-4.7c-4.1,0-3.9,3.1-3.9,6.3v1.4H462.5z"/>
					<path class="st5" d="M487.4,102.5l11.3-47.1h11.9l10.7,47.1h-9.4l-2.3-11.9h-10.3l-2.3,11.9H487.4z M500.5,83.6h7.5l-2.4-13.4
						c-0.4-2.2-0.6-4.3-0.9-6.5c-0.1-1.1-0.2-2.1-0.3-3.1h-0.1c-0.1,1-0.3,2.1-0.3,3.1c-0.3,2.2-0.4,4.3-0.9,6.5L500.5,83.6z"/>
					<path class="st5" d="M531.8,73.3h0.1c1-2.6,2-4,3.2-5c2.3-1.9,3.9-1.8,5.1-1.9v9.7c-4.5-0.4-8,0.7-8.1,5.9v20.5H524V67h7.9
						V73.3z"/>
					<path class="st5" d="M543.6,55.3h8.2v11.3c0,1.1-0.1,2.3-0.2,4h0.1c1.6-3.4,3.8-4.6,7.3-4.5c5.3,0.1,8.3,2.8,8.5,12.6v12.8
						c-0.2,5.7-1.6,11.9-8.5,11.9c-3.4-0.2-5.7-1.2-7.5-4.7h-0.1v3.8h-7.8V55.3z M551.8,90.8c0,4.1,1.3,6.3,4,6.3
						c2.5,0,3.4-2.7,3.6-6.1V79.2c-0.2-3.5,0.1-6.9-3.7-6.9c-3.8,0-4,5-3.8,7.9V90.8z"/>
					<path class="st5" d="M574.1,55.3h8.2v7.4h-8.2V55.3z M574.1,67h8.2v35.5h-8.2V67z"/>
					<path class="st5" d="M601.2,102.6c-4.8,0.6-11.6,1-11.6-5.6V73h-3.3v-6h3.3v-9.7h8.2V67h3.5v6h-3.5v22c0.2,1.5,2.5,1.3,3.5,1.2
						V102.6z"/>
					<path class="st5" d="M612.9,73.3h0.1c1-2.6,2-4,3.2-5c2.3-1.9,3.9-1.8,5.1-1.9v9.7c-4.5-0.4-8,0.7-8.1,5.9v20.5H605V67h7.9
						V73.3z"/>
					<path class="st5" d="M640.6,102.5c-0.6-1.1-0.6-2.4-0.5-3.6h-0.1c-0.9,1.4-2,2.6-3.3,3.4c-1.2,0.8-2.5,1.2-3.9,1.2
						c-6.6,0-9.5-3.3-9.5-10.6c0-8.1,5.7-10.1,12.1-12.7c3.5-1.4,4.7-3,4-5.9c-0.4-1.6-1.6-1.8-3.8-1.8c-3.7,0-4.3,1.9-4.3,5.2h-7.8
						c-0.1-6.7,2.1-11.4,12.4-11.4c11.1,0,11.8,5.8,11.7,10.5v20.9c0,1.7,0.3,3.3,0.7,5H640.6z M639.4,83.8c-2,1.4-4.5,2.8-6.6,4.5
						c-1.2,1-1.4,2.8-1.4,4.3c0,2.7,0.8,4.5,3.8,4.5c4.8,0,4-6.1,4.1-9.5V83.8z"/>
					<path class="st5" d="M652.4,108.1c1.9,0.1,3-0.1,3-1.9V67h8.2v35.6c0,3.7,0.7,9.3-3.3,11.2c-1.2,0.6-4.2,0.9-7.9,0.6V108.1z
						 M655.5,55.3h8.2v7.4h-8.2V55.3z"/>
					<path class="st5" d="M669.7,79.2c-0.4-8.4,3.9-13.1,11.9-13.1c11.4,0,12.6,5.9,12.6,15.6v4.8h-16.3v5.2
						c0.1,4.7,1.8,5.5,4.3,5.5c3,0,3.9-2.2,3.8-6.7h8.2c0.3,7.9-3,12.9-11.3,12.9c-9.4,0-13.3-4.5-13.1-14.9V79.2z M686.1,80.1v-3.1
						c-0.1-3.6-1-4.7-4.3-4.7c-4.1,0-3.9,3.1-3.9,6.3v1.4H686.1z"/>
					<path class="st5" d="M719.3,67l3.6,18.8c0.6,3.1,0.9,6.3,1.2,9.4h0.1c0.2-3.1,0.7-6.2,1.3-9.2l3.6-19h8.3l-8.6,36
						c-2.1,8-2.3,13.1-13.6,11.4v-6.3c1.3,0,4.8,0.7,4.8-1.6c0-1.3-0.4-3.3-0.8-4.5l-8.6-35H719.3z"/>
					<path class="st5" d="M763.9,102.5h-8.8V55.3h14l4.7,21.9c0.8,3.6,1.3,7.2,1.6,10.9h0.1c0.4-4.7,0.8-7.8,1.4-10.9l4.7-21.9h14
						v47.1h-8.8V87.6c0-9.4,0.2-18.7,0.8-28.1h-0.1l-9.4,42.9h-5.3l-9.2-42.9h-0.3c0.6,9.4,0.8,18.7,0.8,28.1V102.5z"/>
					<path class="st5" d="M801.6,79.2c-0.4-8.4,3.9-13.1,11.9-13.1c11.4,0,12.6,5.9,12.6,15.6v4.8h-16.3v5.2
						c0.1,4.7,1.8,5.5,4.3,5.5c3,0,3.9-2.2,3.8-6.7h8.2c0.3,7.9-3,12.9-11.3,12.9c-9.4,0-13.3-4.5-13.1-14.9V79.2z M817.9,80.1v-3.1
						c-0.1-3.6-1-4.7-4.3-4.7c-4.1,0-3.9,3.1-3.9,6.3v1.4H817.9z"/>
					<path class="st5" d="M847.2,98.7h-0.1c-1.6,3.6-3.8,4.5-7,4.7c-6.9,0-8.4-6.3-8.6-11.9V78.6c0.2-9.7,3.3-12.4,8.6-12.6
						c3.5-0.1,5.7,1.1,7.3,4.5h0.1c-0.2-1.1-0.3-2.1-0.3-3.1V55.3h8.2v47.1h-8.2V98.7z M847.2,80.2c0.1-2.8,0-7.9-3.8-7.9
						c-3.8,0-3.5,3.3-3.7,6.9V91c0.2,3.4,1.1,6.1,3.6,6.1c2.6,0,4-2.2,4-6.3V80.2z"/>
					<path class="st5" d="M862.6,55.3h8.2v7.4h-8.2V55.3z M862.6,67h8.2v35.5h-8.2V67z"/>
					<path class="st5" d="M893.8,102.5c-0.6-1.1-0.6-2.4-0.5-3.6h-0.1c-0.9,1.4-2,2.6-3.3,3.4c-1.2,0.8-2.5,1.2-3.9,1.2
						c-6.6,0-9.5-3.3-9.5-10.6c0-8.1,5.7-10.1,12.1-12.7c3.5-1.4,4.7-3,4-5.9c-0.4-1.6-1.6-1.8-3.8-1.8c-3.7,0-4.3,1.9-4.3,5.2h-7.8
						c-0.1-6.7,2.1-11.4,12.4-11.4c11.1,0,11.8,5.8,11.7,10.5v20.9c0,1.7,0.3,3.3,0.7,5H893.8z M892.7,83.8c-2,1.4-4.5,2.8-6.6,4.5
						c-1.2,1-1.4,2.8-1.4,4.3c0,2.7,0.8,4.5,3.8,4.5c4.8,0,4-6.1,4.2-9.5V83.8z"/>
					<path class="st5" d="M920.9,79.3v-4c-0.1-1.9-1.1-3-2.8-3c-3.1,0-3.1,3.6-3.1,7.9v8.4c-0.2,6.9,0.6,8.2,3.1,8.5
						c2.5-0.1,2.6-2.4,2.8-5.2v-3.3h8.2v3.3c0,7.4-3.1,11.5-11.2,11.5c-7.2,0-11.4-3.8-11.1-13.3V78.6c-0.1-9.9,4.8-12.6,11.1-12.6
						c8.2,0,11.3,5.2,11.2,10.4v2.8H920.9z"/>
					<path class="st5" d="M934.8,55.3h8.2v7.4h-8.2V55.3z M934.8,67h8.2v35.5h-8.2V67z"/>
					<path class="st5" d="M949.4,86c0.1-12.1,0.2-19.9,12.5-19.9c12.1,0,12.2,7.8,12.3,19.9c0.1,12.3-1.7,17.6-12.3,17.4
						C951.1,103.6,949.3,98.3,949.4,86 M962.4,53.7h9.7l-9.3,9.2h-6.3L962.4,53.7z M957.5,90.9c0,4.3,0.4,6.2,4.3,6.2
						c3.8,0,4.1-1.9,4.1-6.2V79.1c0-3.3,0-6.7-4.1-6.7c-4.3,0-4.3,3.4-4.3,6.7V90.9z"/>
					<path class="st5" d="M987.9,70.6h0.1c1.8-4.1,5.5-4.6,7.4-4.6c4.7,0,8.4,2.7,8.2,9.1v27.3h-8.2V78.8c0-3.5-0.4-5.7-3.5-5.8
						c-3.1-0.1-4.1,2.8-4,6.5v22.9h-8.2V67h8.2V70.6z"/>
				</g>
				<g>
					<path class="st5" d="M256.1,132.2c-0.1-2.9-1-5.5-4.5-5.5c-4.8,0-4.8,6.8-4.8,10.1c-0.1,3.4-0.2,10.9,4.8,10.9
						c3.3,0,4-2.7,4.3-5.4c0.1-0.6,0.1-1.1,0.2-1.7h2.7c-0.1,0.5-0.1,1-0.1,1.5c-0.2,2-0.3,3.5-1.5,5.3c-1.3,1.8-3,2.8-5.4,2.8
						c-7.6,0-7.9-7.4-7.9-13.3c0-5.6,0.8-12.6,7.9-12.6c4.7,0,7.2,3.5,7,7.9H256.1z"/>
					<path class="st5" d="M267.2,124.8h3.6l7,24.8h-3l-2-7.2H265l-1.8,7.2h-3L267.2,124.8z M269,126.7L269,126.7l-3.3,13.2h6.6
						L269,126.7z M269.8,117.8h3.6l-4.3,4.7h-2.2L269.8,117.8z"/>
					<path class="st5" d="M295.8,124.8h4.8v24.8h-2.7v-20.5c0-1.1,0.1-2.1,0-3.1h-0.1c-0.3,1.5-0.5,2.4-0.8,3.3l-5.2,20.3h-3.3
						l-5.2-20.6c-0.2-0.9-0.4-1.7-0.7-3h-0.1c0,1.1,0.1,2.2,0.1,3.2v20.4h-2.7v-24.8h4.9l4.9,19.4c0.3,1.1,0.4,2.1,0.5,3.7h0.1
						c0.2-1.3,0.3-2.5,0.6-3.7L295.8,124.8z"/>
					<path class="st5" d="M309.7,124.8h3.6l7,24.8h-3l-2-7.1h-7.8l-1.8,7.1h-3L309.7,124.8z M311.5,126.7L311.5,126.7l-3.3,13.2h6.6
						L311.5,126.7z"/>
					<path class="st5" d="M325.5,149.6h-2.7v-24.8h6.4c5.2,0,8.5,1.4,8.3,7.1c-0.1,2.9-1.9,5-4.8,5.4v0.1c3.2,0.3,4,1.3,4.4,4.6
						c0.1,1.9,0.3,3.7,0.5,5.5c0.1,0.5,0.3,1.6,1,1.6v0.6h-3.2c-0.6-1.6-0.9-4.7-0.9-6.3c0-2.5-1-4.6-4.2-4.6h-4.8V149.6z
						 M325.5,136.2h4.3c1.3,0,4.9-0.2,4.8-4.6c-0.1-4.3-3.4-4.4-5.3-4.4h-3.9V136.2z"/>
					<path class="st5" d="M346.7,124.8h3.6l7,24.8h-3l-2-7.1h-7.8l-1.8,7.1h-3L346.7,124.8z M348.5,126.7L348.5,126.7l-3.3,13.2h6.6
						L348.5,126.7z"/>
					<path class="st5" d="M370.1,131.3c0.2-2.6-1.2-4.5-3.9-4.5c-4,0-4.4,2.5-4.4,4.4c0,1.7,0.8,2.8,2.4,3.4l3.9,1.5
						c4.7,1.8,5.6,3.4,5.6,6.7c0,4.7-2.9,7.4-7.7,7.4c-2.5,0-5.4-0.7-6.8-3.9c-0.5-1.2-0.5-3.2-0.5-4.5h2.7c-0.1,3.7,0.6,6,4.7,6
						c2.8,0,4.7-1.4,4.7-4.3c0-3.8-1.5-3.8-4-4.8c-1.4-0.5-3.5-1.2-4.9-1.9c-2.4-1.2-2.9-3.2-2.9-5.6c0-4.1,2.9-6.8,6.9-6.8
						c4.5,0,7.3,2.3,7,7H370.1z"/>
					<path class="st5" d="M384.6,149.6v-24.8h6.8c7.7,0,8.8,6.3,8.6,12.4c-0.2,6.1-1.4,12.4-8.1,12.4H384.6z M387.3,147.1h4.4
						c4,0,5.7-3,5.4-10.4c-0.2-5.7-1-9.4-5.4-9.4h-4.4V147.1z"/>
					<polygon class="st5" points="403.7,149.6 403.7,124.8 416.1,124.8 416.1,127.2 406.4,127.2 406.4,135.5 415.5,135.5 
						415.5,137.9 406.4,137.9 406.4,147.1 416.2,147.1 416.2,149.6 					"/>
					<polygon class="st5" points="427.1,149.6 427.1,124.8 429.9,124.8 429.9,147.1 440,147.1 440,149.6 					"/>
					<path class="st5" d="M447.6,124.8h3.6l7,24.8h-3l-2-7.1h-7.8l-1.8,7.1h-3L447.6,124.8z M449.4,126.7L449.4,126.7L446,140h6.6
						L449.4,126.7z"/>
					<path class="st5" d="M468,149.6v-24.8h6.5c1.9,0,4.3,0.2,5.8,1.6c1.5,1.4,2,3.3,2,5.3c0,2.7-0.8,5.4-3.5,6.7
						c-1.7,0.7-4.5,0.7-6.4,0.7h-1.7v10.5H468z M470.7,136.6h2.7c3.8,0,6.1-0.6,6.1-4.8c0-4-2.5-4.6-5.9-4.5h-2.8V136.6z"/>
					<path class="st5" d="M488.3,149.6h-2.7v-24.8h6.4c5.2,0,8.5,1.4,8.3,7.1c-0.1,2.9-1.9,5-4.8,5.4v0.1c3.2,0.3,4,1.3,4.4,4.6
						c0.1,1.9,0.3,3.7,0.5,5.5c0.1,0.5,0.3,1.6,1,1.6v0.6h-3.2c-0.6-1.6-0.9-4.7-0.9-6.3c0-2.5-1-4.6-4.2-4.6h-4.8V149.6z
						 M488.3,136.2h4.3c1.3,0,4.9-0.2,4.8-4.6c-0.1-4.3-3.4-4.4-5.3-4.4h-3.9V136.2z"/>
					<path class="st5" d="M512.3,124.3c7.3,0,8.1,6.7,8.1,12.4c0,6.9-0.9,13.5-8.2,13.5c-7.2,0-8.1-6.7-8.2-13.5
						C504.1,131,504.9,124.3,512.3,124.3 M512.2,126.7c-4.2,0-5.3,4.4-5.3,10c0,7.2,0.8,11,5.3,11c4.6,0,5.3-3.8,5.3-11
						C517.6,131.2,516.5,126.7,512.2,126.7"/>
					<path class="st5" d="M524.2,149.6v-24.8h6.8c7.7,0,8.8,6.3,8.6,12.4c-0.2,6.1-1.4,12.4-8.1,12.4H524.2z M527,147.1h4.4
						c4,0,5.7-3,5.4-10.4c-0.2-5.7-1-9.4-5.4-9.4H527V147.1z"/>
					<path class="st5" d="M543.6,124.8h2.7v17.8c0,2,0.3,5.1,4.7,5.1c4.4,0,4.7-3.1,4.7-5.1v-17.8h2.7v18.8c0,4.4-2.9,6.6-7.4,6.6
						c-4.5,0-7.5-2.2-7.5-6.6V124.8z"/>
					<path class="st5" d="M574.2,132.2c-0.1-2.9-1-5.5-4.5-5.5c-4.8,0-4.8,6.8-4.8,10.1c-0.1,3.4-0.2,10.9,4.8,10.9
						c3.3,0,4-2.7,4.3-5.4c0.1-0.6,0.1-1.1,0.2-1.7h2.7c-0.1,0.5-0.1,1-0.1,1.5c-0.2,2-0.3,3.5-1.5,5.3c-1.3,1.8-3,2.8-5.4,2.8
						c-7.6,0-7.9-7.4-7.9-13.3c0-5.6,0.8-12.6,7.9-12.6c4.7,0,7.1,3.5,7,7.9H574.2z"/>
					<path class="st5" d="M591.8,132.2c-0.1-2.9-1-5.5-4.5-5.5c-4.8,0-4.8,6.8-4.8,10.1c-0.1,3.4-0.2,10.9,4.8,10.9
						c3.3,0,4-2.7,4.3-5.4c0.1-0.6,0.1-1.1,0.2-1.7h2.7c-0.1,0.5-0.1,1-0.1,1.5c-0.2,2-0.3,3.5-1.5,5.3c-1.3,1.8-3,2.8-5.4,2.8
						c-7.6,0-7.9-7.4-7.9-13.3c0-5.6,0.8-12.6,7.9-12.6c4.7,0,7.1,3.5,7,7.9H591.8z"/>
					<rect x="598.7" y="124.8" class="st5" width="2.7" height="24.8"/>
					<path class="st5" d="M614,124.3c7.2,0,8.1,6.7,8.1,12.4c0,6.9-0.9,13.5-8.2,13.5c-7.3,0-8.1-6.7-8.2-13.5
						C605.8,131,606.6,124.3,614,124.3 M613.9,126.7c-4.2,0-5.3,4.4-5.3,10c0,7.2,0.8,11,5.3,11c4.6,0,5.3-3.8,5.3-11
						C619.3,131.2,618.2,126.7,613.9,126.7 M614.7,117.8h3.6l-4.3,4.7h-2.2L614.7,117.8z"/>
					<path class="st5" d="M638.1,124.8h2.7v24.8h-4.5l-7-19.9c-0.4-1.1-0.7-2.2-0.9-3.7h-0.1c0,1.3,0.1,2.5,0.1,3.8v19.8h-2.7v-24.8
						h4.5l7,20.3c0.3,0.8,0.5,1.6,0.9,2.7h0.1c0-0.9-0.1-1.9-0.1-2.8V124.8z"/>
					<path class="st5" d="M652.8,149.6v-24.8h6.8c7.7,0,8.8,6.3,8.6,12.4c-0.2,6.1-1.4,12.4-8.1,12.4H652.8z M655.5,147.1h4.4
						c4,0,5.7-3,5.4-10.4c-0.2-5.7-1-9.4-5.4-9.4h-4.4V147.1z"/>
					<polygon class="st5" points="671.9,149.6 671.9,124.8 684.3,124.8 684.3,127.2 674.6,127.2 674.6,135.5 683.7,135.5 
						683.7,137.9 674.6,137.9 674.6,147.1 684.4,147.1 684.4,149.6 					"/>
					<polygon class="st5" points="687.9,149.6 687.9,124.8 690.6,124.8 690.6,147.1 700.8,147.1 700.8,149.6 					"/>
					<path class="st5" d="M715.8,124.8h3.6l7,24.8h-3l-2-7.1h-7.8l-1.8,7.1h-3L715.8,124.8z M717.6,126.7L717.6,126.7l-3.3,13.2h6.6
						L717.6,126.7z"/>
					<polygon class="st5" points="726.8,149.6 726.8,147.2 738.5,127.2 727.1,127.2 727.1,124.8 741.4,124.8 741.4,127.1 
						729.7,147.1 741.5,147.1 741.5,149.6 					"/>
					<path class="st5" d="M744.3,124.8h2.7v17.8c0,2,0.3,5.1,4.7,5.1c4.4,0,4.7-3.1,4.7-5.1v-17.8h2.7v18.8c0,4.4-2.9,6.6-7.4,6.6
						c-4.5,0-7.5-2.2-7.5-6.6V124.8z"/>
					<path class="st5" d="M768.5,124.8h3.6l7,24.8h-3l-2-7.1h-7.8l-1.8,7.1h-3L768.5,124.8z M770.2,126.7L770.2,126.7l-3.3,13.2h6.6
						L770.2,126.7z"/>
					<polygon class="st5" points="786,137.2 791.8,124.8 794.8,124.8 787.3,140 787.3,149.6 784.6,149.6 784.6,140 777.1,124.8 
						780.2,124.8 					"/>
				</g>
			</g>
		</g>
	</g>
</g>
</svg>
