<?xml version="1.0" encoding="utf-8"?>
<!-- Generator: Adobe Illustrator 21.0.0, SVG Export Plug-In . SVG Version: 6.00 Build 0)  -->
<svg version="1.1" id="Capa_1" xmlns="http://www.w3.org/2000/svg" xmlns:xlink="http://www.w3.org/1999/xlink" x="0px" y="0px"
	 viewBox="0 0 1024.1 739.3" style="enable-background:new 0 0 1024.1 739.3;" xml:space="preserve">
<style type="text/css">
	.st0{opacity:0.1;}
	.st1{fill:url(#SVGID_1_);}
	.st2{opacity:8.000000e-02;}
	.st3{clip-path:url(#SVGID_3_);}
	.st4{clip-path:url(#SVGID_5_);}
	.st5{fill:#00504C;}
	.st6{fill:#C2C247;}
	.st7{fill:#FFFFFF;}
	.st8{fill:url(#SVGID_8_);}
	.st9{fill:url(#SVGID_9_);}
	.st10{clip-path:url(#SVGID_11_);}
	.st11{opacity:0.4;fill:url(#SVGID_12_);}
	.st12{fill:none;}
	.st13{fill:#F5F5F5;}
	.st14{opacity:0.2;}
	.st15{opacity:0.1;fill-rule:evenodd;clip-rule:evenodd;fill:#C2C247;}
	.st16{opacity:0.8;}
	.st17{clip-path:url(#SVGID_14_);}
	.st18{clip-path:url(#SVGID_16_);}
	.st19{fill:#808080;}
	.st20{clip-path:url(#SVGID_18_);}
	.st21{clip-path:url(#SVGID_20_);}
	.st22{clip-path:url(#SVGID_101_);}
	.st23{clip-path:url(#SVGID_104_);}
	.st24{clip-path:url(#SVGID_115_);}
	.st25{clip-path:url(#SVGID_119_);}
	.st26{fill-rule:evenodd;clip-rule:evenodd;fill:#C2C247;}
	.st27{fill:#4A8E82;}
	.st28{fill:#A8A810;}
	.st29{opacity:0.1;fill:#00504C;}
	.st30{clip-path:url(#SVGID_127_);}
	.st31{clip-path:url(#SVGID_128_);}
	.st32{clip-path:url(#SVGID_129_);}
	.st33{clip-path:url(#SVGID_130_);}
	.st34{clip-path:url(#SVGID_132_);}
	.st35{clip-path:url(#SVGID_134_);}
	.st36{clip-path:url(#SVGID_138_);}
	.st37{clip-path:url(#SVGID_140_);}
	.st38{clip-path:url(#SVGID_144_);}
	.st39{clip-path:url(#SVGID_146_);}
	.st40{clip-path:url(#SVGID_150_);}
	.st41{clip-path:url(#SVGID_152_);}
	.st42{opacity:5.000000e-02;}
	.st43{fill:#F0F0F0;}
	.st44{clip-path:url(#SVGID_156_);}
	.st45{clip-path:url(#SVGID_158_);}
	.st46{clip-path:url(#SVGID_162_);}
	.st47{clip-path:url(#SVGID_166_);}
	.st48{fill-rule:evenodd;clip-rule:evenodd;fill:#FFFFFF;}
	.st49{fill:url(#SVGID_171_);}
	.st50{fill:#C8C8C8;}
	.st51{fill:#F0F1F1;}
	.st52{clip-path:url(#SVGID_179_);}
	.st53{clip-path:url(#SVGID_181_);}
	.st54{opacity:0.2;fill:#3D3845;}
	.st55{clip-path:url(#SVGID_188_);}
	.st56{clip-path:url(#SVGID_190_);}
	.st57{clip-path:url(#SVGID_194_);}
	.st58{clip-path:url(#SVGID_198_);}
	.st59{clip-path:url(#SVGID_200_);}
	.st60{clip-path:url(#SVGID_207_);}
	.st61{clip-path:url(#SVGID_209_);}
	.st62{clip-path:url(#SVGID_213_);}
	.st63{clip-path:url(#SVGID_215_);}
	.st64{opacity:0.5;}
	.st65{clip-path:url(#SVGID_219_);}
	.st66{clip-path:url(#SVGID_221_);}
	.st67{clip-path:url(#SVGID_225_);}
	.st68{clip-path:url(#SVGID_227_);}
	.st69{clip-path:url(#SVGID_231_);}
	.st70{clip-path:url(#SVGID_233_);}
	.st71{clip-path:url(#SVGID_237_);}
	.st72{clip-path:url(#SVGID_239_);}
	.st73{clip-path:url(#SVGID_241_);}
	.st74{clip-path:url(#SVGID_242_);}
	.st75{clip-path:url(#SVGID_243_);}
	.st76{clip-path:url(#SVGID_244_);}
	.st77{clip-path:url(#SVGID_245_);}
	.st78{clip-path:url(#SVGID_247_);}
	.st79{clip-path:url(#SVGID_249_);}
	.st80{clip-path:url(#SVGID_253_);}
	.st81{clip-path:url(#SVGID_255_);}
	.st82{clip-path:url(#SVGID_259_);}
	.st83{clip-path:url(#SVGID_261_);}
	.st84{clip-path:url(#SVGID_265_);}
	.st85{clip-path:url(#SVGID_268_);}
	.st86{clip-path:url(#SVGID_275_);}
	.st87{clip-path:url(#SVGID_277_);}
	.st88{clip-path:url(#SVGID_357_);}
	.st89{clip-path:url(#SVGID_359_);}
	.st90{clip-path:url(#SVGID_367_);}
	.st91{clip-path:url(#SVGID_369_);}
	.st92{fill:#E6E6E6;}
	.st93{clip-path:url(#SVGID_375_);}
	.st94{clip-path:url(#SVGID_377_);}
	.st95{opacity:0.75;clip-path:url(#SVGID_381_);fill:#00504C;}
	.st96{clip-path:url(#SVGID_383_);}
	.st97{clip-path:url(#SVGID_385_);}
	.st98{clip-path:url(#SVGID_389_);}
	.st99{clip-path:url(#SVGID_391_);}
	.st100{clip-path:url(#SVGID_395_);}
	.st101{clip-path:url(#SVGID_397_);}
	.st102{clip-path:url(#SVGID_399_);}
	.st103{clip-path:url(#SVGID_401_);}
	.st104{clip-path:url(#SVGID_403_);}
	.st105{clip-path:url(#SVGID_405_);}
	.st106{clip-path:url(#SVGID_434_);}
	.st107{clip-path:url(#SVGID_436_);}
	.st108{clip-path:url(#SVGID_445_);}
	.st109{clip-path:url(#SVGID_447_);}
	.st110{opacity:0.75;clip-path:url(#SVGID_451_);fill:#00504C;}
	.st111{clip-path:url(#SVGID_453_);}
	.st112{clip-path:url(#SVGID_455_);}
	.st113{clip-path:url(#SVGID_459_);}
	.st114{clip-path:url(#SVGID_461_);}
	.st115{fill:url(#SVGID_464_);}
	.st116{fill:url(#SVGID_465_);}
	.st117{fill:url(#SVGID_466_);}
	.st118{fill:url(#SVGID_467_);}
	.st119{fill:url(#SVGID_468_);}
	.st120{fill:url(#SVGID_469_);}
	.st121{fill:url(#SVGID_470_);}
	.st122{fill:url(#SVGID_471_);}
	.st123{clip-path:url(#SVGID_473_);}
	.st124{clip-path:url(#SVGID_475_);}
	.st125{fill:url(#SVGID_478_);}
	.st126{fill:url(#SVGID_479_);}
	.st127{fill:url(#SVGID_480_);}
	.st128{fill:#00504C;stroke:#00504C;stroke-miterlimit:10;}
	.st129{fill:#FFFFFF;stroke:#00504C;stroke-miterlimit:10;}
	.st130{fill:url(#SVGID_481_);}
	.st131{clip-path:url(#SVGID_483_);}
	.st132{clip-path:url(#SVGID_485_);}
	.st133{fill:url(#SVGID_488_);}
	.st134{fill:url(#SVGID_489_);}
	.st135{fill:url(#SVGID_490_);}
</style>
<g>
	<g>
		<g>
			<g>
				<path class="st7" d="M38.7,652.3c-0.1,1.2-0.2,2.5-0.3,3.7c-0.6,11.6-4.5,20.5-17.7,20.5C1.3,676.5,0,664.1,0,647.2v-9.1
					c0.5-16.2,1.8-28.2,20.8-28.2c10.6,0.2,16.5,5.6,17.4,16.4c0.2,1.6,0.3,3.2,0.3,4.8H26.7c-0.5-4.1-0.1-11.7-5.9-11.7
					c-9.3,0-8.6,11.1-8.6,16v17.6c0,5.3,0.4,13.8,8.6,13.8c6.5,0,5.8-10.5,6-14.6H38.7z"/>
				<path class="st7" d="M44.8,643.6c-0.5-11.3,5.3-17.7,16.1-17.7c15.3,0,16.9,8,16.9,21v6.4h-22v6.9c0.1,6.3,2.5,7.5,5.8,7.5
					c4.1,0,5.3-3,5.1-9h11c0.4,10.7-4,17.5-15.3,17.5c-12.7,0-17.9-6-17.6-20.1V643.6z M66.9,644.9v-4.2c-0.1-4.8-1.4-6.4-5.8-6.4
					c-5.5,0-5.3,4.2-5.3,8.6v2H66.9z"/>
				<path class="st7" d="M96.8,632.1H97c2.5-5.5,7.4-6.2,9.9-6.2c6.3,0,11.4,3.6,11,12.2V675h-11v-31.9c0-4.7-0.5-7.7-4.7-7.9
					c-4.2-0.2-5.6,3.7-5.4,8.8V675h-11v-47.8h11V632.1z"/>
				<path class="st7" d="M142.2,675.1c-6.5,0.8-15.7,1.4-15.7-7.5v-32.4h-4.5v-8.1h4.4V614h11.1v13.1h4.7v8.1h-4.7v29.7
					c0.3,2,3.3,1.8,4.7,1.6V675.1z"/>
				<path class="st7" d="M158,635.7h0.2c1.4-3.5,2.7-5.4,4.3-6.8c3.1-2.6,5.3-2.5,6.9-2.5v13.1c-6.1-0.6-10.8,0.9-10.9,8V675h-11
					v-47.8H158V635.7z"/>
				<path class="st7" d="M172.9,652.8c0.1-16.4,0.3-26.9,16.9-26.9c16.4,0,16.4,10.5,16.5,26.9c0.1,16.6-2.3,23.7-16.5,23.5
					C175.3,676.5,172.8,669.4,172.9,652.8 M184,659.4c0,5.9,0.5,8.4,5.8,8.4c5.1,0,5.5-2.5,5.5-8.4v-15.9c0-4.5,0-9.1-5.5-9.1
					c-5.8,0-5.8,4.6-5.8,9.1V659.4z"/>
				<path class="st7" d="M253.5,669.9h-0.2c-2.1,4.8-5.2,6.1-9.5,6.4c-9.3,0-11.3-8.5-11.5-16.1v-17.3c0.3-13.1,4.4-16.8,11.5-17
					c4.7-0.1,7.6,1.5,9.8,6.1h0.2c-0.3-1.4-0.3-2.8-0.3-4.2v-16.4h11V675h-11V669.9z M253.5,645c0.2-3.8,0-10.6-5.2-10.6
					c-5.2,0-4.7,4.5-5,9.2v15.9c0.3,4.6,1.4,8.2,4.8,8.2c3.6,0,5.3-3,5.3-8.5V645z"/>
				<path class="st7" d="M272.5,643.6c-0.5-11.3,5.3-17.7,16.1-17.7c15.3,0,16.9,8,16.9,21v6.4h-22v6.9c0.1,6.3,2.5,7.5,5.8,7.5
					c4.1,0,5.3-3,5.1-9h11c0.4,10.7-4,17.5-15.3,17.5c-12.7,0-17.9-6-17.6-20.1V643.6z M294.6,644.9v-4.2c-0.1-4.8-1.4-6.4-5.8-6.4
					c-5.5,0-5.3,4.2-5.3,8.6v2H294.6z"/>
				<path class="st7" d="M328.2,675l15.2-63.6h16l14.4,63.6H361l-3.1-16.1H344l-3.1,16.1H328.2z M345.9,649.6H356l-3.2-18.1
					c-0.6-3-0.8-5.8-1.2-8.8c-0.1-1.4-0.3-2.9-0.4-4.2H351c-0.2,1.4-0.3,2.8-0.4,4.2c-0.3,3-0.6,5.8-1.2,8.8L345.9,649.6z"/>
				<path class="st7" d="M388.1,635.7h0.2c1.4-3.5,2.7-5.4,4.3-6.8c3.1-2.6,5.3-2.5,6.9-2.5v13.1c-6.1-0.6-10.8,0.9-10.9,8V675h-11
					v-47.8h10.6V635.7z"/>
				<path class="st7" d="M403.9,611.4h11v15.3c0,1.5-0.2,3.1-0.3,5.3h0.2c2.2-4.6,5.2-6.2,9.8-6.1c7.1,0.2,11.2,3.8,11.4,17v17.3
					c-0.3,7.6-2.1,16.1-11.4,16.1c-4.6-0.3-7.6-1.6-10.1-6.4h-0.2v5.1h-10.5V611.4z M415,659.3c0,5.5,1.8,8.5,5.3,8.5
					c3.4,0,4.6-3.6,4.8-8.2v-15.9c-0.3-4.7,0.2-9.2-5-9.2c-5.2,0-5.3,6.8-5.2,10.6V659.3z"/>
				<path class="st7" d="M445.1,611.4h11v10h-11V611.4z M445.1,627.2h11V675h-11V627.2z"/>
				<path class="st7" d="M481.6,675.1c-6.5,0.8-15.7,1.4-15.7-7.5v-32.4h-4.5v-8.1h4.4V614h11.1v13.1h4.7v8.1h-4.7v29.7
					c0.3,2,3.3,1.8,4.7,1.6V675.1z"/>
				<path class="st7" d="M497.4,635.7h0.2c1.4-3.5,2.7-5.4,4.3-6.8c3.1-2.6,5.3-2.5,6.9-2.5v13.1c-6.1-0.6-10.8,0.9-10.9,8V675h-11
					v-47.8h10.6V635.7z"/>
				<path class="st7" d="M534.7,675c-0.8-1.5-0.8-3.2-0.7-4.9h-0.2c-1.3,1.9-2.7,3.6-4.4,4.6c-1.6,1-3.4,1.6-5.3,1.6
					c-8.9,0-12.8-4.5-12.8-14.3c0-10.9,7.7-13.6,16.4-17.1c4.7-2,6.4-4.1,5.4-8c-0.5-2.1-2.2-2.5-5.2-2.5c-5,0-5.8,2.6-5.8,7h-10.5
					c-0.1-9.1,2.9-15.4,16.7-15.4c15,0,15.9,7.9,15.8,14.2v28.2c0,2.3,0.3,4.5,0.9,6.7H534.7z M533.1,649.8c-2.7,1.9-6,3.7-8.9,6.1
					c-1.6,1.4-1.9,3.7-1.9,5.8c0,3.6,1.1,6.1,5.2,6.1c6.5,0,5.3-8.2,5.6-12.8V649.8z"/>
				<path class="st7" d="M550.7,682.6c2.5,0.2,4.1-0.2,4.1-2.5v-52.9h11v48.1c0,5,0.9,12.5-4.5,15.1c-1.6,0.8-5.6,1.2-10.6,0.8
					V682.6z M554.8,611.4h11v10h-11V611.4z"/>
				<path class="st7" d="M574,643.6c-0.5-11.3,5.3-17.7,16.1-17.7c15.3,0,16.9,8,16.9,21v6.4h-22v6.9c0.1,6.3,2.5,7.5,5.8,7.5
					c4.1,0,5.3-3,5.1-9h11c0.4,10.7-4,17.5-15.3,17.5c-12.7,0-17.9-6-17.6-20.1V643.6z M596,644.9v-4.2c-0.1-4.8-1.4-6.4-5.8-6.4
					c-5.5,0-5.2,4.2-5.2,8.6v2H596z"/>
				<path class="st7" d="M640.9,627.2l4.8,25.3c0.8,4.2,1.2,8.5,1.6,12.7h0.2c0.3-4.2,0.9-8.3,1.7-12.4l4.8-25.7h11.2l-11.6,48.5
					c-2.8,10.9-3,17.6-18.3,15.4v-8.6c1.8,0,6.5,0.9,6.5-2.1c0-1.7-0.6-4.4-1-6.1l-11.5-47.1H640.9z"/>
				<path class="st7" d="M701,675h-11.9v-63.6H708l6.4,29.5c1,4.8,1.7,9.7,2.2,14.7h0.2c0.6-6.3,1-10.5,1.9-14.7l6.4-29.5h18.8V675
					h-11.9v-20c0-12.6,0.3-25.3,1-37.9h-0.2L720,675h-7.2l-12.5-57.9H700c0.8,12.6,1,25.3,1,37.9V675z"/>
				<path class="st7" d="M751.8,643.6c-0.5-11.3,5.3-17.7,16.1-17.7c15.3,0,16.9,8,16.9,21v6.4h-22v6.9c0.1,6.3,2.5,7.5,5.8,7.5
					c4.1,0,5.3-3,5.1-9h11c0.4,10.7-4,17.5-15.3,17.5c-12.7,0-17.9-6-17.6-20.1V643.6z M773.8,644.9v-4.2c-0.1-4.8-1.4-6.4-5.8-6.4
					c-5.5,0-5.3,4.2-5.3,8.6v2H773.8z"/>
				<path class="st7" d="M813.2,669.9H813c-2.1,4.8-5.2,6.1-9.5,6.4c-9.3,0-11.3-8.5-11.5-16.1v-17.3c0.3-13.1,4.4-16.8,11.5-17
					c4.7-0.1,7.6,1.5,9.8,6.1h0.2c-0.3-1.4-0.3-2.8-0.3-4.2v-16.4h11V675h-11V669.9z M813.2,645c0.2-3.8,0-10.6-5.2-10.6
					c-5.2,0-4.7,4.5-5,9.2v15.9c0.3,4.6,1.4,8.2,4.8,8.2c3.6,0,5.3-3,5.3-8.5V645z"/>
				<path class="st7" d="M834.1,611.4h11v10h-11V611.4z M834.1,627.2h11V675h-11V627.2z"/>
				<path class="st7" d="M876.1,675c-0.8-1.5-0.8-3.2-0.7-4.9h-0.2c-1.3,1.9-2.7,3.6-4.4,4.6c-1.6,1-3.4,1.6-5.3,1.6
					c-8.9,0-12.8-4.5-12.8-14.3c0-10.9,7.7-13.6,16.4-17.1c4.7-2,6.4-4.1,5.4-8c-0.5-2.1-2.2-2.5-5.2-2.5c-5,0-5.9,2.6-5.8,7h-10.5
					c-0.1-9.1,2.9-15.4,16.7-15.4c15,0,15.9,7.9,15.8,14.2v28.2c0,2.3,0.3,4.5,0.9,6.7H876.1z M874.6,649.8c-2.7,1.9-6,3.7-8.9,6.1
					c-1.6,1.4-1.9,3.7-1.9,5.8c0,3.6,1.1,6.1,5.2,6.1c6.5,0,5.3-8.2,5.6-12.8V649.8z"/>
				<path class="st7" d="M912.7,643.8v-5.3c-0.2-2.6-1.4-4.1-3.8-4.1c-4.2,0-4.2,4.8-4.2,10.7v11.3c-0.3,9.3,0.8,11,4.2,11.4
					c3.4-0.1,3.5-3.2,3.8-7v-4.4h11v4.4c0,10-4.2,15.5-15.1,15.5c-9.7,0-15.3-5.2-14.9-17.9v-15.5c-0.1-13.4,6.5-17,14.9-17
					c11.1,0,15.2,7,15.1,14.1v3.8H912.7z"/>
				<path class="st7" d="M931.3,611.4h11v10h-11V611.4z M931.3,627.2h11V675h-11V627.2z"/>
				<path class="st7" d="M951,652.8c0.1-16.4,0.3-26.9,16.9-26.9c16.4,0,16.4,10.5,16.5,26.9c0.1,16.6-2.3,23.7-16.5,23.5
					C953.4,676.5,950.9,669.4,951,652.8 M968.6,609.3h13.1l-12.5,12.4h-8.6L968.6,609.3z M962,659.4c0,5.9,0.5,8.4,5.8,8.4
					c5.1,0,5.5-2.5,5.5-8.4v-15.9c0-4.5,0-9.1-5.5-9.1c-5.8,0-5.8,4.6-5.8,9.1V659.4z"/>
				<path class="st7" d="M1002.9,632.1h0.2c2.5-5.5,7.4-6.2,9.9-6.2c6.3,0,11.4,3.6,11,12.2V675h-11v-31.9c0-4.7-0.5-7.7-4.7-7.9
					c-4.2-0.2-5.6,3.7-5.4,8.8V675h-11v-47.8h11V632.1z"/>
			</g>
			<g>
				<path class="st7" d="M157.1,715.1c-0.1-4-1.4-7.4-6-7.4c-6.4,0-6.5,9.1-6.5,13.6c-0.2,4.6-0.3,14.7,6.5,14.7
					c4.4,0,5.4-3.6,5.8-7.3c0.1-0.8,0.1-1.5,0.2-2.3h3.7c-0.1,0.7-0.1,1.4-0.2,2.1c-0.2,2.7-0.4,4.8-2,7.1c-1.7,2.4-4.1,3.7-7.3,3.7
					c-10.3,0-10.7-10-10.7-17.9c0-7.5,1.1-17,10.6-17c6.3,0,9.6,4.7,9.5,10.7H157.1z"/>
				<path class="st7" d="M172.1,705h4.9l9.4,33.5h-4.1l-2.6-9.6h-10.6l-2.5,9.6h-4.1L172.1,705z M174.5,707.7L174.5,707.7l-4.5,17.8
					h8.8L174.5,707.7z M175.5,695.7h4.9l-5.8,6.3h-3L175.5,695.7z"/>
				<path class="st7" d="M210.5,705h6.5v33.5h-3.7v-27.6c0-1.4,0.1-2.8,0-4.2h-0.1c-0.4,2-0.7,3.2-1,4.5l-7,27.3h-4.4l-7-27.7
					c-0.3-1.2-0.6-2.3-1-4.1h-0.1c0,1.4,0.1,2.9,0.1,4.3v27.5h-3.7V705h6.6l6.6,26.1c0.4,1.4,0.5,2.8,0.7,5h0.1
					c0.2-1.7,0.4-3.3,0.8-5L210.5,705z"/>
				<path class="st7" d="M229.4,705h4.9l9.4,33.5h-4.1l-2.6-9.6h-10.6l-2.5,9.6h-4.1L229.4,705z M231.8,707.7L231.8,707.7l-4.5,17.8
					h8.8L231.8,707.7z"/>
				<path class="st7" d="M250.6,738.5h-3.7V705h8.6c7,0,11.5,1.8,11.2,9.5c-0.1,3.9-2.5,6.7-6.4,7.3v0.1c4.3,0.4,5.4,1.8,5.9,6.2
					c0.1,2.5,0.4,5,0.7,7.5c0.1,0.6,0.4,2.1,1.3,2.1v0.8h-4.3c-0.8-2.1-1.2-6.3-1.2-8.5c0-3.3-1.3-6.2-5.7-6.2h-6.5V738.5z
					 M250.6,720.4h5.8c1.7,0,6.6-0.3,6.5-6.2c-0.1-5.8-4.6-5.9-7.1-5.9h-5.2V720.4z"/>
				<path class="st7" d="M279.2,705h4.9l9.4,33.5h-4.1l-2.6-9.6h-10.6l-2.5,9.6h-4.1L279.2,705z M281.6,707.7L281.6,707.7l-4.5,17.8
					h8.8L281.6,707.7z"/>
				<path class="st7" d="M310.7,713.8c0.3-3.5-1.6-6.1-5.3-6.1c-5.4,0-6,3.4-6,6c0,2.3,1,3.7,3.2,4.6l5.3,2c6.3,2.4,7.5,4.6,7.5,9
					c0,6.3-4,10-10.4,10c-3.3,0-7.2-0.9-9.1-5.3c-0.7-1.6-0.7-4.3-0.7-6.1h3.7c-0.2,4.9,0.8,8.1,6.3,8.1c3.8,0,6.4-1.9,6.4-5.8
					c0-5.1-2.1-5.1-5.4-6.4c-1.8-0.7-4.8-1.7-6.6-2.6c-3.2-1.6-4-4.3-4-7.6c0-5.5,3.9-9.1,9.3-9.1c6.1,0,9.9,3.2,9.5,9.5H310.7z"/>
				<path class="st7" d="M330.2,738.5V705h9.2c10.4,0,11.9,8.5,11.6,16.7c-0.3,8.2-1.9,16.7-10.9,16.7H330.2z M333.9,735.2h5.9
					c5.4,0,7.7-4.1,7.3-14.1c-0.3-7.6-1.3-12.7-7.3-12.7h-5.9V735.2z"/>
				<polygon class="st7" points="356,738.5 356,705 372.8,705 372.8,708.4 359.7,708.4 359.7,719.5 372,719.5 372,722.8 
					359.7,722.8 359.7,735.2 372.9,735.2 372.9,738.5 				"/>
				<polygon class="st7" points="387.7,738.5 387.7,705 391.4,705 391.4,735.2 405,735.2 405,738.5 				"/>
				<path class="st7" d="M415.2,705h4.9l9.4,33.5h-4.1l-2.6-9.6h-10.6l-2.5,9.6h-4.1L415.2,705z M417.6,707.7L417.6,707.7l-4.5,17.8
					h8.8L417.6,707.7z"/>
				<path class="st7" d="M442.7,738.5V705h8.8c2.6,0,5.8,0.3,7.8,2.2c2,1.9,2.7,4.5,2.7,7.1c0,3.7-1.1,7.3-4.7,9c-2.3,1-6.1,1-8.7,1
					h-2.2v14.2H442.7z M446.4,721h3.6c5.1,0,8.2-0.8,8.2-6.5c0-5.4-3.4-6.2-7.9-6.1h-3.8V721z"/>
				<path class="st7" d="M470.1,738.5h-3.7V705h8.6c7,0,11.5,1.8,11.2,9.5c-0.1,3.9-2.5,6.7-6.4,7.3v0.1c4.3,0.4,5.4,1.8,5.9,6.2
					c0.1,2.5,0.4,5,0.7,7.5c0.1,0.6,0.4,2.1,1.3,2.1v0.8h-4.3c-0.8-2.1-1.2-6.3-1.2-8.5c0-3.3-1.3-6.2-5.7-6.2h-6.5V738.5z
					 M470.1,720.4h5.8c1.7,0,6.6-0.3,6.5-6.2c-0.1-5.8-4.6-5.9-7.1-5.9h-5.2V720.4z"/>
				<path class="st7" d="M502.5,704.4c9.8,0,11,9,10.9,16.7c0,9.3-1.2,18.3-11,18.3c-9.8,0-10.9-9-11-18.3
					C491.3,713.4,492.5,704.4,502.5,704.4 M502.3,707.7c-5.7,0-7.1,6-7.1,13.4c0,9.7,1,14.8,7.2,14.8c6.2,0,7.1-5.1,7.2-14.8
					C509.6,713.7,508.2,707.7,502.3,707.7"/>
				<path class="st7" d="M518.5,738.5V705h9.2c10.4,0,11.9,8.5,11.6,16.7c-0.3,8.2-1.9,16.7-10.9,16.7H518.5z M522.2,735.2h5.9
					c5.4,0,7.7-4.1,7.3-14.1c-0.3-7.6-1.3-12.7-7.3-12.7h-5.9V735.2z"/>
				<path class="st7" d="M544.6,705h3.7v24.1c0,2.6,0.4,6.9,6.3,6.9c5.9,0,6.4-4.2,6.3-6.9V705h3.7v25.4c0,6-4,8.9-10,8.9
					c-6.1,0-10-2.9-10-8.9V705z"/>
				<path class="st7" d="M585.9,715.1c-0.1-4-1.4-7.4-6-7.4c-6.4,0-6.5,9.1-6.5,13.6c-0.2,4.6-0.3,14.7,6.5,14.7
					c4.4,0,5.4-3.6,5.8-7.3c0.1-0.8,0.1-1.5,0.2-2.3h3.7c-0.1,0.7-0.1,1.4-0.2,2.1c-0.2,2.7-0.4,4.8-2,7.1c-1.7,2.4-4.1,3.7-7.3,3.7
					c-10.3,0-10.7-10-10.7-17.9c0-7.5,1.1-17,10.6-17c6.3,0,9.6,4.7,9.5,10.7H585.9z"/>
				<path class="st7" d="M609.6,715.1c-0.1-4-1.4-7.4-6-7.4c-6.4,0-6.5,9.1-6.5,13.6c-0.2,4.6-0.3,14.7,6.5,14.7
					c4.4,0,5.4-3.6,5.8-7.3c0.1-0.8,0.1-1.5,0.2-2.3h3.7c-0.1,0.7-0.1,1.4-0.2,2.1c-0.2,2.7-0.4,4.8-2,7.1c-1.7,2.4-4.1,3.7-7.3,3.7
					c-10.3,0-10.7-10-10.7-17.9c0-7.5,1.1-17,10.6-17c6.3,0,9.6,4.7,9.5,10.7H609.6z"/>
				<rect x="618.9" y="705" class="st7" width="3.7" height="33.5"/>
				<path class="st7" d="M639.6,704.4c9.8,0,11,9,10.9,16.7c0,9.3-1.3,18.3-11,18.3c-9.8,0-10.9-9-11-18.3
					C628.5,713.4,629.6,704.4,639.6,704.4 M639.4,707.7c-5.7,0-7.1,6-7.1,13.4c0,9.7,1,14.8,7.2,14.8c6.2,0,7.1-5.1,7.2-14.8
					C646.7,713.7,645.3,707.7,639.4,707.7 M640.5,695.7h4.9l-5.8,6.3h-3L640.5,695.7z"/>
				<path class="st7" d="M672.1,705h3.7v33.5h-6.1l-9.4-26.8c-0.5-1.5-0.9-3-1.2-5H659c0,1.7,0.1,3.4,0.1,5.1v26.7h-3.7V705h6
					l9.5,27.4c0.4,1,0.7,2.1,1.2,3.7h0.1c0-1.2-0.1-2.5-0.1-3.7V705z"/>
				<path class="st7" d="M691.8,738.5V705h9.2c10.4,0,11.9,8.5,11.6,16.7c-0.3,8.2-1.9,16.7-10.9,16.7H691.8z M695.5,735.2h5.9
					c5.4,0,7.7-4.1,7.3-14.1c-0.3-7.6-1.3-12.7-7.3-12.7h-5.9V735.2z"/>
				<polygon class="st7" points="717.6,738.5 717.6,705 734.3,705 734.3,708.4 721.3,708.4 721.3,719.5 733.5,719.5 733.5,722.8 
					721.3,722.8 721.3,735.2 734.4,735.2 734.4,738.5 				"/>
				<polygon class="st7" points="739.2,738.5 739.2,705 742.9,705 742.9,735.2 756.5,735.2 756.5,738.5 				"/>
				<path class="st7" d="M776.8,705h4.9l9.4,33.5H787l-2.6-9.6h-10.6l-2.5,9.6h-4.1L776.8,705z M779.2,707.7L779.2,707.7l-4.5,17.8
					h8.8L779.2,707.7z"/>
				<polygon class="st7" points="791.7,738.5 791.7,735.3 807.5,708.4 792.1,708.4 792.1,705 811.3,705 811.3,708.3 795.5,735.2 
					811.5,735.2 811.5,738.5 				"/>
				<path class="st7" d="M815.2,705h3.7v24.1c0,2.6,0.4,6.9,6.3,6.9c5.9,0,6.4-4.2,6.3-6.9V705h3.7v25.4c0,6-4,8.9-10,8.9
					c-6.1,0-10-2.9-10-8.9V705z"/>
				<path class="st7" d="M847.8,705h4.9l9.4,33.5H858l-2.6-9.6h-10.6l-2.5,9.6h-4.1L847.8,705z M850.2,707.7L850.2,707.7l-4.5,17.8
					h8.8L850.2,707.7z"/>
				<polygon class="st7" points="871.4,721.8 879.2,705 883.4,705 873.2,725.5 873.2,738.5 869.5,738.5 869.5,725.5 859.5,705 
					863.6,705 				"/>
			</g>
		</g>
		<g>
			<g>
				<path class="st7" d="M509,550c-126.6,0-234.9-73.5-290.3-197.4c-0.7-1.7,0-3.6,1.7-4.4c1.7-0.7,3.6,0,4.4,1.7
					C279,471.3,385,543.4,509,543.4c1.2,0,2.3,0,3.5,0c126.3-1.4,236.2-76.8,286.8-197c0.7-1.7,2.6-2.5,4.3-1.8
					c1.7,0.7,2.5,2.6,1.8,4.3c-51.6,122.6-163.8,199.6-292.8,201C511.4,550,510.2,550,509,550"/>
				<path class="st7" d="M428.4,0c0,0-0.9,4.9-0.9,8c0,3.1-0.9,6.7,0,7.6c0.9,0.9,76.3,43,116.9,94.2
					C568,139.6,667.5,235,680.5,487.4l2.3-0.6c0,0,3.4-172.5-87.8-324.7C528.4,50.9,450.7,15.6,428.4,0"/>
				<path class="st7" d="M388.7,3.4c0,0-0.9,4.9-0.9,8c0,3.1-0.9,6.7,0,7.6c0.9,0.9,73,42.2,116,97
					c23.5,29.9,130.2,148.7,135.9,394.2l2.2-0.6c0,0,7.5-178.4-90.9-343.8C484.8,54.4,411,18.9,388.7,3.4"/>
				<path class="st7" d="M594.6,0c0,0,0.9,4.9,0.9,8c0,3.1,0.9,6.7,0,7.6c-0.9,0.9-76.3,43-116.9,94.2
					C455,139.6,355.4,235,342.4,487.4l-2.2-0.6c0,0-3.4-172.5,87.8-324.7C494.6,50.9,572.3,15.6,594.6,0"/>
				<path class="st7" d="M634.3,3.4c0,0,0.9,4.9,0.9,8c0,3.1,0.9,6.7,0,7.6c-0.9,0.9-73,42.2-116,97
					c-23.5,29.9-130.2,148.7-135.9,394.2l-2.3-0.6c0,0-7.5-178.4,90.9-343.8C538.1,54.4,611.9,18.9,634.3,3.4"/>
				<radialGradient id="SVGID_1_" cx="530.5452" cy="379.8829" r="109.0947" gradientUnits="userSpaceOnUse">
					<stop  offset="0" style="stop-color:#FFFFFF"/>
					<stop  offset="1" style="stop-color:#00504C"/>
				</radialGradient>
				<circle class="st1" cx="512" cy="401.7" r="78.1"/>
			</g>
		</g>
	</g>
</g>
</svg>
