<?xml version="1.0" encoding="utf-8"?>
<!-- Generator: Adobe Illustrator 21.0.0, SVG Export Plug-In . SVG Version: 6.00 Build 0)  -->
<svg version="1.1" id="Capa_1" xmlns="http://www.w3.org/2000/svg" xmlns:xlink="http://www.w3.org/1999/xlink" x="0px" y="0px"
	 viewBox="0 0 483.2 348.8" style="enable-background:new 0 0 483.2 348.8;" xml:space="preserve">
<style type="text/css">
	.st0{opacity:0.1;}
	.st1{fill:url(#SVGID_1_);}
	.st2{opacity:8.000000e-02;}
	.st3{clip-path:url(#SVGID_3_);}
	.st4{clip-path:url(#SVGID_5_);}
	.st5{fill:#00504C;}
	.st6{fill:#C2C247;}
	.st7{fill:#FFFFFF;}
	.st8{fill:url(#SVGID_8_);}
	.st9{fill:url(#SVGID_9_);}
	.st10{clip-path:url(#SVGID_11_);}
	.st11{opacity:0.4;fill:url(#SVGID_12_);}
	.st12{fill:none;}
	.st13{fill:#F5F5F5;}
	.st14{opacity:0.2;}
	.st15{opacity:0.1;fill-rule:evenodd;clip-rule:evenodd;fill:#C2C247;}
	.st16{opacity:0.8;}
	.st17{clip-path:url(#SVGID_14_);}
	.st18{clip-path:url(#SVGID_16_);}
	.st19{fill:#808080;}
	.st20{clip-path:url(#SVGID_18_);}
	.st21{clip-path:url(#SVGID_20_);}
	.st22{clip-path:url(#SVGID_101_);}
	.st23{clip-path:url(#SVGID_104_);}
	.st24{clip-path:url(#SVGID_115_);}
	.st25{clip-path:url(#SVGID_119_);}
	.st26{fill-rule:evenodd;clip-rule:evenodd;fill:#C2C247;}
	.st27{fill:#4A8E82;}
	.st28{fill:#A8A810;}
	.st29{opacity:0.1;fill:#00504C;}
	.st30{clip-path:url(#SVGID_127_);}
	.st31{clip-path:url(#SVGID_128_);}
	.st32{clip-path:url(#SVGID_129_);}
	.st33{clip-path:url(#SVGID_130_);}
	.st34{clip-path:url(#SVGID_132_);}
	.st35{clip-path:url(#SVGID_134_);}
	.st36{clip-path:url(#SVGID_138_);}
	.st37{clip-path:url(#SVGID_140_);}
	.st38{clip-path:url(#SVGID_144_);}
	.st39{clip-path:url(#SVGID_146_);}
	.st40{clip-path:url(#SVGID_150_);}
	.st41{clip-path:url(#SVGID_152_);}
	.st42{opacity:5.000000e-02;}
	.st43{fill:#F0F0F0;}
	.st44{clip-path:url(#SVGID_156_);}
	.st45{clip-path:url(#SVGID_158_);}
	.st46{clip-path:url(#SVGID_162_);}
	.st47{clip-path:url(#SVGID_166_);}
	.st48{fill-rule:evenodd;clip-rule:evenodd;fill:#FFFFFF;}
	.st49{fill:url(#SVGID_171_);}
	.st50{fill:#C8C8C8;}
	.st51{fill:#F0F1F1;}
	.st52{clip-path:url(#SVGID_179_);}
	.st53{clip-path:url(#SVGID_181_);}
	.st54{opacity:0.2;fill:#3D3845;}
	.st55{clip-path:url(#SVGID_188_);}
	.st56{clip-path:url(#SVGID_190_);}
	.st57{clip-path:url(#SVGID_194_);}
	.st58{clip-path:url(#SVGID_198_);}
	.st59{clip-path:url(#SVGID_200_);}
	.st60{clip-path:url(#SVGID_207_);}
	.st61{clip-path:url(#SVGID_209_);}
	.st62{clip-path:url(#SVGID_213_);}
	.st63{clip-path:url(#SVGID_215_);}
	.st64{opacity:0.5;}
	.st65{clip-path:url(#SVGID_219_);}
	.st66{clip-path:url(#SVGID_221_);}
	.st67{clip-path:url(#SVGID_225_);}
	.st68{clip-path:url(#SVGID_227_);}
	.st69{clip-path:url(#SVGID_231_);}
	.st70{clip-path:url(#SVGID_233_);}
	.st71{clip-path:url(#SVGID_237_);}
	.st72{clip-path:url(#SVGID_239_);}
	.st73{clip-path:url(#SVGID_241_);}
	.st74{clip-path:url(#SVGID_242_);}
	.st75{clip-path:url(#SVGID_243_);}
	.st76{clip-path:url(#SVGID_244_);}
	.st77{clip-path:url(#SVGID_245_);}
	.st78{clip-path:url(#SVGID_247_);}
	.st79{clip-path:url(#SVGID_249_);}
	.st80{clip-path:url(#SVGID_253_);}
	.st81{clip-path:url(#SVGID_255_);}
	.st82{clip-path:url(#SVGID_259_);}
	.st83{clip-path:url(#SVGID_261_);}
	.st84{clip-path:url(#SVGID_265_);}
	.st85{clip-path:url(#SVGID_268_);}
	.st86{clip-path:url(#SVGID_275_);}
	.st87{clip-path:url(#SVGID_277_);}
	.st88{clip-path:url(#SVGID_357_);}
	.st89{clip-path:url(#SVGID_359_);}
	.st90{clip-path:url(#SVGID_367_);}
	.st91{clip-path:url(#SVGID_369_);}
	.st92{fill:#E6E6E6;}
	.st93{clip-path:url(#SVGID_375_);}
	.st94{clip-path:url(#SVGID_377_);}
	.st95{opacity:0.75;clip-path:url(#SVGID_381_);fill:#00504C;}
	.st96{clip-path:url(#SVGID_383_);}
	.st97{clip-path:url(#SVGID_385_);}
	.st98{clip-path:url(#SVGID_389_);}
	.st99{clip-path:url(#SVGID_391_);}
	.st100{clip-path:url(#SVGID_395_);}
	.st101{clip-path:url(#SVGID_397_);}
	.st102{clip-path:url(#SVGID_399_);}
	.st103{clip-path:url(#SVGID_401_);}
	.st104{clip-path:url(#SVGID_403_);}
	.st105{clip-path:url(#SVGID_405_);}
	.st106{clip-path:url(#SVGID_434_);}
	.st107{clip-path:url(#SVGID_436_);}
	.st108{clip-path:url(#SVGID_445_);}
	.st109{clip-path:url(#SVGID_447_);}
	.st110{opacity:0.75;clip-path:url(#SVGID_451_);fill:#00504C;}
	.st111{clip-path:url(#SVGID_453_);}
	.st112{clip-path:url(#SVGID_455_);}
	.st113{clip-path:url(#SVGID_459_);}
	.st114{clip-path:url(#SVGID_461_);}
	.st115{fill:url(#SVGID_464_);}
	.st116{fill:url(#SVGID_465_);}
	.st117{fill:url(#SVGID_466_);}
	.st118{fill:url(#SVGID_467_);}
	.st119{fill:url(#SVGID_468_);}
	.st120{fill:url(#SVGID_469_);}
	.st121{fill:url(#SVGID_470_);}
	.st122{fill:url(#SVGID_471_);}
	.st123{clip-path:url(#SVGID_473_);}
	.st124{clip-path:url(#SVGID_475_);}
	.st125{fill:url(#SVGID_478_);}
	.st126{fill:url(#SVGID_479_);}
	.st127{fill:url(#SVGID_480_);}
	.st128{fill:#00504C;stroke:#00504C;stroke-miterlimit:10;}
	.st129{fill:#FFFFFF;stroke:#00504C;stroke-miterlimit:10;}
	.st130{fill:url(#SVGID_481_);}
	.st131{clip-path:url(#SVGID_483_);}
	.st132{clip-path:url(#SVGID_485_);}
	.st133{fill:url(#SVGID_488_);}
	.st134{fill:url(#SVGID_489_);}
	.st135{fill:url(#SVGID_490_);}
</style>
<g>
	<g>
		<g>
			<g>
				<path class="st6" d="M18.3,307.8c0,0.6-0.1,1.2-0.1,1.7c-0.3,5.5-2.1,9.7-8.4,9.7c-9.2,0-9.8-5.8-9.8-13.8v-4.3
					c0.2-7.6,0.8-13.3,9.8-13.3c5,0.1,7.8,2.6,8.2,7.8c0.1,0.8,0.2,1.5,0.1,2.3h-5.5c-0.2-1.9,0-5.5-2.8-5.5c-4.4,0-4,5.2-4,7.6v8.3
					c0,2.5,0.2,6.5,4,6.5c3.1,0,2.7-5,2.8-6.9H18.3z"/>
				<path class="st6" d="M21.2,303.7c-0.2-5.3,2.5-8.4,7.6-8.4c7.2,0,8,3.8,8,9.9v3H26.4v3.3c0,3,1.2,3.5,2.7,3.5
					c1.9,0,2.5-1.4,2.4-4.2h5.2c0.2,5-1.9,8.2-7.2,8.2c-6,0-8.4-2.8-8.3-9.5V303.7z M31.6,304.3v-2c0-2.3-0.6-3-2.7-3
					c-2.6,0-2.5,2-2.5,4v0.9H31.6z"/>
				<path class="st6" d="M45.7,298.3L45.7,298.3c1.2-2.6,3.6-2.9,4.8-2.9c3,0,5.4,1.7,5.2,5.8v17.4h-5.2v-15c0-2.2-0.2-3.6-2.2-3.7
					c-2-0.1-2.6,1.8-2.6,4.2v14.6h-5.2v-22.6h5.2V298.3z"/>
				<path class="st6" d="M67.1,318.6c-3.1,0.4-7.4,0.6-7.4-3.6v-15.3h-2.1v-3.8h2.1v-6.2h5.2v6.2h2.2v3.8h-2.2v14
					c0.1,1,1.6,0.8,2.2,0.8V318.6z"/>
				<path class="st6" d="M74.6,299.9L74.6,299.9c0.7-1.6,1.4-2.6,2.1-3.2c1.5-1.2,2.5-1.2,3.2-1.2v6.2c-2.9-0.3-5.1,0.4-5.2,3.8v13
					h-5.2v-22.6h5V299.9z"/>
				<path class="st6" d="M81.6,308c0-7.7,0.1-12.7,8-12.7c7.7,0,7.8,5,7.8,12.7c0,7.8-1.1,11.2-7.8,11.1
					C82.7,319.2,81.6,315.8,81.6,308 M86.8,311.1c0,2.8,0.2,4,2.8,4c2.4,0,2.6-1.2,2.6-4v-7.5c0-2.1,0-4.3-2.6-4.3
					c-2.8,0-2.8,2.2-2.8,4.3V311.1z"/>
				<path class="st6" d="M119.6,316.1L119.6,316.1c-1.1,2.3-2.5,2.9-4.6,3c-4.4,0-5.3-4-5.4-7.6v-8.2c0.1-6.2,2.1-7.9,5.4-8
					c2.2,0,3.6,0.7,4.6,2.9h0.1c-0.1-0.7-0.2-1.3-0.2-2v-7.7h5.2v30h-5.2V316.1z M119.6,304.3c0.1-1.8,0-5-2.4-5
					c-2.4,0-2.2,2.1-2.4,4.4v7.5c0.1,2.2,0.7,3.9,2.3,3.9c1.7,0,2.5-1.4,2.5-4V304.3z"/>
				<path class="st6" d="M128.6,303.7c-0.2-5.3,2.5-8.4,7.6-8.4c7.2,0,8,3.8,8,9.9v3h-10.4v3.3c0,3,1.2,3.5,2.7,3.5
					c1.9,0,2.5-1.4,2.4-4.2h5.2c0.2,5-1.9,8.2-7.2,8.2c-6,0-8.4-2.8-8.3-9.5V303.7z M139,304.3v-2c0-2.3-0.6-3-2.7-3
					c-2.6,0-2.5,2-2.5,4v0.9H139z"/>
				<path class="st5" d="M154.8,318.5l7.2-30h7.6l6.8,30h-6l-1.5-7.6h-6.6l-1.5,7.6H154.8z M163.2,306.5h4.8l-1.5-8.5
					c-0.3-1.4-0.4-2.8-0.6-4.2c0-0.7-0.1-1.4-0.2-2h-0.1c-0.1,0.6-0.2,1.3-0.2,2c-0.2,1.4-0.3,2.8-0.6,4.2L163.2,306.5z"/>
				<path class="st5" d="M183.1,299.9L183.1,299.9c0.7-1.6,1.4-2.6,2.1-3.2c1.5-1.2,2.5-1.2,3.2-1.2v6.2c-2.9-0.3-5.1,0.4-5.2,3.8
					v13h-5.2v-22.6h5V299.9z"/>
				<path class="st5" d="M190.6,288.5h5.2v7.2c0,0.7-0.1,1.4-0.1,2.5h0.1c1-2.2,2.4-2.9,4.6-2.9c3.4,0.1,5.3,1.8,5.4,8v8.2
					c-0.1,3.6-1,7.6-5.4,7.6c-2.2-0.1-3.6-0.8-4.8-3h-0.1v2.4h-5V288.5z M195.8,311.1c0,2.6,0.8,4,2.5,4c1.6,0,2.2-1.7,2.3-3.9v-7.5
					c-0.2-2.2,0.1-4.4-2.4-4.4c-2.4,0-2.5,3.2-2.4,5V311.1z"/>
				<path class="st5" d="M210,288.5h5.2v4.7H210V288.5z M210,295.9h5.2v22.6H210V295.9z"/>
				<path class="st5" d="M227.2,318.6c-3.1,0.4-7.4,0.6-7.4-3.6v-15.3h-2.1v-3.8h2.1v-6.2h5.2v6.2h2.2v3.8H225v14
					c0.1,1,1.6,0.8,2.2,0.8V318.6z"/>
				<path class="st5" d="M234.7,299.9L234.7,299.9c0.7-1.6,1.4-2.6,2.1-3.2c1.5-1.2,2.5-1.2,3.2-1.2v6.2c-2.9-0.3-5.1,0.4-5.2,3.8
					v13h-5.2v-22.6h5V299.9z"/>
				<path class="st5" d="M252.3,318.5c-0.4-0.7-0.4-1.5-0.3-2.3h-0.1c-0.6,0.9-1.3,1.7-2.1,2.2c-0.8,0.5-1.6,0.8-2.5,0.8
					c-4.2,0-6-2.1-6-6.8c0-5.2,3.6-6.4,7.7-8.1c2.2-0.9,3-1.9,2.6-3.8c-0.2-1-1-1.2-2.4-1.2c-2.4,0-2.8,1.2-2.7,3.3h-5
					c0-4.3,1.4-7.3,7.9-7.3c7.1,0,7.5,3.7,7.4,6.7v13.3c0,1.1,0.2,2.1,0.4,3.2H252.3z M251.6,306.6c-1.3,0.9-2.8,1.8-4.2,2.9
					c-0.8,0.6-0.9,1.8-0.9,2.7c0,1.7,0.5,2.9,2.4,2.9c3.1,0,2.5-3.9,2.6-6V306.6z"/>
				<path class="st5" d="M259.8,322.1c1.2,0.1,1.9-0.1,1.9-1.2v-25h5.2v22.7c0,2.4,0.4,5.9-2.1,7.1c-0.8,0.4-2.6,0.6-5,0.4V322.1z
					 M261.8,288.5h5.2v4.7h-5.2V288.5z"/>
				<path class="st5" d="M270.8,303.7c-0.2-5.3,2.5-8.4,7.6-8.4c7.2,0,8,3.8,8,9.9v3H276v3.3c0,3,1.2,3.5,2.7,3.5
					c1.9,0,2.5-1.4,2.4-4.2h5.2c0.2,5-1.9,8.2-7.2,8.2c-6,0-8.4-2.8-8.3-9.5V303.7z M281.2,304.3v-2c0-2.3-0.6-3-2.7-3
					c-2.6,0-2.5,2-2.5,4v0.9H281.2z"/>
				<path class="st5" d="M302.4,295.9l2.3,12c0.4,2,0.6,4,0.8,6h0.1c0.2-2,0.4-3.9,0.8-5.8l2.3-12.1h5.3l-5.5,22.9
					c-1.3,5.1-1.4,8.3-8.6,7.3v-4c0.8,0,3.1,0.4,3.1-1c0-0.8-0.3-2.1-0.5-2.9l-5.4-22.2H302.4z"/>
				<path class="st5" d="M330.8,318.5h-5.6v-30h8.9l3,13.9c0.5,2.3,0.8,4.6,1,6.9h0.1c0.3-3,0.5-5,0.9-6.9l3-13.9h8.9v30h-5.6V309
					c0-6,0.1-11.9,0.5-17.9h-0.1l-6,27.3h-3.4l-5.9-27.3h-0.2c0.4,6,0.5,11.9,0.5,17.9V318.5z"/>
				<path class="st5" d="M354.7,303.7c-0.2-5.3,2.5-8.4,7.6-8.4c7.2,0,8,3.8,8,9.9v3h-10.4v3.3c0,3,1.2,3.5,2.7,3.5
					c1.9,0,2.5-1.4,2.4-4.2h5.2c0.2,5-1.9,8.2-7.2,8.2c-6,0-8.4-2.8-8.3-9.5V303.7z M365.1,304.3v-2c0-2.3-0.6-3-2.7-3
					c-2.6,0-2.5,2-2.5,4v0.9H365.1z"/>
				<path class="st5" d="M383.7,316.1L383.7,316.1c-1.1,2.3-2.5,2.9-4.6,3c-4.4,0-5.3-4-5.4-7.6v-8.2c0.1-6.2,2.1-7.9,5.4-8
					c2.2,0,3.6,0.7,4.6,2.9h0.1c-0.1-0.7-0.2-1.3-0.2-2v-7.7h5.2v30h-5.2V316.1z M383.7,304.3c0.1-1.8,0-5-2.4-5
					c-2.4,0-2.2,2.1-2.4,4.4v7.5c0.1,2.2,0.7,3.9,2.3,3.9c1.7,0,2.5-1.4,2.5-4V304.3z"/>
				<path class="st5" d="M393.6,288.5h5.2v4.7h-5.2V288.5z M393.6,295.9h5.2v22.6h-5.2V295.9z"/>
				<path class="st5" d="M413.4,318.5c-0.4-0.7-0.4-1.5-0.3-2.3H413c-0.6,0.9-1.3,1.7-2.1,2.2c-0.8,0.5-1.6,0.8-2.5,0.8
					c-4.2,0-6-2.1-6-6.8c0-5.2,3.6-6.4,7.7-8.1c2.2-0.9,3-1.9,2.6-3.8c-0.2-1-1-1.2-2.4-1.2c-2.4,0-2.8,1.2-2.7,3.3h-5
					c0-4.3,1.4-7.3,7.9-7.3c7.1,0,7.5,3.7,7.4,6.7v13.3c0,1.1,0.2,2.1,0.4,3.2H413.4z M412.7,306.6c-1.3,0.9-2.8,1.8-4.2,2.9
					c-0.8,0.6-0.9,1.8-0.9,2.7c0,1.7,0.5,2.9,2.4,2.9c3.1,0,2.5-3.9,2.6-6V306.6z"/>
				<path class="st5" d="M430.6,303.8v-2.5c-0.1-1.2-0.7-1.9-1.8-1.9c-2,0-2,2.3-2,5v5.3c-0.1,4.4,0.4,5.2,2,5.4
					c1.6,0,1.6-1.5,1.8-3.3v-2.1h5.2v2.1c0,4.7-2,7.3-7.1,7.3c-4.6,0-7.2-2.4-7-8.4v-7.3c0-6.3,3.1-8,7-8c5.2,0,7.2,3.3,7.1,6.6v1.8
					H430.6z"/>
				<path class="st5" d="M439.4,288.5h5.2v4.7h-5.2V288.5z M439.4,295.9h5.2v22.6h-5.2V295.9z"/>
				<path class="st5" d="M448.7,308c0-7.7,0.1-12.7,8-12.7c7.7,0,7.8,5,7.8,12.7c0,7.8-1.1,11.2-7.8,11.1
					C449.8,319.2,448.7,315.8,448.7,308 M457,287.5h6.2l-5.9,5.8h-4L457,287.5z M453.9,311.1c0,2.8,0.2,4,2.8,4c2.4,0,2.6-1.2,2.6-4
					v-7.5c0-2.1,0-4.3-2.6-4.3c-2.8,0-2.8,2.2-2.8,4.3V311.1z"/>
				<path class="st5" d="M473.2,298.3L473.2,298.3c1.2-2.6,3.6-2.9,4.8-2.9c3,0,5.4,1.7,5.2,5.8v17.4H478v-15c0-2.2-0.2-3.6-2.2-3.7
					c-2-0.1-2.6,1.8-2.6,4.2v14.6H468v-22.6h5.2V298.3z"/>
			</g>
			<g>
				<path class="st5" d="M74.1,337.4c0-1.9-0.7-3.5-2.8-3.5c-3,0-3.1,4.3-3.1,6.4c-0.1,2.1-0.1,6.9,3.1,6.9c2.1,0,2.5-1.7,2.7-3.4
					c0-0.4,0.1-0.7,0.1-1.1h1.7c0,0.3,0,0.7-0.1,1c-0.1,1.3-0.2,2.3-0.9,3.3c-0.8,1.1-1.9,1.8-3.4,1.8c-4.9,0-5-4.7-5-8.5
					c0-3.6,0.5-8,5-8c3,0,4.5,2.2,4.5,5.1H74.1z"/>
				<path class="st5" d="M81.2,332.7h2.3l4.4,15.8H86l-1.2-4.5h-5l-1.2,4.5h-1.9L81.2,332.7z M82.3,333.9L82.3,333.9l-2.1,8.4h4.2
					L82.3,333.9z M82.8,328.3h2.3l-2.8,3h-1.4L82.8,328.3z"/>
				<path class="st5" d="M99.3,332.7h3.1v15.8h-1.7v-13c0-0.7,0-1.3,0-2h0c-0.2,0.9-0.3,1.5-0.5,2.1l-3.3,12.9h-2.1l-3.3-13.1
					c-0.1-0.5-0.3-1.1-0.5-1.9h0c0,0.7,0,1.4,0,2v13h-1.7v-15.8h3.1l3.1,12.3c0.2,0.7,0.3,1.3,0.3,2.3h0c0.1-0.8,0.2-1.6,0.4-2.4
					L99.3,332.7z"/>
				<path class="st5" d="M108.2,332.7h2.3l4.4,15.8H113l-1.2-4.5h-5l-1.2,4.5h-1.9L108.2,332.7z M109.4,333.9L109.4,333.9l-2.1,8.4
					h4.2L109.4,333.9z"/>
				<path class="st5" d="M118.2,348.5h-1.7v-15.8h4.1c3.3,0,5.4,0.9,5.3,4.5c-0.1,1.9-1.2,3.2-3,3.4v0c2,0.2,2.5,0.8,2.8,2.9
					c0.1,1.2,0.2,2.3,0.3,3.5c0.1,0.3,0.2,1,0.6,1v0.4h-2c-0.4-1-0.5-3-0.5-4c0-1.6-0.6-2.9-2.7-2.9h-3.1V348.5z M118.2,339.9h2.8
					c0.8,0,3.1-0.1,3.1-2.9c0-2.7-2.2-2.8-3.3-2.8h-2.5V339.9z"/>
				<path class="st5" d="M131.7,332.7h2.3l4.4,15.8h-1.9l-1.2-4.5h-5l-1.2,4.5h-1.9L131.7,332.7z M132.9,333.9L132.9,333.9l-2.1,8.4
					h4.2L132.9,333.9z"/>
				<path class="st5" d="M146.6,336.8c0.1-1.6-0.8-2.9-2.5-2.9c-2.5,0-2.8,1.6-2.8,2.8c0,1.1,0.5,1.8,1.5,2.1l2.5,0.9
					c3,1.1,3.5,2.2,3.5,4.3c0,3-1.9,4.7-4.9,4.7c-1.6,0-3.4-0.4-4.3-2.5c-0.3-0.8-0.3-2-0.3-2.9h1.7c-0.1,2.3,0.4,3.8,3,3.8
					c1.8,0,3-0.9,3-2.8c0-2.4-1-2.4-2.6-3c-0.9-0.3-2.3-0.8-3.1-1.2c-1.5-0.8-1.9-2-1.9-3.6c0-2.6,1.8-4.3,4.4-4.3
					c2.9,0,4.7,1.5,4.5,4.5H146.6z"/>
				<path class="st5" d="M155.8,348.5v-15.8h4.3c4.9,0,5.6,4,5.5,7.9c-0.1,3.9-0.9,7.9-5.2,7.9H155.8z M157.6,346.9h2.8
					c2.6,0,3.6-1.9,3.5-6.6c-0.1-3.6-0.6-6-3.5-6h-2.8V346.9z"/>
				<polygon class="st5" points="168,348.5 168,332.7 175.9,332.7 175.9,334.3 169.7,334.3 169.7,339.5 175.5,339.5 175.5,341.1 
					169.7,341.1 169.7,346.9 175.9,346.9 175.9,348.5 				"/>
				<polygon class="st5" points="182.9,348.5 182.9,332.7 184.7,332.7 184.7,346.9 191.1,346.9 191.1,348.5 				"/>
				<path class="st5" d="M195.9,332.7h2.3l4.4,15.8h-1.9l-1.2-4.5h-5l-1.2,4.5h-1.9L195.9,332.7z M197,333.9L197,333.9l-2.1,8.4h4.2
					L197,333.9z"/>
				<path class="st5" d="M208.9,348.5v-15.8h4.1c1.2,0,2.8,0.1,3.7,1c0.9,0.9,1.3,2.1,1.3,3.4c0,1.7-0.5,3.5-2.2,4.2
					c-1.1,0.5-2.9,0.5-4.1,0.5h-1.1v6.7H208.9z M210.6,340.2h1.7c2.4,0,3.9-0.4,3.9-3.1c0-2.5-1.6-2.9-3.7-2.9h-1.8V340.2z"/>
				<path class="st5" d="M221.8,348.5h-1.7v-15.8h4.1c3.3,0,5.4,0.9,5.3,4.5c-0.1,1.9-1.2,3.2-3,3.4v0c2,0.2,2.5,0.8,2.8,2.9
					c0.1,1.2,0.2,2.3,0.3,3.5c0.1,0.3,0.2,1,0.6,1v0.4h-2c-0.4-1-0.5-3-0.5-4c0-1.6-0.6-2.9-2.7-2.9h-3.1V348.5z M221.8,339.9h2.8
					c0.8,0,3.1-0.1,3.1-2.9c0-2.7-2.2-2.8-3.3-2.8h-2.5V339.9z"/>
				<path class="st5" d="M237.1,332.4c4.6,0,5.2,4.3,5.2,7.9c0,4.4-0.6,8.6-5.2,8.6c-4.6,0-5.2-4.2-5.2-8.6
					C231.8,336.6,232.4,332.4,237.1,332.4 M237,333.9c-2.7,0-3.4,2.8-3.3,6.3c0,4.6,0.5,7,3.4,7c2.9,0,3.4-2.4,3.4-7
					C240.5,336.8,239.8,333.9,237,333.9"/>
				<path class="st5" d="M244.7,348.5v-15.8h4.3c4.9,0,5.6,4,5.5,7.9c-0.1,3.9-0.9,7.9-5.2,7.9H244.7z M246.4,346.9h2.8
					c2.6,0,3.6-1.9,3.5-6.6c-0.1-3.6-0.6-6-3.5-6h-2.8V346.9z"/>
				<path class="st5" d="M257,332.7h1.7V344c0,1.2,0.2,3.2,3,3.2c2.8,0,3-2,3-3.2v-11.4h1.7v12c0,2.8-1.9,4.2-4.7,4.2
					c-2.9,0-4.7-1.4-4.7-4.2V332.7z"/>
				<path class="st5" d="M276.5,337.4c0-1.9-0.7-3.5-2.8-3.5c-3,0-3.1,4.3-3.1,6.4c-0.1,2.1-0.1,6.9,3.1,6.9c2.1,0,2.5-1.7,2.7-3.4
					c0-0.4,0.1-0.7,0.1-1.1h1.7c0,0.3,0,0.7-0.1,1c-0.1,1.3-0.2,2.3-0.9,3.3c-0.8,1.1-1.9,1.8-3.4,1.8c-4.9,0-5-4.7-5-8.5
					c0-3.6,0.5-8,5-8c3,0,4.5,2.2,4.5,5.1H276.5z"/>
				<path class="st5" d="M287.6,337.4c0-1.9-0.7-3.5-2.8-3.5c-3,0-3.1,4.3-3.1,6.4c-0.1,2.1-0.1,6.9,3.1,6.9c2.1,0,2.5-1.7,2.7-3.4
					c0-0.4,0.1-0.7,0.1-1.1h1.7c0,0.3,0,0.7-0.1,1c-0.1,1.3-0.2,2.3-0.9,3.3c-0.8,1.1-1.9,1.8-3.4,1.8c-4.9,0-5-4.7-5-8.5
					c0-3.6,0.5-8,5-8c3,0,4.5,2.2,4.5,5.1H287.6z"/>
				<rect x="292" y="332.7" class="st5" width="1.7" height="15.8"/>
				<path class="st5" d="M301.8,332.4c4.6,0,5.2,4.3,5.2,7.9c0,4.4-0.6,8.6-5.2,8.6c-4.6,0-5.2-4.2-5.2-8.6
					C296.5,336.6,297.1,332.4,301.8,332.4 M301.7,333.9c-2.7,0-3.4,2.8-3.3,6.3c0,4.6,0.5,7,3.4,7c2.9,0,3.4-2.4,3.4-7
					C305.1,336.8,304.5,333.9,301.7,333.9 M302.2,328.3h2.3l-2.8,3h-1.4L302.2,328.3z"/>
				<path class="st5" d="M317.1,332.7h1.7v15.8H316l-4.4-12.6c-0.3-0.7-0.4-1.4-0.6-2.4h0c0,0.8,0,1.6,0,2.4v12.6h-1.7v-15.8h2.8
					l4.5,12.9c0.2,0.5,0.3,1,0.5,1.7h0c0-0.6,0-1.2,0-1.8V332.7z"/>
				<path class="st5" d="M326.4,348.5v-15.8h4.3c4.9,0,5.6,4,5.5,7.9c-0.1,3.9-0.9,7.9-5.2,7.9H326.4z M328.2,346.9h2.8
					c2.6,0,3.6-1.9,3.5-6.6c-0.1-3.6-0.6-6-3.5-6h-2.8V346.9z"/>
				<polygon class="st5" points="338.6,348.5 338.6,332.7 346.5,332.7 346.5,334.3 340.3,334.3 340.3,339.5 346.1,339.5 
					346.1,341.1 340.3,341.1 340.3,346.9 346.5,346.9 346.5,348.5 				"/>
				<polygon class="st5" points="348.8,348.5 348.8,332.7 350.5,332.7 350.5,346.9 357,346.9 357,348.5 				"/>
				<path class="st5" d="M366.5,332.7h2.3l4.4,15.8h-1.9l-1.2-4.5h-5l-1.2,4.5H362L366.5,332.7z M367.6,333.9L367.6,333.9l-2.1,8.4
					h4.2L367.6,333.9z"/>
				<polygon class="st5" points="373.5,348.5 373.5,347 381,334.3 373.7,334.3 373.7,332.7 382.8,332.7 382.8,334.2 375.4,346.9 
					382.9,346.9 382.9,348.5 				"/>
				<path class="st5" d="M384.7,332.7h1.7V344c0,1.2,0.2,3.2,3,3.2c2.8,0,3-2,3-3.2v-11.4h1.7v12c0,2.8-1.9,4.2-4.7,4.2
					c-2.9,0-4.7-1.4-4.7-4.2V332.7z"/>
				<path class="st5" d="M400,332.7h2.3l4.4,15.8h-1.9l-1.2-4.5h-5l-1.2,4.5h-1.9L400,332.7z M401.2,333.9L401.2,333.9l-2.1,8.4h4.2
					L401.2,333.9z"/>
				<polygon class="st5" points="411.2,340.6 414.9,332.7 416.8,332.7 412,342.3 412,348.5 410.3,348.5 410.3,342.3 405.5,332.7 
					407.5,332.7 				"/>
			</g>
		</g>
		<g>
			<g>
				<path class="st5" d="M240.2,259.5c-59.7,0-110.9-34.7-137-93.1c-0.4-0.8,0-1.7,0.8-2.1c0.8-0.4,1.7,0,2.1,0.8
					c25.6,57.3,75.7,91.3,134.1,91.3c0.6,0,1.1,0,1.6,0c59.6-0.6,111.4-36.3,135.3-92.9c0.3-0.8,1.2-1.2,2-0.8
					c0.8,0.3,1.2,1.2,0.8,2c-24.3,57.8-77.3,94.2-138.1,94.8C241.3,259.5,240.7,259.5,240.2,259.5"/>
				<path class="st5" d="M202.1,0c0,0-0.4,2.3-0.4,3.8c0,1.5-0.4,3.2,0,3.6c0.4,0.4,36,20.3,55.1,44.5C268,65.9,315,110.9,321.1,230
					l1.1-0.3c0,0,1.6-81.4-41.4-153.2C249.3,24,212.6,7.3,202.1,0"/>
				<path class="st5" d="M183.4,1.6c0,0-0.4,2.3-0.4,3.8c0,1.5-0.4,3.2,0,3.6c0.4,0.4,34.5,19.9,54.8,45.8
					c11.1,14.1,61.5,70.2,64.1,186l1.1-0.3c0,0,3.5-84.2-42.9-162.2C228.8,25.7,193.9,8.9,183.4,1.6"/>
				<path class="st6" d="M280.6,0c0,0,0.4,2.3,0.4,3.8c0,1.5,0.4,3.2,0,3.6c-0.4,0.4-36,20.3-55.1,44.5
					c-11.1,14.1-58.2,59.1-64.3,178.2l-1.1-0.3c0,0-1.6-81.4,41.4-153.2C233.4,24,270,7.3,280.6,0"/>
				<path class="st6" d="M299.3,1.6c0,0,0.4,2.3,0.4,3.8c0,1.5,0.4,3.2,0,3.6c-0.4,0.4-34.4,19.9-54.8,45.8
					c-11.1,14.1-61.4,70.2-64.1,186l-1.1-0.3c0,0-3.5-84.2,42.9-162.2C253.9,25.7,288.7,8.9,299.3,1.6"/>
				<radialGradient id="SVGID_1_" cx="250.3363" cy="179.2467" r="51.476" gradientUnits="userSpaceOnUse">
					<stop  offset="0" style="stop-color:#FFFFFF"/>
					<stop  offset="1" style="stop-color:#00504C"/>
				</radialGradient>
				<circle class="st1" cx="241.6" cy="189.6" r="36.9"/>
			</g>
		</g>
	</g>
</g>
</svg>
