<?xml version="1.0" encoding="utf-8"?>
<!-- Generator: Adobe Illustrator 21.0.0, SVG Export Plug-In . SVG Version: 6.00 Build 0)  -->
<svg version="1.1" id="Capa_1" xmlns="http://www.w3.org/2000/svg" xmlns:xlink="http://www.w3.org/1999/xlink" x="0px" y="0px"
	 viewBox="0 0 542.1 391.3" style="enable-background:new 0 0 542.1 391.3;" xml:space="preserve">
<style type="text/css">
	.st0{clip-path:url(#SVGID_2_);}
	.st1{fill:#C2C247;}
	.st2{fill:#00504C;}
	.st3{opacity:0.4;fill:url(#SVGID_3_);}
	.st4{fill:none;}
	.st5{fill:#F5F5F5;}
	.st6{opacity:0.2;}
	.st7{opacity:0.1;fill-rule:evenodd;clip-rule:evenodd;fill:#C2C247;}
	.st8{opacity:0.8;}
	.st9{fill:#FFFFFF;}
	.st10{clip-path:url(#SVGID_5_);}
	.st11{clip-path:url(#SVGID_7_);}
	.st12{fill:#808080;}
	.st13{opacity:8.000000e-02;}
	.st14{clip-path:url(#SVGID_9_);}
	.st15{clip-path:url(#SVGID_11_);}
	.st16{clip-path:url(#SVGID_87_);}
	.st17{clip-path:url(#SVGID_89_);}
	.st18{clip-path:url(#SVGID_103_);}
	.st19{clip-path:url(#SVGID_105_);}
	.st20{fill-rule:evenodd;clip-rule:evenodd;fill:#C2C247;}
	.st21{fill:#4A8E82;}
	.st22{fill:#A8A810;}
	.st23{opacity:0.1;fill:#00504C;}
	.st24{clip-path:url(#SVGID_115_);}
	.st25{clip-path:url(#SVGID_117_);}
	.st26{clip-path:url(#SVGID_119_);}
	.st27{clip-path:url(#SVGID_121_);}
	.st28{clip-path:url(#SVGID_123_);}
	.st29{clip-path:url(#SVGID_125_);}
	.st30{clip-path:url(#SVGID_129_);}
	.st31{clip-path:url(#SVGID_131_);}
	.st32{clip-path:url(#SVGID_135_);}
	.st33{clip-path:url(#SVGID_137_);}
	.st34{clip-path:url(#SVGID_141_);}
	.st35{clip-path:url(#SVGID_143_);}
	.st36{opacity:5.000000e-02;}
	.st37{fill:#F0F0F0;}
	.st38{clip-path:url(#SVGID_147_);}
	.st39{clip-path:url(#SVGID_149_);}
	.st40{clip-path:url(#SVGID_153_);}
	.st41{clip-path:url(#SVGID_155_);}
	.st42{fill-rule:evenodd;clip-rule:evenodd;fill:#FFFFFF;}
	.st43{opacity:0.1;}
	.st44{fill:url(#SVGID_158_);}
	.st45{fill:#C8C8C8;}
	.st46{clip-path:url(#SVGID_160_);}
	.st47{clip-path:url(#SVGID_162_);}
	.st48{clip-path:url(#SVGID_164_);}
	.st49{clip-path:url(#SVGID_166_);}
	.st50{clip-path:url(#SVGID_168_);}
	.st51{clip-path:url(#SVGID_170_);}
	.st52{clip-path:url(#SVGID_172_);}
	.st53{clip-path:url(#SVGID_174_);}
	.st54{clip-path:url(#SVGID_178_);}
	.st55{clip-path:url(#SVGID_180_);}
	.st56{clip-path:url(#SVGID_184_);}
	.st57{clip-path:url(#SVGID_186_);}
	.st58{clip-path:url(#SVGID_190_);}
	.st59{clip-path:url(#SVGID_192_);}
	.st60{clip-path:url(#SVGID_196_);}
	.st61{clip-path:url(#SVGID_198_);}
	.st62{clip-path:url(#SVGID_274_);}
	.st63{clip-path:url(#SVGID_276_);}
	.st64{clip-path:url(#SVGID_290_);}
	.st65{clip-path:url(#SVGID_292_);}
	.st66{fill:#E6E6E6;}
	.st67{clip-path:url(#SVGID_300_);}
	.st68{clip-path:url(#SVGID_302_);}
	.st69{opacity:0.75;clip-path:url(#SVGID_306_);fill:#00504C;}
	.st70{clip-path:url(#SVGID_308_);}
	.st71{clip-path:url(#SVGID_310_);}
	.st72{clip-path:url(#SVGID_314_);}
	.st73{clip-path:url(#SVGID_316_);}
	.st74{fill:url(#SVGID_319_);}
	.st75{clip-path:url(#SVGID_321_);}
	.st76{clip-path:url(#SVGID_323_);}
	.st77{clip-path:url(#SVGID_327_);}
	.st78{clip-path:url(#SVGID_329_);}
	.st79{clip-path:url(#SVGID_331_);}
	.st80{clip-path:url(#SVGID_333_);}
	.st81{clip-path:url(#SVGID_335_);}
	.st82{clip-path:url(#SVGID_337_);}
	.st83{fill:url(#SVGID_338_);}
	.st84{fill:url(#SVGID_339_);}
	.st85{clip-path:url(#SVGID_365_);}
	.st86{clip-path:url(#SVGID_367_);}
	.st87{clip-path:url(#SVGID_373_);}
	.st88{clip-path:url(#SVGID_375_);}
	.st89{opacity:8.000000e-02;fill:#00504C;}
	.st90{opacity:8.000000e-02;fill:#C2C247;}
	.st91{clip-path:url(#SVGID_379_);}
	.st92{clip-path:url(#SVGID_381_);}
	.st93{opacity:0.75;clip-path:url(#SVGID_385_);fill:#00504C;}
	.st94{clip-path:url(#SVGID_387_);}
	.st95{clip-path:url(#SVGID_389_);}
	.st96{clip-path:url(#SVGID_393_);}
	.st97{clip-path:url(#SVGID_395_);}
	.st98{fill:url(#SVGID_398_);}
	.st99{clip-path:url(#SVGID_400_);}
	.st100{clip-path:url(#SVGID_402_);}
	.st101{fill:#F0F1F1;}
	.st102{clip-path:url(#SVGID_412_);}
	.st103{clip-path:url(#SVGID_414_);}
	.st104{opacity:0.2;fill:#3D3845;}
	.st105{clip-path:url(#SVGID_424_);}
	.st106{clip-path:url(#SVGID_426_);}
	.st107{clip-path:url(#SVGID_430_);}
	.st108{clip-path:url(#SVGID_434_);}
	.st109{clip-path:url(#SVGID_436_);}
	.st110{clip-path:url(#SVGID_446_);}
	.st111{clip-path:url(#SVGID_448_);}
	.st112{clip-path:url(#SVGID_452_);}
	.st113{clip-path:url(#SVGID_454_);}
	.st114{opacity:0.5;}
	.st115{clip-path:url(#SVGID_458_);}
	.st116{clip-path:url(#SVGID_460_);}
	.st117{clip-path:url(#SVGID_464_);}
	.st118{clip-path:url(#SVGID_466_);}
	.st119{clip-path:url(#SVGID_470_);}
	.st120{clip-path:url(#SVGID_472_);}
	.st121{fill:url(#SVGID_475_);}
	.st122{fill:url(#SVGID_476_);}
</style>
<g>
	<g>
		<g>
			<g>
				<defs>
					<path id="SVGID_392_" d="M311.5,212.8c0,22.9-18.6,41.5-41.5,41.5c-22.9,0-41.4-18.6-41.4-41.5c0-22.9,18.5-41.5,41.4-41.5
						C293,171.3,311.5,189.9,311.5,212.8"/>
				</defs>
				<use xlink:href="#SVGID_392_"  style="overflow:visible;fill:#FFFFFF;"/>
				<clipPath id="SVGID_2_">
					<use xlink:href="#SVGID_392_"  style="overflow:visible;"/>
				</clipPath>
				<g class="st0">
					<g>
						<defs>
							<rect id="SVGID_394_" x="228.6" y="171.3" width="82.9" height="82.9"/>
						</defs>
						<clipPath id="SVGID_3_">
							<use xlink:href="#SVGID_394_"  style="overflow:visible;"/>
						</clipPath>
						<g style="clip-path:url(#SVGID_3_);">
							<defs>
								<rect id="SVGID_396_" x="228.6" y="171.3" width="82.9" height="82.9"/>
							</defs>
							<clipPath id="SVGID_5_">
								<use xlink:href="#SVGID_396_"  style="overflow:visible;"/>
							</clipPath>
							<g class="st10">
								
									<image style="overflow:visible;" width="347" height="347" xlink:href="29FC8547CCA8790D.jpg"  transform="matrix(0.24 0 0 0.24 228.4654 171.0939)">
								</image>
							</g>
						</g>
					</g>
				</g>
			</g>
			<path class="st9" d="M269.4,291.1c-67,0-124.4-38.9-153.7-104.5c-0.4-0.9,0-1.9,0.9-2.3c0.9-0.4,1.9,0,2.3,0.9
				c28.7,64.2,84.9,102.4,150.5,102.4c0.6,0,1.2,0,1.8,0c66.9-0.7,125-40.7,151.8-104.2c0.4-0.9,1.4-1.3,2.3-0.9
				c0.9,0.4,1.3,1.4,0.9,2.3c-27.3,64.9-86.7,105.6-155,106.4C270.7,291.1,270.1,291.1,269.4,291.1"/>
			<path class="st9" d="M226.8,0c0,0-0.5,2.6-0.5,4.2c0,1.6-0.5,3.5,0,4c0.5,0.5,40.4,22.8,61.9,49.9
				c12.5,15.8,65.2,66.3,72.1,199.9l1.2-0.3c0,0,1.8-91.3-46.5-171.9C279.7,27,238.6,8.2,226.8,0"/>
			<path class="st9" d="M205.8,1.8c0,0-0.5,2.6-0.5,4.2c0,1.6-0.5,3.5,0,4c0.5,0.5,38.6,22.3,61.4,51.4
				c12.4,15.8,68.9,78.7,71.9,208.6l1.2-0.3c0,0,4-94.4-48.1-182C256.7,28.8,217.6,10,205.8,1.8"/>
			<path class="st9" d="M314.8,0c0,0,0.5,2.6,0.5,4.2c0,1.6,0.5,3.5,0,4c-0.5,0.5-40.4,22.8-61.9,49.9
				c-12.5,15.8-65.2,66.3-72.1,199.9l-1.2-0.3c0,0-1.8-91.3,46.5-171.9C261.8,27,302.9,8.2,314.8,0"/>
			<path class="st9" d="M335.7,1.8c0,0,0.5,2.6,0.5,4.2c0,1.6,0.5,3.5,0,4c-0.5,0.5-38.6,22.3-61.4,51.4
				c-12.4,15.8-68.9,78.7-71.9,208.6l-1.2-0.3c0,0-4-94.4,48.1-182C284.8,28.8,323.9,10,335.7,1.8"/>
		</g>
		<g>
			<g>
				<path class="st9" d="M20.5,345.3c0,0.6-0.1,1.3-0.1,1.9c-0.3,6.1-2.4,10.9-9.4,10.9c-10.3,0-11-6.6-11-15.5v-4.8
					c0.3-8.6,0.9-14.9,11-14.9c5.6,0.1,8.7,3,9.2,8.7c0.1,0.9,0.2,1.7,0.1,2.6h-6.2c-0.3-2.2,0-6.2-3.1-6.2c-4.9,0-4.5,5.9-4.5,8.5
					v9.3c0,2.8,0.2,7.3,4.5,7.3c3.5,0,3.1-5.6,3.2-7.7H20.5z"/>
				<path class="st9" d="M23.7,340.7c-0.3-6,2.8-9.4,8.5-9.4c8.1,0,9,4.2,9,11.1v3.4H29.6v3.7c0,3.3,1.3,3.9,3,3.9
					c2.2,0,2.8-1.6,2.7-4.8h5.8c0.2,5.7-2.1,9.2-8.1,9.2c-6.7,0-9.5-3.2-9.3-10.6V340.7z M35.4,341.4v-2.2c0-2.6-0.7-3.4-3.1-3.4
					c-2.9,0-2.8,2.2-2.8,4.5v1H35.4z"/>
				<path class="st9" d="M51.2,334.6L51.2,334.6c1.4-2.9,4-3.3,5.3-3.3c3.3,0,6,1.9,5.8,6.5v19.5h-5.8v-16.9c0-2.5-0.3-4.1-2.5-4.2
					c-2.2-0.1-3,2-2.9,4.7v16.4h-5.8V332h5.8V334.6z"/>
				<path class="st9" d="M75.3,357.4c-3.5,0.4-8.3,0.7-8.3-4v-17.1h-2.4V332h2.3v-7h5.9v7h2.5v4.3h-2.5v15.7
					c0.1,1.1,1.8,0.9,2.5,0.9V357.4z"/>
				<path class="st9" d="M83.6,336.5L83.6,336.5c0.8-1.8,1.5-2.9,2.4-3.6c1.7-1.4,2.8-1.3,3.6-1.3v6.9c-3.2-0.3-5.7,0.5-5.8,4.2
					v14.6H78V332h5.6V336.5z"/>
				<path class="st9" d="M91.5,345.5c0-8.7,0.1-14.2,8.9-14.2c8.7,0,8.7,5.6,8.7,14.2c0,8.8-1.2,12.6-8.7,12.4
					C92.8,358.1,91.5,354.3,91.5,345.5 M97.4,349c0,3.1,0.3,4.4,3.1,4.4c2.7,0,2.9-1.3,2.9-4.4v-8.4c0-2.4,0-4.8-2.9-4.8
					c-3.1,0-3.1,2.4-3.1,4.8V349z"/>
				<path class="st9" d="M134.2,354.6L134.2,354.6c-1.2,2.6-2.8,3.2-5.1,3.4c-4.9,0-6-4.5-6.1-8.5v-9.2c0.1-7,2.3-8.9,6.1-9
					c2.5,0,4,0.8,5.2,3.2h0.1c-0.1-0.8-0.2-1.5-0.2-2.2v-8.7h5.8v33.6h-5.8V354.6z M134.2,341.4c0.1-2,0-5.6-2.7-5.6
					c-2.7,0-2.5,2.4-2.6,4.9v8.4c0.1,2.4,0.8,4.4,2.6,4.4c1.9,0,2.8-1.6,2.8-4.5V341.4z"/>
				<path class="st9" d="M144.3,340.7c-0.3-6,2.8-9.4,8.5-9.4c8.1,0,9,4.2,9,11.1v3.4h-11.7v3.7c0,3.3,1.3,3.9,3,3.9
					c2.2,0,2.8-1.6,2.7-4.8h5.8c0.2,5.7-2.1,9.2-8.1,9.2c-6.7,0-9.5-3.2-9.3-10.6V340.7z M155.9,341.4v-2.2c0-2.6-0.7-3.4-3.1-3.4
					c-2.9,0-2.8,2.2-2.8,4.5v1H155.9z"/>
				<path class="st9" d="M173.7,357.3l8-33.6h8.5l7.6,33.6h-6.7l-1.7-8.5h-7.4l-1.7,8.5H173.7z M183.1,343.8h5.4l-1.7-9.6
					c-0.3-1.6-0.4-3.1-0.6-4.7c0-0.8-0.1-1.5-0.2-2.2h-0.1c-0.1,0.7-0.2,1.5-0.2,2.2c-0.2,1.6-0.3,3.1-0.6,4.7L183.1,343.8z"/>
				<path class="st9" d="M205.4,336.5L205.4,336.5c0.8-1.8,1.5-2.9,2.4-3.6c1.7-1.4,2.8-1.3,3.6-1.3v6.9c-3.2-0.3-5.7,0.5-5.8,4.2
					v14.6h-5.8V332h5.6V336.5z"/>
				<path class="st9" d="M213.8,323.6h5.8v8.1c0,0.8-0.1,1.6-0.1,2.8h0.1c1.2-2.4,2.7-3.3,5.2-3.2c3.8,0.1,5.9,2,6.1,9v9.2
					c-0.1,4-1.1,8.5-6.1,8.5c-2.4-0.1-4-0.9-5.3-3.4h-0.1v2.7h-5.6V323.6z M219.6,349c0,2.9,0.9,4.5,2.8,4.5c1.8,0,2.4-1.9,2.6-4.4
					v-8.4c-0.2-2.5,0.1-4.9-2.6-4.9c-2.7,0-2.8,3.6-2.7,5.6V349z"/>
				<path class="st9" d="M235.6,323.6h5.8v5.3h-5.8V323.6z M235.6,332h5.8v25.3h-5.8V332z"/>
				<path class="st9" d="M254.9,357.4c-3.5,0.4-8.3,0.7-8.3-4v-17.1h-2.4V332h2.3v-7h5.9v7h2.5v4.3h-2.5v15.7
					c0.1,1.1,1.7,0.9,2.5,0.9V357.4z"/>
				<path class="st9" d="M263.3,336.5L263.3,336.5c0.8-1.8,1.5-2.9,2.4-3.6c1.7-1.4,2.8-1.3,3.6-1.3v6.9c-3.2-0.3-5.7,0.5-5.8,4.2
					v14.6h-5.8V332h5.6V336.5z"/>
				<path class="st9" d="M283,357.3c-0.4-0.8-0.4-1.7-0.4-2.6h-0.1c-0.7,1-1.4,1.9-2.3,2.4c-0.9,0.5-1.8,0.9-2.8,0.9
					c-4.7,0-6.8-2.4-6.8-7.6c0-5.8,4.1-7.2,8.7-9.1c2.5-1,3.4-2.2,2.9-4.2c-0.3-1.1-1.2-1.3-2.7-1.3c-2.6,0-3.1,1.4-3,3.7h-5.6
					c0-4.8,1.5-8.2,8.8-8.2c7.9,0,8.4,4.2,8.3,7.5v14.9c0,1.2,0.2,2.4,0.5,3.5H283z M282.2,344c-1.4,1-3.2,2-4.7,3.2
					c-0.9,0.7-1,2-1,3.1c0,1.9,0.6,3.2,2.7,3.2c3.5,0,2.8-4.4,3-6.8V344z"/>
				<path class="st9" d="M291.5,361.3c1.3,0.1,2.2-0.1,2.2-1.3v-28h5.8v25.4c0,2.6,0.5,6.6-2.4,8c-0.9,0.4-3,0.6-5.6,0.4V361.3z
					 M293.6,323.6h5.8v5.3h-5.8V323.6z"/>
				<path class="st9" d="M303.8,340.7c-0.3-6,2.8-9.4,8.5-9.4c8.1,0,9,4.2,9,11.1v3.4h-11.7v3.7c0,3.3,1.3,3.9,3,3.9
					c2.2,0,2.8-1.6,2.7-4.8h5.8c0.2,5.7-2.1,9.2-8.1,9.2c-6.7,0-9.5-3.2-9.3-10.6V340.7z M315.5,341.4v-2.2c0-2.6-0.7-3.4-3.1-3.4
					c-2.9,0-2.8,2.2-2.8,4.5v1H315.5z"/>
				<path class="st9" d="M339.2,332l2.6,13.4c0.4,2.2,0.6,4.5,0.9,6.7h0.1c0.2-2.2,0.5-4.4,0.9-6.6l2.6-13.6h5.9l-6.1,25.7
					c-1.5,5.7-1.6,9.3-9.7,8.2v-4.5c0.9,0,3.5,0.5,3.5-1.1c0-0.9-0.3-2.3-0.5-3.2l-6.1-24.9H339.2z"/>
				<path class="st9" d="M371,357.3h-6.3v-33.6h10l3.4,15.6c0.5,2.6,0.9,5.2,1.2,7.8h0.1c0.3-3.3,0.5-5.6,1-7.8l3.4-15.6h10v33.6
					h-6.3v-10.6c0-6.7,0.1-13.4,0.5-20.1h-0.1l-6.7,30.6h-3.8l-6.6-30.6h-0.2c0.4,6.7,0.5,13.4,0.5,20.1V357.3z"/>
				<path class="st9" d="M397.9,340.7c-0.3-6,2.8-9.4,8.5-9.4c8.1,0,9,4.2,9,11.1v3.4h-11.7v3.7c0,3.3,1.3,3.9,3,3.9
					c2.2,0,2.8-1.6,2.7-4.8h5.8c0.2,5.7-2.1,9.2-8.1,9.2c-6.7,0-9.5-3.2-9.3-10.6V340.7z M409.6,341.4v-2.2c0-2.6-0.7-3.4-3.1-3.4
					c-2.9,0-2.8,2.2-2.8,4.5v1H409.6z"/>
				<path class="st9" d="M430.5,354.6L430.5,354.6c-1.2,2.6-2.8,3.2-5.1,3.4c-4.9,0-6-4.5-6.1-8.5v-9.2c0.1-7,2.3-8.9,6.1-9
					c2.5,0,4,0.8,5.2,3.2h0.1c-0.1-0.8-0.2-1.5-0.2-2.2v-8.7h5.8v33.6h-5.8V354.6z M430.5,341.4c0.1-2,0-5.6-2.7-5.6
					c-2.7,0-2.5,2.4-2.6,4.9v8.4c0.1,2.4,0.8,4.4,2.6,4.4c1.9,0,2.8-1.6,2.8-4.5V341.4z"/>
				<path class="st9" d="M441.5,323.6h5.8v5.3h-5.8V323.6z M441.5,332h5.8v25.3h-5.8V332z"/>
				<path class="st9" d="M463.7,357.3c-0.4-0.8-0.4-1.7-0.4-2.6h-0.1c-0.7,1-1.4,1.9-2.3,2.4c-0.9,0.5-1.8,0.9-2.8,0.9
					c-4.7,0-6.8-2.4-6.8-7.6c0-5.8,4.1-7.2,8.7-9.1c2.5-1,3.4-2.2,2.9-4.2c-0.3-1.1-1.2-1.3-2.7-1.3c-2.6,0-3.1,1.4-3.1,3.7h-5.6
					c0-4.8,1.5-8.2,8.8-8.2c7.9,0,8.4,4.2,8.3,7.5v14.9c0,1.2,0.2,2.4,0.5,3.5H463.7z M462.9,344c-1.4,1-3.2,2-4.7,3.2
					c-0.9,0.7-1,2-1,3.1c0,1.9,0.6,3.2,2.7,3.2c3.5,0,2.8-4.4,3-6.8V344z"/>
				<path class="st9" d="M483.1,340.8v-2.8c-0.1-1.4-0.8-2.2-2-2.2c-2.2,0-2.2,2.6-2.2,5.7v6c-0.1,4.9,0.4,5.8,2.2,6.1
					c1.8,0,1.8-1.7,2-3.7v-2.3h5.8v2.3c0,5.3-2.2,8.2-8,8.2c-5.2,0-8.1-2.7-7.9-9.5v-8.2c0-7.1,3.5-9,7.9-9c5.9,0,8,3.7,8,7.4v2
					H483.1z"/>
				<path class="st9" d="M493,323.6h5.8v5.3H493V323.6z M493,332h5.8v25.3H493V332z"/>
				<path class="st9" d="M503.4,345.5c0-8.7,0.1-14.2,8.9-14.2c8.7,0,8.7,5.6,8.7,14.2c0,8.8-1.2,12.6-8.7,12.4
					C504.6,358.1,503.3,354.3,503.4,345.5 M512.7,322.5h7l-6.6,6.6h-4.5L512.7,322.5z M509.2,349c0,3.1,0.3,4.4,3.1,4.4
					c2.7,0,2.9-1.3,2.9-4.4v-8.4c0-2.4,0-4.8-2.9-4.8c-3.1,0-3.1,2.4-3.1,4.8V349z"/>
				<path class="st9" d="M530.9,334.6L530.9,334.6c1.4-2.9,4-3.3,5.3-3.3c3.3,0,6,1.9,5.8,6.5v19.5h-5.8v-16.9
					c0-2.5-0.3-4.1-2.5-4.2c-2.2-0.1-3,2-2.9,4.7v16.4H525V332h5.8V334.6z"/>
			</g>
			<g>
				<path class="st9" d="M83.1,378.5c0-2.1-0.7-3.9-3.2-3.9c-3.4,0-3.4,4.8-3.4,7.2c-0.1,2.4-0.1,7.8,3.4,7.8c2.3,0,2.8-1.9,3.1-3.9
					c0-0.4,0.1-0.8,0.1-1.2h2c0,0.4,0,0.7-0.1,1.1c-0.1,1.4-0.2,2.5-1,3.8c-0.9,1.3-2.1,2-3.8,2c-5.5,0-5.6-5.3-5.6-9.5
					c0-4,0.6-9,5.6-9c3.4,0,5.1,2.5,5,5.7H83.1z"/>
				<path class="st9" d="M91.1,373.2h2.6l5,17.7h-2.2l-1.4-5.1h-5.6l-1.3,5.1H86L91.1,373.2z M92.4,374.6L92.4,374.6L90,384h4.7
					L92.4,374.6z M92.9,368.3h2.6l-3.1,3.3h-1.6L92.9,368.3z"/>
				<path class="st9" d="M111.4,373.2h3.4v17.7h-2v-14.6c0-0.8,0-1.5,0-2.2h0c-0.2,1-0.4,1.7-0.5,2.4l-3.7,14.5h-2.3l-3.7-14.7
					c-0.2-0.6-0.3-1.2-0.5-2.2h0c0,0.8,0,1.5,0,2.3v14.6h-2v-17.7h3.5L107,387c0.2,0.8,0.3,1.5,0.4,2.6h0c0.1-0.9,0.2-1.8,0.4-2.6
					L111.4,373.2z"/>
				<path class="st9" d="M121.4,373.2h2.6l5,17.7h-2.2l-1.4-5.1h-5.6l-1.3,5.1h-2.2L121.4,373.2z M122.7,374.6L122.7,374.6l-2.4,9.4
					h4.7L122.7,374.6z"/>
				<path class="st9" d="M132.6,390.9h-2v-17.7h4.6c3.7,0,6.1,1,6,5.1c-0.1,2.1-1.3,3.6-3.4,3.9v0c2.3,0.2,2.9,0.9,3.1,3.3
					c0.1,1.3,0.2,2.6,0.4,3.9c0.1,0.3,0.2,1.1,0.7,1.1v0.4h-2.3c-0.4-1.1-0.6-3.3-0.6-4.5c0-1.8-0.7-3.3-3-3.3h-3.4V390.9z
					 M132.6,381.3h3.1c0.9,0,3.5-0.2,3.4-3.3c0-3-2.4-3.1-3.8-3.1h-2.8V381.3z"/>
				<path class="st9" d="M147.8,373.2h2.6l5,17.7h-2.2l-1.4-5.1h-5.6l-1.3,5.1h-2.2L147.8,373.2z M149.1,374.6L149.1,374.6l-2.4,9.4
					h4.7L149.1,374.6z"/>
				<path class="st9" d="M164.5,377.8c0.1-1.8-0.9-3.2-2.8-3.2c-2.9,0-3.2,1.8-3.2,3.2c0,1.2,0.5,2,1.7,2.4l2.8,1.1
					c3.4,1.3,4,2.4,4,4.8c0,3.4-2.1,5.3-5.5,5.3c-1.7,0-3.8-0.5-4.8-2.8c-0.4-0.9-0.4-2.3-0.4-3.2h2c-0.1,2.6,0.4,4.3,3.4,4.3
					c2,0,3.4-1,3.4-3.1c0-2.7-1.1-2.7-2.9-3.4c-1-0.4-2.5-0.9-3.5-1.4c-1.7-0.8-2.1-2.3-2.1-4c0-2.9,2.1-4.8,4.9-4.8
					c3.2,0,5.2,1.7,5,5H164.5z"/>
				<path class="st9" d="M174.8,390.9v-17.7h4.9c5.5,0,6.3,4.5,6.1,8.9c-0.1,4.3-1,8.9-5.8,8.9H174.8z M176.8,389.1h3.1
					c2.9,0,4.1-2.1,3.9-7.4c-0.1-4-0.7-6.7-3.9-6.7h-3.1V389.1z"/>
				<polygon class="st9" points="188.5,390.9 188.5,373.2 197.3,373.2 197.3,375 190.4,375 190.4,380.8 196.9,380.8 196.9,382.6 
					190.4,382.6 190.4,389.1 197.4,389.1 197.4,390.9 				"/>
				<polygon class="st9" points="205.2,390.9 205.2,373.2 207.2,373.2 207.2,389.1 214.4,389.1 214.4,390.9 				"/>
				<path class="st9" d="M219.8,373.2h2.6l5,17.7h-2.2l-1.4-5.1h-5.6l-1.3,5.1h-2.2L219.8,373.2z M221,374.6L221,374.6l-2.4,9.4h4.7
					L221,374.6z"/>
				<path class="st9" d="M234.3,390.9v-17.7h4.7c1.4,0,3.1,0.2,4.1,1.2c1.1,1,1.4,2.4,1.4,3.8c0,2-0.6,3.9-2.5,4.7
					c-1.2,0.5-3.2,0.5-4.6,0.5h-1.2v7.5H234.3z M236.3,381.6h1.9c2.7,0,4.3-0.4,4.3-3.4c0-2.9-1.8-3.3-4.2-3.2h-2V381.6z"/>
				<path class="st9" d="M248.8,390.9h-2v-17.7h4.6c3.7,0,6.1,1,6,5.1c-0.1,2.1-1.3,3.6-3.4,3.9v0c2.3,0.2,2.9,0.9,3.1,3.3
					c0.1,1.3,0.2,2.6,0.4,3.9c0.1,0.3,0.2,1.1,0.7,1.1v0.4h-2.3c-0.4-1.1-0.6-3.3-0.6-4.5c0-1.8-0.7-3.3-3-3.3h-3.4V390.9z
					 M248.8,381.3h3.1c0.9,0,3.5-0.2,3.4-3.3c0-3-2.4-3.1-3.8-3.1h-2.8V381.3z"/>
				<path class="st9" d="M266,372.8c5.2,0,5.8,4.8,5.8,8.8c0,4.9-0.7,9.7-5.8,9.7c-5.2,0-5.8-4.7-5.8-9.7
					C260.1,377.6,260.7,372.8,266,372.8 M265.9,374.6c-3,0-3.8,3.2-3.8,7.1c0,5.1,0.5,7.8,3.8,7.8c3.3,0,3.8-2.7,3.8-7.8
					C269.7,377.8,269,374.6,265.9,374.6"/>
				<path class="st9" d="M274.5,390.9v-17.7h4.9c5.5,0,6.3,4.5,6.1,8.9c-0.1,4.3-1,8.9-5.8,8.9H274.5z M276.4,389.1h3.1
					c2.9,0,4.1-2.1,3.9-7.4c-0.1-4-0.7-6.7-3.9-6.7h-3.1V389.1z"/>
				<path class="st9" d="M288.3,373.2h2v12.7c0,1.4,0.2,3.6,3.4,3.6c3.1,0,3.4-2.2,3.4-3.6v-12.7h2v13.4c0,3.2-2.1,4.7-5.3,4.7
					c-3.2,0-5.3-1.5-5.3-4.7V373.2z"/>
				<path class="st9" d="M310.1,378.5c0-2.1-0.7-3.9-3.2-3.9c-3.4,0-3.4,4.8-3.4,7.2c-0.1,2.4-0.1,7.8,3.4,7.8
					c2.3,0,2.8-1.9,3.1-3.9c0-0.4,0.1-0.8,0.1-1.2h2c0,0.4,0,0.7-0.1,1.1c-0.1,1.4-0.2,2.5-1,3.8c-0.9,1.3-2.2,2-3.9,2
					c-5.5,0-5.6-5.3-5.6-9.5c0-4,0.6-9,5.6-9c3.4,0,5.1,2.5,5,5.7H310.1z"/>
				<path class="st9" d="M322.7,378.5c0-2.1-0.7-3.9-3.2-3.9c-3.4,0-3.4,4.8-3.4,7.2c-0.1,2.4-0.1,7.8,3.4,7.8
					c2.3,0,2.8-1.9,3.1-3.9c0-0.4,0.1-0.8,0.1-1.2h2c0,0.4,0,0.7-0.1,1.1c-0.1,1.4-0.2,2.5-1,3.8c-0.9,1.3-2.1,2-3.9,2
					c-5.5,0-5.6-5.3-5.6-9.5c0-4,0.6-9,5.6-9c3.4,0,5.1,2.5,5,5.7H322.7z"/>
				<rect x="327.6" y="373.2" class="st9" width="2" height="17.7"/>
				<path class="st9" d="M338.5,372.8c5.2,0,5.8,4.8,5.8,8.8c0,4.9-0.7,9.7-5.8,9.7c-5.2,0-5.8-4.7-5.8-9.7
					C332.7,377.6,333.3,372.8,338.5,372.8 M338.4,374.6c-3,0-3.8,3.2-3.8,7.1c0,5.1,0.5,7.8,3.8,7.8c3.3,0,3.8-2.7,3.8-7.8
					C342.3,377.8,341.6,374.6,338.4,374.6 M339,368.3h2.6l-3.1,3.3h-1.6L339,368.3z"/>
				<path class="st9" d="M355.8,373.2h2v17.7h-3.2l-5-14.2c-0.3-0.8-0.5-1.6-0.7-2.7h0c0,0.9,0,1.8,0,2.7v14.1h-2v-17.7h3.2l5,14.5
					c0.2,0.5,0.4,1.1,0.6,1.9h0c0-0.6,0-1.3,0-2V373.2z"/>
				<path class="st9" d="M366.2,390.9v-17.7h4.9c5.5,0,6.3,4.5,6.1,8.9c-0.1,4.3-1,8.9-5.8,8.9H366.2z M368.1,389.1h3.1
					c2.9,0,4.1-2.1,3.9-7.4c-0.1-4-0.7-6.7-3.9-6.7h-3.1V389.1z"/>
				<polygon class="st9" points="379.8,390.9 379.8,373.2 388.7,373.2 388.7,375 381.8,375 381.8,380.8 388.3,380.8 388.3,382.6 
					381.8,382.6 381.8,389.1 388.7,389.1 388.7,390.9 				"/>
				<polygon class="st9" points="391.3,390.9 391.3,373.2 393.2,373.2 393.2,389.1 400.5,389.1 400.5,390.9 				"/>
				<path class="st9" d="M411.2,373.2h2.6l5,17.7h-2.2l-1.4-5.1h-5.6l-1.3,5.1h-2.2L411.2,373.2z M412.4,374.6L412.4,374.6L410,384
					h4.7L412.4,374.6z"/>
				<polygon class="st9" points="419,390.9 419,389.2 427.4,375 419.3,375 419.3,373.2 429.4,373.2 429.4,374.9 421.1,389.1 
					429.6,389.1 429.6,390.9 				"/>
				<path class="st9" d="M431.5,373.2h2v12.7c0,1.4,0.2,3.6,3.4,3.6c3.1,0,3.4-2.2,3.4-3.6v-12.7h2v13.4c0,3.2-2.1,4.7-5.3,4.7
					c-3.2,0-5.3-1.5-5.3-4.7V373.2z"/>
				<path class="st9" d="M448.8,373.2h2.6l5,17.7h-2.2l-1.4-5.1h-5.6l-1.3,5.1h-2.2L448.8,373.2z M450,374.6L450,374.6l-2.4,9.4h4.7
					L450,374.6z"/>
				<polygon class="st9" points="461.2,382.1 465.4,373.2 467.6,373.2 462.2,384 462.2,390.9 460.3,390.9 460.3,384 454.9,373.2 
					457.1,373.2 				"/>
			</g>
		</g>
	</g>
</g>
</svg>
