<?xml version="1.0" encoding="utf-8"?>
<!-- Generator: Adobe Illustrator 21.0.0, SVG Export Plug-In . SVG Version: 6.00 Build 0)  -->
<svg version="1.1" id="Capa_1" xmlns="http://www.w3.org/2000/svg" xmlns:xlink="http://www.w3.org/1999/xlink" x="0px" y="0px"
	 viewBox="0 0 273.8 55.6" style="enable-background:new 0 0 273.8 55.6;" xml:space="preserve">
<style type="text/css">
	.st0{clip-path:url(#SVGID_2_);}
	.st1{fill:#C2C247;}
	.st2{fill:#00504C;}
	.st3{opacity:0.4;fill:url(#SVGID_3_);}
	.st4{fill:none;}
	.st5{fill:#F5F5F5;}
	.st6{opacity:0.2;}
	.st7{opacity:0.1;fill-rule:evenodd;clip-rule:evenodd;fill:#C2C247;}
	.st8{opacity:0.8;}
	.st9{fill:#FFFFFF;}
	.st10{clip-path:url(#SVGID_5_);}
	.st11{clip-path:url(#SVGID_7_);}
	.st12{fill:#808080;}
	.st13{opacity:8.000000e-02;}
	.st14{clip-path:url(#SVGID_9_);}
	.st15{clip-path:url(#SVGID_11_);}
	.st16{clip-path:url(#SVGID_87_);}
	.st17{clip-path:url(#SVGID_89_);}
	.st18{clip-path:url(#SVGID_103_);}
	.st19{clip-path:url(#SVGID_105_);}
	.st20{fill-rule:evenodd;clip-rule:evenodd;fill:#C2C247;}
	.st21{fill:#4A8E82;}
	.st22{fill:#A8A810;}
	.st23{opacity:0.1;fill:#00504C;}
	.st24{clip-path:url(#SVGID_115_);}
	.st25{clip-path:url(#SVGID_117_);}
	.st26{clip-path:url(#SVGID_119_);}
	.st27{clip-path:url(#SVGID_121_);}
	.st28{clip-path:url(#SVGID_123_);}
	.st29{clip-path:url(#SVGID_125_);}
	.st30{clip-path:url(#SVGID_129_);}
	.st31{clip-path:url(#SVGID_131_);}
	.st32{clip-path:url(#SVGID_135_);}
	.st33{clip-path:url(#SVGID_137_);}
	.st34{clip-path:url(#SVGID_141_);}
	.st35{clip-path:url(#SVGID_143_);}
	.st36{opacity:5.000000e-02;}
	.st37{fill:#F0F0F0;}
	.st38{clip-path:url(#SVGID_147_);}
	.st39{clip-path:url(#SVGID_149_);}
	.st40{clip-path:url(#SVGID_153_);}
	.st41{clip-path:url(#SVGID_155_);}
	.st42{fill-rule:evenodd;clip-rule:evenodd;fill:#FFFFFF;}
	.st43{opacity:0.1;}
	.st44{fill:url(#SVGID_158_);}
	.st45{fill:#C8C8C8;}
	.st46{clip-path:url(#SVGID_160_);}
	.st47{clip-path:url(#SVGID_162_);}
	.st48{clip-path:url(#SVGID_164_);}
	.st49{clip-path:url(#SVGID_166_);}
	.st50{clip-path:url(#SVGID_168_);}
	.st51{clip-path:url(#SVGID_170_);}
	.st52{clip-path:url(#SVGID_172_);}
	.st53{clip-path:url(#SVGID_174_);}
	.st54{clip-path:url(#SVGID_178_);}
	.st55{clip-path:url(#SVGID_180_);}
	.st56{clip-path:url(#SVGID_184_);}
	.st57{clip-path:url(#SVGID_186_);}
	.st58{clip-path:url(#SVGID_190_);}
	.st59{clip-path:url(#SVGID_192_);}
	.st60{clip-path:url(#SVGID_196_);}
	.st61{clip-path:url(#SVGID_198_);}
	.st62{clip-path:url(#SVGID_274_);}
	.st63{clip-path:url(#SVGID_276_);}
	.st64{clip-path:url(#SVGID_290_);}
	.st65{clip-path:url(#SVGID_292_);}
	.st66{fill:#E6E6E6;}
	.st67{clip-path:url(#SVGID_300_);}
	.st68{clip-path:url(#SVGID_302_);}
	.st69{opacity:0.75;clip-path:url(#SVGID_306_);fill:#00504C;}
	.st70{clip-path:url(#SVGID_308_);}
	.st71{clip-path:url(#SVGID_310_);}
	.st72{clip-path:url(#SVGID_314_);}
	.st73{clip-path:url(#SVGID_316_);}
	.st74{fill:url(#SVGID_319_);}
	.st75{clip-path:url(#SVGID_321_);}
	.st76{clip-path:url(#SVGID_323_);}
	.st77{clip-path:url(#SVGID_327_);}
	.st78{clip-path:url(#SVGID_329_);}
	.st79{clip-path:url(#SVGID_331_);}
	.st80{clip-path:url(#SVGID_333_);}
	.st81{clip-path:url(#SVGID_335_);}
	.st82{clip-path:url(#SVGID_337_);}
	.st83{fill:url(#SVGID_338_);}
	.st84{fill:url(#SVGID_339_);}
	.st85{clip-path:url(#SVGID_365_);}
	.st86{clip-path:url(#SVGID_367_);}
	.st87{clip-path:url(#SVGID_373_);}
	.st88{clip-path:url(#SVGID_375_);}
	.st89{opacity:8.000000e-02;fill:#00504C;}
	.st90{opacity:8.000000e-02;fill:#C2C247;}
	.st91{clip-path:url(#SVGID_379_);}
	.st92{clip-path:url(#SVGID_381_);}
	.st93{opacity:0.75;clip-path:url(#SVGID_385_);fill:#00504C;}
	.st94{clip-path:url(#SVGID_387_);}
	.st95{clip-path:url(#SVGID_389_);}
	.st96{clip-path:url(#SVGID_393_);}
	.st97{clip-path:url(#SVGID_395_);}
	.st98{fill:url(#SVGID_398_);}
	.st99{clip-path:url(#SVGID_400_);}
	.st100{clip-path:url(#SVGID_402_);}
	.st101{fill:#F0F1F1;}
	.st102{clip-path:url(#SVGID_412_);}
	.st103{clip-path:url(#SVGID_414_);}
	.st104{opacity:0.2;fill:#3D3845;}
	.st105{clip-path:url(#SVGID_424_);}
	.st106{clip-path:url(#SVGID_426_);}
	.st107{clip-path:url(#SVGID_430_);}
	.st108{clip-path:url(#SVGID_434_);}
	.st109{clip-path:url(#SVGID_436_);}
	.st110{clip-path:url(#SVGID_446_);}
	.st111{clip-path:url(#SVGID_448_);}
	.st112{clip-path:url(#SVGID_452_);}
	.st113{clip-path:url(#SVGID_454_);}
	.st114{opacity:0.5;}
	.st115{clip-path:url(#SVGID_458_);}
	.st116{clip-path:url(#SVGID_460_);}
	.st117{clip-path:url(#SVGID_464_);}
	.st118{clip-path:url(#SVGID_466_);}
	.st119{clip-path:url(#SVGID_470_);}
	.st120{clip-path:url(#SVGID_472_);}
	.st121{fill:url(#SVGID_475_);}
	.st122{fill:url(#SVGID_476_);}
</style>
<g>
	<g>
		<g>
			<g>
				<defs>
					<path id="SVGID_386_" d="M37.4,40.7c0,4.4-3.5,7.9-7.9,7.9c-4.4,0-7.9-3.5-7.9-7.9c0-4.4,3.5-7.9,7.9-7.9
						C33.9,32.7,37.4,36.3,37.4,40.7"/>
				</defs>
				<use xlink:href="#SVGID_386_"  style="overflow:visible;fill:#FFFFFF;"/>
				<clipPath id="SVGID_2_">
					<use xlink:href="#SVGID_386_"  style="overflow:visible;"/>
				</clipPath>
				<g class="st0">
					<g>
						<defs>
							<rect id="SVGID_388_" x="21.6" y="32.7" width="15.8" height="15.8"/>
						</defs>
						<clipPath id="SVGID_3_">
							<use xlink:href="#SVGID_388_"  style="overflow:visible;"/>
						</clipPath>
						<g style="clip-path:url(#SVGID_3_);">
							<defs>
								<rect id="SVGID_390_" x="21.6" y="32.7" width="15.8" height="15.8"/>
							</defs>
							<clipPath id="SVGID_5_">
								<use xlink:href="#SVGID_390_"  style="overflow:visible;"/>
							</clipPath>
							<g class="st10">
								
									<image style="overflow:visible;" width="67" height="67" xlink:href="29F41A3B129A24C2.jpg"  transform="matrix(0.24 0 0 0.24 21.5485 32.686)">
								</image>
							</g>
						</g>
					</g>
				</g>
			</g>
			<path class="st9" d="M29.4,55.6c-12.8,0-23.8-7.4-29.4-20c-0.1-0.2,0-0.4,0.2-0.4c0.2-0.1,0.4,0,0.4,0.2
				C6.1,47.7,16.9,55,29.4,55c0.1,0,0.2,0,0.4,0c12.8-0.1,23.9-7.8,29-19.9c0.1-0.2,0.3-0.2,0.4-0.2c0.2,0.1,0.3,0.3,0.2,0.4
				c-5.2,12.4-16.6,20.2-29.6,20.3C29.6,55.6,29.5,55.6,29.4,55.6"/>
			<path class="st9" d="M21.2,0c0,0-0.1,0.5-0.1,0.8c0,0.3-0.1,0.7,0,0.8c0.1,0.1,7.7,4.4,11.8,9.5c2.4,3,12.5,12.7,13.8,38.2
				l0.2-0.1c0,0,0.3-17.4-8.9-32.8C31.4,5.2,23.5,1.6,21.2,0"/>
			<path class="st9" d="M17.2,0.3c0,0-0.1,0.5-0.1,0.8c0,0.3-0.1,0.7,0,0.8c0.1,0.1,7.4,4.3,11.7,9.8c2.4,3,13.2,15,13.7,39.9
				l0.2-0.1c0,0,0.8-18.1-9.2-34.8C27,5.5,19.5,1.9,17.2,0.3"/>
			<path class="st9" d="M38.1,0c0,0,0.1,0.5,0.1,0.8c0,0.3,0.1,0.7,0,0.8c-0.1,0.1-7.7,4.4-11.8,9.5c-2.4,3-12.5,12.7-13.8,38.2
				l-0.2-0.1c0,0-0.3-17.4,8.9-32.8C27.9,5.2,35.8,1.6,38.1,0"/>
			<path class="st9" d="M42.1,0.3c0,0,0.1,0.5,0.1,0.8c0,0.3,0.1,0.7,0,0.8c-0.1,0.1-7.4,4.3-11.7,9.8c-2.4,3-13.2,15-13.7,39.9
				l-0.2-0.1c0,0-0.8-18.1,9.2-34.8C32.3,5.5,39.8,1.9,42.1,0.3"/>
		</g>
		<g>
			<g>
				<path class="st9" d="M74.4,23.4c0,0.2,0,0.5-0.1,0.7c-0.1,2.3-0.9,4.2-3.6,4.2c-3.9,0-4.2-2.5-4.2-5.9v-1.8
					c0.1-3.3,0.4-5.7,4.2-5.7c2.1,0,3.3,1.1,3.5,3.3c0,0.3,0.1,0.7,0.1,1H72c-0.1-0.8,0-2.4-1.2-2.4C68.9,16.7,69,19,69,20v3.6
					c0,1.1,0.1,2.8,1.7,2.8c1.3,0,1.2-2.1,1.2-3H74.4z"/>
				<path class="st9" d="M75.6,21.6c-0.1-2.3,1.1-3.6,3.3-3.6c3.1,0,3.4,1.6,3.4,4.3v1.3h-4.5V25c0,1.3,0.5,1.5,1.2,1.5
					c0.8,0,1.1-0.6,1-1.8h2.2c0.1,2.2-0.8,3.5-3.1,3.5c-2.6,0-3.6-1.2-3.6-4.1V21.6z M80.1,21.9V21c0-1-0.3-1.3-1.2-1.3
					c-1.1,0-1.1,0.9-1.1,1.7v0.4H80.1z"/>
				<path class="st9" d="M86.2,19.3L86.2,19.3c0.5-1.1,1.5-1.3,2-1.3c1.3,0,2.3,0.7,2.2,2.5V28h-2.2v-6.4c0-0.9-0.1-1.6-0.9-1.6
					c-0.8,0-1.1,0.8-1.1,1.8V28h-2.2v-9.7h2.2V19.3z"/>
				<path class="st9" d="M95.4,28c-1.3,0.2-3.2,0.3-3.2-1.5v-6.6h-0.9v-1.6h0.9v-2.7h2.2v2.7h0.9v1.6h-0.9v6
					c0.1,0.4,0.7,0.4,0.9,0.3V28z"/>
				<path class="st9" d="M98.6,20L98.6,20c0.3-0.7,0.6-1.1,0.9-1.4c0.6-0.5,1.1-0.5,1.4-0.5v2.6c-1.2-0.1-2.2,0.2-2.2,1.6V28h-2.2
					v-9.7h2.1V20z"/>
				<path class="st9" d="M101.6,23.5c0-3.3,0.1-5.4,3.4-5.4c3.3,0,3.3,2.1,3.3,5.4c0,3.4-0.5,4.8-3.3,4.8
					C102.1,28.3,101.6,26.8,101.6,23.5 M103.8,24.8c0,1.2,0.1,1.7,1.2,1.7c1,0,1.1-0.5,1.1-1.7v-3.2c0-0.9,0-1.8-1.1-1.8
					c-1.2,0-1.2,0.9-1.2,1.8V24.8z"/>
				<path class="st9" d="M117.9,26.9L117.9,26.9c-0.5,1-1.1,1.2-2,1.3c-1.9,0-2.3-1.7-2.3-3.3v-3.5c0.1-2.7,0.9-3.4,2.3-3.4
					c0.9,0,1.5,0.3,2,1.2h0c-0.1-0.3-0.1-0.6-0.1-0.9v-3.3h2.2V28h-2.2V26.9z M117.9,21.9c0-0.8,0-2.1-1-2.1c-1,0-0.9,0.9-1,1.9v3.2
					c0.1,0.9,0.3,1.7,1,1.7c0.7,0,1.1-0.6,1.1-1.7V21.9z"/>
				<path class="st9" d="M121.7,21.6c-0.1-2.3,1.1-3.6,3.3-3.6c3.1,0,3.4,1.6,3.4,4.3v1.3H124V25c0,1.3,0.5,1.5,1.2,1.5
					c0.8,0,1.1-0.6,1-1.8h2.2c0.1,2.2-0.8,3.5-3.1,3.5c-2.6,0-3.6-1.2-3.6-4.1V21.6z M126.2,21.9V21c0-1-0.3-1.3-1.2-1.3
					c-1.1,0-1.1,0.9-1.1,1.7v0.4H126.2z"/>
				<path class="st9" d="M133,28l3.1-12.9h3.2l2.9,12.9h-2.6l-0.6-3.3h-2.8l-0.6,3.3H133z M136.6,22.8h2.1l-0.7-3.7
					c-0.1-0.6-0.2-1.2-0.2-1.8c0-0.3-0.1-0.6-0.1-0.9h0c0,0.3-0.1,0.6-0.1,0.9c-0.1,0.6-0.1,1.2-0.2,1.8L136.6,22.8z"/>
				<path class="st9" d="M145.1,20L145.1,20c0.3-0.7,0.6-1.1,0.9-1.4c0.6-0.5,1.1-0.5,1.4-0.5v2.6c-1.2-0.1-2.2,0.2-2.2,1.6V28H143
					v-9.7h2.1V20z"/>
				<path class="st9" d="M148.3,15.1h2.2v3.1c0,0.3,0,0.6-0.1,1.1h0c0.4-0.9,1-1.3,2-1.2c1.4,0,2.3,0.8,2.3,3.4V25
					c-0.1,1.5-0.4,3.3-2.3,3.3c-0.9-0.1-1.5-0.3-2-1.3h0v1h-2.1V15.1z M150.6,24.8c0,1.1,0.4,1.7,1.1,1.7c0.7,0,0.9-0.7,1-1.7v-3.2
					c-0.1-1,0-1.9-1-1.9c-1,0-1.1,1.4-1,2.1V24.8z"/>
				<path class="st9" d="M156.7,15.1h2.2v2h-2.2V15.1z M156.7,18.3h2.2V28h-2.2V18.3z"/>
				<path class="st9" d="M164,28c-1.3,0.2-3.2,0.3-3.2-1.5v-6.6H160v-1.6h0.9v-2.7h2.2v2.7h0.9v1.6h-0.9v6c0.1,0.4,0.7,0.4,0.9,0.3
					V28z"/>
				<path class="st9" d="M167.2,20L167.2,20c0.3-0.7,0.6-1.1,0.9-1.4c0.6-0.5,1.1-0.5,1.4-0.5v2.6c-1.2-0.1-2.2,0.2-2.2,1.6V28h-2.2
					v-9.7h2.1V20z"/>
				<path class="st9" d="M174.8,28c-0.2-0.3-0.2-0.7-0.1-1h0c-0.3,0.4-0.5,0.7-0.9,0.9c-0.3,0.2-0.7,0.3-1.1,0.3
					c-1.8,0-2.6-0.9-2.6-2.9c0-2.2,1.6-2.7,3.3-3.5c0.9-0.4,1.3-0.8,1.1-1.6c-0.1-0.4-0.4-0.5-1-0.5c-1,0-1.2,0.5-1.2,1.4h-2.1
					c0-1.8,0.6-3.1,3.4-3.1c3,0,3.2,1.6,3.2,2.9v5.7c0,0.5,0.1,0.9,0.2,1.4H174.8z M174.5,22.9c-0.5,0.4-1.2,0.8-1.8,1.2
					c-0.3,0.3-0.4,0.8-0.4,1.2c0,0.7,0.2,1.2,1,1.2c1.3,0,1.1-1.7,1.1-2.6V22.9z"/>
				<path class="st9" d="M178,29.5c0.5,0,0.8,0,0.8-0.5V18.3h2.2V28c0,1,0.2,2.5-0.9,3.1c-0.3,0.2-1.1,0.2-2.1,0.2V29.5z
					 M178.9,15.1h2.2v2h-2.2V15.1z"/>
				<path class="st9" d="M182.7,21.6c-0.1-2.3,1.1-3.6,3.3-3.6c3.1,0,3.4,1.6,3.4,4.3v1.3H185V25c0,1.3,0.5,1.5,1.2,1.5
					c0.8,0,1.1-0.6,1-1.8h2.2c0.1,2.2-0.8,3.5-3.1,3.5c-2.6,0-3.6-1.2-3.6-4.1V21.6z M187.2,21.9V21c0-1-0.3-1.3-1.2-1.3
					c-1.1,0-1.1,0.9-1.1,1.7v0.4H187.2z"/>
				<path class="st9" d="M196.3,18.3l1,5.1c0.2,0.9,0.2,1.7,0.3,2.6h0c0.1-0.8,0.2-1.7,0.3-2.5l1-5.2h2.3l-2.4,9.8
					c-0.6,2.2-0.6,3.6-3.7,3.1v-1.7c0.4,0,1.3,0.2,1.3-0.4c0-0.3-0.1-0.9-0.2-1.2l-2.3-9.5H196.3z"/>
				<path class="st9" d="M208.4,28H206V15.1h3.8l1.3,6c0.2,1,0.3,2,0.4,3h0c0.1-1.3,0.2-2.1,0.4-3l1.3-6h3.8V28h-2.4v-4
					c0-2.6,0.1-5.1,0.2-7.7h0L212.3,28h-1.5l-2.5-11.7h-0.1c0.2,2.6,0.2,5.1,0.2,7.7V28z"/>
				<path class="st9" d="M218.7,21.6c-0.1-2.3,1.1-3.6,3.3-3.6c3.1,0,3.4,1.6,3.4,4.3v1.3H221V25c0,1.3,0.5,1.5,1.2,1.5
					c0.8,0,1.1-0.6,1-1.8h2.2c0.1,2.2-0.8,3.5-3.1,3.5c-2.6,0-3.6-1.2-3.6-4.1V21.6z M223.2,21.9V21c0-1-0.3-1.3-1.2-1.3
					c-1.1,0-1.1,0.9-1.1,1.7v0.4H223.2z"/>
				<path class="st9" d="M231.2,26.9L231.2,26.9c-0.5,1-1.1,1.2-2,1.3c-1.9,0-2.3-1.7-2.3-3.3v-3.5c0.1-2.7,0.9-3.4,2.3-3.4
					c0.9,0,1.5,0.3,2,1.2h0c-0.1-0.3-0.1-0.6-0.1-0.9v-3.3h2.2V28h-2.2V26.9z M231.2,21.9c0-0.8,0-2.1-1-2.1c-1,0-0.9,0.9-1,1.9v3.2
					c0.1,0.9,0.3,1.7,1,1.7c0.7,0,1.1-0.6,1.1-1.7V21.9z"/>
				<path class="st9" d="M235.4,15.1h2.2v2h-2.2V15.1z M235.4,18.3h2.2V28h-2.2V18.3z"/>
				<path class="st9" d="M243.9,28c-0.2-0.3-0.2-0.7-0.1-1h0c-0.3,0.4-0.5,0.7-0.9,0.9c-0.3,0.2-0.7,0.3-1.1,0.3
					c-1.8,0-2.6-0.9-2.6-2.9c0-2.2,1.6-2.7,3.3-3.5c0.9-0.4,1.3-0.8,1.1-1.6c-0.1-0.4-0.4-0.5-1-0.5c-1,0-1.2,0.5-1.2,1.4h-2.1
					c0-1.8,0.6-3.1,3.4-3.1c3,0,3.2,1.6,3.2,2.9v5.7c0,0.5,0.1,0.9,0.2,1.4H243.9z M243.6,22.9c-0.5,0.4-1.2,0.8-1.8,1.2
					c-0.3,0.3-0.4,0.8-0.4,1.2c0,0.7,0.2,1.2,1,1.2c1.3,0,1.1-1.7,1.1-2.6V22.9z"/>
				<path class="st9" d="M251.3,21.6v-1.1c0-0.5-0.3-0.8-0.8-0.8c-0.9,0-0.9,1-0.8,2.2v2.3c-0.1,1.9,0.2,2.2,0.8,2.3
					c0.7,0,0.7-0.7,0.8-1.4v-0.9h2.2v0.9c0,2-0.8,3.1-3.1,3.1c-2,0-3.1-1-3-3.6v-3.1c0-2.7,1.3-3.4,3-3.4c2.2,0,3.1,1.4,3.1,2.8v0.8
					H251.3z"/>
				<path class="st9" d="M255.1,15.1h2.2v2h-2.2V15.1z M255.1,18.3h2.2V28h-2.2V18.3z"/>
				<path class="st9" d="M259,23.5c0-3.3,0.1-5.4,3.4-5.4c3.3,0,3.3,2.1,3.3,5.4c0,3.4-0.5,4.8-3.3,4.8
					C259.5,28.3,259,26.8,259,23.5 M262.6,14.7h2.7l-2.5,2.5H261L262.6,14.7z M261.3,24.8c0,1.2,0.1,1.7,1.2,1.7
					c1,0,1.1-0.5,1.1-1.7v-3.2c0-0.9,0-1.8-1.1-1.8c-1.2,0-1.2,0.9-1.2,1.8V24.8z"/>
				<path class="st9" d="M269.6,19.3L269.6,19.3c0.5-1.1,1.5-1.3,2-1.3c1.3,0,2.3,0.7,2.2,2.5V28h-2.2v-6.4c0-0.9-0.1-1.6-0.9-1.6
					c-0.8,0-1.1,0.8-1.1,1.8V28h-2.2v-9.7h2.2V19.3z"/>
			</g>
			<g>
				<path class="st9" d="M69.9,36.1c0-0.8-0.3-1.5-1.2-1.5c-1.3,0-1.3,1.9-1.3,2.7c0,0.9-0.1,3,1.3,3c0.9,0,1.1-0.7,1.2-1.5
					c0-0.2,0-0.3,0-0.5h0.7c0,0.1,0,0.3,0,0.4c0,0.6-0.1,1-0.4,1.4c-0.4,0.5-0.8,0.8-1.5,0.8c-2.1,0-2.2-2-2.2-3.6
					c0-1.5,0.2-3.4,2.1-3.4c1.3,0,2,1,1.9,2.2H69.9z"/>
				<path class="st9" d="M72.9,34h1l1.9,6.8H75l-0.5-2h-2.1l-0.5,2H71L72.9,34z M73.4,34.6L73.4,34.6l-0.9,3.6h1.8L73.4,34.6z
					 M73.6,32.2h1l-1.2,1.3h-0.6L73.6,32.2z"/>
				<path class="st9" d="M80.7,34H82v6.8h-0.7v-5.6c0-0.3,0-0.6,0-0.9h0c-0.1,0.4-0.1,0.7-0.2,0.9l-1.4,5.5h-0.9l-1.4-5.6
					c-0.1-0.2-0.1-0.5-0.2-0.8h0c0,0.3,0,0.6,0,0.9v5.6h-0.7V34h1.3l1.3,5.3c0.1,0.3,0.1,0.6,0.1,1h0c0-0.3,0.1-0.7,0.2-1L80.7,34z"
					/>
				<path class="st9" d="M84.5,34h1l1.9,6.8h-0.8l-0.5-2h-2.1l-0.5,2h-0.8L84.5,34z M85,34.6L85,34.6l-0.9,3.6h1.8L85,34.6z"/>
				<path class="st9" d="M88.8,40.8h-0.8V34h1.7c1.4,0,2.3,0.4,2.3,1.9c0,0.8-0.5,1.4-1.3,1.5v0c0.9,0.1,1.1,0.4,1.2,1.3
					c0,0.5,0.1,1,0.1,1.5c0,0.1,0.1,0.4,0.3,0.4v0.2h-0.9c-0.2-0.4-0.2-1.3-0.2-1.7c0-0.7-0.3-1.3-1.2-1.3h-1.3V40.8z M88.8,37.2H90
					c0.4,0,1.3-0.1,1.3-1.2c0-1.2-0.9-1.2-1.4-1.2h-1.1V37.2z"/>
				<path class="st9" d="M94.6,34h1l1.9,6.8h-0.8l-0.5-2H94l-0.5,2h-0.8L94.6,34z M95.1,34.6L95.1,34.6l-0.9,3.6H96L95.1,34.6z"/>
				<path class="st9" d="M101,35.8c0.1-0.7-0.3-1.2-1.1-1.2c-1.1,0-1.2,0.7-1.2,1.2c0,0.5,0.2,0.8,0.6,0.9l1.1,0.4
					c1.3,0.5,1.5,0.9,1.5,1.8c0,1.3-0.8,2-2.1,2c-0.7,0-1.5-0.2-1.9-1.1c-0.1-0.3-0.1-0.9-0.1-1.2h0.8c0,1,0.2,1.6,1.3,1.6
					c0.8,0,1.3-0.4,1.3-1.2c0-1-0.4-1-1.1-1.3c-0.4-0.1-1-0.3-1.3-0.5c-0.6-0.3-0.8-0.9-0.8-1.5c0-1.1,0.8-1.9,1.9-1.9
					c1.2,0,2,0.6,1.9,1.9H101z"/>
				<path class="st9" d="M104.9,40.8V34h1.9c2.1,0,2.4,1.7,2.3,3.4c-0.1,1.7-0.4,3.4-2.2,3.4H104.9z M105.7,40.1h1.2
					c1.1,0,1.6-0.8,1.5-2.8c-0.1-1.5-0.3-2.6-1.5-2.6h-1.2V40.1z"/>
				<polygon class="st9" points="110.2,40.8 110.2,34 113.5,34 113.5,34.7 110.9,34.7 110.9,37 113.4,37 113.4,37.6 110.9,37.6 
					110.9,40.1 113.6,40.1 113.6,40.8 				"/>
				<polygon class="st9" points="116.6,40.8 116.6,34 117.3,34 117.3,40.1 120.1,40.1 120.1,40.8 				"/>
				<path class="st9" d="M122.1,34h1l1.9,6.8h-0.8l-0.5-2h-2.1l-0.5,2h-0.8L122.1,34z M122.6,34.6L122.6,34.6l-0.9,3.6h1.8
					L122.6,34.6z"/>
				<path class="st9" d="M127.7,40.8V34h1.8c0.5,0,1.2,0.1,1.6,0.4c0.4,0.4,0.6,0.9,0.6,1.4c0,0.7-0.2,1.5-1,1.8
					c-0.5,0.2-1.2,0.2-1.8,0.2h-0.5v2.9H127.7z M128.4,37.3h0.7c1,0,1.7-0.2,1.7-1.3c0-1.1-0.7-1.2-1.6-1.2h-0.8V37.3z"/>
				<path class="st9" d="M133.2,40.8h-0.7V34h1.7c1.4,0,2.3,0.4,2.3,1.9c0,0.8-0.5,1.4-1.3,1.5v0c0.9,0.1,1.1,0.4,1.2,1.3
					c0,0.5,0.1,1,0.1,1.5c0,0.1,0.1,0.4,0.3,0.4v0.2h-0.9c-0.2-0.4-0.2-1.3-0.2-1.7c0-0.7-0.3-1.3-1.2-1.3h-1.3V40.8z M133.2,37.2
					h1.2c0.4,0,1.3-0.1,1.3-1.2c0-1.2-0.9-1.2-1.4-1.2h-1.1V37.2z"/>
				<path class="st9" d="M139.8,33.9c2,0,2.2,1.8,2.2,3.4c0,1.9-0.3,3.7-2.2,3.7c-2,0-2.2-1.8-2.2-3.7
					C137.5,35.7,137.8,33.9,139.8,33.9 M139.8,34.6c-1.2,0-1.4,1.2-1.4,2.7c0,2,0.2,3,1.5,3c1.2,0,1.4-1,1.5-3
					C141.2,35.8,140.9,34.6,139.8,34.6"/>
				<path class="st9" d="M143,40.8V34h1.9c2.1,0,2.4,1.7,2.3,3.4c-0.1,1.7-0.4,3.4-2.2,3.4H143z M143.8,40.1h1.2
					c1.1,0,1.6-0.8,1.5-2.8c-0.1-1.5-0.3-2.6-1.5-2.6h-1.2V40.1z"/>
				<path class="st9" d="M148.3,34h0.7v4.9c0,0.5,0.1,1.4,1.3,1.4c1.2,0,1.3-0.9,1.3-1.4V34h0.7v5.1c0,1.2-0.8,1.8-2,1.8
					c-1.2,0-2-0.6-2-1.8V34z"/>
				<path class="st9" d="M156.7,36.1c0-0.8-0.3-1.5-1.2-1.5c-1.3,0-1.3,1.9-1.3,2.7c0,0.9-0.1,3,1.3,3c0.9,0,1.1-0.7,1.2-1.5
					c0-0.2,0-0.3,0-0.5h0.7c0,0.1,0,0.3,0,0.4c0,0.6-0.1,1-0.4,1.4c-0.4,0.5-0.8,0.8-1.5,0.8c-2.1,0-2.2-2-2.2-3.6
					c0-1.5,0.2-3.4,2.2-3.4c1.3,0,2,1,1.9,2.2H156.7z"/>
				<path class="st9" d="M161.5,36.1c0-0.8-0.3-1.5-1.2-1.5c-1.3,0-1.3,1.9-1.3,2.7c0,0.9-0.1,3,1.3,3c0.9,0,1.1-0.7,1.2-1.5
					c0-0.2,0-0.3,0-0.5h0.7c0,0.1,0,0.3,0,0.4c0,0.6-0.1,1-0.4,1.4c-0.4,0.5-0.8,0.8-1.5,0.8c-2.1,0-2.2-2-2.2-3.6
					c0-1.5,0.2-3.4,2.2-3.4c1.3,0,2,1,1.9,2.2H161.5z"/>
				<rect x="163.4" y="34" class="st9" width="0.7" height="6.8"/>
				<path class="st9" d="M167.5,33.9c2,0,2.2,1.8,2.2,3.4c0,1.9-0.3,3.7-2.2,3.7c-2,0-2.2-1.8-2.2-3.7
					C165.3,35.7,165.5,33.9,167.5,33.9 M167.5,34.6c-1.2,0-1.4,1.2-1.4,2.7c0,2,0.2,3,1.5,3c1.2,0,1.4-1,1.5-3
					C169,35.8,168.7,34.6,167.5,34.6 M167.7,32.2h1l-1.2,1.3h-0.6L167.7,32.2z"/>
				<path class="st9" d="M174.1,34h0.7v6.8h-1.2l-1.9-5.4c-0.1-0.3-0.2-0.6-0.3-1h0c0,0.3,0,0.7,0,1v5.4h-0.7V34h1.2l1.9,5.5
					c0.1,0.2,0.1,0.4,0.2,0.7h0c0-0.2,0-0.5,0-0.8V34z"/>
				<path class="st9" d="M178.1,40.8V34h1.9c2.1,0,2.4,1.7,2.3,3.4c-0.1,1.7-0.4,3.4-2.2,3.4H178.1z M178.9,40.1h1.2
					c1.1,0,1.6-0.8,1.5-2.8c-0.1-1.5-0.3-2.6-1.5-2.6h-1.2V40.1z"/>
				<polygon class="st9" points="183.3,40.8 183.3,34 186.7,34 186.7,34.7 184.1,34.7 184.1,37 186.6,37 186.6,37.6 184.1,37.6 
					184.1,40.1 186.7,40.1 186.7,40.8 				"/>
				<polygon class="st9" points="187.7,40.8 187.7,34 188.5,34 188.5,40.1 191.2,40.1 191.2,40.8 				"/>
				<path class="st9" d="M195.3,34h1l1.9,6.8h-0.8l-0.5-2h-2.1l-0.5,2h-0.8L195.3,34z M195.8,34.6L195.8,34.6l-0.9,3.6h1.8
					L195.8,34.6z"/>
				<polygon class="st9" points="198.3,40.8 198.3,40.2 201.5,34.7 198.4,34.7 198.4,34 202.3,34 202.3,34.7 199.1,40.1 202.3,40.1 
					202.3,40.8 				"/>
				<path class="st9" d="M203.1,34h0.7v4.9c0,0.5,0.1,1.4,1.3,1.4c1.2,0,1.3-0.9,1.3-1.4V34h0.7v5.1c0,1.2-0.8,1.8-2,1.8
					c-1.2,0-2-0.6-2-1.8V34z"/>
				<path class="st9" d="M209.7,34h1l1.9,6.8h-0.8l-0.5-2h-2.1l-0.5,2h-0.8L209.7,34z M210.2,34.6L210.2,34.6l-0.9,3.6h1.8
					L210.2,34.6z"/>
				<polygon class="st9" points="214.5,37.4 216.1,34 216.9,34 214.8,38.2 214.8,40.8 214.1,40.8 214.1,38.2 212,34 212.9,34 				
					"/>
			</g>
		</g>
	</g>
</g>
</svg>
