<?xml version="1.0" encoding="utf-8"?>
<!-- Generator: Adobe Illustrator 21.0.0, SVG Export Plug-In . SVG Version: 6.00 Build 0)  -->
<svg version="1.1" id="Capa_1" xmlns="http://www.w3.org/2000/svg" xmlns:xlink="http://www.w3.org/1999/xlink" x="0px" y="0px"
	 viewBox="0 0 461.2 111" style="enable-background:new 0 0 461.2 111;" xml:space="preserve">
<style type="text/css">
	.st0{fill:#FFFFFF;}
	.st1{fill:#FFB600;}
	.st2{fill:#211915;}
	.st3{opacity:0.4;fill:#FFB600;}
	.st4{fill:#4C27B9;}
	.st5{fill:none;stroke:#211915;stroke-width:0.25;stroke-miterlimit:10;}
	.st6{fill:#060606;}
	.st7{fill:#131313;}
	.st8{fill:#202020;}
</style>
<g>
	<g>
		<g>
			<g>
				<g>
					<g>
						<g>
							<path d="M21.1,31.1c-0.2-0.2-0.4-0.2-0.6,0c-0.2,0.2-1.6,1.7-1.8,1.8c-0.1,0.1-0.1,0.2-0.1,0.3c0,0.1,0,0.3,0.1,0.3
								c0.4,0.4,2.1,2.2,5.1,5.4c-3.1,3.2-4.8,5-5.1,5.4c-0.1,0.1-0.1,0.2-0.1,0.3c0,0.1,0,0.2,0.1,0.3c0.2,0.2,1.6,1.7,1.8,1.8
								c0.1,0.1,0.2,0.1,0.3,0.1s0.2,0,0.3-0.1c0.7-0.8,6.5-6.8,7.2-7.6c0.1-0.1,0.1-0.2,0.1-0.3c0-0.1,0-0.2-0.1-0.3
								C27.6,37.9,21.8,31.8,21.1,31.1z"/>
							<path d="M21.1,31.1c-0.2-0.2-0.4-0.2-0.6,0c-0.2,0.2-1.6,1.7-1.8,1.8c-0.1,0.1-0.1,0.2-0.1,0.3c0,0.1,0,0.3,0.1,0.3
								c0.4,0.4,2.1,2.2,5.1,5.4c-3.1,3.2-4.8,5-5.1,5.4c-0.1,0.1-0.1,0.2-0.1,0.3c0,0.1,0,0.2,0.1,0.3c0.2,0.2,1.6,1.7,1.8,1.8
								c0.1,0.1,0.2,0.1,0.3,0.1s0.2,0,0.3-0.1c0.7-0.8,6.5-6.8,7.2-7.6c0.1-0.1,0.1-0.2,0.1-0.3c0-0.1,0-0.2-0.1-0.3
								C27.6,37.9,21.8,31.8,21.1,31.1z"/>
							<path d="M36.2,55.1c0,2.5,0,6.4,0,8.9c0,2-1.8,3.6-4,3.6c-2.4,0-5.6,0-8,0c-2.2,0-3.9-1.7-3.9-3.6c0-2.5,0-6.4,0-8.9
								c0-2,1.7-3.6,3.9-3.6c2.4,0,5.6,0,8,0C34.4,51.4,36.2,53.1,36.2,55.1z"/>
							<path d="M36.2,55.1c0,2.5,0,6.4,0,8.9c0,2-1.8,3.6-4,3.6c-2.4,0-5.6,0-8,0c-2.2,0-3.9-1.7-3.9-3.6c0-2.5,0-6.4,0-8.9
								c0-2,1.7-3.6,3.9-3.6c2.4,0,5.6,0,8,0C34.4,51.4,36.2,53.1,36.2,55.1z"/>
							<path d="M74.3,39c1.5,0,2.7,1.3,2.7,2.8c0,2.5,0,7.4,0,10c0,1.5-1.2,2.8-2.7,2.8c-2.5,0-7.5,0-10.1,0c-1.5,0-2.8-1.3-2.8-2.8
								c0-2.5,0-7.4,0-10c0-1.5,1.3-2.8,2.8-2.8C66.8,39,71.8,39,74.3,39z"/>
							<path d="M74.3,39c1.5,0,2.7,1.3,2.7,2.8c0,2.5,0,7.4,0,10c0,1.5-1.2,2.8-2.7,2.8c-2.5,0-7.5,0-10.1,0c-1.5,0-2.8-1.3-2.8-2.8
								c0-2.5,0-7.4,0-10c0-1.5,1.3-2.8,2.8-2.8C66.8,39,71.8,39,74.3,39z"/>
							<path d="M70,65.6c1.2,0,2.2,1,2.2,2.2c0,2,0,5.9,0,7.9c0,1.2-1,2.2-2.2,2.2c-2,0-5.7,0-7.7,0c-1.2,0-2.2-1-2.2-2.2
								c0-2,0-5.9,0-7.9c0-1.2,1.1-2.2,2.2-2.2C64.3,65.6,68.1,65.6,70,65.6z"/>
							<path d="M70,65.6c1.2,0,2.2,1,2.2,2.2c0,2,0,5.9,0,7.9c0,1.2-1,2.2-2.2,2.2c-2,0-5.7,0-7.7,0c-1.2,0-2.2-1-2.2-2.2
								c0-2,0-5.9,0-7.9c0-1.2,1.1-2.2,2.2-2.2C64.3,65.6,68.1,65.6,70,65.6z"/>
							<path d="M27.5,43.7h10.3v3.5H27.5V43.7z"/>
							<g>
								<path d="M51.3,0H4.2C1.9,0,0,1.9,0,4.2v102.7c0,2.3,1.9,4.2,4.2,4.2h47.1c2.3,0,4.2-1.9,4.2-4.2V4.2C55.5,1.9,53.6,0,51.3,0
									z M27.6,105.7c-2.3,0-4.1-1.9-4.1-4.1c0-2.3,1.9-4.1,4.1-4.1c2.3,0,4.1,1.9,4.1,4.1C31.8,103.9,29.9,105.7,27.6,105.7z
									 M52.4,94.4H2.9V13.5h49.4V94.4z"/>
							</g>
						</g>
					</g>
				</g>
			</g>
		</g>
		<path d="M62.1,47.6c2.4,0,4.4,1.9,4.4,4.4c0,4.1,0,11.9,0,16c0,2.4-2,4.3-4.4,4.3c-3.9,0-11.1,0-14.9,0c-2.4,0-4.4-1.9-4.4-4.3
			c0-4.1,0-11.9,0-16c0-2.4,2-4.4,4.4-4.4C51.1,47.6,58.3,47.6,62.1,47.6z"/>
	</g>
	<g>
		<g>
			<g>
				<path d="M99.3,1.7L120.4,39V1.7h10.9V56h-11.6L98.1,18v38H87.2V1.7H99.3z"/>
				<path d="M152.1,1.3v9.8h-10.9V1.3H152.1z M152.1,15.8V56h-10.9V15.8H152.1z"/>
				<path d="M173,1.9v29l12.8-14.9h13.4l-14,15.5L199.7,56h-13.1l-9.3-16.9l-4.3,4.5V56h-10.7V1.9H173z"/>
				<path d="M202.3,35.9c0-3.1,0.5-5.9,1.4-8.6c0.9-2.6,2.2-4.9,4-6.8c1.8-1.9,3.9-3.4,6.5-4.5c2.6-1.1,5.5-1.6,8.9-1.6
					c3.3,0,6.3,0.5,8.8,1.5c2.6,1,4.7,2.4,6.5,4.3c1.8,1.9,3.1,4.1,4,6.8c0.9,2.7,1.4,5.7,1.4,9c0,3.1-0.4,5.9-1.3,8.5
					c-0.9,2.6-2.2,4.9-3.9,6.8c-1.7,1.9-3.9,3.4-6.5,4.5c-2.6,1.1-5.6,1.6-9,1.6c-3.3,0-6.2-0.5-8.8-1.6c-2.6-1.1-4.7-2.5-6.5-4.4
					c-1.8-1.9-3.2-4.1-4.1-6.8C202.8,42,202.3,39.1,202.3,35.9z M213.8,35.9c0,4.1,0.8,7.2,2.4,9.3c1.6,2.1,3.9,3.1,6.8,3.1
					c2.8,0,5.1-1.1,6.8-3.2c1.7-2.1,2.5-5.1,2.5-9.1c0-4.2-0.8-7.4-2.5-9.4c-1.7-2-3.9-3.1-6.7-3.1c-1.1,0-2.2,0.2-3.3,0.5
					c-1.1,0.3-2.1,0.9-3,1.8c-0.9,0.9-1.6,2.2-2.2,3.8C214,31.3,213.8,33.4,213.8,35.9z"/>
				<path d="M262.4,44.6c0,1.3,0.3,2.3,0.8,2.9c0.5,0.6,1.2,0.9,2.2,0.9c0.3,0,0.7,0,1.1,0c0.4,0,0.7,0,1-0.1v8.1
					c-0.9,0.1-1.7,0.1-2.5,0.1c-0.8,0-1.6,0-2.5,0c-2.1,0-3.8-0.3-5.2-0.9c-1.4-0.6-2.5-1.3-3.4-2.3c-0.9-0.9-1.5-2-1.8-3.3
					c-0.4-1.3-0.5-2.6-0.5-3.9V1.7h10.9V44.6z"/>
				<path d="M271,37c0-3.6,0.4-6.7,1.3-9.5c0.9-2.7,2-5.1,3.6-6.9c1.5-1.9,3.4-3.3,5.5-4.3c2.1-1,4.5-1.5,7.1-1.5
					c2.6,0,4.8,0.6,6.8,1.8c2,1.2,3.5,2.9,4.6,5.2v-6h10.7V56h-10.6v-5.6c-1.2,2-2.8,3.7-4.6,4.9c-1.9,1.3-4.4,1.9-7.6,1.9
					c-2.2,0-4.3-0.5-6.3-1.4c-2-0.9-3.8-2.3-5.3-4c-1.5-1.7-2.8-3.9-3.7-6.4C271.5,43,271,40.1,271,37z M282.2,36.1
					c0,4.3,0.8,7.4,2.5,9.2c1.7,1.8,3.7,2.8,6.2,2.8c1.2,0,2.4-0.2,3.4-0.6c1.1-0.4,2-1.1,2.8-2c0.8-0.9,1.4-2.1,1.9-3.6
					c0.5-1.5,0.7-3.2,0.7-5.3c0-3.9-0.8-6.9-2.3-9.1c-1.6-2.1-3.7-3.2-6.6-3.2c-2.6,0-4.7,1-6.3,2.9C283,29.2,282.2,32.1,282.2,36.1
					z"/>
				<path d="M319,17.1c0-2.4,0.4-4.7,1.3-6.7c0.9-2.1,2.2-3.9,4-5.4c1.8-1.5,4-2.7,6.6-3.6c2.6-0.9,5.7-1.3,9.2-1.3
					c3,0,5.7,0.4,8.2,1.3c2.5,0.9,4.7,2.1,6.6,3.6c1.9,1.5,3.3,3.4,4.5,5.7c1.1,2.2,1.7,4.7,1.8,7.4H350c-0.2-2.7-1.2-4.7-3-6.1
					c-1.9-1.4-4.4-2.1-7.6-2.1c-3,0-5.3,0.6-6.9,1.8c-1.6,1.2-2.4,2.8-2.4,4.6c0,0.8,0.1,1.5,0.4,2.1c0.3,0.6,0.7,1.2,1.4,1.7
					c0.7,0.5,1.6,1,2.8,1.4c1.2,0.4,2.8,0.9,4.7,1.3l9.6,2.2c2,0.5,3.9,1.1,5.6,1.8c1.7,0.8,3.2,1.7,4.5,2.9c1.3,1.2,2.3,2.6,3,4.3
					c0.7,1.7,1.1,3.7,1.1,6.1c0,2.3-0.4,4.4-1.3,6.5c-0.9,2.1-2.2,3.9-4,5.5c-1.8,1.6-4.1,2.9-6.8,3.8c-2.7,1-5.9,1.4-9.6,1.4
					c-3.4,0-6.5-0.4-9.3-1.1c-2.8-0.8-5.2-1.9-7.2-3.4c-2-1.5-3.6-3.4-4.7-5.7c-1.1-2.3-1.7-4.9-1.7-7.9h11.2c0.3,3,1.4,5.1,3.1,6.5
					c1.7,1.4,4.4,2,7.9,2c7.3,0,11-2.3,11-6.9c0-0.6-0.1-1.2-0.3-1.7c-0.2-0.6-0.6-1.1-1.2-1.6c-0.6-0.5-1.6-1.1-2.9-1.6
					c-1.3-0.5-3.1-1-5.3-1.5l-8.6-2c-4.7-1.1-8.2-2.8-10.7-5.2C320.2,24.9,319,21.5,319,17.1z"/>
				<path d="M367.9,35.9c0-3.1,0.5-5.9,1.4-8.6c0.9-2.6,2.2-4.9,4-6.8c1.8-1.9,3.9-3.4,6.5-4.5c2.6-1.1,5.5-1.6,8.9-1.6
					c3.3,0,6.3,0.5,8.8,1.5c2.6,1,4.7,2.4,6.5,4.3c1.8,1.9,3.1,4.1,4,6.8c0.9,2.7,1.4,5.7,1.4,9c0,3.1-0.4,5.9-1.3,8.5
					c-0.9,2.6-2.2,4.9-3.9,6.8c-1.7,1.9-3.9,3.4-6.5,4.5c-2.6,1.1-5.6,1.6-9,1.6c-3.3,0-6.2-0.5-8.8-1.6c-2.6-1.1-4.7-2.5-6.5-4.4
					c-1.8-1.9-3.2-4.1-4.1-6.8C368.4,42,367.9,39.1,367.9,35.9z M379.4,35.9c0,4.1,0.8,7.2,2.4,9.3c1.6,2.1,3.9,3.1,6.8,3.1
					c2.8,0,5.1-1.1,6.8-3.2c1.7-2.1,2.5-5.1,2.5-9.1c0-4.2-0.8-7.4-2.5-9.4c-1.7-2-3.9-3.1-6.7-3.1c-1.1,0-2.2,0.2-3.3,0.5
					c-1.1,0.3-2.1,0.9-3,1.8c-0.9,0.9-1.6,2.2-2.2,3.8C379.7,31.3,379.4,33.4,379.4,35.9z"/>
				<path d="M418.5,16.1v-2.3c0-2.2,0.2-4.1,0.6-5.7c0.4-1.6,1.1-2.9,2.1-4c1-1,2.4-1.8,4.1-2.3c1.7-0.5,4-0.8,6.6-0.8
					c1.7,0,3,0.1,4.1,0.2v8.8c-0.3,0-0.6-0.1-1.1-0.1c-0.5,0-1.1,0-1.8,0c-1.2,0-2,0.2-2.7,0.7c-0.6,0.5-0.9,1.2-0.9,2.2v3.3h6.9
					v7.6h-6.9V56h-10.8V23.8h-5.9v-7.6H418.5z"/>
				<path d="M443.8,16.2V4.9h10.8v11.3h6.6v7.6h-6.6v20.7c0,0.9,0.1,1.5,0.2,2c0.1,0.5,0.4,0.9,0.7,1.1c0.3,0.3,0.8,0.5,1.4,0.5
					c0.6,0.1,1.3,0.1,2.3,0.1c0.3,0,0.7,0,1.1,0c0.4,0,0.7,0,1-0.1v8.1c-0.9,0.1-1.7,0.1-2.5,0.1c-0.8,0-1.6,0-2.5,0
					c-2.2,0-4.1-0.1-5.7-0.4c-1.6-0.3-2.9-0.7-3.8-1.3c-1-0.6-1.7-1.5-2.2-2.5c-0.5-1.1-0.7-2.4-0.7-3.9V23.8h-5.6v-7.6H443.8z"/>
			</g>
			<g>
				<path d="M93.7,66.5c1,0,2,0.1,2.8,0.4c0.9,0.3,1.6,0.8,2.2,1.4c0.6,0.6,1.1,1.4,1.4,2.4c0.3,1,0.5,2.1,0.5,3.4
					c0,1.3-0.2,2.5-0.5,3.5c-0.3,1-0.7,1.9-1.3,2.7c-0.6,0.7-1.3,1.3-2.1,1.7c-0.8,0.4-1.7,0.6-2.8,0.6h-7v-16H93.7z M90.4,79.7h3
					c1.1,0,2-0.4,2.7-1.3s1-2.2,1-4c0-0.9-0.1-1.7-0.2-2.4c-0.1-0.6-0.4-1.1-0.7-1.5c-0.3-0.4-0.7-0.6-1.1-0.8
					c-0.5-0.2-1-0.2-1.7-0.2h-3V79.7z"/>
				<path d="M106.1,66.4v2.9h-3.2v-2.9H106.1z M106.1,70.7v11.9h-3.2V70.7H106.1z"/>
				<path d="M108.5,76.6c0-1,0.1-1.9,0.4-2.6c0.3-0.8,0.6-1.4,1-2s1-0.9,1.6-1.2c0.6-0.3,1.3-0.4,2-0.4c0.7,0,1.3,0.1,1.9,0.4
					c0.6,0.3,1.1,0.8,1.5,1.6v-1.7h3.2V82c0,0.9-0.1,1.7-0.3,2.4c-0.2,0.7-0.5,1.2-1,1.7c-0.5,0.4-1.1,0.8-1.8,1
					c-0.8,0.2-1.7,0.3-2.8,0.4c-0.6,0-1.3-0.1-1.9-0.2c-0.6-0.1-1.2-0.3-1.7-0.6c-0.5-0.3-0.9-0.6-1.2-1.1c-0.3-0.5-0.5-1-0.6-1.7
					h3.5c0.1,0.3,0.3,0.6,0.5,0.8c0.3,0.2,0.8,0.3,1.5,0.3c0.4,0,0.8-0.1,1.1-0.2c0.3-0.1,0.6-0.3,0.8-0.6c0.2-0.3,0.3-0.6,0.4-1
					c0.1-0.4,0.1-1,0.1-1.6v-0.8c-0.1,0.2-0.3,0.4-0.4,0.7c-0.2,0.2-0.4,0.4-0.6,0.6c-0.2,0.2-0.6,0.3-0.9,0.4
					c-0.4,0.1-0.8,0.2-1.4,0.2c-0.8,0-1.4-0.1-2.1-0.4c-0.6-0.3-1.1-0.7-1.6-1.2c-0.4-0.5-0.8-1.1-1-1.9
					C108.6,78.4,108.5,77.6,108.5,76.6z M111.8,76.6c0,0.5,0.1,0.9,0.2,1.3c0.1,0.4,0.3,0.7,0.5,1c0.2,0.3,0.5,0.5,0.8,0.7
					c0.3,0.2,0.7,0.3,1.1,0.3c0.4,0,0.7-0.1,1-0.2c0.3-0.1,0.6-0.3,0.8-0.6c0.2-0.3,0.4-0.6,0.5-1c0.1-0.4,0.2-0.9,0.2-1.5
					c0-1.2-0.2-2-0.7-2.5c-0.5-0.5-1.1-0.8-1.8-0.8c-0.8,0-1.4,0.3-1.9,0.8C112,74.6,111.8,75.5,111.8,76.6z"/>
				<path d="M126.2,66.4v2.9H123v-2.9H126.2z M126.2,70.7v11.9H123V70.7H126.2z"/>
				<path d="M129.7,70.8v-3.3h3.2v3.3h1.9v2.3h-1.9v6.1c0,0.3,0,0.4,0.1,0.6c0,0.1,0.1,0.3,0.2,0.3c0.1,0.1,0.2,0.1,0.4,0.2
					c0.2,0,0.4,0,0.7,0c0.1,0,0.2,0,0.3,0c0.1,0,0.2,0,0.3,0v2.4c-0.3,0-0.5,0-0.7,0c-0.2,0-0.5,0-0.7,0c-0.7,0-1.2,0-1.7-0.1
					c-0.5-0.1-0.8-0.2-1.1-0.4c-0.3-0.2-0.5-0.4-0.6-0.7c-0.1-0.3-0.2-0.7-0.2-1.2v-7.2H128v-2.3H129.7z"/>
				<path d="M136,76.9c0-1.1,0.1-2,0.4-2.8c0.3-0.8,0.6-1.5,1.1-2.1c0.5-0.6,1-1,1.6-1.3c0.6-0.3,1.3-0.4,2.1-0.4
					c0.8,0,1.4,0.2,2,0.5c0.6,0.4,1,0.9,1.4,1.5v-1.8h3.2v11.9h-3.1v-1.6c-0.4,0.6-0.8,1.1-1.4,1.5c-0.6,0.4-1.3,0.6-2.2,0.6
					c-0.6,0-1.3-0.1-1.8-0.4c-0.6-0.3-1.1-0.7-1.6-1.2c-0.5-0.5-0.8-1.1-1.1-1.9C136.2,78.7,136,77.9,136,76.9z M139.3,76.7
					c0,1.3,0.2,2.2,0.7,2.7c0.5,0.5,1.1,0.8,1.8,0.8c0.4,0,0.7-0.1,1-0.2c0.3-0.1,0.6-0.3,0.8-0.6c0.2-0.3,0.4-0.6,0.6-1.1
					c0.1-0.4,0.2-1,0.2-1.6c0-1.2-0.2-2-0.7-2.7c-0.5-0.6-1.1-0.9-1.9-0.9c-0.8,0-1.4,0.3-1.9,0.9C139.5,74.7,139.3,75.5,139.3,76.7
					z"/>
				<path d="M153.8,79.2c0,0.4,0.1,0.7,0.2,0.8c0.2,0.2,0.4,0.3,0.6,0.3c0.1,0,0.2,0,0.3,0c0.1,0,0.2,0,0.3,0v2.4
					c-0.3,0-0.5,0-0.7,0c-0.2,0-0.5,0-0.7,0c-0.6,0-1.1-0.1-1.5-0.3c-0.4-0.2-0.7-0.4-1-0.7c-0.3-0.3-0.4-0.6-0.5-1
					c-0.1-0.4-0.2-0.8-0.2-1.2V66.5h3.2V79.2z"/>
				<path d="M168.2,66.5L171,79l2.7-12.5h5v16h-3.3v-11c0-0.4,0-0.8,0-1.1c0-0.3,0-0.8,0-1.3l-2.9,13.5h-3.4l-2.9-13.5
					c0,0.5,0,0.9,0,1.3c0,0.4,0,0.8,0,1.2v11h-3.2v-16H168.2z"/>
				<path d="M180.8,76.9c0-1.1,0.1-2,0.4-2.8c0.3-0.8,0.6-1.5,1.1-2.1c0.5-0.6,1-1,1.6-1.3c0.6-0.3,1.3-0.4,2.1-0.4s1.4,0.2,2,0.5
					c0.6,0.4,1,0.9,1.4,1.5v-1.8h3.2v11.9h-3.1v-1.6c-0.4,0.6-0.8,1.1-1.4,1.5c-0.6,0.4-1.3,0.6-2.2,0.6c-0.6,0-1.3-0.1-1.8-0.4
					c-0.6-0.3-1.1-0.7-1.6-1.2c-0.5-0.5-0.8-1.1-1.1-1.9C180.9,78.7,180.8,77.9,180.8,76.9z M184.1,76.7c0,1.3,0.2,2.2,0.7,2.7
					c0.5,0.5,1.1,0.8,1.8,0.8c0.4,0,0.7-0.1,1-0.2c0.3-0.1,0.6-0.3,0.8-0.6c0.2-0.3,0.4-0.6,0.6-1.1c0.1-0.4,0.2-1,0.2-1.6
					c0-1.2-0.2-2-0.7-2.7c-0.5-0.6-1.1-0.9-1.9-0.9c-0.8,0-1.4,0.3-1.9,0.9C184.3,74.7,184.1,75.5,184.1,76.7z"/>
				<path d="M198.3,70.7v2.1c0.3-0.5,0.5-0.8,0.8-1.1c0.3-0.3,0.5-0.5,0.8-0.7c0.3-0.2,0.6-0.3,0.9-0.4c0.3-0.1,0.7-0.1,1-0.1
					c0.1,0,0.2,0,0.2,0c0.1,0,0.1,0,0.2,0v3.3c-0.4,0-0.7-0.1-0.9-0.1c-1,0-1.8,0.3-2.2,0.8c-0.4,0.5-0.7,1.4-0.7,2.6v5.5h-3.2V70.7
					H198.3z"/>
				<path d="M207.2,66.6v8.6l3.8-4.4h4l-4.1,4.6l4.3,7.3h-3.9l-2.7-5l-1.3,1.3v3.7H204v-16H207.2z"/>
				<path d="M215.6,76.7c0-1,0.1-1.9,0.4-2.7c0.3-0.8,0.7-1.5,1.2-2c0.5-0.5,1.1-1,1.8-1.2c0.7-0.3,1.4-0.4,2.3-0.4
					c0.9,0,1.7,0.1,2.4,0.4c0.7,0.3,1.3,0.7,1.8,1.3c0.5,0.6,0.9,1.3,1.1,2.2c0.2,0.9,0.4,2,0.3,3.2h-8c0,0.8,0.2,1.5,0.7,2
					c0.4,0.5,1.1,0.8,2,0.8c0.4,0,0.8-0.1,1.2-0.3c0.4-0.2,0.7-0.5,0.9-1h3.3c0,0.5-0.2,1-0.5,1.5c-0.3,0.5-0.6,0.9-1.1,1.2
					c-0.5,0.3-1,0.6-1.7,0.8c-0.7,0.2-1.4,0.3-2.2,0.3c-0.7,0-1.4-0.1-2.1-0.3c-0.7-0.2-1.3-0.6-1.9-1.1c-0.6-0.5-1-1.1-1.3-1.9
					C215.8,78.9,215.6,77.9,215.6,76.7z M223.6,75.4c0-0.7-0.2-1.3-0.6-1.7c-0.4-0.4-1-0.6-1.7-0.6c-0.7,0-1.2,0.2-1.6,0.6
					c-0.4,0.4-0.6,1-0.7,1.8H223.6z"/>
				<path d="M229.4,70.8v-3.3h3.2v3.3h1.9v2.3h-1.9v6.1c0,0.3,0,0.4,0.1,0.6c0,0.1,0.1,0.3,0.2,0.3c0.1,0.1,0.2,0.1,0.4,0.2
					c0.2,0,0.4,0,0.7,0c0.1,0,0.2,0,0.3,0c0.1,0,0.2,0,0.3,0v2.4c-0.3,0-0.5,0-0.7,0c-0.2,0-0.5,0-0.7,0c-0.7,0-1.2,0-1.7-0.1
					c-0.5-0.1-0.8-0.2-1.1-0.4c-0.3-0.2-0.5-0.4-0.6-0.7c-0.1-0.3-0.2-0.7-0.2-1.2v-7.2h-1.6v-2.3H229.4z"/>
				<path d="M239.8,66.4v2.9h-3.2v-2.9H239.8z M239.8,70.7v11.9h-3.2V70.7H239.8z"/>
				<path d="M246,70.7l0,1.7c0.9-1.3,2.1-2,3.5-2c1.3,0,2.3,0.3,3.1,1c0.7,0.7,1.1,1.7,1.1,3.2v8h-3.3v-7.2c0-0.8-0.2-1.4-0.5-1.8
					c-0.3-0.3-0.8-0.5-1.5-0.5c-0.3,0-0.6,0-0.9,0.1c-0.3,0.1-0.5,0.2-0.8,0.5c-0.2,0.2-0.4,0.5-0.5,0.9c-0.1,0.4-0.2,0.9-0.2,1.6
					v6.4h-3.2V70.7H246z"/>
				<path d="M255.8,76.6c0-1,0.1-1.9,0.4-2.6c0.3-0.8,0.6-1.4,1-2s1-0.9,1.6-1.2c0.6-0.3,1.3-0.4,2-0.4c0.7,0,1.3,0.1,1.9,0.4
					c0.6,0.3,1.1,0.8,1.5,1.6v-1.7h3.2V82c0,0.9-0.1,1.7-0.3,2.4c-0.2,0.7-0.5,1.2-1,1.7c-0.5,0.4-1.1,0.8-1.8,1
					c-0.8,0.2-1.7,0.3-2.8,0.4c-0.6,0-1.3-0.1-1.9-0.2c-0.6-0.1-1.2-0.3-1.7-0.6c-0.5-0.3-0.9-0.6-1.2-1.1c-0.3-0.5-0.5-1-0.6-1.7
					h3.5c0.1,0.3,0.3,0.6,0.5,0.8c0.3,0.2,0.8,0.3,1.5,0.3c0.4,0,0.8-0.1,1.1-0.2c0.3-0.1,0.6-0.3,0.8-0.6c0.2-0.3,0.3-0.6,0.4-1
					c0.1-0.4,0.1-1,0.1-1.6v-0.8c-0.1,0.2-0.3,0.4-0.4,0.7c-0.2,0.2-0.4,0.4-0.6,0.6c-0.2,0.2-0.6,0.3-0.9,0.4s-0.8,0.2-1.4,0.2
					c-0.8,0-1.4-0.1-2.1-0.4c-0.6-0.3-1.1-0.7-1.6-1.2s-0.8-1.1-1-1.9C256,78.4,255.8,77.6,255.8,76.6z M259.2,76.6
					c0,0.5,0.1,0.9,0.2,1.3c0.1,0.4,0.3,0.7,0.5,1c0.2,0.3,0.5,0.5,0.8,0.7c0.3,0.2,0.7,0.3,1.1,0.3c0.4,0,0.7-0.1,1-0.2
					c0.3-0.1,0.6-0.3,0.8-0.6c0.2-0.3,0.4-0.6,0.5-1c0.1-0.4,0.2-0.9,0.2-1.5c0-1.2-0.2-2-0.7-2.5c-0.5-0.5-1.1-0.8-1.8-0.8
					c-0.8,0-1.4,0.3-1.9,0.8C259.4,74.6,259.2,75.5,259.2,76.6z"/>
			</g>
		</g>
		<g>
			<path d="M92,90.5l2.7,12.4l2.7-12.4h5v15.9h-3.2V95.5c0-0.4,0-0.8,0-1.1c0-0.3,0-0.8,0-1.3l-2.8,13.3H93l-2.8-13.3
				c0,0.5,0,0.9,0,1.3c0,0.4,0,0.8,0,1.2v10.9H87V90.5H92z"/>
			<path d="M104.4,100.5c0-0.9,0.1-1.7,0.4-2.5c0.3-0.8,0.7-1.4,1.2-2c0.5-0.6,1.1-1,1.9-1.3c0.7-0.3,1.6-0.5,2.6-0.5
				c1,0,1.8,0.1,2.6,0.4c0.7,0.3,1.4,0.7,1.9,1.3c0.5,0.5,0.9,1.2,1.2,2c0.3,0.8,0.4,1.7,0.4,2.6c0,0.9-0.1,1.7-0.4,2.5
				c-0.3,0.8-0.6,1.4-1.1,2c-0.5,0.6-1.1,1-1.9,1.3c-0.7,0.3-1.6,0.5-2.6,0.5c-1,0-1.8-0.2-2.6-0.5c-0.7-0.3-1.4-0.7-1.9-1.3
				c-0.5-0.6-0.9-1.2-1.2-2C104.6,102.3,104.4,101.5,104.4,100.5z M107.8,100.5c0,1.2,0.2,2.1,0.7,2.7c0.5,0.6,1.1,0.9,2,0.9
				c0.8,0,1.5-0.3,2-0.9c0.5-0.6,0.7-1.5,0.7-2.6c0-1.2-0.2-2.1-0.7-2.7c-0.5-0.6-1.2-0.9-2-0.9c-0.3,0-0.6,0-1,0.1
				c-0.3,0.1-0.6,0.3-0.9,0.5c-0.3,0.3-0.5,0.6-0.6,1.1C107.9,99.2,107.8,99.8,107.8,100.5z"/>
			<path d="M121.8,90.6v5.6c0.4-0.6,0.8-1,1.4-1.3c0.5-0.3,1.2-0.5,2-0.5c0.7,0,1.4,0.1,2,0.4c0.6,0.3,1.1,0.7,1.6,1.2
				c0.4,0.5,0.8,1.1,1,1.9c0.2,0.7,0.4,1.6,0.4,2.5c0,1.1-0.1,2-0.4,2.8c-0.3,0.8-0.6,1.5-1,2c-0.4,0.5-1,0.9-1.6,1.2
				c-0.6,0.3-1.2,0.4-1.9,0.4c-0.8,0-1.5-0.1-2-0.4c-0.5-0.3-1-0.7-1.5-1.4v1.5h-3.1V90.6H121.8z M121.7,100.7c0,1,0.2,1.9,0.7,2.5
				c0.5,0.6,1.1,0.9,2,0.9c0.7,0,1.2-0.3,1.7-0.8c0.5-0.5,0.7-1.4,0.7-2.5c0-1.2-0.2-2.2-0.6-2.7c-0.4-0.6-1.1-0.8-1.9-0.8
				c-0.9,0-1.5,0.3-1.9,0.9C121.9,98.7,121.7,99.6,121.7,100.7z"/>
			<path d="M135.6,90.4v2.9h-3.2v-2.9H135.6z M135.6,94.7v11.8h-3.2V94.7H135.6z"/>
			<path d="M141.8,103.1c0,0.4,0.1,0.7,0.2,0.8c0.2,0.2,0.4,0.3,0.6,0.3c0.1,0,0.2,0,0.3,0c0.1,0,0.2,0,0.3,0v2.4
				c-0.3,0-0.5,0-0.7,0c-0.2,0-0.5,0-0.7,0c-0.6,0-1.1-0.1-1.5-0.3c-0.4-0.2-0.7-0.4-1-0.7c-0.3-0.3-0.4-0.6-0.5-1
				c-0.1-0.4-0.2-0.7-0.2-1.1v-13h3.2V103.1z"/>
			<path d="M144.2,100.6c0-1,0.1-1.9,0.4-2.6c0.3-0.8,0.7-1.4,1.2-2c0.5-0.5,1.1-0.9,1.8-1.2c0.7-0.3,1.4-0.4,2.2-0.4
				c0.9,0,1.7,0.1,2.4,0.4c0.7,0.3,1.3,0.7,1.8,1.3s0.8,1.3,1.1,2.2c0.2,0.9,0.3,2,0.3,3.2h-8c0,0.8,0.2,1.5,0.7,2
				c0.4,0.5,1.1,0.8,1.9,0.8c0.4,0,0.8-0.1,1.2-0.3c0.4-0.2,0.7-0.5,0.9-1h3.3c0,0.5-0.2,1-0.5,1.5c-0.3,0.5-0.6,0.9-1.1,1.2
				c-0.4,0.3-1,0.6-1.6,0.8c-0.6,0.2-1.4,0.3-2.2,0.3c-0.7,0-1.4-0.1-2.1-0.3c-0.7-0.2-1.3-0.6-1.8-1c-0.5-0.5-1-1.1-1.3-1.9
				C144.3,102.7,144.2,101.8,144.2,100.6z M152,99.3c0-0.7-0.2-1.3-0.6-1.7c-0.4-0.4-0.9-0.6-1.7-0.6c-0.7,0-1.2,0.2-1.6,0.6
				c-0.4,0.4-0.6,1-0.7,1.7H152z"/>
			<path d="M162.4,100.9c0-1,0.1-2,0.4-2.8c0.2-0.8,0.6-1.5,1-2c0.4-0.6,1-1,1.6-1.3c0.6-0.3,1.3-0.4,2.1-0.4s1.4,0.2,2,0.5
				c0.6,0.4,1,0.9,1.3,1.5v-1.7h3.1v11.7h-3.1v-1.6c-0.4,0.6-0.8,1.1-1.4,1.4c-0.6,0.4-1.3,0.6-2.2,0.6c-0.6,0-1.2-0.1-1.8-0.4
				c-0.6-0.3-1.1-0.7-1.6-1.2c-0.4-0.5-0.8-1.1-1.1-1.9C162.6,102.6,162.4,101.8,162.4,100.9z M165.7,100.6c0,1.3,0.2,2.2,0.7,2.7
				c0.5,0.5,1.1,0.8,1.8,0.8c0.4,0,0.7-0.1,1-0.2c0.3-0.1,0.6-0.3,0.8-0.6c0.2-0.3,0.4-0.6,0.6-1c0.1-0.4,0.2-0.9,0.2-1.5
				c0-1.1-0.2-2-0.7-2.6c-0.5-0.6-1.1-0.9-1.9-0.9c-0.8,0-1.4,0.3-1.8,0.9S165.7,99.4,165.7,100.6z"/>
			<path d="M179.9,94.7l0,1.7c0.9-1.3,2.1-2,3.5-2c1.3,0,2.3,0.3,3.1,1c0.7,0.7,1.1,1.7,1.1,3.1v7.9h-3.3v-7.1
				c0-0.8-0.2-1.4-0.5-1.8c-0.3-0.3-0.8-0.5-1.5-0.5c-0.3,0-0.6,0-0.9,0.1c-0.3,0.1-0.5,0.2-0.7,0.5c-0.2,0.2-0.4,0.5-0.5,0.9
				c-0.1,0.4-0.2,0.9-0.2,1.6v6.3h-3.2V94.7H179.9z"/>
			<path d="M189.6,100.9c0-1,0.1-2,0.4-2.8c0.2-0.8,0.6-1.5,1-2c0.4-0.6,1-1,1.6-1.3c0.6-0.3,1.3-0.4,2.1-0.4c0.7,0,1.3,0.2,1.8,0.5
				c0.6,0.3,1,0.7,1.4,1.3v-5.6h3.2v15.9H198v-1.6c-0.4,0.6-0.8,1.1-1.4,1.4c-0.6,0.4-1.3,0.6-2.2,0.6c-0.6,0-1.2-0.1-1.8-0.4
				c-0.6-0.3-1.1-0.7-1.6-1.2c-0.4-0.5-0.8-1.1-1.1-1.9C189.7,102.6,189.6,101.8,189.6,100.9z M192.9,100.6c0,1.3,0.2,2.2,0.7,2.7
				c0.5,0.5,1.1,0.8,1.8,0.8c0.4,0,0.7-0.1,1-0.2c0.3-0.1,0.6-0.3,0.8-0.6c0.2-0.3,0.4-0.6,0.6-1c0.1-0.4,0.2-0.9,0.2-1.5
				c0-1.1-0.2-2-0.7-2.6c-0.5-0.6-1.1-0.9-1.9-0.9c-0.8,0-1.4,0.3-1.8,0.9S192.9,99.4,192.9,100.6z"/>
			<path d="M212.3,90.5l2.1,9l0.4,2.5l0.4-2.4l1.7-9h3.6l1.8,8.9l0.5,2.6l0.5-2.4l2.1-9.1h3.5l-4.5,15.9H221l-1.8-9.1l-0.5-3.2
				l-0.6,3.2l-1.8,9.1h-3.2l-4.5-15.9H212.3z"/>
			<path d="M229.6,100.6c0-1,0.1-1.9,0.4-2.6c0.3-0.8,0.7-1.4,1.2-2c0.5-0.5,1.1-0.9,1.8-1.2c0.7-0.3,1.4-0.4,2.2-0.4
				c0.9,0,1.7,0.1,2.4,0.4c0.7,0.3,1.3,0.7,1.8,1.3s0.8,1.3,1.1,2.2c0.2,0.9,0.3,2,0.3,3.2h-8c0,0.8,0.2,1.5,0.7,2
				c0.4,0.5,1.1,0.8,1.9,0.8c0.4,0,0.8-0.1,1.2-0.3c0.4-0.2,0.7-0.5,0.9-1h3.3c0,0.5-0.2,1-0.5,1.5c-0.3,0.5-0.6,0.9-1.1,1.2
				c-0.4,0.3-1,0.6-1.6,0.8c-0.6,0.2-1.4,0.3-2.2,0.3c-0.7,0-1.4-0.1-2.1-0.3c-0.7-0.2-1.3-0.6-1.8-1c-0.5-0.5-1-1.1-1.3-1.9
				C229.8,102.7,229.6,101.8,229.6,100.6z M237.5,99.3c0-0.7-0.2-1.3-0.6-1.7c-0.4-0.4-0.9-0.6-1.7-0.6c-0.7,0-1.2,0.2-1.6,0.6
				s-0.6,1-0.7,1.7H237.5z"/>
			<path d="M245.9,90.6v5.6c0.4-0.6,0.8-1,1.4-1.3c0.5-0.3,1.2-0.5,2-0.5c0.7,0,1.4,0.1,2,0.4c0.6,0.3,1.1,0.7,1.6,1.2
				c0.4,0.5,0.8,1.1,1,1.9c0.2,0.7,0.4,1.6,0.4,2.5c0,1.1-0.1,2-0.4,2.8c-0.3,0.8-0.6,1.5-1,2c-0.4,0.5-1,0.9-1.6,1.2
				c-0.6,0.3-1.2,0.4-1.9,0.4c-0.8,0-1.5-0.1-2-0.4c-0.5-0.3-1-0.7-1.5-1.4v1.5h-3.1V90.6H245.9z M245.8,100.7c0,1,0.2,1.9,0.7,2.5
				c0.5,0.6,1.1,0.9,2,0.9c0.7,0,1.2-0.3,1.7-0.8c0.5-0.5,0.7-1.4,0.7-2.5c0-1.2-0.2-2.2-0.6-2.7c-0.4-0.6-1.1-0.8-1.9-0.8
				c-0.9,0-1.5,0.3-1.9,0.9C246,98.7,245.8,99.6,245.8,100.7z"/>
			<path d="M270.9,90.5l5.6,15.9h-3.7l-1-3.1H266l-1,3.1h-3.6l5.6-15.9H270.9z M266.9,100.4h3.9l-1.9-6.2L266.9,100.4z"/>
			<path d="M281.2,94.7v1.7c0.4-0.6,0.8-1,1.4-1.4c0.6-0.4,1.3-0.6,2.1-0.6c0.7,0,1.3,0.1,1.9,0.4c0.6,0.3,1.1,0.7,1.6,1.2
				c0.4,0.5,0.8,1.1,1,1.9c0.3,0.7,0.4,1.6,0.4,2.6c0,1-0.1,1.9-0.4,2.7c-0.2,0.8-0.6,1.5-1,2c-0.4,0.5-1,0.9-1.6,1.2
				c-0.6,0.3-1.3,0.4-2,0.4c-0.7,0-1.3-0.2-1.9-0.5c-0.6-0.3-1-0.8-1.4-1.4v6.1h-3.2V94.7H281.2z M281.2,100.8
				c0,1.1,0.2,1.9,0.7,2.5c0.4,0.5,1.1,0.8,1.9,0.8c0.8,0,1.4-0.3,1.9-0.9c0.5-0.6,0.7-1.5,0.7-2.6c0-1-0.2-1.8-0.6-2.4
				c-0.4-0.6-1.1-0.9-1.9-0.9c-0.8,0-1.4,0.3-1.9,0.8C281.4,98.6,281.2,99.5,281.2,100.8z"/>
			<path d="M294.8,94.7v1.7c0.4-0.6,0.8-1,1.4-1.4c0.6-0.4,1.3-0.6,2.1-0.6c0.7,0,1.3,0.1,1.9,0.4c0.6,0.3,1.1,0.7,1.6,1.2
				c0.4,0.5,0.8,1.1,1,1.9c0.3,0.7,0.4,1.6,0.4,2.6c0,1-0.1,1.9-0.4,2.7c-0.2,0.8-0.6,1.5-1,2c-0.4,0.5-1,0.9-1.6,1.2
				c-0.6,0.3-1.3,0.4-2,0.4c-0.7,0-1.3-0.2-1.9-0.5c-0.6-0.3-1-0.8-1.4-1.4v6.1h-3.2V94.7H294.8z M294.8,100.8
				c0,1.1,0.2,1.9,0.7,2.5c0.4,0.5,1.1,0.8,1.9,0.8c0.8,0,1.4-0.3,1.9-0.9c0.5-0.6,0.7-1.5,0.7-2.6c0-1-0.2-1.8-0.6-2.4
				c-0.4-0.6-1.1-0.9-1.9-0.9c-0.8,0-1.4,0.3-1.9,0.8C295,98.6,294.8,99.5,294.8,100.8z"/>
			<path d="M305,98.3c0-0.5,0.1-0.9,0.3-1.4c0.2-0.5,0.5-0.9,0.9-1.3c0.4-0.4,0.9-0.7,1.5-0.9c0.6-0.2,1.4-0.4,2.2-0.4
				c1.6,0,2.8,0.3,3.7,0.9c0.9,0.6,1.4,1.6,1.5,3H312c-0.1-0.6-0.3-1-0.6-1.2c-0.3-0.2-0.8-0.3-1.4-0.3c-0.4,0-0.7,0-0.9,0.1
				c-0.2,0.1-0.4,0.1-0.6,0.2c-0.1,0.1-0.2,0.2-0.3,0.3c-0.1,0.1-0.1,0.2-0.1,0.3c0,0.3,0.1,0.5,0.3,0.6s0.7,0.3,1.4,0.5l2,0.5
				c0.5,0.1,1,0.3,1.4,0.5c0.4,0.2,0.8,0.4,1.1,0.7c0.3,0.3,0.6,0.6,0.7,1c0.2,0.4,0.3,0.8,0.3,1.3c0,0.6-0.1,1.1-0.3,1.6
				c-0.2,0.5-0.5,0.9-1,1.3c-0.4,0.4-1,0.6-1.7,0.8c-0.7,0.2-1.5,0.3-2.4,0.3c-0.8,0-1.5-0.1-2.2-0.2c-0.7-0.2-1.2-0.4-1.7-0.7
				c-0.5-0.3-0.9-0.8-1.1-1.3c-0.3-0.5-0.4-1.2-0.4-1.9h3.2c0,0.3,0.1,0.5,0.2,0.7c0.1,0.2,0.2,0.4,0.4,0.6c0.2,0.1,0.4,0.3,0.7,0.3
				c0.3,0.1,0.7,0.1,1.2,0.1c0.6,0,1.1-0.1,1.4-0.3c0.3-0.2,0.5-0.4,0.5-0.7c0-0.2,0-0.3-0.1-0.4c0-0.1-0.1-0.2-0.2-0.3
				c-0.1-0.1-0.3-0.2-0.5-0.2c-0.2-0.1-0.5-0.2-0.8-0.2l-2-0.5c-0.6-0.2-1.2-0.3-1.6-0.5c-0.5-0.2-0.8-0.4-1.1-0.7
				c-0.3-0.3-0.5-0.6-0.7-0.9C305.1,99.2,305,98.8,305,98.3z"/>
			<path d="M330.4,90.5c1,0,1.9,0.1,2.8,0.4c0.8,0.3,1.6,0.7,2.2,1.4c0.6,0.6,1.1,1.4,1.4,2.3c0.3,0.9,0.5,2.1,0.5,3.4
				c0,1.3-0.2,2.5-0.5,3.5c-0.3,1-0.7,1.9-1.3,2.6c-0.6,0.7-1.3,1.3-2.1,1.6c-0.8,0.4-1.7,0.6-2.7,0.6h-6.9V90.5H330.4z
				 M327.2,103.5h3c1.1,0,2-0.4,2.6-1.3c0.7-0.8,1-2.2,1-4c0-0.9-0.1-1.7-0.2-2.3c-0.1-0.6-0.4-1.1-0.7-1.5
				c-0.3-0.4-0.7-0.6-1.1-0.8c-0.5-0.2-1-0.2-1.6-0.2h-3V103.5z"/>
			<path d="M338.6,100.6c0-1,0.1-1.9,0.4-2.6c0.3-0.8,0.7-1.4,1.2-2c0.5-0.5,1.1-0.9,1.8-1.2c0.7-0.3,1.4-0.4,2.2-0.4
				c0.9,0,1.7,0.1,2.4,0.4c0.7,0.3,1.3,0.7,1.8,1.3s0.8,1.3,1.1,2.2c0.2,0.9,0.3,2,0.3,3.2h-8c0,0.8,0.2,1.5,0.7,2
				c0.4,0.5,1.1,0.8,1.9,0.8c0.4,0,0.8-0.1,1.2-0.3c0.4-0.2,0.7-0.5,0.9-1h3.3c0,0.5-0.2,1-0.5,1.5c-0.3,0.5-0.6,0.9-1.1,1.2
				c-0.4,0.3-1,0.6-1.6,0.8c-0.6,0.2-1.4,0.3-2.2,0.3c-0.7,0-1.4-0.1-2.1-0.3c-0.7-0.2-1.3-0.6-1.8-1c-0.5-0.5-1-1.1-1.3-1.9
				S338.6,101.8,338.6,100.6z M346.5,99.3c0-0.7-0.2-1.3-0.6-1.7c-0.4-0.4-0.9-0.6-1.7-0.6c-0.7,0-1.2,0.2-1.6,0.6
				c-0.4,0.4-0.6,1-0.7,1.7H346.5z"/>
			<path d="M354.2,94.7l2.4,8.6l2.4-8.6h3.4l-4.2,11.8h-3.4l-4.2-11.8H354.2z"/>
			<path d="M363.2,100.6c0-1,0.1-1.9,0.4-2.6c0.3-0.8,0.7-1.4,1.2-2c0.5-0.5,1.1-0.9,1.8-1.2c0.7-0.3,1.4-0.4,2.2-0.4
				c0.9,0,1.7,0.1,2.4,0.4c0.7,0.3,1.3,0.7,1.8,1.3s0.8,1.3,1.1,2.2c0.2,0.9,0.3,2,0.3,3.2h-8c0,0.8,0.2,1.5,0.7,2
				c0.4,0.5,1.1,0.8,1.9,0.8c0.4,0,0.8-0.1,1.2-0.3c0.4-0.2,0.7-0.5,0.9-1h3.3c0,0.5-0.2,1-0.5,1.5c-0.3,0.5-0.6,0.9-1.1,1.2
				c-0.4,0.3-1,0.6-1.6,0.8c-0.6,0.2-1.4,0.3-2.2,0.3c-0.7,0-1.4-0.1-2.1-0.3c-0.7-0.2-1.3-0.6-1.8-1c-0.5-0.5-1-1.1-1.3-1.9
				S363.2,101.8,363.2,100.6z M371.1,99.3c0-0.7-0.2-1.3-0.6-1.7c-0.4-0.4-0.9-0.6-1.7-0.6c-0.7,0-1.2,0.2-1.6,0.6
				c-0.4,0.4-0.6,1-0.7,1.7H371.1z"/>
			<path d="M379.7,103.1c0,0.4,0.1,0.7,0.2,0.8c0.2,0.2,0.4,0.3,0.6,0.3c0.1,0,0.2,0,0.3,0c0.1,0,0.2,0,0.3,0v2.4
				c-0.3,0-0.5,0-0.7,0c-0.2,0-0.5,0-0.7,0c-0.6,0-1.1-0.1-1.5-0.3c-0.4-0.2-0.7-0.4-1-0.7c-0.3-0.3-0.4-0.6-0.5-1
				c-0.1-0.4-0.2-0.7-0.2-1.1v-13h3.2V103.1z"/>
			<path d="M382.2,100.5c0-0.9,0.1-1.7,0.4-2.5c0.3-0.8,0.7-1.4,1.2-2c0.5-0.6,1.1-1,1.9-1.3c0.7-0.3,1.6-0.5,2.6-0.5
				c1,0,1.8,0.1,2.6,0.4c0.7,0.3,1.4,0.7,1.9,1.3c0.5,0.5,0.9,1.2,1.2,2c0.3,0.8,0.4,1.7,0.4,2.6c0,0.9-0.1,1.7-0.4,2.5
				c-0.3,0.8-0.6,1.4-1.1,2c-0.5,0.6-1.1,1-1.9,1.3c-0.7,0.3-1.6,0.5-2.6,0.5c-1,0-1.8-0.2-2.6-0.5c-0.7-0.3-1.4-0.7-1.9-1.3
				c-0.5-0.6-0.9-1.2-1.2-2C382.4,102.3,382.2,101.5,382.2,100.5z M385.6,100.5c0,1.2,0.2,2.1,0.7,2.7c0.5,0.6,1.1,0.9,2,0.9
				c0.8,0,1.5-0.3,2-0.9c0.5-0.6,0.7-1.5,0.7-2.6c0-1.2-0.2-2.1-0.7-2.7c-0.5-0.6-1.2-0.9-2-0.9c-0.3,0-0.6,0-1,0.1
				c-0.3,0.1-0.6,0.3-0.9,0.5c-0.3,0.3-0.5,0.6-0.6,1.1C385.7,99.2,385.6,99.8,385.6,100.5z"/>
			<path d="M399.5,94.7v1.7c0.4-0.6,0.8-1,1.4-1.4c0.6-0.4,1.3-0.6,2.1-0.6c0.7,0,1.3,0.1,1.9,0.4c0.6,0.3,1.1,0.7,1.6,1.2
				c0.4,0.5,0.8,1.1,1,1.9c0.3,0.7,0.4,1.6,0.4,2.6c0,1-0.1,1.9-0.4,2.7s-0.6,1.5-1,2c-0.4,0.5-1,0.9-1.6,1.2
				c-0.6,0.3-1.3,0.4-2,0.4c-0.7,0-1.3-0.2-1.9-0.5c-0.6-0.3-1-0.8-1.4-1.4v6.1h-3.2V94.7H399.5z M399.5,100.8
				c0,1.1,0.2,1.9,0.7,2.5s1.1,0.8,1.9,0.8c0.8,0,1.4-0.3,1.9-0.9c0.5-0.6,0.7-1.5,0.7-2.6c0-1-0.2-1.8-0.6-2.4
				c-0.4-0.6-1.1-0.9-1.9-0.9c-0.8,0-1.4,0.3-1.9,0.8C399.7,98.6,399.5,99.5,399.5,100.8z"/>
			<path d="M413.1,94.7l0,1.7c0.4-0.7,0.9-1.2,1.4-1.5c0.5-0.3,1.2-0.5,2-0.5c1.6,0,2.6,0.7,3.2,2c0.4-0.7,0.9-1.2,1.5-1.6
				c0.6-0.3,1.3-0.5,2.1-0.5c0.5,0,0.9,0.1,1.3,0.2c0.4,0.1,0.8,0.4,1.2,0.7c0.3,0.3,0.6,0.7,0.8,1.3c0.2,0.5,0.3,1.2,0.3,1.9v7.9
				h-3.2V99c0-0.5-0.1-1-0.4-1.3c-0.3-0.4-0.7-0.5-1.3-0.5c-0.2,0-0.5,0-0.7,0.1c-0.2,0.1-0.4,0.2-0.6,0.4c-0.2,0.2-0.3,0.4-0.4,0.7
				c-0.1,0.3-0.2,0.7-0.2,1.2v7h-3.2v-6.9c0-0.8-0.1-1.4-0.4-1.8c-0.3-0.4-0.7-0.6-1.3-0.6c-0.6,0-1.1,0.2-1.4,0.5
				c-0.3,0.3-0.5,0.9-0.5,1.7v7.1h-3.2V94.7H413.1z"/>
			<path d="M428.9,100.6c0-1,0.1-1.9,0.4-2.6c0.3-0.8,0.7-1.4,1.2-2c0.5-0.5,1.1-0.9,1.8-1.2c0.7-0.3,1.4-0.4,2.2-0.4
				c0.9,0,1.7,0.1,2.4,0.4c0.7,0.3,1.3,0.7,1.8,1.3c0.5,0.6,0.8,1.3,1.1,2.2c0.2,0.9,0.3,2,0.3,3.2h-8c0,0.8,0.2,1.5,0.7,2
				c0.4,0.5,1.1,0.8,1.9,0.8c0.4,0,0.8-0.1,1.2-0.3c0.4-0.2,0.7-0.5,0.9-1h3.3c0,0.5-0.2,1-0.5,1.5c-0.3,0.5-0.6,0.9-1.1,1.2
				c-0.4,0.3-1,0.6-1.6,0.8c-0.6,0.2-1.4,0.3-2.2,0.3c-0.7,0-1.4-0.1-2.1-0.3c-0.7-0.2-1.3-0.6-1.8-1c-0.5-0.5-1-1.1-1.3-1.9
				C429.1,102.7,428.9,101.8,428.9,100.6z M436.8,99.3c0-0.7-0.2-1.3-0.6-1.7s-0.9-0.6-1.7-0.6c-0.7,0-1.2,0.2-1.6,0.6
				c-0.4,0.4-0.6,1-0.7,1.7H436.8z"/>
			<path d="M445.2,94.7l0,1.7c0.9-1.3,2.1-2,3.5-2c1.3,0,2.3,0.3,3.1,1s1.1,1.7,1.1,3.1v7.9h-3.3v-7.1c0-0.8-0.2-1.4-0.5-1.8
				c-0.3-0.3-0.8-0.5-1.5-0.5c-0.3,0-0.6,0-0.9,0.1c-0.3,0.1-0.5,0.2-0.7,0.5c-0.2,0.2-0.4,0.5-0.5,0.9c-0.1,0.4-0.2,0.9-0.2,1.6
				v6.3h-3.2V94.7H445.2z"/>
			<path d="M456.1,94.8v-3.3h3.2v3.3h1.9V97h-1.9v6.1c0,0.3,0,0.4,0.1,0.6c0,0.1,0.1,0.3,0.2,0.3c0.1,0.1,0.2,0.1,0.4,0.2
				c0.2,0,0.4,0,0.7,0c0.1,0,0.2,0,0.3,0c0.1,0,0.2,0,0.3,0v2.4c-0.2,0-0.5,0-0.7,0c-0.2,0-0.5,0-0.7,0c-0.6,0-1.2,0-1.7-0.1
				c-0.5-0.1-0.8-0.2-1.1-0.4c-0.3-0.2-0.5-0.4-0.6-0.7c-0.1-0.3-0.2-0.7-0.2-1.1V97h-1.6v-2.2H456.1z"/>
		</g>
	</g>
</g>
</svg>
