<?xml version="1.0" encoding="utf-8"?>
<!-- Generator: Adobe Illustrator 21.0.0, SVG Export Plug-In . SVG Version: 6.00 Build 0)  -->
<svg version="1.1" id="Capa_1" xmlns="http://www.w3.org/2000/svg" xmlns:xlink="http://www.w3.org/1999/xlink" x="0px" y="0px"
	 viewBox="0 0 61.7 61.7" style="enable-background:new 0 0 61.7 61.7;" xml:space="preserve">
<style type="text/css">
	.st0{clip-path:url(#SVGID_2_);}
	.st1{fill:#F5F5F5;}
	.st2{fill:#00504C;}
	.st3{opacity:0.4;fill:url(#SVGID_3_);}
	.st4{fill:none;}
	.st5{fill:#F5F5F5;}
	.st6{opacity:0.2;}
	.st7{opacity:0.1;fill-rule:evenodd;clip-rule:evenodd;fill:#C2C247;}
	.st8{opacity:0.8;}
	.st9{fill:#C2C247;}
	.st10{clip-path:url(#SVGID_5_);}
	.st11{clip-path:url(#SVGID_7_);}
	.st12{fill:#808080;}
	.st13{opacity:8.000000e-02;}
	.st14{clip-path:url(#SVGID_9_);}
	.st15{clip-path:url(#SVGID_11_);}
	.st16{clip-path:url(#SVGID_87_);}
	.st17{clip-path:url(#SVGID_89_);}
	.st18{clip-path:url(#SVGID_103_);}
	.st19{clip-path:url(#SVGID_105_);}
	.st20{fill-rule:evenodd;clip-rule:evenodd;fill:#C2C247;}
	.st21{fill:#4A8E82;}
	.st22{fill:#A8A810;}
	.st23{opacity:0.1;fill:#00504C;}
	.st24{clip-path:url(#SVGID_115_);}
	.st25{clip-path:url(#SVGID_117_);}
	.st26{clip-path:url(#SVGID_119_);}
	.st27{clip-path:url(#SVGID_121_);}
	.st28{clip-path:url(#SVGID_123_);}
	.st29{clip-path:url(#SVGID_125_);}
	.st30{clip-path:url(#SVGID_129_);}
	.st31{clip-path:url(#SVGID_131_);}
	.st32{clip-path:url(#SVGID_135_);}
	.st33{clip-path:url(#SVGID_137_);}
	.st34{clip-path:url(#SVGID_141_);}
	.st35{clip-path:url(#SVGID_143_);}
	.st36{opacity:5.000000e-02;}
	.st37{fill:#F0F0F0;}
	.st38{clip-path:url(#SVGID_147_);}
	.st39{clip-path:url(#SVGID_149_);}
	.st40{clip-path:url(#SVGID_153_);}
	.st41{clip-path:url(#SVGID_155_);}
	.st42{fill-rule:evenodd;clip-rule:evenodd;fill:#FFFFFF;}
	.st43{opacity:0.1;}
	.st44{fill:url(#SVGID_158_);}
	.st45{fill:#C8C8C8;}
	.st46{clip-path:url(#SVGID_160_);}
	.st47{clip-path:url(#SVGID_162_);}
	.st48{clip-path:url(#SVGID_164_);}
	.st49{clip-path:url(#SVGID_166_);}
	.st50{clip-path:url(#SVGID_168_);}
	.st51{clip-path:url(#SVGID_170_);}
	.st52{clip-path:url(#SVGID_172_);}
	.st53{clip-path:url(#SVGID_174_);}
	.st54{clip-path:url(#SVGID_178_);}
	.st55{clip-path:url(#SVGID_180_);}
	.st56{clip-path:url(#SVGID_184_);}
	.st57{clip-path:url(#SVGID_186_);}
	.st58{clip-path:url(#SVGID_190_);}
	.st59{clip-path:url(#SVGID_192_);}
	.st60{clip-path:url(#SVGID_196_);}
	.st61{clip-path:url(#SVGID_198_);}
	.st62{clip-path:url(#SVGID_274_);}
	.st63{clip-path:url(#SVGID_276_);}
	.st64{clip-path:url(#SVGID_290_);}
	.st65{clip-path:url(#SVGID_292_);}
	.st66{fill:#E6E6E6;}
	.st67{clip-path:url(#SVGID_300_);}
	.st68{clip-path:url(#SVGID_302_);}
	.st69{opacity:0.75;clip-path:url(#SVGID_306_);fill:#00504C;}
	.st70{clip-path:url(#SVGID_308_);}
	.st71{clip-path:url(#SVGID_310_);}
	.st72{clip-path:url(#SVGID_314_);}
	.st73{clip-path:url(#SVGID_316_);}
	.st74{fill:url(#SVGID_319_);}
	.st75{clip-path:url(#SVGID_321_);}
	.st76{clip-path:url(#SVGID_323_);}
	.st77{clip-path:url(#SVGID_327_);}
	.st78{clip-path:url(#SVGID_329_);}
	.st79{clip-path:url(#SVGID_331_);}
	.st80{clip-path:url(#SVGID_333_);}
	.st81{clip-path:url(#SVGID_335_);}
	.st82{clip-path:url(#SVGID_337_);}
	.st83{fill:url(#SVGID_338_);}
	.st84{fill:url(#SVGID_339_);}
	.st85{clip-path:url(#SVGID_365_);}
	.st86{clip-path:url(#SVGID_367_);}
	.st87{clip-path:url(#SVGID_373_);}
	.st88{clip-path:url(#SVGID_375_);}
	.st89{opacity:8.000000e-02;fill:#00504C;}
	.st90{opacity:8.000000e-02;fill:#C2C247;}
	.st91{clip-path:url(#SVGID_379_);}
	.st92{clip-path:url(#SVGID_381_);}
	.st93{opacity:0.75;clip-path:url(#SVGID_385_);fill:#00504C;}
	.st94{clip-path:url(#SVGID_387_);}
	.st95{clip-path:url(#SVGID_389_);}
	.st96{clip-path:url(#SVGID_393_);}
	.st97{clip-path:url(#SVGID_395_);}
	.st98{fill:url(#SVGID_398_);}
	.st99{clip-path:url(#SVGID_400_);}
	.st100{clip-path:url(#SVGID_402_);}
	.st101{fill:#F0F1F1;}
	.st102{clip-path:url(#SVGID_412_);}
	.st103{clip-path:url(#SVGID_414_);}
	.st104{opacity:0.2;fill:#3D3845;}
	.st105{clip-path:url(#SVGID_424_);}
	.st106{clip-path:url(#SVGID_426_);}
	.st107{clip-path:url(#SVGID_430_);}
	.st108{clip-path:url(#SVGID_434_);}
	.st109{clip-path:url(#SVGID_436_);}
	.st110{clip-path:url(#SVGID_446_);}
	.st111{clip-path:url(#SVGID_448_);}
	.st112{clip-path:url(#SVGID_452_);}
	.st113{clip-path:url(#SVGID_454_);}
	.st114{opacity:0.5;}
	.st115{clip-path:url(#SVGID_458_);}
	.st116{clip-path:url(#SVGID_460_);}
	.st117{clip-path:url(#SVGID_464_);}
	.st118{clip-path:url(#SVGID_466_);}
	.st119{clip-path:url(#SVGID_470_);}
	.st120{clip-path:url(#SVGID_472_);}
	.st121{fill:url(#SVGID_475_);}
	.st122{fill:url(#SVGID_476_);}
</style>
<g>
	<g>
		<g>
			<path class="st1" d="M10.3,0h41C57,0,61.7,4.6,61.7,10.3v41c0,5.7-4.6,10.3-10.3,10.3h-41C4.6,61.7,0,57,0,51.3v-41
				C0,4.6,4.6,0,10.3,0z"/>
		</g>
		<g>
			<g>
				<path class="st9" d="M48.3,41.2c-0.1,0.7-0.4,1.4-0.8,2c-0.8,1-1.8,1.6-3.1,1.6c-8.8,0-17.6,0-26.4,0c-2.2,0-3.9-1.8-3.9-4
					c0-5.4,0-10.8,0-16.2c0-2.2,1.8-4,3.9-4c8.8,0,17.6,0,26.4,0c1.9,0,3.6,1.4,3.9,3.3c0,0.1,0,0.1,0.1,0.2
					C48.3,29.8,48.3,35.5,48.3,41.2z M31.1,43.1c4.3,0,8.6,0,13,0c1.6,0,2.6-1,2.6-2.6c0-5.3,0-10.5,0-15.8c0-1.6-1-2.6-2.6-2.6
					c-8.6,0-17.3,0-25.9,0c-1.6,0-2.6,1-2.6,2.6c0,5.2,0,10.5,0,15.7c0,1.6,1,2.6,2.6,2.6C22.5,43.1,26.8,43.1,31.1,43.1z"/>
				<path class="st9" d="M34.9,32.7c0.9,0.6,1.7,1.3,2.5,1.9c2.4,1.8,4.8,3.6,7.2,5.4c0.5,0.4,0.7,0.9,0.4,1.3
					c-0.3,0.4-0.8,0.4-1.3,0c-3.3-2.5-6.6-4.9-9.9-7.4c-0.1-0.1-0.2-0.1-0.3-0.2c-0.4,0.3-0.8,0.6-1.3,0.9c-0.9,0.7-1.7,0.7-2.7,0
					c-0.4-0.3-0.8-0.6-1.2-0.9c-1.2,0.9-2.3,1.7-3.5,2.6c-2.2,1.7-4.4,3.3-6.6,5c-0.1,0.1-0.3,0.2-0.5,0.3c-0.4,0.1-0.8-0.1-0.9-0.4
					c-0.2-0.4-0.1-0.7,0.3-1c0.8-0.6,1.6-1.2,2.5-1.9c2.4-1.8,4.7-3.6,7.1-5.4c0.1-0.1,0.2-0.1,0.3-0.2c-0.6-0.5-1.2-0.9-1.7-1.3
					c-2.7-2.1-5.4-4.1-8.1-6.2c-0.2-0.1-0.4-0.4-0.5-0.6c-0.1-0.3,0.1-0.7,0.3-0.8c0.3-0.2,0.6-0.2,0.9,0c0.6,0.5,1.2,0.9,1.8,1.4
					c3.5,2.7,7.1,5.4,10.6,8.1c0.4,0.3,0.4,0.3,0.8,0c4.2-3.1,8.4-6.2,12.5-9.4c0.1-0.1,0.3-0.2,0.4-0.3c0.4-0.1,0.8,0,0.9,0.4
					c0.2,0.3,0.1,0.8-0.2,1c-0.7,0.5-1.3,1-2,1.5c-2.6,2-5.3,3.9-7.9,5.9C35.1,32.6,35,32.7,34.9,32.7z"/>
			</g>
		</g>
	</g>
</g>
</svg>
