<?xml version="1.0" encoding="utf-8"?>
<!-- Generator: Adobe Illustrator 21.0.0, SVG Export Plug-In . SVG Version: 6.00 Build 0)  -->
<svg version="1.1" id="Capa_1" xmlns="http://www.w3.org/2000/svg" xmlns:xlink="http://www.w3.org/1999/xlink" x="0px" y="0px"
	 viewBox="0 0 76.3 74.5" style="enable-background:new 0 0 76.3 74.5;" xml:space="preserve">
<style type="text/css">
	.st0{clip-path:url(#SVGID_2_);}
	.st1{fill:#C2C247;}
	.st2{fill:#00504C;}
	.st3{opacity:0.4;fill:url(#SVGID_3_);}
	.st4{fill:none;}
	.st5{fill:#F5F5F5;}
	.st6{opacity:0.2;}
	.st7{opacity:0.1;fill-rule:evenodd;clip-rule:evenodd;fill:#C2C247;}
	.st8{opacity:0.8;}
	.st9{fill:#FFFFFF;}
	.st10{clip-path:url(#SVGID_5_);}
	.st11{clip-path:url(#SVGID_7_);}
	.st12{fill:#808080;}
	.st13{opacity:8.000000e-02;}
	.st14{clip-path:url(#SVGID_9_);}
	.st15{clip-path:url(#SVGID_11_);}
	.st16{clip-path:url(#SVGID_87_);}
	.st17{clip-path:url(#SVGID_89_);}
	.st18{clip-path:url(#SVGID_103_);}
	.st19{clip-path:url(#SVGID_105_);}
	.st20{fill-rule:evenodd;clip-rule:evenodd;fill:#C2C247;}
	.st21{fill:#4A8E82;}
	.st22{fill:#A8A810;}
	.st23{opacity:0.1;fill:#00504C;}
	.st24{clip-path:url(#SVGID_115_);}
	.st25{clip-path:url(#SVGID_117_);}
	.st26{clip-path:url(#SVGID_119_);}
	.st27{clip-path:url(#SVGID_121_);}
	.st28{clip-path:url(#SVGID_123_);}
	.st29{clip-path:url(#SVGID_125_);}
	.st30{clip-path:url(#SVGID_129_);}
	.st31{clip-path:url(#SVGID_131_);}
	.st32{clip-path:url(#SVGID_135_);}
	.st33{clip-path:url(#SVGID_137_);}
	.st34{clip-path:url(#SVGID_141_);}
	.st35{clip-path:url(#SVGID_143_);}
	.st36{opacity:5.000000e-02;}
	.st37{fill:#F0F0F0;}
	.st38{clip-path:url(#SVGID_147_);}
	.st39{clip-path:url(#SVGID_149_);}
	.st40{clip-path:url(#SVGID_153_);}
	.st41{clip-path:url(#SVGID_155_);}
	.st42{fill-rule:evenodd;clip-rule:evenodd;fill:#FFFFFF;}
	.st43{opacity:0.1;}
	.st44{fill:url(#SVGID_158_);}
	.st45{fill:#C8C8C8;}
	.st46{clip-path:url(#SVGID_160_);}
	.st47{clip-path:url(#SVGID_162_);}
	.st48{clip-path:url(#SVGID_164_);}
	.st49{clip-path:url(#SVGID_166_);}
	.st50{clip-path:url(#SVGID_168_);}
	.st51{clip-path:url(#SVGID_170_);}
	.st52{clip-path:url(#SVGID_172_);}
	.st53{clip-path:url(#SVGID_174_);}
	.st54{clip-path:url(#SVGID_178_);}
	.st55{clip-path:url(#SVGID_180_);}
	.st56{clip-path:url(#SVGID_184_);}
	.st57{clip-path:url(#SVGID_186_);}
	.st58{clip-path:url(#SVGID_190_);}
	.st59{clip-path:url(#SVGID_192_);}
	.st60{clip-path:url(#SVGID_196_);}
	.st61{clip-path:url(#SVGID_198_);}
	.st62{clip-path:url(#SVGID_274_);}
	.st63{clip-path:url(#SVGID_276_);}
	.st64{clip-path:url(#SVGID_290_);}
	.st65{clip-path:url(#SVGID_292_);}
	.st66{fill:#E6E6E6;}
	.st67{clip-path:url(#SVGID_300_);}
	.st68{clip-path:url(#SVGID_302_);}
	.st69{opacity:0.75;clip-path:url(#SVGID_306_);fill:#00504C;}
	.st70{clip-path:url(#SVGID_308_);}
	.st71{clip-path:url(#SVGID_310_);}
	.st72{clip-path:url(#SVGID_314_);}
	.st73{clip-path:url(#SVGID_316_);}
	.st74{fill:url(#SVGID_319_);}
	.st75{clip-path:url(#SVGID_321_);}
	.st76{clip-path:url(#SVGID_323_);}
	.st77{clip-path:url(#SVGID_327_);}
	.st78{clip-path:url(#SVGID_329_);}
	.st79{clip-path:url(#SVGID_331_);}
	.st80{clip-path:url(#SVGID_333_);}
	.st81{clip-path:url(#SVGID_335_);}
	.st82{clip-path:url(#SVGID_337_);}
	.st83{fill:url(#SVGID_338_);}
	.st84{fill:url(#SVGID_339_);}
	.st85{clip-path:url(#SVGID_365_);}
	.st86{clip-path:url(#SVGID_367_);}
	.st87{clip-path:url(#SVGID_373_);}
	.st88{clip-path:url(#SVGID_375_);}
	.st89{opacity:8.000000e-02;fill:#00504C;}
	.st90{opacity:8.000000e-02;fill:#C2C247;}
	.st91{clip-path:url(#SVGID_379_);}
	.st92{clip-path:url(#SVGID_381_);}
	.st93{opacity:0.75;clip-path:url(#SVGID_385_);fill:#00504C;}
	.st94{clip-path:url(#SVGID_387_);}
	.st95{clip-path:url(#SVGID_389_);}
	.st96{clip-path:url(#SVGID_393_);}
	.st97{clip-path:url(#SVGID_395_);}
	.st98{fill:url(#SVGID_398_);}
	.st99{clip-path:url(#SVGID_400_);}
	.st100{clip-path:url(#SVGID_402_);}
	.st101{fill:#F0F1F1;}
	.st102{clip-path:url(#SVGID_412_);}
	.st103{clip-path:url(#SVGID_414_);}
	.st104{opacity:0.2;fill:#3D3845;}
	.st105{clip-path:url(#SVGID_424_);}
	.st106{clip-path:url(#SVGID_426_);}
	.st107{clip-path:url(#SVGID_430_);}
	.st108{clip-path:url(#SVGID_434_);}
	.st109{clip-path:url(#SVGID_436_);}
	.st110{clip-path:url(#SVGID_446_);}
	.st111{clip-path:url(#SVGID_448_);}
	.st112{clip-path:url(#SVGID_452_);}
	.st113{clip-path:url(#SVGID_454_);}
	.st114{opacity:0.5;}
	.st115{clip-path:url(#SVGID_458_);}
	.st116{clip-path:url(#SVGID_460_);}
	.st117{clip-path:url(#SVGID_464_);}
	.st118{clip-path:url(#SVGID_466_);}
	.st119{clip-path:url(#SVGID_470_);}
	.st120{clip-path:url(#SVGID_472_);}
	.st121{fill:url(#SVGID_475_);}
	.st122{fill:url(#SVGID_476_);}
</style>
<g>
	
		<image style="overflow:visible;opacity:0.15;" width="544" height="462" xlink:href="2AD76492B21D0877.png"  transform="matrix(1 0 0 1 68.2119 -79.4682)">
	</image>
</g>
<g>
	<path class="st1" d="M0.7,59l14.8,14.8c0.4,0.4,1,0.7,1.7,0.7c0.6,0,1.2-0.2,1.7-0.7l5.2-5.3c0.9-0.9,0.9-2.4,0-3.3L24,65.2
		l0.5-0.5c0,0,0.1-0.1,0.1-0.1l0.1-0.1c0.8-0.8,1.8-1.2,2.9-1.3c1.5-0.1,3-0.8,4.1-1.8l3.7-3.6c0.4-0.4,0.4-1.1,0-1.6
		c-0.4-0.4-1.1-0.4-1.6,0L30,59.8c-0.7,0.7-1.6,1.1-2.6,1.2c-1.6,0.1-3.2,0.8-4.3,2L23,63c0,0,0,0,0,0l-0.5,0.5l-9.8-9.8L11,52.2
		l0.3-0.3c1.3-1.3,2-3,2-4.8v-3.2c0-1.1,0.4-2.1,1.2-2.9l5.1-5.1c0.7-0.7,1.7-1.1,2.7-1.1c0.7,0,1.3,0.2,1.8,0.5l-2.9,2.9
		c-0.4,0.4-0.4,1.1,0,1.6c0.2,0.2,0.5,0.3,0.8,0.3c0.3,0,0.6-0.1,0.8-0.3l3.4-3.5V44c0,2.1,1.7,3.8,3.8,3.8c0.6,0,1.1-0.1,1.6-0.3
		v2.7c0,2.1,1.7,3.8,3.8,3.8c0.6,0,1.1-0.1,1.6-0.4c0.3,1.4,1.4,2.5,2.8,2.9l4.8,4.8c1.1,1.1,2.5,1.7,4.1,1.8
		c1.1,0.1,2.1,0.5,2.9,1.3l0.7,0.7l-0.1,0.1c-0.9,0.9-0.9,2.4,0,3.3l5.2,5.3c0.4,0.4,1,0.7,1.7,0.7c0.6,0,1.2-0.2,1.7-0.7l9.8-9.8
		c0.4-0.4,0.4-1.1,0-1.6c-0.4-0.4-1.1-0.4-1.6,0l-9.8,9.8c0,0-0.1,0-0.2,0L53.8,67c-0.1-0.1-0.1-0.1,0-0.2l1.4-1.4l12.5-12.5h0
		l0.9-0.9c0,0,0.1,0,0.2,0l5.2,5.3c0.1,0.1,0.1,0.1,0,0.2l-1.8,1.8c-0.4,0.4-0.4,1.1,0,1.6c0.4,0.4,1.1,0.4,1.6,0l1.8-1.8
		c0.9-0.9,0.9-2.4,0-3.3l-5.2-5.3c-0.4-0.4-1-0.7-1.7-0.7c-0.6,0-1.2,0.2-1.7,0.7l-0.1,0.1c0,0,0,0,0,0l-0.3-0.3
		c-0.9-0.9-1.3-2-1.3-3.2v-3.2c0-1.7-0.7-3.3-1.9-4.5l-5.1-5.1c-1.1-1.1-2.4-1.7-3.9-1.8c0.4-0.8,0.6-1.7,0.6-2.7v-7.2
		c0-1.7-0.7-3.3-1.9-4.5l-2.3-2.3c-0.9-0.9-1.3-2-1.3-3.2v-0.5h0.2c1.3,0,2.4-1.1,2.4-2.4V2.4C52.1,1.1,51,0,49.7,0L28.9,0
		c-1.3,0-2.4,1.1-2.4,2.4v7.4c0,1.3,1.1,2.4,2.4,2.4H29v0.9c0,1.1-0.4,2.2-1.1,3c-1,1.2-1.6,2.6-1.6,4.2V33l-0.5,0.5
		c-1-0.7-2.2-1.1-3.4-1.1c-1.6,0-3.1,0.6-4.3,1.8l-5.1,5.1c-1.1,1.1-1.8,2.6-1.8,4.2l0,2V47c0,0.5-0.1,1-0.3,1.5
		c0,0.1-0.1,0.1-0.1,0.2c-0.2,0.5-0.6,1-1,1.5l-0.3,0.3l-0.1-0.1c-0.4-0.4-1-0.7-1.7-0.7c-0.6,0-1.2,0.2-1.7,0.7l-5.2,5.3
		C-0.2,56.6-0.2,58.1,0.7,59z M42.7,56.2c1-0.5,1.7-1.5,1.9-2.6c0.5,0.2,1.1,0.4,1.7,0.4c2.1,0,3.8-1.7,3.8-3.8V36.2l3.4,3.4
		c0.2,0.2,0.5,0.3,0.8,0.3c0.3,0,0.6-0.1,0.8-0.3c0.4-0.4,0.4-1.1,0-1.6l-2.9-2.9c0.6-0.3,1.2-0.5,1.8-0.5c1,0,2,0.4,2.7,1.1
		l5.1,5.1c0.8,0.8,1.2,1.8,1.2,2.9V47c0,1.8,0.7,3.5,2,4.8l0.3,0.3L54.5,63c0,0,0,0,0,0l-0.6,0.6l-0.7-0.7c-1.2-1.2-2.7-1.9-4.3-2
		c-1-0.1-1.9-0.5-2.6-1.2L42.7,56.2z M28.5,20.3c0-1,0.4-2,1-2.7c1.1-1.2,1.7-2.8,1.7-4.4v-0.9h8.7c0.6,0,1.1-0.5,1.1-1.1
		c0-0.6-0.5-1.1-1.1-1.1h-11c-0.1,0-0.1-0.1-0.1-0.1V2.4c0-0.1,0.1-0.1,0.1-0.1h20.9c0.1,0,0.1,0.1,0.1,0.1v7.4
		c0,0.1-0.1,0.1-0.1,0.1h-4.7c-0.6,0-1.1,0.5-1.1,1.1c0,0.6,0.5,1.1,1.1,1.1h2.2v0.5c0,1.8,0.7,3.5,2,4.8l2.3,2.3
		c0.8,0.8,1.2,1.8,1.2,2.9v7.2c0,1.6-1,3-2.5,3.6c-0.1-0.1-0.2-0.1-0.3-0.1v-3.8c0-0.6-0.5-1.1-1.1-1.1c-0.6,0-1.1,0.5-1.1,1.1v20.8
		c0,0.9-0.7,1.6-1.6,1.6c-0.9,0-1.6-0.7-1.6-1.6V31.6c0-0.6-0.5-1.1-1.1-1.1c-0.6,0-1.1,0.5-1.1,1.1v21.3c0,0.9-0.7,1.6-1.6,1.6
		c-0.9,0-1.6-0.7-1.6-1.6v-2.3c0-0.1,0-0.3,0-0.4V31.6c0-0.4-0.2-0.8-0.6-1c-0.2-0.1-0.3-0.1-0.5-0.1c-0.6,0-1.1,0.5-1.1,1.1v18.9
		c-0.1,0.7-0.8,1.3-1.6,1.3c-0.9,0-1.6-0.7-1.6-1.6V31.6c0-0.6-0.5-1.1-1.1-1.1c-0.6,0-1.1,0.5-1.1,1.1V44c0,0.9-0.7,1.6-1.6,1.6
		c-0.9,0-1.6-0.7-1.6-1.6V20.3z M2.3,57.3L7.5,52c0,0,0.1,0,0.2,0l5.3,5.4l8.6,8.6l0,0l0.8,0.8c0.1,0.1,0.1,0.1,0,0.2l-5.2,5.3
		c0,0-0.1,0-0.1,0c0,0-0.1,0-0.1,0L2.3,57.5C2.2,57.4,2.2,57.3,2.3,57.3z"/>
	<path class="st1" d="M45,6.1c0,0.7,0.5,1.2,1.2,1.2c0.7,0,1.2-0.5,1.2-1.2c0-0.7-0.5-1.2-1.2-1.2C45.6,4.9,45,5.4,45,6.1z"/>
	<path class="st1" d="M6,57c0,0.7,0.5,1.2,1.2,1.2c0.7,0,1.2-0.5,1.2-1.2c0-0.7-0.5-1.2-1.2-1.2C6.6,55.8,6,56.3,6,57z"/>
	<path class="st1" d="M58.8,68.4c0.7,0,1.2-0.5,1.2-1.2c0-0.7-0.5-1.2-1.2-1.2c-0.7,0-1.2,0.5-1.2,1.2
		C57.7,67.9,58.2,68.4,58.8,68.4z"/>
</g>
</svg>
