<?xml version="1.0" encoding="utf-8"?>
<!-- Generator: Adobe Illustrator 21.0.0, SVG Export Plug-In . SVG Version: 6.00 Build 0)  -->
<svg version="1.1" id="Capa_1" xmlns="http://www.w3.org/2000/svg" xmlns:xlink="http://www.w3.org/1999/xlink" x="0px" y="0px"
	 viewBox="0 0 76.3 73.8" style="enable-background:new 0 0 76.3 73.8;" xml:space="preserve">
<style type="text/css">
	.st0{clip-path:url(#SVGID_2_);}
	.st1{fill:#C2C247;}
	.st2{fill:#00504C;}
	.st3{opacity:0.4;fill:url(#SVGID_3_);}
	.st4{fill:none;}
	.st5{fill:#F5F5F5;}
	.st6{opacity:0.2;}
	.st7{opacity:0.1;fill-rule:evenodd;clip-rule:evenodd;fill:#C2C247;}
	.st8{opacity:0.8;}
	.st9{fill:#FFFFFF;}
	.st10{clip-path:url(#SVGID_5_);}
	.st11{clip-path:url(#SVGID_7_);}
	.st12{fill:#808080;}
	.st13{opacity:8.000000e-02;}
	.st14{clip-path:url(#SVGID_9_);}
	.st15{clip-path:url(#SVGID_11_);}
	.st16{clip-path:url(#SVGID_87_);}
	.st17{clip-path:url(#SVGID_89_);}
	.st18{clip-path:url(#SVGID_103_);}
	.st19{clip-path:url(#SVGID_105_);}
	.st20{fill-rule:evenodd;clip-rule:evenodd;fill:#C2C247;}
	.st21{fill:#4A8E82;}
	.st22{fill:#A8A810;}
	.st23{opacity:0.1;fill:#00504C;}
	.st24{clip-path:url(#SVGID_115_);}
	.st25{clip-path:url(#SVGID_117_);}
	.st26{clip-path:url(#SVGID_119_);}
	.st27{clip-path:url(#SVGID_121_);}
	.st28{clip-path:url(#SVGID_123_);}
	.st29{clip-path:url(#SVGID_125_);}
	.st30{clip-path:url(#SVGID_129_);}
	.st31{clip-path:url(#SVGID_131_);}
	.st32{clip-path:url(#SVGID_135_);}
	.st33{clip-path:url(#SVGID_137_);}
	.st34{clip-path:url(#SVGID_141_);}
	.st35{clip-path:url(#SVGID_143_);}
	.st36{opacity:5.000000e-02;}
	.st37{fill:#F0F0F0;}
	.st38{clip-path:url(#SVGID_147_);}
	.st39{clip-path:url(#SVGID_149_);}
	.st40{clip-path:url(#SVGID_153_);}
	.st41{clip-path:url(#SVGID_155_);}
	.st42{fill-rule:evenodd;clip-rule:evenodd;fill:#FFFFFF;}
	.st43{opacity:0.1;}
	.st44{fill:url(#SVGID_158_);}
	.st45{fill:#C8C8C8;}
	.st46{clip-path:url(#SVGID_160_);}
	.st47{clip-path:url(#SVGID_162_);}
	.st48{clip-path:url(#SVGID_164_);}
	.st49{clip-path:url(#SVGID_166_);}
	.st50{clip-path:url(#SVGID_168_);}
	.st51{clip-path:url(#SVGID_170_);}
	.st52{clip-path:url(#SVGID_172_);}
	.st53{clip-path:url(#SVGID_174_);}
	.st54{clip-path:url(#SVGID_178_);}
	.st55{clip-path:url(#SVGID_180_);}
	.st56{clip-path:url(#SVGID_184_);}
	.st57{clip-path:url(#SVGID_186_);}
	.st58{clip-path:url(#SVGID_190_);}
	.st59{clip-path:url(#SVGID_192_);}
	.st60{clip-path:url(#SVGID_196_);}
	.st61{clip-path:url(#SVGID_198_);}
	.st62{clip-path:url(#SVGID_274_);}
	.st63{clip-path:url(#SVGID_276_);}
	.st64{clip-path:url(#SVGID_290_);}
	.st65{clip-path:url(#SVGID_292_);}
	.st66{fill:#E6E6E6;}
	.st67{clip-path:url(#SVGID_300_);}
	.st68{clip-path:url(#SVGID_302_);}
	.st69{opacity:0.75;clip-path:url(#SVGID_306_);fill:#00504C;}
	.st70{clip-path:url(#SVGID_308_);}
	.st71{clip-path:url(#SVGID_310_);}
	.st72{clip-path:url(#SVGID_314_);}
	.st73{clip-path:url(#SVGID_316_);}
	.st74{fill:url(#SVGID_319_);}
	.st75{clip-path:url(#SVGID_321_);}
	.st76{clip-path:url(#SVGID_323_);}
	.st77{clip-path:url(#SVGID_327_);}
	.st78{clip-path:url(#SVGID_329_);}
	.st79{clip-path:url(#SVGID_331_);}
	.st80{clip-path:url(#SVGID_333_);}
	.st81{clip-path:url(#SVGID_335_);}
	.st82{clip-path:url(#SVGID_337_);}
	.st83{fill:url(#SVGID_338_);}
	.st84{fill:url(#SVGID_339_);}
	.st85{clip-path:url(#SVGID_365_);}
	.st86{clip-path:url(#SVGID_367_);}
	.st87{clip-path:url(#SVGID_373_);}
	.st88{clip-path:url(#SVGID_375_);}
	.st89{opacity:8.000000e-02;fill:#00504C;}
	.st90{opacity:8.000000e-02;fill:#C2C247;}
	.st91{clip-path:url(#SVGID_379_);}
	.st92{clip-path:url(#SVGID_381_);}
	.st93{opacity:0.75;clip-path:url(#SVGID_385_);fill:#00504C;}
	.st94{clip-path:url(#SVGID_387_);}
	.st95{clip-path:url(#SVGID_389_);}
	.st96{clip-path:url(#SVGID_393_);}
	.st97{clip-path:url(#SVGID_395_);}
	.st98{fill:url(#SVGID_398_);}
	.st99{clip-path:url(#SVGID_400_);}
	.st100{clip-path:url(#SVGID_402_);}
	.st101{fill:#F0F1F1;}
	.st102{clip-path:url(#SVGID_412_);}
	.st103{clip-path:url(#SVGID_414_);}
	.st104{opacity:0.2;fill:#3D3845;}
	.st105{clip-path:url(#SVGID_424_);}
	.st106{clip-path:url(#SVGID_426_);}
	.st107{clip-path:url(#SVGID_430_);}
	.st108{clip-path:url(#SVGID_434_);}
	.st109{clip-path:url(#SVGID_436_);}
	.st110{clip-path:url(#SVGID_446_);}
	.st111{clip-path:url(#SVGID_448_);}
	.st112{clip-path:url(#SVGID_452_);}
	.st113{clip-path:url(#SVGID_454_);}
	.st114{opacity:0.5;}
	.st115{clip-path:url(#SVGID_458_);}
	.st116{clip-path:url(#SVGID_460_);}
	.st117{clip-path:url(#SVGID_464_);}
	.st118{clip-path:url(#SVGID_466_);}
	.st119{clip-path:url(#SVGID_470_);}
	.st120{clip-path:url(#SVGID_472_);}
	.st121{fill:url(#SVGID_475_);}
	.st122{fill:url(#SVGID_476_);}
</style>
<g>
	
		<image style="overflow:visible;opacity:0.15;" width="676" height="425" xlink:href="2AE83AAC2639B109.png"  transform="matrix(1 0 0 1 -8.7378 -61.4364)">
	</image>
	<g>
		<g>
			<defs>
				<rect id="SVGID_336_" x="122.3" y="0.2" width="435.2" height="302.6"/>
			</defs>
			<clipPath id="SVGID_2_">
				<use xlink:href="#SVGID_336_"  style="overflow:visible;"/>
			</clipPath>
			<g class="st0">
				
					<image style="overflow:visible;" width="768" height="429" id="_x35_yEu6m_1_" xlink:href="2AE83AAC2639B10B.jpg"  transform="matrix(0.7385 0 0 0.7385 45.9319 -7.3349)">
				</image>
			</g>
		</g>
	</g>
</g>
<g>
	<path class="st1" d="M70,0h-3.8c-0.7,0-1.3,0.6-1.3,1.3v5.1H11.4V1.3c0-0.7-0.6-1.3-1.3-1.3H6.4C2.8,0,0,2.8,0,6.4v43.2
		C0,53.1,2.8,56,6.4,56h2.5v-2.5H6.4c-2.1,0-3.8-1.7-3.8-3.8s1.7-3.8,3.8-3.8h3.8c0.7,0,1.3-0.6,1.3-1.3V8.9h53.4v35.6
		c0,0.7,0.6,1.3,1.3,1.3H70c2.1,0,3.8,1.7,3.8,3.8s-1.7,3.8-3.8,3.8h-5.1V56H70c3.5,0,6.4-2.8,6.4-6.4V6.4C76.3,2.8,73.5,0,70,0z
		 M8.9,43.2H6.4c-1.4,0-2.7,0.4-3.8,1.3V6.4c0-2.1,1.7-3.8,3.8-3.8h2.5V43.2z M70,43.2h-2.5V2.5H70c2.1,0,3.8,1.7,3.8,3.8v38.2
		C72.7,43.7,71.3,43.2,70,43.2z"/>
	<path class="st1" d="M25.4,34.3c0,2.7,0.8,5.4,2.3,7.7l2.8,4.1V56c0,0.2,0,0.4,0.1,0.6l0,0l2.5,5.1c0.2,0.4,0.7,0.7,1.1,0.7H42
		c0.5,0,0.9-0.3,1.1-0.7l2.5-5.1l0,0c0.1-0.2,0.1-0.4,0.1-0.6v-9.8l2.8-4.1c1.5-2.3,2.3-5,2.3-7.7c0-7-5.7-12.7-12.7-12.7
		S25.4,27.3,25.4,34.3z M35,36.1l2.4,1.8c0.5,0.3,1.1,0.3,1.5,0l2.4-1.8l-1.7,8.4h-3L35,36.1z M43.2,47.1v7.6H33.1v-7.6H43.2z
		 M41.2,59.8h-6.1l-1.3-2.5h8.6L41.2,59.8z M38.2,24.2c5.6,0,10.2,4.6,10.2,10.2c0,2.2-0.7,4.4-1.9,6.3l-2.6,3.9h-1.6l2.2-11.2
		c0.1-0.7-0.3-1.4-1-1.5c-0.4-0.1-0.7,0-1,0.2l-4.3,3.2l-4.3-3.2c-0.6-0.4-1.4-0.3-1.8,0.3c-0.2,0.3-0.3,0.7-0.2,1l2.2,11.2h-1.6
		l-2.6-3.9c-1.2-1.9-1.9-4-1.9-6.3C28,28.7,32.5,24.2,38.2,24.2z"/>
	<path class="st1" d="M0,69.8c0,2.2,1.8,4,4,4h18.9c2.8,0,5.1-2.3,5.1-5.1V51.9c0-2.7-2.2-4.9-4.9-4.9c-1.3,0-2.5,0.5-3.4,1.4
		L1.2,67C0.4,67.7,0,68.8,0,69.8z M21.5,50.3c0.9-0.9,2.4-0.9,3.3,0c0.4,0.4,0.7,1,0.7,1.6v1.5h-2.5V56h2.5v2.5h-2.5v2.5h2.5v2.5
		h-2.5v2.5h2.5v2.5c0,1.4-1.1,2.5-2.5,2.5h-2.5v-2.5h-2.5v2.5h-2.5v-2.5h-2.5v2.5h-2.5v-2.5H7.6v2.5H4c-0.8,0-1.4-0.6-1.4-1.4
		c0-0.4,0.2-0.7,0.4-1L21.5,50.3z"/>
	<path class="st1" d="M12.7,66.1h6.4c0.7,0,1.3-0.6,1.3-1.3v-6.4c0-0.7-0.6-1.3-1.3-1.3c-0.3,0-0.7,0.1-0.9,0.4L11.8,64
		c-0.5,0.5-0.5,1.3,0,1.8C12.1,66,12.4,66.1,12.7,66.1z M17.8,61.6v2h-2L17.8,61.6z"/>
	<path class="st1" d="M52.2,38.2v28c0,0.2,0.1,0.5,0.2,0.7l3.8,6.4c0.4,0.6,1.1,0.8,1.7,0.4c0.2-0.1,0.3-0.3,0.4-0.4l3.8-6.4
		c0.1-0.2,0.2-0.4,0.2-0.7v-28c0-0.7-0.6-1.3-1.3-1.3h-7.6C52.7,36.9,52.2,37.5,52.2,38.2z M58.5,64.9V48.3h1.3v16.5H58.5z
		 M54.7,64.9V48.3H56v16.5H54.7z M54.7,45.8v-1.3h5.1v1.3H54.7z M57.2,70l-1.6-2.6h3.1L57.2,70z M59.8,39.4V42h-5.1v-2.5H59.8z"/>
	<rect x="24.7" y="19" transform="matrix(0.7071 -0.7071 0.7071 0.7071 -7.1789 24.5268)" class="st1" width="2.5" height="3.8"/>
	<rect x="36.9" y="14" class="st1" width="2.5" height="3.8"/>
	
		<rect x="48.4" y="19.7" transform="matrix(0.7071 -0.7071 0.7071 0.7071 -6.529435e-02 41.7004)" class="st1" width="3.8" height="2.5"/>
	<rect x="53.4" y="31.8" class="st1" width="3.8" height="2.5"/>
	<rect x="19.1" y="31.8" class="st1" width="3.8" height="2.5"/>
</g>
</svg>
