<?xml version="1.0" encoding="utf-8"?>
<!-- Generator: Adobe Illustrator 21.0.0, SVG Export Plug-In . SVG Version: 6.00 Build 0)  -->
<svg version="1.1" id="Capa_1" xmlns="http://www.w3.org/2000/svg" xmlns:xlink="http://www.w3.org/1999/xlink" x="0px" y="0px"
	 viewBox="0 0 168.6 315.3" style="enable-background:new 0 0 168.6 315.3;" xml:space="preserve">
<style type="text/css">
	.st0{clip-path:url(#SVGID_2_);}
	.st1{fill:#C2C247;}
	.st2{fill:#00504C;}
	.st3{opacity:0.4;fill:url(#SVGID_3_);}
	.st4{fill:none;}
	.st5{fill:#F5F5F5;}
	.st6{opacity:0.2;}
	.st7{opacity:0.1;fill-rule:evenodd;clip-rule:evenodd;fill:#C2C247;}
	.st8{opacity:0.8;}
	.st9{fill:#FFFFFF;}
	.st10{clip-path:url(#SVGID_5_);}
	.st11{clip-path:url(#SVGID_7_);}
	.st12{fill:#808080;}
	.st13{opacity:8.000000e-02;}
	.st14{clip-path:url(#SVGID_9_);}
	.st15{clip-path:url(#SVGID_11_);}
	.st16{clip-path:url(#SVGID_87_);}
	.st17{clip-path:url(#SVGID_95_);}
	.st18{fill-rule:evenodd;clip-rule:evenodd;fill:#C2C247;}
	.st19{fill:#4A8E82;}
	.st20{fill:#A8A810;}
	.st21{opacity:0.1;fill:#00504C;}
	.st22{clip-path:url(#SVGID_104_);}
	.st23{clip-path:url(#SVGID_105_);}
	.st24{clip-path:url(#SVGID_106_);}
	.st25{clip-path:url(#SVGID_107_);}
	.st26{clip-path:url(#SVGID_111_);}
	.st27{clip-path:url(#SVGID_113_);}
	.st28{clip-path:url(#SVGID_121_);}
	.st29{clip-path:url(#SVGID_123_);}
	.st30{clip-path:url(#SVGID_127_);}
	.st31{clip-path:url(#SVGID_129_);}
	.st32{clip-path:url(#SVGID_133_);}
	.st33{clip-path:url(#SVGID_135_);}
	.st34{opacity:5.000000e-02;}
	.st35{fill:#F0F0F0;}
	.st36{clip-path:url(#SVGID_139_);}
	.st37{clip-path:url(#SVGID_141_);}
	.st38{clip-path:url(#SVGID_145_);}
	.st39{clip-path:url(#SVGID_147_);}
	.st40{fill-rule:evenodd;clip-rule:evenodd;fill:#FFFFFF;}
	.st41{opacity:0.1;}
	.st42{fill:url(#SVGID_150_);}
	.st43{fill:#C8C8C8;}
	.st44{clip-path:url(#SVGID_152_);}
	.st45{clip-path:url(#SVGID_154_);}
	.st46{clip-path:url(#SVGID_155_);}
	.st47{clip-path:url(#SVGID_156_);}
	.st48{clip-path:url(#SVGID_157_);}
	.st49{clip-path:url(#SVGID_158_);}
	.st50{clip-path:url(#SVGID_160_);}
	.st51{clip-path:url(#SVGID_162_);}
	.st52{clip-path:url(#SVGID_170_);}
	.st53{clip-path:url(#SVGID_172_);}
	.st54{clip-path:url(#SVGID_176_);}
	.st55{clip-path:url(#SVGID_178_);}
	.st56{clip-path:url(#SVGID_182_);}
	.st57{clip-path:url(#SVGID_184_);}
	.st58{clip-path:url(#SVGID_188_);}
	.st59{clip-path:url(#SVGID_190_);}
	.st60{clip-path:url(#SVGID_258_);}
	.st61{clip-path:url(#SVGID_270_);}
	.st62{fill:#E6E6E6;}
	.st63{clip-path:url(#SVGID_276_);}
	.st64{clip-path:url(#SVGID_278_);}
	.st65{opacity:0.75;clip-path:url(#SVGID_286_);fill:#00504C;}
	.st66{clip-path:url(#SVGID_290_);}
	.st67{clip-path:url(#SVGID_292_);}
	.st68{clip-path:url(#SVGID_298_);}
	.st69{clip-path:url(#SVGID_300_);}
	.st70{fill:url(#SVGID_303_);}
	.st71{clip-path:url(#SVGID_305_);}
	.st72{clip-path:url(#SVGID_307_);}
	.st73{clip-path:url(#SVGID_311_);}
	.st74{clip-path:url(#SVGID_313_);}
	.st75{clip-path:url(#SVGID_314_);}
	.st76{clip-path:url(#SVGID_315_);}
	.st77{clip-path:url(#SVGID_316_);}
	.st78{clip-path:url(#SVGID_317_);}
	.st79{fill:url(#SVGID_318_);}
	.st80{fill:url(#SVGID_319_);}
	.st81{clip-path:url(#SVGID_348_);}
	.st82{clip-path:url(#SVGID_350_);}
	.st83{clip-path:url(#SVGID_355_);}
	.st84{clip-path:url(#SVGID_357_);}
	.st85{opacity:8.000000e-02;fill:#00504C;}
	.st86{opacity:8.000000e-02;fill:#C2C247;}
	.st87{clip-path:url(#SVGID_361_);}
	.st88{clip-path:url(#SVGID_364_);}
	.st89{opacity:0.75;clip-path:url(#SVGID_368_);fill:#00504C;}
	.st90{clip-path:url(#SVGID_371_);}
	.st91{clip-path:url(#SVGID_373_);}
	.st92{clip-path:url(#SVGID_377_);}
	.st93{clip-path:url(#SVGID_379_);}
	.st94{fill:url(#SVGID_382_);}
	.st95{clip-path:url(#SVGID_384_);}
	.st96{clip-path:url(#SVGID_386_);}
	.st97{fill:#F0F1F1;}
	.st98{clip-path:url(#SVGID_396_);}
	.st99{clip-path:url(#SVGID_398_);}
	.st100{opacity:0.2;fill:#3D3845;}
	.st101{clip-path:url(#SVGID_405_);}
	.st102{clip-path:url(#SVGID_407_);}
	.st103{clip-path:url(#SVGID_411_);}
	.st104{clip-path:url(#SVGID_415_);}
	.st105{clip-path:url(#SVGID_418_);}
	.st106{clip-path:url(#SVGID_427_);}
	.st107{clip-path:url(#SVGID_429_);}
	.st108{clip-path:url(#SVGID_433_);}
	.st109{clip-path:url(#SVGID_435_);}
	.st110{opacity:0.5;}
	.st111{clip-path:url(#SVGID_440_);}
	.st112{clip-path:url(#SVGID_444_);}
	.st113{clip-path:url(#SVGID_448_);}
	.st114{clip-path:url(#SVGID_450_);}
	.st115{clip-path:url(#SVGID_454_);}
	.st116{clip-path:url(#SVGID_456_);}
	.st117{fill:url(#SVGID_459_);}
	.st118{fill:url(#SVGID_460_);}
</style>
<g class="st13">
	<g>
		<path class="st9" d="M1.3,186.6c11.1,0.5,21.5,5.2,29.3,13.1c8.1,8.2,12.5,19.2,12.5,30.7c0,11.6-4.5,22.5-12.5,30.7
			c-7.8,8-18.2,12.6-29.3,13.1V186.6 M0.3,185.6v89.8c24.3-0.6,43.9-20.4,43.9-44.9C44.2,206,24.6,186.1,0.3,185.6L0.3,185.6z"/>
	</g>
	<radialGradient id="SVGID_2_" cx="10.1759" cy="222.5576" r="50.7198" gradientUnits="userSpaceOnUse">
		<stop  offset="0" style="stop-color:#FFFFFF"/>
		<stop  offset="1" style="stop-color:#00504C"/>
	</radialGradient>
	<path style="fill:url(#SVGID_2_);" d="M44.2,230.5c0-24.5-19.6-44.3-43.9-44.9v89.8C24.6,274.8,44.2,254.9,44.2,230.5z"/>
	<path class="st2" d="M168.5,200.1c0.4-1,0-2.1-1-2.5c-1-0.4-2.1,0-2.5,1C136,267.5,73,310.8,0.6,311.6c-0.1,0-0.2,0-0.3,0v3.8
		c0.1,0,0.2,0,0.3,0C74.6,314.5,138.9,270.4,168.5,200.1z"/>
	<path class="st2" d="M0.3,43.2c-0.1,0.1-0.2,0.2-0.3,0.3c0.1,0.1,0.2,0.2,0.3,0.3V43.2z"/>
	<path class="st2" d="M13.2,56.3c2,2.2,3.9,4.4,5.7,6.7c13.5,17.1,70.6,71.8,78.1,216.5l1.3-0.3c0,0,1.9-98.9-50.3-186.2
		C38,76.5,27.7,62.9,17.7,51.7C16.1,53.2,14.6,54.7,13.2,56.3z"/>
	<path class="st2" d="M0.3,43.7c2.9,2.6,5.8,5.3,8.5,8c1.5-1.7,3-3.3,4.4-4.8c-2.7-2.8-5.3-5.5-7.9-8c-1.7,1.4-3.3,2.8-5,4.3V43.7z"
		/>
	<path class="st2" d="M0,72c0.1,0.1,0.2,0.2,0.3,0.4v-0.7C0.2,71.7,0.1,71.9,0,72z"/>
	<path class="st2" d="M74.8,292.2c0,0,4.3-102.3-52.1-197.1c-6.2-10.4-12.5-19.7-18.8-28c-1,1.3-2.2,2.7-3.6,4.5v0.7
		c19.3,24.1,70.3,92,73.2,220.2L74.8,292.2z"/>
	<path class="st1" d="M0.3,33.7C0.2,33.8,0.1,33.9,0,34c0.1,0.1,0.2,0.2,0.3,0.3V33.7z"/>
	<path class="st1" d="M5.3,38.9C26.2,21.4,47.8,9.3,48.2,8.9c0.5-0.5,0-2.6,0-4.3c0-1.8-0.5-4.6-0.5-4.6
		C40.2,5.2,21.9,14.3,0.3,33.7v0.5C1.9,35.7,3.6,37.3,5.3,38.9z"/>
	<path class="st1" d="M0.3,43.2c1.6-1.5,3.3-2.9,5-4.3c-1.7-1.6-3.3-3.2-5-4.6V43.2z"/>
	<path class="st1" d="M0,62.1c0.1,0.1,0.2,0.2,0.3,0.4v-0.7C0.2,61.9,0.1,62,0,62.1z"/>
	<path class="st1" d="M70.9,10.9c0.5-0.5,0-2.6,0-4.3c0-1.8-0.5-4.6-0.5-4.6c-8.8,6.1-31.5,17.6-57.2,44.9c1.5,1.6,3,3.2,4.4,4.8
		C41.6,27.9,70.5,11.3,70.9,10.9z"/>
	<path class="st1" d="M0.3,61.8v0.7c1.2,1.5,2.4,3,3.6,4.6c0.2-0.2,0.3-0.4,0.5-0.6c2.7-3.5,5.7-6.9,8.8-10.2
		c-1.4-1.6-2.9-3.1-4.4-4.6C6,54.9,3.1,58.2,0.3,61.8z"/>
	<path class="st1" d="M13.2,56.3c1.5-1.6,3-3.1,4.5-4.6c-1.5-1.7-3-3.3-4.4-4.8c-1.5,1.6-2.9,3.2-4.4,4.8
		C10.3,53.2,11.8,54.8,13.2,56.3z"/>
	<path class="st1" d="M0.3,71.6c1.4-1.7,2.6-3.2,3.6-4.5c-1.2-1.6-2.4-3.1-3.6-4.6V71.6z"/>
</g>
</svg>
