<?xml version="1.0" encoding="utf-8"?>
<!-- Generator: Adobe Illustrator 21.0.0, SVG Export Plug-In . SVG Version: 6.00 Build 0)  -->
<svg version="1.1" id="Capa_1" xmlns="http://www.w3.org/2000/svg" xmlns:xlink="http://www.w3.org/1999/xlink" x="0px" y="0px"
	 viewBox="0 0 168.3 315.4" style="enable-background:new 0 0 168.3 315.4;" xml:space="preserve">
<style type="text/css">
	.st0{clip-path:url(#SVGID_2_);}
	.st1{fill:#C2C247;}
	.st2{fill:#00504C;}
	.st3{opacity:0.4;fill:url(#SVGID_3_);}
	.st4{fill:none;}
	.st5{fill:#F5F5F5;}
	.st6{opacity:0.2;}
	.st7{opacity:0.1;fill-rule:evenodd;clip-rule:evenodd;fill:#C2C247;}
	.st8{opacity:0.8;}
	.st9{fill:#FFFFFF;}
	.st10{clip-path:url(#SVGID_5_);}
	.st11{clip-path:url(#SVGID_7_);}
	.st12{fill:#808080;}
	.st13{opacity:8.000000e-02;}
	.st14{clip-path:url(#SVGID_9_);}
	.st15{clip-path:url(#SVGID_11_);}
	.st16{clip-path:url(#SVGID_87_);}
	.st17{clip-path:url(#SVGID_95_);}
	.st18{fill-rule:evenodd;clip-rule:evenodd;fill:#C2C247;}
	.st19{fill:#4A8E82;}
	.st20{fill:#A8A810;}
	.st21{opacity:0.1;fill:#00504C;}
	.st22{clip-path:url(#SVGID_104_);}
	.st23{clip-path:url(#SVGID_105_);}
	.st24{clip-path:url(#SVGID_106_);}
	.st25{clip-path:url(#SVGID_107_);}
	.st26{clip-path:url(#SVGID_111_);}
	.st27{clip-path:url(#SVGID_113_);}
	.st28{clip-path:url(#SVGID_121_);}
	.st29{clip-path:url(#SVGID_123_);}
	.st30{clip-path:url(#SVGID_127_);}
	.st31{clip-path:url(#SVGID_129_);}
	.st32{clip-path:url(#SVGID_133_);}
	.st33{clip-path:url(#SVGID_135_);}
	.st34{opacity:5.000000e-02;}
	.st35{fill:#F0F0F0;}
	.st36{clip-path:url(#SVGID_139_);}
	.st37{clip-path:url(#SVGID_141_);}
	.st38{clip-path:url(#SVGID_145_);}
	.st39{clip-path:url(#SVGID_147_);}
	.st40{fill-rule:evenodd;clip-rule:evenodd;fill:#FFFFFF;}
	.st41{opacity:0.1;}
	.st42{fill:url(#SVGID_150_);}
	.st43{fill:#C8C8C8;}
	.st44{clip-path:url(#SVGID_152_);}
	.st45{clip-path:url(#SVGID_154_);}
	.st46{clip-path:url(#SVGID_155_);}
	.st47{clip-path:url(#SVGID_156_);}
	.st48{clip-path:url(#SVGID_157_);}
	.st49{clip-path:url(#SVGID_158_);}
	.st50{clip-path:url(#SVGID_160_);}
	.st51{clip-path:url(#SVGID_162_);}
	.st52{clip-path:url(#SVGID_170_);}
	.st53{clip-path:url(#SVGID_172_);}
	.st54{clip-path:url(#SVGID_176_);}
	.st55{clip-path:url(#SVGID_178_);}
	.st56{clip-path:url(#SVGID_182_);}
	.st57{clip-path:url(#SVGID_184_);}
	.st58{clip-path:url(#SVGID_188_);}
	.st59{clip-path:url(#SVGID_190_);}
	.st60{clip-path:url(#SVGID_258_);}
	.st61{clip-path:url(#SVGID_270_);}
	.st62{fill:#E6E6E6;}
	.st63{clip-path:url(#SVGID_276_);}
	.st64{clip-path:url(#SVGID_278_);}
	.st65{opacity:0.75;clip-path:url(#SVGID_286_);fill:#00504C;}
	.st66{clip-path:url(#SVGID_290_);}
	.st67{clip-path:url(#SVGID_292_);}
	.st68{clip-path:url(#SVGID_298_);}
	.st69{clip-path:url(#SVGID_300_);}
	.st70{fill:url(#SVGID_303_);}
	.st71{clip-path:url(#SVGID_305_);}
	.st72{clip-path:url(#SVGID_307_);}
	.st73{clip-path:url(#SVGID_311_);}
	.st74{clip-path:url(#SVGID_313_);}
	.st75{clip-path:url(#SVGID_314_);}
	.st76{clip-path:url(#SVGID_315_);}
	.st77{clip-path:url(#SVGID_316_);}
	.st78{clip-path:url(#SVGID_317_);}
	.st79{fill:url(#SVGID_318_);}
	.st80{fill:url(#SVGID_319_);}
	.st81{clip-path:url(#SVGID_348_);}
	.st82{clip-path:url(#SVGID_350_);}
	.st83{clip-path:url(#SVGID_355_);}
	.st84{clip-path:url(#SVGID_357_);}
	.st85{opacity:8.000000e-02;fill:#00504C;}
	.st86{opacity:8.000000e-02;fill:#C2C247;}
	.st87{clip-path:url(#SVGID_361_);}
	.st88{clip-path:url(#SVGID_364_);}
	.st89{opacity:0.75;clip-path:url(#SVGID_368_);fill:#00504C;}
	.st90{clip-path:url(#SVGID_371_);}
	.st91{clip-path:url(#SVGID_373_);}
	.st92{clip-path:url(#SVGID_377_);}
	.st93{clip-path:url(#SVGID_379_);}
	.st94{fill:url(#SVGID_382_);}
	.st95{clip-path:url(#SVGID_384_);}
	.st96{clip-path:url(#SVGID_386_);}
	.st97{fill:#F0F1F1;}
	.st98{clip-path:url(#SVGID_396_);}
	.st99{clip-path:url(#SVGID_398_);}
	.st100{opacity:0.2;fill:#3D3845;}
	.st101{clip-path:url(#SVGID_405_);}
	.st102{clip-path:url(#SVGID_407_);}
	.st103{clip-path:url(#SVGID_411_);}
	.st104{clip-path:url(#SVGID_415_);}
	.st105{clip-path:url(#SVGID_418_);}
	.st106{clip-path:url(#SVGID_427_);}
	.st107{clip-path:url(#SVGID_429_);}
	.st108{clip-path:url(#SVGID_433_);}
	.st109{clip-path:url(#SVGID_435_);}
	.st110{opacity:0.5;}
	.st111{clip-path:url(#SVGID_440_);}
	.st112{clip-path:url(#SVGID_444_);}
	.st113{clip-path:url(#SVGID_448_);}
	.st114{clip-path:url(#SVGID_450_);}
	.st115{clip-path:url(#SVGID_454_);}
	.st116{clip-path:url(#SVGID_456_);}
	.st117{fill:url(#SVGID_459_);}
	.st118{fill:url(#SVGID_460_);}
</style>
<g class="st13">
	<radialGradient id="SVGID_2_" cx="178.2169" cy="222.5576" r="50.7198" gradientUnits="userSpaceOnUse">
		<stop  offset="0" style="stop-color:#FFFFFF"/>
		<stop  offset="1" style="stop-color:#00504C"/>
	</radialGradient>
	<path style="fill:url(#SVGID_2_);" d="M167.3,185.6c-24.8,0-44.9,20.1-44.9,44.9c0,24.8,20.1,44.9,44.9,44.9c0.4,0,0.7,0,1,0v-89.8
		C168,185.6,167.6,185.6,167.3,185.6z"/>
	<path class="st2" d="M166.6,311.6c-71.1,0-131.9-41.3-163-110.9c-0.4-1-1.5-1.4-2.5-1c-1,0.4-1.4,1.5-1,2.5
		c31.7,71,93.8,113.2,166.4,113.2c0.6,0,1.2,0,1.7,0v-3.8C167.8,311.6,167.2,311.6,166.6,311.6z"/>
	<path class="st2" d="M120.4,0c0,0-0.5,2.8-0.5,4.6c0,1.8-0.5,3.8,0,4.3c0.4,0.4,22,12.5,42.9,29.9c1.8-1.7,3.5-3.3,5.3-4.9
		C146.4,14.4,127.9,5.2,120.4,0z"/>
	<path class="st2" d="M159.3,51.7c-1.5,1.5-3,3-4.4,4.6c3.1,3.3,6,6.7,8.8,10.2c0.2,0.2,0.3,0.4,0.5,0.6c1.3-1.7,2.6-3.4,3.9-5
		C165.1,58.4,162.2,55,159.3,51.7z"/>
	<path class="st2" d="M97.6,1.9c0,0-0.5,2.8-0.5,4.6c0,1.8-0.5,3.8,0,4.3c0.4,0.4,29.4,17,53.3,40.8c1.5-1.7,3-3.3,4.4-4.8
		C129.1,19.6,106.4,8.1,97.6,1.9z"/>
	<path class="st1" d="M150.4,51.7C140.3,62.9,130,76.5,120.2,93c-52.3,87.3-50.3,186.2-50.3,186.2l1.3,0.3
		C78.5,134.8,135.7,80.1,149.2,63c1.8-2.3,3.7-4.5,5.7-6.7C153.4,54.7,151.9,53.2,150.4,51.7z"/>
	<path class="st1" d="M168,43.4c-1.7-1.5-3.5-3.1-5.3-4.5c-2.6,2.5-5.3,5.2-7.9,8c1.5,1.6,2.9,3.2,4.4,4.8
		C162.1,48.9,165,46.1,168,43.4z"/>
	<path class="st1" d="M168.3,43.2v-8.9c-0.1-0.1-0.2-0.2-0.3-0.3c-1.7,1.6-3.5,3.2-5.3,4.9c1.8,1.5,3.5,3,5.3,4.5
		C168.1,43.3,168.2,43.2,168.3,43.2z"/>
	<path class="st1" d="M154.8,46.9c-1.5,1.6-2.9,3.2-4.4,4.8c1.5,1.5,3,3.1,4.5,4.6c1.4-1.6,2.9-3.1,4.4-4.6
		C157.8,50.1,156.3,48.4,154.8,46.9z"/>
	<path class="st1" d="M145.3,95.1c-56.4,94.8-52.1,197.1-52.1,197.1l1.3,0.3C97.5,163.7,149,95.7,168,72c-1.5-1.9-2.8-3.5-3.9-4.9
		C157.9,75.4,151.5,84.6,145.3,95.1z"/>
	<path class="st1" d="M168.3,62.5c-0.1-0.1-0.2-0.2-0.3-0.4c-1.3,1.6-2.6,3.3-3.9,5c1.1,1.3,2.4,3,3.9,4.9c0.1-0.1,0.2-0.3,0.3-0.4
		V62.5z"/>
</g>
</svg>
