<?xml version="1.0" encoding="utf-8"?>
<!-- Generator: Adobe Illustrator 21.0.0, SVG Export Plug-In . SVG Version: 6.00 Build 0)  -->
<svg version="1.1" id="Capa_1" xmlns="http://www.w3.org/2000/svg" xmlns:xlink="http://www.w3.org/1999/xlink" x="0px" y="0px"
	 viewBox="0 0 101 69.8" style="enable-background:new 0 0 101 69.8;" xml:space="preserve">
<style type="text/css">
	.st0{clip-path:url(#SVGID_2_);}
	.st1{fill:#C2C247;}
	.st2{fill:#00504C;}
	.st3{opacity:0.4;fill:url(#SVGID_3_);}
	.st4{fill:none;}
	.st5{fill:#F5F5F5;}
	.st6{opacity:0.2;}
	.st7{opacity:0.1;fill-rule:evenodd;clip-rule:evenodd;fill:#C2C247;}
	.st8{opacity:0.8;}
	.st9{fill:#FFFFFF;}
	.st10{clip-path:url(#SVGID_5_);}
	.st11{clip-path:url(#SVGID_7_);}
	.st12{fill:#808080;}
	.st13{opacity:8.000000e-02;}
	.st14{clip-path:url(#SVGID_9_);}
	.st15{clip-path:url(#SVGID_11_);}
	.st16{clip-path:url(#SVGID_87_);}
	.st17{clip-path:url(#SVGID_89_);}
	.st18{clip-path:url(#SVGID_103_);}
	.st19{clip-path:url(#SVGID_105_);}
	.st20{fill-rule:evenodd;clip-rule:evenodd;fill:#C2C247;}
	.st21{fill:#4A8E82;}
	.st22{fill:#A8A810;}
	.st23{opacity:0.1;fill:#00504C;}
	.st24{clip-path:url(#SVGID_115_);}
	.st25{clip-path:url(#SVGID_117_);}
	.st26{clip-path:url(#SVGID_119_);}
	.st27{clip-path:url(#SVGID_121_);}
	.st28{clip-path:url(#SVGID_123_);}
	.st29{clip-path:url(#SVGID_125_);}
	.st30{clip-path:url(#SVGID_129_);}
	.st31{clip-path:url(#SVGID_131_);}
	.st32{clip-path:url(#SVGID_135_);}
	.st33{clip-path:url(#SVGID_137_);}
	.st34{clip-path:url(#SVGID_141_);}
	.st35{clip-path:url(#SVGID_143_);}
	.st36{opacity:5.000000e-02;}
	.st37{fill:#F0F0F0;}
	.st38{clip-path:url(#SVGID_147_);}
	.st39{clip-path:url(#SVGID_149_);}
	.st40{clip-path:url(#SVGID_153_);}
	.st41{clip-path:url(#SVGID_155_);}
	.st42{fill-rule:evenodd;clip-rule:evenodd;fill:#FFFFFF;}
	.st43{opacity:0.1;}
	.st44{fill:url(#SVGID_158_);}
	.st45{fill:#C8C8C8;}
	.st46{clip-path:url(#SVGID_160_);}
	.st47{clip-path:url(#SVGID_162_);}
	.st48{clip-path:url(#SVGID_164_);}
	.st49{clip-path:url(#SVGID_166_);}
	.st50{clip-path:url(#SVGID_168_);}
	.st51{clip-path:url(#SVGID_170_);}
	.st52{clip-path:url(#SVGID_172_);}
	.st53{clip-path:url(#SVGID_174_);}
	.st54{clip-path:url(#SVGID_178_);}
	.st55{clip-path:url(#SVGID_180_);}
	.st56{clip-path:url(#SVGID_184_);}
	.st57{clip-path:url(#SVGID_186_);}
	.st58{clip-path:url(#SVGID_190_);}
	.st59{clip-path:url(#SVGID_192_);}
	.st60{clip-path:url(#SVGID_196_);}
	.st61{clip-path:url(#SVGID_198_);}
	.st62{clip-path:url(#SVGID_274_);}
	.st63{clip-path:url(#SVGID_276_);}
	.st64{clip-path:url(#SVGID_290_);}
	.st65{clip-path:url(#SVGID_292_);}
	.st66{fill:#E6E6E6;}
	.st67{clip-path:url(#SVGID_300_);}
	.st68{clip-path:url(#SVGID_302_);}
	.st69{opacity:0.75;clip-path:url(#SVGID_306_);fill:#00504C;}
	.st70{clip-path:url(#SVGID_308_);}
	.st71{clip-path:url(#SVGID_310_);}
	.st72{clip-path:url(#SVGID_314_);}
	.st73{clip-path:url(#SVGID_316_);}
	.st74{fill:url(#SVGID_319_);}
	.st75{clip-path:url(#SVGID_321_);}
	.st76{clip-path:url(#SVGID_323_);}
	.st77{clip-path:url(#SVGID_327_);}
	.st78{clip-path:url(#SVGID_329_);}
	.st79{clip-path:url(#SVGID_331_);}
	.st80{clip-path:url(#SVGID_333_);}
	.st81{clip-path:url(#SVGID_335_);}
	.st82{clip-path:url(#SVGID_337_);}
	.st83{fill:url(#SVGID_338_);}
	.st84{fill:url(#SVGID_339_);}
	.st85{clip-path:url(#SVGID_365_);}
	.st86{clip-path:url(#SVGID_367_);}
	.st87{clip-path:url(#SVGID_373_);}
	.st88{clip-path:url(#SVGID_375_);}
	.st89{opacity:8.000000e-02;fill:#00504C;}
	.st90{opacity:8.000000e-02;fill:#C2C247;}
	.st91{clip-path:url(#SVGID_379_);}
	.st92{clip-path:url(#SVGID_381_);}
	.st93{opacity:0.75;clip-path:url(#SVGID_385_);fill:#00504C;}
	.st94{clip-path:url(#SVGID_387_);}
	.st95{clip-path:url(#SVGID_389_);}
	.st96{clip-path:url(#SVGID_393_);}
	.st97{clip-path:url(#SVGID_395_);}
	.st98{fill:url(#SVGID_398_);}
	.st99{clip-path:url(#SVGID_400_);}
	.st100{clip-path:url(#SVGID_402_);}
	.st101{fill:#F0F1F1;}
	.st102{clip-path:url(#SVGID_412_);}
	.st103{clip-path:url(#SVGID_414_);}
	.st104{opacity:0.2;fill:#3D3845;}
	.st105{clip-path:url(#SVGID_424_);}
	.st106{clip-path:url(#SVGID_426_);}
	.st107{clip-path:url(#SVGID_430_);}
	.st108{clip-path:url(#SVGID_434_);}
	.st109{clip-path:url(#SVGID_436_);}
	.st110{clip-path:url(#SVGID_446_);}
	.st111{clip-path:url(#SVGID_448_);}
	.st112{clip-path:url(#SVGID_452_);}
	.st113{clip-path:url(#SVGID_454_);}
	.st114{opacity:0.5;}
	.st115{clip-path:url(#SVGID_458_);}
	.st116{clip-path:url(#SVGID_460_);}
	.st117{clip-path:url(#SVGID_464_);}
	.st118{clip-path:url(#SVGID_466_);}
	.st119{clip-path:url(#SVGID_470_);}
	.st120{clip-path:url(#SVGID_472_);}
	.st121{fill:url(#SVGID_475_);}
	.st122{fill:url(#SVGID_476_);}
</style>
<g>
	<g>
		<path class="st2" d="M98.6,36.7c-0.7-1.4-15.5-25.8-15.8-26.4C80,5.8,75.2,3.1,70,3.1c-0.7,0-1.5,0.1-2.2,0.2c0,0,0,0,0,0
			C66.5,1.2,64.3,0,61.9,0C58.1,0,55,3.1,55,6.9V19H46V6.9C46,3.1,42.9,0,39.1,0c-2.4,0-4.6,1.2-5.9,3.3c-0.7-0.1-1.5-0.2-2.2-0.2
			c-5.3,0-10,2.7-12.8,7.2c0,0.1-0.2,0.2-2.9,4.9c-0.5,0.8-0.2,1.8,0.6,2.3c0.8,0.5,1.8,0.2,2.3-0.6c2.3-3.8,2.8-4.8,2.9-4.9
			c2.1-3.5,5.8-5.5,9.9-5.5c6.4,0,11.6,5.2,11.6,11.6v0v16.7c-4-6.6-11.3-11-19.6-11c-3.7,0-7.3,0.9-10.4,2.5
			c0.8-1.3,1.7-2.8,2.5-4.2c0.5-0.8,0.2-1.8-0.6-2.3s-1.8-0.2-2.3,0.6c-3.6,6-9.2,15.1-10,16.6c-1.4,3-2.2,6.4-2.2,9.9
			c0,12.7,10.3,23,23,23s23-10.3,23-23v-4.5H55v4.5c0,12.7,10.3,23,23,23c12.7,0,23-10.3,23-23C101,43.2,100.1,39.7,98.6,36.7z
			 M23,66.4c-10.8,0-19.6-8.8-19.6-19.6C3.4,36,12.2,27.2,23,27.2c10.8,0,19.6,8.8,19.6,19.6C42.6,57.6,33.8,66.4,23,66.4z
			 M42.6,8.7c-1.6-1.9-3.6-3.4-5.9-4.4c0.6-0.6,1.5-0.9,2.4-0.9c2,0,3.5,1.6,3.5,3.5V8.7z M46,32.5V22.4H55v10.1H46z M55,38.9H46
			v-3.1H55V38.9z M58.3,6.9c0-2,1.6-3.5,3.5-3.5c0.9,0,1.7,0.3,2.4,0.9c-2.3,1-4.3,2.5-5.9,4.4V6.9z M58.3,18.2L58.3,18.2L58.3,18.2
			c0-6.4,5.2-11.6,11.6-11.6c4.1,0,7.8,2.1,9.9,5.5c0.2,0.3,4.4,7.4,8.5,14.2c-3.1-1.6-6.7-2.5-10.4-2.5c-8.3,0-15.6,4.4-19.6,11
			V18.2z M78,66.4c-10.8,0-19.6-8.8-19.6-19.6c0-10.8,8.8-19.6,19.6-19.6c10.8,0,19.6,8.8,19.6,19.6C97.6,57.6,88.8,66.4,78,66.4z"
			/>
		<path class="st1" d="M90.6,40.5c-0.9,0.3-1.3,1.3-1,2.2c0.5,1.3,0.7,2.7,0.7,4.2c0,6.8-5.5,12.4-12.4,12.4
			c-6.8,0-12.4-5.5-12.4-12.4c0-6.8,5.5-12.4,12.4-12.4c3.4,0,6.7,1.4,9.1,3.9c0.6,0.7,1.7,0.7,2.4,0.1c0.7-0.6,0.7-1.7,0.1-2.4
			c-3-3.2-7.2-5-11.5-5c-8.7,0-15.7,7.1-15.7,15.7c0,8.7,7.1,15.7,15.7,15.7s15.7-7.1,15.7-15.7c0-1.8-0.3-3.6-0.9-5.3
			C92.5,40.6,91.5,40.2,90.6,40.5z"/>
		<path class="st1" d="M23,31.1c-8.7,0-15.7,7.1-15.7,15.7c0,8.7,7.1,15.7,15.7,15.7c8.7,0,15.7-7.1,15.7-15.7
			C38.8,38.1,31.7,31.1,23,31.1z M23,59.2c-6.8,0-12.4-5.5-12.4-12.4c0-6.8,5.5-12.4,12.4-12.4c6.8,0,12.4,5.5,12.4,12.4
			C35.4,53.6,29.8,59.2,23,59.2z"/>
	</g>
</g>
</svg>
