<?xml version="1.0" encoding="utf-8"?>
<!-- Generator: Adobe Illustrator 21.0.0, SVG Export Plug-In . SVG Version: 6.00 Build 0)  -->
<svg version="1.1" id="Capa_1" xmlns="http://www.w3.org/2000/svg" xmlns:xlink="http://www.w3.org/1999/xlink" x="0px" y="0px"
	 viewBox="0 0 61.7 61.7" style="enable-background:new 0 0 61.7 61.7;" xml:space="preserve">
<style type="text/css">
	.st0{clip-path:url(#SVGID_2_);}
	.st1{fill:#C2C247;}
	.st2{fill:#00504C;}
	.st3{opacity:0.4;fill:url(#SVGID_3_);}
	.st4{fill:none;}
	.st5{fill:#F5F5F5;}
	.st6{opacity:0.2;}
	.st7{opacity:0.1;fill-rule:evenodd;clip-rule:evenodd;fill:#C2C247;}
	.st8{opacity:0.8;}
	.st9{fill:#FFFFFF;}
	.st10{clip-path:url(#SVGID_5_);}
	.st11{clip-path:url(#SVGID_7_);}
	.st12{fill:#808080;}
	.st13{opacity:8.000000e-02;}
	.st14{clip-path:url(#SVGID_9_);}
	.st15{clip-path:url(#SVGID_11_);}
	.st16{clip-path:url(#SVGID_87_);}
	.st17{clip-path:url(#SVGID_89_);}
	.st18{clip-path:url(#SVGID_103_);}
	.st19{clip-path:url(#SVGID_105_);}
	.st20{fill-rule:evenodd;clip-rule:evenodd;fill:#C2C247;}
	.st21{fill:#4A8E82;}
	.st22{fill:#A8A810;}
	.st23{opacity:0.1;fill:#00504C;}
	.st24{clip-path:url(#SVGID_115_);}
	.st25{clip-path:url(#SVGID_117_);}
	.st26{clip-path:url(#SVGID_119_);}
	.st27{clip-path:url(#SVGID_121_);}
	.st28{clip-path:url(#SVGID_123_);}
	.st29{clip-path:url(#SVGID_125_);}
	.st30{clip-path:url(#SVGID_129_);}
	.st31{clip-path:url(#SVGID_131_);}
	.st32{clip-path:url(#SVGID_135_);}
	.st33{clip-path:url(#SVGID_137_);}
	.st34{clip-path:url(#SVGID_141_);}
	.st35{clip-path:url(#SVGID_143_);}
	.st36{opacity:5.000000e-02;}
	.st37{fill:#F0F0F0;}
	.st38{clip-path:url(#SVGID_147_);}
	.st39{clip-path:url(#SVGID_149_);}
	.st40{clip-path:url(#SVGID_153_);}
	.st41{clip-path:url(#SVGID_155_);}
	.st42{fill-rule:evenodd;clip-rule:evenodd;fill:#FFFFFF;}
	.st43{opacity:0.1;}
	.st44{fill:url(#SVGID_158_);}
	.st45{fill:#C8C8C8;}
	.st46{clip-path:url(#SVGID_160_);}
	.st47{clip-path:url(#SVGID_162_);}
	.st48{clip-path:url(#SVGID_164_);}
	.st49{clip-path:url(#SVGID_166_);}
	.st50{clip-path:url(#SVGID_168_);}
	.st51{clip-path:url(#SVGID_170_);}
	.st52{clip-path:url(#SVGID_172_);}
	.st53{clip-path:url(#SVGID_174_);}
	.st54{clip-path:url(#SVGID_178_);}
	.st55{clip-path:url(#SVGID_180_);}
	.st56{clip-path:url(#SVGID_184_);}
	.st57{clip-path:url(#SVGID_186_);}
	.st58{clip-path:url(#SVGID_190_);}
	.st59{clip-path:url(#SVGID_192_);}
	.st60{clip-path:url(#SVGID_196_);}
	.st61{clip-path:url(#SVGID_198_);}
	.st62{clip-path:url(#SVGID_274_);}
	.st63{clip-path:url(#SVGID_276_);}
	.st64{clip-path:url(#SVGID_290_);}
	.st65{clip-path:url(#SVGID_292_);}
	.st66{fill:#E6E6E6;}
	.st67{clip-path:url(#SVGID_300_);}
	.st68{clip-path:url(#SVGID_302_);}
	.st69{opacity:0.75;clip-path:url(#SVGID_306_);fill:#00504C;}
	.st70{clip-path:url(#SVGID_308_);}
	.st71{clip-path:url(#SVGID_310_);}
	.st72{clip-path:url(#SVGID_314_);}
	.st73{clip-path:url(#SVGID_316_);}
	.st74{fill:url(#SVGID_319_);}
	.st75{clip-path:url(#SVGID_321_);}
	.st76{clip-path:url(#SVGID_323_);}
	.st77{clip-path:url(#SVGID_327_);}
	.st78{clip-path:url(#SVGID_329_);}
	.st79{clip-path:url(#SVGID_331_);}
	.st80{clip-path:url(#SVGID_333_);}
	.st81{clip-path:url(#SVGID_335_);}
	.st82{clip-path:url(#SVGID_337_);}
	.st83{fill:url(#SVGID_338_);}
	.st84{fill:url(#SVGID_339_);}
	.st85{clip-path:url(#SVGID_365_);}
	.st86{clip-path:url(#SVGID_367_);}
	.st87{clip-path:url(#SVGID_373_);}
	.st88{clip-path:url(#SVGID_375_);}
	.st89{opacity:8.000000e-02;fill:#00504C;}
	.st90{opacity:8.000000e-02;fill:#C2C247;}
	.st91{clip-path:url(#SVGID_379_);}
	.st92{clip-path:url(#SVGID_381_);}
	.st93{opacity:0.75;clip-path:url(#SVGID_385_);fill:#00504C;}
	.st94{clip-path:url(#SVGID_387_);}
	.st95{clip-path:url(#SVGID_389_);}
	.st96{clip-path:url(#SVGID_393_);}
	.st97{clip-path:url(#SVGID_395_);}
	.st98{fill:url(#SVGID_398_);}
	.st99{clip-path:url(#SVGID_400_);}
	.st100{clip-path:url(#SVGID_402_);}
	.st101{fill:#F0F1F1;}
	.st102{clip-path:url(#SVGID_412_);}
	.st103{clip-path:url(#SVGID_414_);}
	.st104{opacity:0.2;fill:#3D3845;}
	.st105{clip-path:url(#SVGID_424_);}
	.st106{clip-path:url(#SVGID_426_);}
	.st107{clip-path:url(#SVGID_430_);}
	.st108{clip-path:url(#SVGID_434_);}
	.st109{clip-path:url(#SVGID_436_);}
	.st110{clip-path:url(#SVGID_446_);}
	.st111{clip-path:url(#SVGID_448_);}
	.st112{clip-path:url(#SVGID_452_);}
	.st113{clip-path:url(#SVGID_454_);}
	.st114{opacity:0.5;}
	.st115{clip-path:url(#SVGID_458_);}
	.st116{clip-path:url(#SVGID_460_);}
	.st117{clip-path:url(#SVGID_464_);}
	.st118{clip-path:url(#SVGID_466_);}
	.st119{clip-path:url(#SVGID_470_);}
	.st120{clip-path:url(#SVGID_472_);}
	.st121{fill:url(#SVGID_475_);}
	.st122{fill:url(#SVGID_476_);}
</style>
<g>
	<g>
		<g>
			<path class="st1" d="M10.3,0h41C57,0,61.7,4.6,61.7,10.3v41c0,5.7-4.6,10.3-10.3,10.3h-41C4.6,61.7,0,57,0,51.3v-41
				C0,4.6,4.6,0,10.3,0z"/>
		</g>
		<g>
			<path class="st9" d="M25.2,22.7c0.4,0,0.8,0.2,1,0.2s0.4,0.4,0.4,0.4c0.4,1.2,1,2.2,1.4,3.4c0.2,0.6-0.2,1.2-1,2.2
				c-0.2,0.4-0.4,0.6-0.2,1c1.4,2.6,3.4,4.2,6,5.2c0.2,0,0.2,0.2,0.4,0.2c0.2,0,0.4-0.2,0.6-0.4c1.2-1.4,1.4-2,2-2
				c0.2,0,0.2,0,0.4,0.2c3.6,1.6,3.8,1.8,3.8,2.2c0.2,2.8-2.4,4-4,4c-0.2,0-0.2,0-0.2,0c-3.4-0.2-9-2.8-12.6-9.4
				c-1.4-2.2-1-5,0.8-6.8C24.4,22.7,24.8,22.7,25.2,22.7"/>
			<path class="st9" d="M48.4,27.5c1.6,9.8-4.8,19-14.4,20.6c-1,0.2-2,0.2-3.2,0.2c-2.8,0-5.4-0.6-7.8-2c-0.2-0.2-0.4-0.2-0.8-0.2
				c-0.2,0-0.2,0-0.4,0c-4.6,1.2-7.8,2-8.8,2.2c0.2-0.8,0.4-1.4,0.6-2.2c0.8-1.8,1.4-4,2-6c0-0.2,0-0.4-0.2-0.8
				c-5.2-10.4,0.4-23,11.8-25.6c1.4-0.4,2.8-0.4,4.2-0.4C40,13.1,47.2,19.5,48.4,27.5 M33.4,45.5c8-1.4,13.6-8.8,12.4-16.8
				c-1.2-7.4-7.4-12.6-14.6-12.6c-0.8,0-1.8,0.2-2.8,0.2c-9.6,1.8-15,12.8-10.2,21.8c0.6,1,0.8,1.8,0.4,2.8c-0.4,1.2-0.8,2.6-1,4
				c1.8-0.4,3.4-0.8,5-1.4c0.2,0,0.2,0,0.4,0c0.2,0,0.4,0.2,0.8,0.2c2.2,1.4,4.8,2,7.4,2C31.8,45.7,32.6,45.5,33.4,45.5"/>
		</g>
	</g>
</g>
</svg>
